<svg width="86" height="17" viewBox="0 0 86 17" fill="none" xmlns="http://www.w3.org/2000/svg">
<path d="M28.4512 3.96094H28.4799C28.652 3.96094 28.7523 4.08997 28.7523 4.262V11.9893C28.7523 12.1184 28.652 12.2617 28.4799 12.2617C28.3509 12.2617 28.2075 12.1614 28.2075 11.9893V4.23333C28.2075 4.08997 28.3079 3.96094 28.4512 3.96094ZM21.0967 4.36236H26.1574C26.3294 4.36236 26.4298 4.5344 26.4298 4.66342C26.4298 4.79245 26.3294 4.93581 26.1574 4.93581H21.369V8.16151H25.6986C25.8277 8.16151 25.971 8.26187 25.971 8.4339C25.971 8.56293 25.8707 8.7063 25.6986 8.7063H21.4121V12.0323C21.3834 12.2044 21.24 12.3334 21.0823 12.3334C20.9103 12.3334 20.7812 12.2044 20.7812 12.0323V4.67776H20.8099C20.7956 4.49139 20.939 4.36236 21.0967 4.36236ZM35.7915 6.75654C35.7915 6.5845 35.6625 6.48415 35.5191 6.48415C35.3471 6.48415 35.2467 6.61318 35.2467 6.75654V9.98224C35.2467 11.0861 34.3435 11.9463 33.2396 11.9177C32.064 11.9177 31.3902 11.1578 31.3902 9.95357V6.75654C31.3902 6.5845 31.2612 6.48415 31.1178 6.48415C30.9888 6.48415 30.8454 6.61318 30.8454 6.75654V10.0539C30.8454 11.4159 31.7199 12.4194 33.1536 12.4194C34.0281 12.4481 34.8596 11.9893 35.261 11.2152V12.0467C35.261 12.2187 35.3901 12.3191 35.5334 12.3191C35.7055 12.3191 35.8058 12.19 35.8058 12.0467H35.7772V6.75654H35.7915ZM40.8809 6.79955C40.8809 6.92858 40.7519 7.02893 40.6085 7.02893H38.7591V10.7277C38.7591 11.5592 39.2322 11.8603 39.9347 11.8603C40.1641 11.8603 40.4078 11.8316 40.6085 11.76C40.7376 11.76 40.8379 11.8603 40.8379 11.9893C40.8379 12.0897 40.7662 12.19 40.6659 12.2187C40.3935 12.3191 40.0924 12.3477 39.8344 12.3477C38.9598 12.3477 38.2287 11.846 38.2287 10.7851V7.02893H37.5979C37.4689 7.02893 37.3255 6.8999 37.3255 6.75654C37.3255 6.62751 37.4545 6.52716 37.5979 6.52716H38.2287V4.93581C38.2287 4.80679 38.329 4.66342 38.4581 4.66342H38.4867C38.6158 4.66342 38.7591 4.79245 38.7591 4.93581V6.52716H40.6085C40.7519 6.52716 40.8809 6.65619 40.8809 6.79955ZM45.1819 7.02893C45.3109 7.02893 45.4542 6.92858 45.4542 6.79955C45.4542 6.67052 45.3252 6.52716 45.1819 6.52716H43.3325V4.93581C43.3325 4.80679 43.2034 4.66342 43.0601 4.66342H43.0314C42.9024 4.66342 42.802 4.79245 42.802 4.93581V6.52716H42.1712C42.0422 6.52716 41.8988 6.62751 41.8988 6.75654C41.8988 6.88557 42.0278 7.02893 42.1712 7.02893H42.802V10.7851C42.802 11.846 43.5332 12.3477 44.4077 12.3477C44.6801 12.3477 44.9811 12.3191 45.2392 12.2187C45.3396 12.19 45.4112 12.0897 45.4112 11.9893C45.4112 11.8603 45.3109 11.76 45.1819 11.76C44.9811 11.8316 44.7518 11.8603 44.508 11.8603C43.8056 11.8603 43.3325 11.5592 43.3325 10.7277V7.02893H45.1819ZM46.4578 9.39444C46.4578 7.70274 47.6334 6.36946 49.2104 6.36946C50.8591 6.36946 51.8913 7.70274 51.8913 9.39444C51.8913 9.52347 51.7623 9.66684 51.6189 9.66684H47.0599C47.1603 11.1005 48.2068 11.932 49.3394 11.932C50.0419 11.932 50.7444 11.6309 51.2175 11.1292C51.2462 11.1005 51.3178 11.0575 51.3895 11.0575C51.5186 11.0575 51.6619 11.1865 51.6619 11.3299C51.6619 11.4015 51.6332 11.4589 51.5616 11.5306C50.9881 12.1614 50.1566 12.4911 49.3107 12.4624C47.7624 12.4624 46.4578 11.2582 46.4578 9.43745V9.39444ZM54.0704 8.19018C54.4432 7.22964 55.3464 6.52716 56.3786 6.45547C56.5506 6.45547 56.6797 6.58451 56.6797 6.78521C56.6797 6.91424 56.5793 7.08628 56.4073 7.08628H56.3786C55.1313 7.21531 54.0704 8.1185 54.0704 9.98224V12.1184C54.0418 12.2904 53.9414 12.3908 53.7694 12.3908C53.6403 12.3908 53.497 12.2617 53.497 12.1184V6.78521C53.5257 6.61318 53.626 6.51282 53.798 6.51282C53.9271 6.51282 54.0704 6.64185 54.0704 6.78521V8.19018ZM65.5252 6.15441C65.1238 6.15441 64.7941 6.4268 64.6937 6.81389L63.7189 9.91055L62.744 6.81389C62.6436 6.41247 62.2709 6.1114 61.8408 6.1114H61.7404C61.3103 6.1114 60.9376 6.38379 60.8372 6.81389L59.8624 9.88188L58.9305 6.78521C58.8301 6.41247 58.5004 6.12574 58.099 6.12574H58.0703C57.6402 6.12574 57.2961 6.49849 57.2961 6.92858C57.2961 7.05761 57.3248 7.20097 57.3678 7.33L58.8731 11.6309C58.9735 12.061 59.3462 12.3621 59.805 12.3908H59.8767C60.3068 12.3908 60.6795 12.0897 60.8086 11.6596L61.7834 8.59161L62.7583 11.6596C62.8587 12.0897 63.2601 12.3908 63.6902 12.3908H63.7619C64.235 12.3908 64.6364 12.0897 64.7367 11.6309L66.2421 7.30133C66.2707 7.20097 66.3137 7.07194 66.3137 6.97159V6.94292C66.2994 6.49849 65.9697 6.15441 65.5252 6.15441ZM67.8764 6.45547C68.5072 6.25476 69.1524 6.12574 69.8262 6.15441C70.758 6.15441 71.4319 6.4268 71.9336 6.8569C72.4067 7.38734 72.6361 8.08983 72.6074 8.79231V11.5162C72.6074 11.9893 72.2347 12.3477 71.7759 12.3477C71.3458 12.3477 70.9731 12.0467 70.9444 11.6166C70.4713 12.1184 69.7975 12.4194 69.095 12.3764C67.9911 12.3764 67.0162 11.7169 67.0162 10.5127C67.0162 9.1794 68.0198 8.54859 69.4678 8.54859C69.9695 8.54859 70.4713 8.62028 70.9444 8.77798V8.67762C70.9444 7.94646 70.5143 7.57372 69.6398 7.57372C69.2384 7.57372 68.837 7.60239 68.4355 7.74575C68.3639 7.77443 68.2635 7.77443 68.2062 7.77443C67.8047 7.8031 67.475 7.50203 67.475 7.11495C67.4463 6.82822 67.604 6.55583 67.8764 6.45547ZM77.7686 6.72787C77.8689 6.35512 78.1987 6.12574 78.5714 6.12574C79.0445 6.12574 79.4029 6.49849 79.4029 6.92858V6.95725C79.4029 7.08628 79.3742 7.22964 79.3026 7.35867L77.4962 11.6596C77.3241 12.0897 76.9227 12.3621 76.4926 12.3908H76.3923C75.9192 12.3621 75.5607 12.061 75.4174 11.6309L73.5393 7.33C73.4676 7.20097 73.439 7.05761 73.439 6.92858C73.4676 6.45548 73.8404 6.12574 74.2705 6.12574C74.6719 6.12574 75.0016 6.39813 75.102 6.75654L76.4066 10.2546L77.7686 6.72787ZM80.0911 9.52347C80.1627 11.1865 81.5964 12.4911 83.2737 12.3908C84.0479 12.3908 84.7791 12.1614 85.3812 11.6596C85.5532 11.5306 85.6106 11.3585 85.6106 11.1578V11.1292C85.6106 10.7564 85.3095 10.4697 84.9368 10.4697C84.8077 10.4697 84.6357 10.4983 84.5354 10.5987C84.1626 10.8711 83.7325 11.0288 83.2881 11.0001C82.5569 11.0288 81.9118 10.527 81.8114 9.79586H85.2665C85.6966 9.76719 86.0407 9.39444 85.9977 8.96435V8.83532C85.9977 7.33 84.6931 6.06839 83.0874 6.1114C81.3097 6.1114 80.0624 7.54504 80.0624 9.27975V9.52347H80.0911Z" fill="#10112B"/>
<path d="M47.0195 9.12223C47.1199 7.86062 48.0231 6.88574 49.17 6.88574C50.4746 6.88574 51.1771 7.94664 51.2488 9.12223H47.0195ZM70.9614 10.1258C70.9614 10.7853 70.3879 11.1867 69.5851 11.158C69.0546 11.158 68.6532 10.8856 68.6532 10.4268V10.3982C68.6532 9.8964 69.1263 9.56666 69.8575 9.56666C70.2302 9.56666 70.6317 9.66702 70.9614 9.79604V10.1258ZM83.1044 7.48787C82.4019 7.48787 81.9288 7.98965 81.7997 8.79249H84.3803C84.2799 8.01832 83.8068 7.48787 83.1044 7.48787Z" fill="white"/>
<path d="M12.1251 0.132989C19.6661 -0.999589 14.8347 5.42314 12.4979 7.22953C14.1036 8.46246 15.7523 10.1972 16.4547 12.1613C17.7594 15.7597 14.548 16.2902 12.1251 15.387C9.4729 14.4551 7.13606 12.4623 5.58772 10.1255C5.15763 10.1255 4.68453 10.0538 4.2401 9.92478C5.11462 12.3906 5.48737 14.9139 5.24365 16.9783C5.24365 12.8207 3.26522 8.69184 0.412273 5.2511C-0.591277 4.04684 0.440945 3.15798 1.34414 4.31923C1.96061 5.16508 2.51973 6.0396 3.0215 6.9428C4.01072 3.5594 8.82776 0.606092 12.1251 0.132989ZM11.0499 6.25465C12.5266 5.35145 17.0139 0.53441 12.8276 0.964503C10.4191 1.2369 7.49447 3.45904 6.29021 4.89269C7.96757 4.69198 9.67361 5.42313 11.0499 6.25465ZM6.89234 9.99646C8.23996 11.5018 10.075 12.9641 12.0535 13.4945C13.2004 13.7956 14.462 13.6666 14.0032 12.0322C13.5301 10.5269 12.3258 9.20795 11.1503 8.2044C10.8205 8.43379 10.4478 8.67751 10.075 8.83521C9.07148 9.39433 7.99625 9.79575 6.89234 9.99646Z" fill="#EBA12A"/>
<path d="M6.24632 5.95341C7.39324 5.85305 8.62617 6.45518 9.57237 7.05731C8.66918 7.4874 7.66563 7.75979 6.61907 7.81714C5.08507 7.83148 4.76967 6.09677 6.24632 5.95341Z" fill="white"/>
</svg>
