<svg width="71" height="13" viewBox="0 0 71 13" fill="none" xmlns="http://www.w3.org/2000/svg">
<path d="M9.98775 1.19312H0.584763C0.268991 1.19312 0 1.46211 0 1.78957V2.85384C0 3.18131 0.268991 3.4503 0.584763 3.4503H9.98775C10.3152 3.4503 10.5725 3.18131 10.5842 2.85384V1.80127C10.5842 1.46211 10.3152 1.19312 9.98775 1.19312ZM9.98775 7.09923H0.584763C0.432724 7.09923 0.280686 7.15771 0.175429 7.27466C0.0584763 7.39161 0 7.53195 0 7.69568V8.75996C0 9.08742 0.268991 9.35641 0.584763 9.35641H9.98775C10.3152 9.35641 10.5725 9.09912 10.5842 8.75996V7.69568C10.5725 7.35652 10.3152 7.09923 9.98775 7.09923ZM5.88271 10.0464H0.584763C0.432724 10.0464 0.280686 10.1049 0.175429 10.2219C0.0701715 10.3388 0 10.4792 0 10.6429V11.7072C0 12.0346 0.268991 12.3036 0.584763 12.3036H5.87102C6.19848 12.3036 6.45578 12.0346 6.45578 11.7189V10.6546C6.46748 10.3037 6.21018 10.0347 5.88271 10.0464ZM10.5842 4.14032H0.584763C0.432724 4.14032 0.280686 4.1988 0.175429 4.31575C0.0701715 4.4327 0 4.57305 0 4.73678V5.80105C0 6.12852 0.268991 6.39751 0.584763 6.39751H10.5725C10.9 6.39751 11.1573 6.12852 11.1573 5.80105V4.73678C11.169 4.40932 10.9 4.15202 10.5842 4.14032Z" fill="#00C3F7"/>
<path d="M21.5174 3.57875C21.225 3.27467 20.8858 3.04077 20.4999 2.87703C20.114 2.7133 19.7046 2.63143 19.2836 2.63143C18.8743 2.61974 18.4766 2.7133 18.1024 2.88873C17.8568 3.00568 17.6346 3.16941 17.4474 3.36823V3.18111C17.4474 3.08755 17.4124 2.99398 17.3539 2.92381C17.2954 2.85364 17.2018 2.80686 17.0966 2.80686H15.7984C15.7048 2.80686 15.6113 2.84195 15.5528 2.92381C15.4826 2.99398 15.4476 3.08755 15.4592 3.18111V11.9292C15.4592 12.0227 15.4943 12.1163 15.5528 12.1865C15.623 12.2566 15.7048 12.2917 15.7984 12.2917H17.1317C17.2252 12.2917 17.3071 12.2566 17.3773 12.1865C17.4474 12.128 17.4942 12.0344 17.4825 11.9292V8.93517C17.6696 9.14569 17.9152 9.29772 18.1842 9.39129C18.5351 9.51993 18.8977 9.59011 19.2719 9.59011C19.6929 9.59011 20.114 9.50824 20.4999 9.34451C20.8858 9.18077 21.2367 8.94687 21.5291 8.64279C21.8332 8.32702 22.0671 7.95277 22.2308 7.54344C22.4179 7.08732 22.4998 6.59612 22.4881 6.10492C22.4998 5.61372 22.4062 5.12252 22.2308 4.65471C22.0554 4.26877 21.8215 3.89452 21.5174 3.57875ZM20.3245 6.74816C20.2543 6.93529 20.149 7.09902 20.0087 7.25106C19.7397 7.54344 19.3538 7.70717 18.9561 7.70717C18.7573 7.70717 18.5585 7.67208 18.3714 7.57852C18.1959 7.49666 18.0322 7.3914 17.8919 7.25106C17.7515 7.11071 17.6463 6.93529 17.5761 6.74816C17.424 6.35052 17.424 5.9178 17.5761 5.52016C17.6463 5.33304 17.7632 5.1693 17.8919 5.02896C18.0322 4.88862 18.1959 4.77166 18.3714 4.6898C18.5585 4.60793 18.7573 4.56115 18.9561 4.56115C19.1666 4.56115 19.3538 4.59623 19.5526 4.6898C19.728 4.77166 19.8917 4.87692 20.0204 5.01726C20.1607 5.15761 20.2543 5.32134 20.3362 5.50846C20.4765 5.9178 20.4648 6.35052 20.3245 6.74816ZM29.6339 2.81856H28.3123C28.2188 2.81856 28.1252 2.85364 28.0667 2.92381C27.9966 2.99398 27.9615 3.08755 27.9615 3.1928V3.35654C27.7977 3.15772 27.5872 3.00568 27.365 2.90042C27.0025 2.72499 26.6048 2.64313 26.2072 2.64313C25.3534 2.64313 24.5465 2.98229 23.9383 3.57875C23.6225 3.89452 23.3769 4.26877 23.2132 4.6781C23.0261 5.13422 22.9325 5.62542 22.9442 6.12831C22.9325 6.61951 23.0261 7.11071 23.2132 7.57852C23.3886 7.98786 23.6225 8.36211 23.9383 8.67788C24.5348 9.28603 25.3534 9.62519 26.1955 9.62519C26.5931 9.63689 26.9908 9.54333 27.3533 9.3679C27.5755 9.25095 27.7977 9.09891 27.9615 8.91178V9.08721C27.9615 9.18077 27.9966 9.27433 28.0667 9.34451C28.1369 9.40298 28.2188 9.44976 28.3123 9.44976H29.6339C29.7274 9.44976 29.821 9.41468 29.8795 9.34451C29.9497 9.27433 29.9847 9.18077 29.9847 9.08721V3.2045C29.9847 3.11094 29.9497 3.01737 29.8912 2.9472C29.821 2.86534 29.7274 2.81856 29.6339 2.81856ZM27.8445 6.74816C27.7743 6.93529 27.6691 7.09902 27.5287 7.25106C27.3884 7.3914 27.2364 7.50835 27.0609 7.59022C26.6867 7.76565 26.254 7.76565 25.8797 7.59022C25.7043 7.50835 25.5406 7.3914 25.4002 7.25106C25.2599 7.11071 25.1546 6.93529 25.0844 6.74816C24.9441 6.35052 24.9441 5.9178 25.0844 5.52016C25.1546 5.33304 25.2599 5.181 25.4002 5.02896C25.5406 4.88862 25.6926 4.77166 25.8797 4.6898C26.254 4.51437 26.6867 4.51437 27.0492 4.6898C27.2247 4.77166 27.3884 4.87692 27.517 5.01726C27.6457 5.15761 27.751 5.32134 27.8328 5.50846C27.9966 5.9178 27.9966 6.35052 27.8445 6.74816ZM42.8027 5.95288C42.6156 5.78915 42.3934 5.64881 42.1595 5.55524C41.9139 5.44999 41.6449 5.37982 41.3876 5.32134L40.3818 5.12252C40.1245 5.07574 39.9374 5.00557 39.8438 4.9237C39.762 4.86523 39.7035 4.77166 39.7035 4.66641C39.7035 4.56115 39.762 4.46759 39.8906 4.38572C40.066 4.29216 40.2532 4.24538 40.452 4.25707C40.7093 4.25707 40.9666 4.31555 41.2005 4.40911C41.4344 4.51437 41.6566 4.61963 41.8671 4.75997C42.1595 4.94709 42.4168 4.91201 42.5922 4.70149L43.0717 4.15181C43.1653 4.05825 43.2121 3.9413 43.2238 3.81265C43.2121 3.67231 43.1419 3.55536 43.0366 3.4618C42.8378 3.28637 42.5104 3.09924 42.0776 2.91212C41.6449 2.72499 41.0952 2.63143 40.452 2.63143C40.0544 2.61974 39.6684 2.67821 39.2942 2.79516C38.9784 2.90042 38.6743 3.05246 38.4053 3.25128C38.1597 3.4384 37.9726 3.67231 37.8323 3.953C37.7036 4.22199 37.6334 4.51437 37.6334 4.80675C37.6334 5.35643 37.7972 5.80084 38.1246 6.12831C38.4521 6.45578 38.8848 6.67799 39.4228 6.78325L40.4754 7.01715C40.6976 7.05224 40.9315 7.12241 41.142 7.22766C41.259 7.27445 41.3291 7.3914 41.3291 7.52005C41.3291 7.637 41.2707 7.74226 41.142 7.83582C41.0134 7.92938 40.8029 7.98786 40.5222 7.98786C40.2415 7.98786 39.9491 7.92938 39.6918 7.80073C39.4462 7.68378 39.224 7.53174 39.0135 7.35631C38.9199 7.28614 38.8264 7.22767 38.7094 7.18088C38.5924 7.1458 38.4404 7.18088 38.2884 7.30953L37.7153 7.74226C37.5516 7.85921 37.4697 8.05803 37.5165 8.24515C37.5516 8.44397 37.7036 8.6311 37.996 8.85331C38.7211 9.34451 39.5865 9.6018 40.4637 9.57841C40.873 9.57841 41.2824 9.53163 41.6683 9.41468C42.0075 9.30942 42.3232 9.15738 42.6039 8.94687C42.8612 8.75974 43.0717 8.51414 43.2121 8.22176C43.3524 7.94107 43.4226 7.637 43.4226 7.32123C43.4343 7.04054 43.3758 6.75986 43.2589 6.50256C43.1419 6.31544 42.9899 6.11662 42.8027 5.95288ZM48.5802 7.55513C48.5217 7.44988 48.4165 7.3797 48.2878 7.35631C48.1709 7.35631 48.0422 7.3914 47.9486 7.46157C47.7849 7.56683 47.5978 7.6253 47.4107 7.637C47.3522 7.637 47.282 7.62531 47.2235 7.61361C47.1534 7.60191 47.0949 7.56683 47.0481 7.52005C46.9896 7.46157 46.9429 7.3914 46.9078 7.32123C46.861 7.20428 46.8376 7.08732 46.8493 6.97037V4.57284H48.5568C48.6621 4.57284 48.7556 4.52606 48.8258 4.45589C48.896 4.38572 48.9427 4.30385 48.9427 4.1986V3.18111C48.9427 3.07585 48.9077 2.98229 48.8258 2.92381C48.7556 2.85364 48.6621 2.81856 48.5685 2.81856H46.8493V1.18122C46.8493 1.08766 46.8142 0.9824 46.744 0.923924C46.6739 0.865448 46.592 0.830363 46.4984 0.818668H45.1652C45.0716 0.818668 44.9781 0.853753 44.9079 0.923924C44.8377 0.994096 44.7909 1.08766 44.7909 1.18122V2.81856H44.0307C43.9372 2.81856 43.8436 2.85364 43.7734 2.93551C43.715 3.00568 43.6799 3.09924 43.6799 3.1928V4.21029C43.6799 4.30385 43.715 4.39742 43.7734 4.46759C43.8319 4.54945 43.9255 4.58454 44.0307 4.58454H44.7909V7.43818C44.7792 7.77734 44.8494 8.11651 44.9897 8.42058C45.1184 8.67788 45.2821 8.90009 45.5043 9.08721C45.7149 9.26264 45.9605 9.39129 46.2294 9.46146C46.4984 9.54333 46.7791 9.59011 47.0598 9.59011C47.4224 9.59011 47.7966 9.53163 48.1475 9.41468C48.4749 9.30942 48.7673 9.1223 49.0012 8.8767C49.1533 8.72466 49.165 8.47906 49.048 8.30363L48.5802 7.55513ZM55.8079 2.81856H54.4863C54.3927 2.81856 54.3109 2.85364 54.2407 2.92381C54.1705 2.99398 54.1354 3.08755 54.1354 3.1928V3.35654C53.9717 3.15772 53.7729 3.00568 53.539 2.90042C53.1764 2.72499 52.7788 2.64313 52.3811 2.64313C51.5274 2.64313 50.7204 2.98229 50.1123 3.57875C49.7965 3.89452 49.5509 4.26877 49.3872 4.6781C49.2 5.13422 49.1065 5.62541 49.1182 6.11662C49.1065 6.60782 49.2 7.09902 49.3872 7.56683C49.5509 7.97616 49.8082 8.35041 50.1123 8.66618C50.7087 9.27434 51.5157 9.6135 52.3694 9.6135C52.7671 9.62519 53.1647 9.53163 53.5273 9.3679C53.7612 9.25095 53.9717 9.09891 54.1354 8.91178V9.08721C54.1354 9.18077 54.1705 9.27433 54.2407 9.33281C54.3109 9.40298 54.3927 9.43807 54.4863 9.43807H55.8079C56.0067 9.43807 56.1587 9.28603 56.1587 9.08721V3.2045C56.1587 3.11094 56.1236 3.01737 56.0652 2.9472C56.0067 2.86534 55.9131 2.81856 55.8079 2.81856ZM54.0302 6.74816C53.96 6.93529 53.8547 7.09902 53.7144 7.25106C53.5741 7.3914 53.422 7.50835 53.2466 7.59022C53.0595 7.67208 52.8606 7.71887 52.6501 7.71887C52.4396 7.71887 52.2525 7.67208 52.0654 7.59022C51.8899 7.50835 51.7262 7.3914 51.5859 7.25106C51.4455 7.11071 51.3403 6.93529 51.2818 6.74816C51.1414 6.35052 51.1414 5.9178 51.2818 5.52016C51.352 5.33304 51.4572 5.1693 51.5859 5.02896C51.7262 4.88862 51.8899 4.77166 52.0654 4.6898C52.2525 4.60793 52.4513 4.56115 52.6501 4.56115C52.849 4.56115 53.0478 4.59623 53.2466 4.6898C53.422 4.77166 53.5741 4.87692 53.7144 5.01726C53.8547 5.15761 53.96 5.32134 54.0302 5.50846C54.1822 5.9061 54.1822 6.35052 54.0302 6.74816ZM63.0589 7.46157L62.2987 6.87681C62.1584 6.75985 62.018 6.72477 61.9011 6.77155C61.7958 6.81833 61.7023 6.8885 61.6204 6.97037C61.4567 7.16919 61.2578 7.34462 61.0473 7.49666C60.8134 7.62531 60.5678 7.69548 60.3105 7.67209C60.0064 7.67209 59.7258 7.59022 59.4802 7.41479C59.2346 7.23936 59.0474 7.00546 58.9539 6.71307C58.8837 6.51426 58.8486 6.31543 58.8486 6.11662C58.8486 5.9061 58.8837 5.70728 58.9539 5.49677C59.024 5.30964 59.1176 5.14591 59.2579 5.00557C59.3983 4.86522 59.5503 4.74827 59.7258 4.6781C59.9129 4.59623 60.1117 4.54945 60.3222 4.54945C60.5795 4.53776 60.8368 4.60793 61.059 4.73658C61.2812 4.87692 61.4684 5.05235 61.6321 5.26286C61.7023 5.34473 61.7958 5.4149 61.9011 5.46168C62.018 5.50847 62.1584 5.47338 62.2987 5.35642L63.0589 4.78336C63.1525 4.72488 63.2226 4.63132 63.2577 4.52606C63.3045 4.40911 63.2928 4.28046 63.2226 4.17521C62.9303 3.71909 62.5326 3.34484 62.0531 3.07585C61.5502 2.79517 60.9538 2.64313 60.2871 2.64313C59.8193 2.64313 59.3515 2.73669 58.9071 2.91212C58.4861 3.08755 58.1118 3.33315 57.796 3.64892C57.4803 3.96469 57.223 4.33894 57.0476 4.75997C56.685 5.63711 56.685 6.61951 57.0476 7.49666C57.223 7.90599 57.4686 8.29193 57.796 8.59601C58.4627 9.25094 59.3515 9.6018 60.2871 9.6018C60.9538 9.6018 61.5502 9.44976 62.0531 9.16908C62.5326 8.90009 62.942 8.52584 63.2343 8.05803C63.2928 7.95277 63.3045 7.82412 63.2694 7.71887C63.2226 7.6253 63.1525 7.53174 63.0589 7.46157ZM70.0994 8.82992L68.006 5.76576L69.7954 3.40332C69.8772 3.29806 69.9123 3.14602 69.8655 3.01738C69.8305 2.92381 69.7486 2.83025 69.5264 2.83025H68.1113C68.0294 2.83025 67.9475 2.85364 67.8773 2.88873C67.7838 2.93551 67.7136 3.00568 67.6668 3.08755L66.24 5.08743H65.9009V0.362554C65.9009 0.268992 65.8658 0.175428 65.7956 0.105257C65.7254 0.035085 65.6436 0 65.55 0H64.2284C64.1349 0 64.0413 0.035085 63.9711 0.105257C63.901 0.175428 63.8659 0.257296 63.8659 0.362554V9.07552C63.8659 9.18077 63.901 9.26264 63.9711 9.33281C64.0413 9.40298 64.1349 9.43807 64.2284 9.43807H65.55C65.6436 9.43807 65.7371 9.40298 65.7956 9.33281C65.8658 9.26264 65.9009 9.16908 65.9009 9.07552V6.77155H66.2751L67.8306 9.15738C67.9241 9.33281 68.0996 9.43807 68.2867 9.43807H69.772C69.9942 9.43807 70.0877 9.33281 70.1345 9.23925C70.193 9.09891 70.1813 8.94687 70.0994 8.82992ZM37.1422 2.81856H35.6569C35.54 2.81856 35.4347 2.85364 35.3529 2.93551C35.2827 3.00568 35.2359 3.08755 35.2125 3.18111L34.1132 7.25106H33.8442L32.6747 3.18111C32.6513 3.09924 32.6162 3.01738 32.5577 2.93551C32.4875 2.85364 32.394 2.80686 32.2887 2.80686H30.78C30.5812 2.80686 30.4643 2.86534 30.4058 3.00568C30.3707 3.12263 30.3707 3.25128 30.4058 3.36823L32.277 9.0989C32.3121 9.18077 32.3472 9.27433 32.4174 9.33281C32.4875 9.40298 32.5928 9.43807 32.698 9.43807H33.4933L33.4231 9.62519L33.2477 10.1515C33.1892 10.3152 33.0957 10.4556 32.9553 10.5608C32.8267 10.6544 32.6747 10.7129 32.5109 10.7012C32.3706 10.7012 32.2419 10.6661 32.1133 10.6193C31.9846 10.5608 31.8677 10.4906 31.7624 10.4088C31.6689 10.3386 31.5519 10.3035 31.4233 10.3035H31.4116C31.2712 10.3152 31.1426 10.3854 31.0724 10.514L30.6046 11.2041C30.4175 11.5081 30.5227 11.6953 30.6397 11.8005C30.897 12.0344 31.1894 12.2098 31.5168 12.3151C31.8794 12.4437 32.2536 12.5022 32.6279 12.5022C33.3062 12.5022 33.8676 12.3151 34.3003 11.9525C34.7447 11.5549 35.0839 11.0403 35.2476 10.4556L37.4229 3.36823C37.4697 3.23959 37.4814 3.11094 37.4346 2.99399C37.4229 2.91212 37.3411 2.81856 37.1422 2.81856Z" fill="#011B33"/>
</svg>
