<svg width="25" height="25" viewBox="0 0 25 25" fill="none" xmlns="http://www.w3.org/2000/svg">
<path d="M15.1829 3.79082e-06C13.3139 -0.00163905 11.4834 0.530724 9.90688 1.53442C8.33032 2.53811 7.07334 3.97134 6.28394 5.66538C5.49453 7.35942 5.20556 9.24374 5.45104 11.0965C5.69652 12.9492 6.46624 14.6933 7.66957 16.1233C7.61115 16.153 7.55634 16.1894 7.50625 16.2317L0.272459 23.4656C0.18722 23.5479 0.11923 23.6464 0.0724565 23.7553C0.0256832 23.8642 0.00106344 23.9813 3.36966e-05 24.0998C-0.000996045 24.2183 0.0215849 24.3358 0.0664588 24.4455C0.111333 24.5552 0.177601 24.6548 0.261397 24.7386C0.345193 24.8224 0.444838 24.8887 0.554519 24.9335C0.6642 24.9784 0.78172 25.001 0.900221 25C1.01872 24.9989 1.13583 24.9743 1.24472 24.9275C1.3536 24.8808 1.45208 24.8128 1.53441 24.7275L8.76828 17.4938C8.81058 17.4437 8.84696 17.3889 8.87672 17.3304C10.0853 18.3449 11.5206 19.0529 13.061 19.3946C14.6015 19.7363 16.2016 19.7015 17.7257 19.2932C19.2498 18.8849 20.653 18.1151 21.8163 17.049C22.9796 15.983 23.8687 14.6522 24.4083 13.1695C24.9478 11.6867 25.1219 10.0957 24.9157 8.53138C24.7095 6.96704 24.1292 5.47548 23.2239 4.18316C22.3186 2.89083 21.115 1.83584 19.7153 1.10764C18.3155 0.379432 16.7607 -0.000516216 15.1829 3.79082e-06ZM15.1829 17.8493C13.5943 17.8493 12.0413 17.3782 10.7204 16.4956C9.39955 15.6131 8.37004 14.3586 7.7621 12.8909C7.15417 11.4232 6.9951 9.80821 7.30503 8.25012C7.61495 6.69203 8.37994 5.26083 9.50326 4.13751C10.6266 3.01419 12.0578 2.24919 13.6159 1.93927C15.174 1.62935 16.789 1.78841 18.2567 2.39635C19.7244 3.00429 20.9788 4.03379 21.8614 5.35468C22.744 6.67556 23.2151 8.22851 23.2151 9.81712C23.2127 11.9467 22.3657 13.9883 20.8599 15.4941C19.3541 16.9999 17.3124 17.8469 15.1829 17.8493Z" fill="white"/>
<path d="M17.8704 8.92447H16.0855V7.13954C16.0855 6.90284 15.9915 6.67584 15.8241 6.50847C15.6567 6.3411 15.4297 6.24707 15.193 6.24707C14.9563 6.24707 14.7293 6.3411 14.562 6.50847C14.3946 6.67584 14.3006 6.90284 14.3006 7.13954V8.92447H12.5156V10.7094Cnan nan nan nan 12.5156 10.7094H14.3006V12.4943C14.3006 12.731 14.3946 12.958 14.562 13.1254C14.7293 13.2928 14.9563 13.3868 15.193 13.3868C15.4297 13.3868 15.6567 13.2928 15.8241 13.1254C15.9915 12.958 16.0855 12.731 16.0855 12.4943V10.7094H17.8704Cnan nan nan nan 17.8704 10.7094V8.92447Z" fill="white"/>
</svg>
