<svg aria-hidden="true" style="position: absolute; width: 0; height: 0; overflow: hidden;" version="1.1"
    xmlns="http://www.w3.org/2000/svg" xmlns:xlink="http://www.w3.org/1999/xlink">
    <defs>
        <symbol id="icon-Cancle" viewBox="0 0 32 32">
            <path fill="none" stroke="#acacac" style="stroke: var(--color1, #acacac)" stroke-linejoin="round"
                stroke-linecap="round" stroke-miterlimit="4" stroke-width="4" d="M2 30l28-28M30 30l-28-28"></path>
        </symbol>
        <symbol id="icon-Setting" viewBox="0 0 28 32">
            <path
                d="M26.671 18.341c0.53 0.281 0.939 0.726 1.226 1.17 0.56 0.919 0.515 2.044-0.030 3.037l-1.060 1.778c-0.56 0.948-1.605 1.541-2.68 1.541-0.53 0-1.12-0.148-1.605-0.444-0.394-0.252-0.848-0.341-1.332-0.341-1.499 0-2.756 1.23-2.801 2.696 0 1.704-1.393 3.037-3.134 3.037h-2.059c-1.756 0-3.149-1.333-3.149-3.037-0.030-1.467-1.287-2.696-2.786-2.696-0.5 0-0.954 0.089-1.332 0.341-0.484 0.296-1.090 0.444-1.605 0.444-1.090 0-2.135-0.593-2.695-1.541l-1.045-1.778c-0.56-0.963-0.59-2.119-0.030-3.037 0.242-0.444 0.696-0.889 1.211-1.17 0.424-0.207 0.696-0.548 0.954-0.948 0.757-1.274 0.303-2.948-0.984-3.704-1.499-0.844-1.983-2.726-1.12-4.193l1.014-1.748c0.878-1.467 2.756-1.985 4.27-1.126 1.317 0.711 3.028 0.237 3.8-1.022 0.242-0.415 0.379-0.859 0.348-1.304-0.030-0.578 0.136-1.126 0.424-1.57 0.56-0.919 1.575-1.511 2.68-1.541h2.135c1.12 0 2.135 0.622 2.695 1.541 0.273 0.444 0.454 0.993 0.409 1.57-0.030 0.444 0.106 0.889 0.348 1.304 0.772 1.259 2.483 1.733 3.815 1.022 1.499-0.859 3.391-0.341 4.254 1.126l1.014 1.748c0.878 1.467 0.394 3.348-1.12 4.193-1.287 0.756-1.741 2.43-0.969 3.704 0.242 0.4 0.515 0.741 0.939 0.948zM9.942 16.015c0 2.326 1.923 4.178 4.3 4.178s4.254-1.852 4.254-4.178c0-2.326-1.877-4.193-4.254-4.193s-4.3 1.867-4.3 4.193z">
            </path>
        </symbol>
        <symbol id="icon-love-card" viewBox="0 0 38 32">
            <path stroke-linejoin="miter" stroke-linecap="butt" stroke-miterlimit="4" stroke-width="4.2667"
                d="M20.203 28.941c-0.322 0.237-0.701 0.357-1.080 0.357s-0.759-0.119-1.080-0.357c-2.981-2.204-11.232-8.508-13.187-12.138-2.396-4.451-0.975-10.143 3.177-12.712 1.364-0.845 2.853-1.246 4.321-1.246 2.576 0 5.090 1.234 6.768 3.472 1.679-2.239 4.193-3.472 6.768-3.472 1.469 0 2.957 0.401 4.322 1.246 4.151 2.569 5.573 8.262 3.177 12.712-1.955 3.63-10.206 9.934-13.187 12.138zM29.532 5.173c-1.112-0.689-2.371-1.053-3.641-1.053-2.236 0-4.327 1.078-5.737 2.958l-1.031 1.376-1.032-1.376c-1.409-1.879-3.5-2.958-5.736-2.958-1.27 0-2.529 0.364-3.641 1.053-3.582 2.217-4.803 7.165-2.723 11.028 1.856 3.446 10.282 9.839 12.821 11.717 0.115 0.085 0.233 0.103 0.311 0.103s0.196-0.018 0.312-0.103c2.538-1.877 10.966-8.271 12.821-11.717 2.080-3.864 0.859-8.811-2.724-11.028z">
            </path>
        </symbol>
        <symbol id="icon-search" viewBox="0 0 30 32">
            <path fill="none" stroke="#01789a" style="stroke: var(--color1, #01789a)" stroke-linejoin="round"
                stroke-linecap="round" stroke-miterlimit="4" stroke-width="2.5263"
                d="M27.448 14.83c0 6.967-5.648 12.616-12.616 12.616s-12.616-5.648-12.616-12.616c0-6.967 5.648-12.616 12.616-12.616s12.616 5.648 12.616 12.616z">
            </path>
            <path fill="none" stroke="#01789a" style="stroke: var(--color1, #01789a)" stroke-linejoin="round"
                stroke-linecap="round" stroke-miterlimit="4" stroke-width="2.5263" d="M23.605 24.26l4.946 4.933"></path>
        </symbol>
        <symbol id="icon-Admission" viewBox="0 0 99 32">
            <path
                d="M10.806 6.905c-0.161 0-0.29-0.030-0.385-0.091-0.094-0.061-0.162-0.152-0.203-0.275-0.040-0.124-0.060-0.286-0.060-0.486s0.021-0.36 0.062-0.483c0.041-0.123 0.108-0.214 0.201-0.273 0.094-0.061 0.22-0.091 0.378-0.091 0.144 0 0.3 0.016 0.469 0.048l0.084 0.017-0.010 0.184c-0.196-0.029-0.363-0.043-0.5-0.043-0.124 0-0.219 0.023-0.282 0.069-0.064 0.045-0.107 0.113-0.129 0.206-0.022 0.091-0.034 0.218-0.034 0.383 0 0.158 0.012 0.282 0.036 0.373 0.025 0.089 0.069 0.155 0.132 0.196s0.15 0.062 0.263 0.062c0.108 0 0.207-0.008 0.297-0.024v-0.45h-0.237v-0.203h0.464v0.823c-0.211 0.038-0.392 0.057-0.546 0.057zM12.12 6.905c-0.183 0-0.314-0.047-0.392-0.141-0.078-0.096-0.117-0.246-0.117-0.452 0-0.222 0.041-0.386 0.124-0.493 0.085-0.108 0.215-0.163 0.39-0.163 0.325 0 0.488 0.185 0.488 0.555l-0.014 0.163h-0.763c0.002 0.086 0.013 0.153 0.034 0.201 0.021 0.046 0.054 0.080 0.101 0.101s0.112 0.031 0.196 0.031c0.049 0 0.105-0.001 0.167-0.002 0.062-0.003 0.118-0.007 0.167-0.012l0.067-0.007 0.005 0.172c-0.187 0.032-0.337 0.048-0.452 0.048zM12.39 6.199c0-0.129-0.021-0.221-0.062-0.275-0.040-0.054-0.108-0.081-0.203-0.081-0.101 0-0.174 0.029-0.22 0.086-0.046 0.056-0.070 0.146-0.072 0.27h0.557zM12.878 5.682h0.22v0.079c0.069-0.038 0.131-0.065 0.187-0.081s0.115-0.024 0.177-0.024c0.101 0 0.179 0.020 0.237 0.060s0.098 0.102 0.122 0.187c0.024 0.083 0.036 0.196 0.036 0.34v0.636h-0.223v-0.632c0-0.101-0.006-0.178-0.019-0.232-0.011-0.056-0.034-0.096-0.067-0.12-0.032-0.026-0.079-0.038-0.141-0.038-0.085 0-0.173 0.018-0.266 0.055l-0.041 0.019v0.947h-0.223v-1.196zM14.629 6.905c-0.183 0-0.314-0.047-0.392-0.141-0.078-0.096-0.117-0.246-0.117-0.452 0-0.222 0.041-0.386 0.124-0.493 0.085-0.108 0.215-0.163 0.39-0.163 0.325 0 0.488 0.185 0.488 0.555l-0.014 0.163h-0.763c0.002 0.086 0.013 0.153 0.034 0.201 0.021 0.046 0.054 0.080 0.101 0.101s0.112 0.031 0.196 0.031c0.049 0 0.105-0.001 0.167-0.002 0.062-0.003 0.118-0.007 0.168-0.012l0.067-0.007 0.005 0.172c-0.187 0.032-0.337 0.048-0.452 0.048zM14.9 6.199c0-0.129-0.021-0.221-0.062-0.275-0.040-0.054-0.108-0.081-0.203-0.081-0.101 0-0.174 0.029-0.22 0.086-0.046 0.056-0.070 0.146-0.072 0.27h0.557zM15.387 5.682h0.22v0.151c0.142-0.091 0.282-0.15 0.421-0.177v0.225c-0.062 0.013-0.127 0.030-0.194 0.053s-0.123 0.044-0.167 0.065l-0.057 0.026v0.854h-0.223v-1.196zM16.504 6.905c-0.113 0-0.199-0.032-0.258-0.096s-0.089-0.155-0.089-0.275c0-0.118 0.030-0.204 0.091-0.258 0.061-0.056 0.157-0.090 0.29-0.103l0.34-0.031v-0.093c0-0.070-0.015-0.12-0.045-0.151-0.030-0.032-0.075-0.048-0.134-0.048-0.134 0-0.289 0.010-0.464 0.029l-0.007-0.163c0.169-0.040 0.326-0.060 0.471-0.060 0.14 0 0.242 0.032 0.306 0.096 0.064 0.062 0.096 0.161 0.096 0.297v0.577c0.003 0.032 0.013 0.057 0.031 0.074 0.019 0.016 0.049 0.027 0.089 0.034l-0.007 0.172c-0.069 0-0.127-0.008-0.175-0.024-0.048-0.014-0.090-0.037-0.127-0.069-0.136 0.062-0.271 0.093-0.407 0.093zM16.544 6.718c0.097 0 0.191-0.015 0.282-0.045l0.050-0.017v-0.352l-0.311 0.029c-0.062 0.006-0.109 0.026-0.139 0.057-0.029 0.030-0.043 0.076-0.043 0.136 0 0.128 0.053 0.191 0.16 0.191zM17.453 5.175h0.223v1.703h-0.223v-1.703zM19.429 6.493h-0.665l-0.103 0.385h-0.227l0.426-1.646h0.474l0.426 1.646h-0.227l-0.103-0.385zM18.812 6.29h0.569l-0.223-0.864h-0.124l-0.223 0.864zM20.34 6.905c-0.155 0-0.266-0.049-0.333-0.148-0.067-0.101-0.101-0.253-0.101-0.457 0-0.226 0.040-0.39 0.12-0.49 0.080-0.102 0.207-0.153 0.383-0.153 0.084 0 0.178 0.011 0.28 0.034v-0.514h0.223v1.703h-0.223v-0.072c-0.124 0.065-0.241 0.098-0.349 0.098zM20.386 6.704c0.038 0 0.082-0.006 0.132-0.017s0.093-0.024 0.129-0.038l0.043-0.017v-0.754c-0.099-0.019-0.183-0.029-0.254-0.029-0.11 0-0.187 0.034-0.232 0.101s-0.067 0.179-0.067 0.337c0 0.144 0.018 0.249 0.055 0.316 0.038 0.067 0.103 0.101 0.194 0.101zM21.243 5.682h0.22v0.079c0.061-0.035 0.118-0.061 0.172-0.079s0.11-0.026 0.167-0.026c0.062 0 0.12 0.010 0.172 0.031 0.053 0.019 0.094 0.049 0.124 0.089 0.064-0.035 0.133-0.064 0.208-0.086 0.077-0.022 0.154-0.034 0.232-0.034 0.099 0 0.176 0.020 0.232 0.060s0.096 0.102 0.12 0.187 0.036 0.198 0.036 0.34v0.636h-0.223v-0.632c0-0.101-0.006-0.178-0.019-0.232-0.011-0.056-0.033-0.096-0.065-0.12-0.030-0.026-0.076-0.038-0.136-0.038-0.045 0-0.091 0.006-0.139 0.017-0.048 0.010-0.090 0.022-0.127 0.038l-0.043 0.019c0.017 0.069 0.026 0.177 0.026 0.325v0.622h-0.225v-0.617c0-0.107-0.006-0.188-0.017-0.244-0.011-0.057-0.033-0.098-0.065-0.122-0.030-0.026-0.076-0.038-0.136-0.038-0.045 0-0.091 0.006-0.139 0.017-0.046 0.011-0.085 0.024-0.117 0.038l-0.038 0.019v0.947h-0.223v-1.196zM23.245 5.682h0.223v1.196h-0.223v-1.196zM23.245 5.206h0.22v0.242h-0.22v-0.242zM24.184 6.905c-0.093 0-0.213-0.013-0.361-0.038l-0.072-0.012 0.010-0.191c0.193 0.027 0.331 0.041 0.414 0.041 0.084 0 0.148-0.013 0.191-0.038s0.065-0.067 0.065-0.124c0-0.041-0.011-0.073-0.034-0.093-0.021-0.022-0.048-0.038-0.081-0.048-0.034-0.011-0.081-0.022-0.144-0.031l-0.057-0.010c-0.091-0.014-0.164-0.033-0.218-0.055-0.053-0.022-0.093-0.055-0.122-0.098s-0.043-0.102-0.043-0.177c0-0.247 0.151-0.371 0.455-0.371 0.096 0 0.215 0.012 0.359 0.036l0.069 0.014-0.005 0.187c-0.179-0.026-0.316-0.038-0.412-0.038-0.163 0-0.244 0.049-0.244 0.148 0 0.037 0.010 0.065 0.031 0.086 0.021 0.019 0.047 0.034 0.079 0.043 0.034 0.010 0.080 0.020 0.141 0.031 0.011 0.002 0.034 0.006 0.067 0.012 0.094 0.018 0.167 0.038 0.22 0.062 0.054 0.022 0.094 0.056 0.12 0.101 0.027 0.045 0.041 0.105 0.041 0.182 0 0.132-0.038 0.23-0.115 0.292-0.077 0.061-0.195 0.091-0.354 0.091zM25.301 6.905c-0.092 0-0.213-0.013-0.361-0.038l-0.072-0.012 0.010-0.191c0.193 0.027 0.331 0.041 0.414 0.041 0.085 0 0.148-0.013 0.191-0.038s0.065-0.067 0.065-0.124c0-0.041-0.011-0.073-0.034-0.093-0.021-0.022-0.048-0.038-0.081-0.048-0.034-0.011-0.081-0.022-0.144-0.031l-0.057-0.010c-0.091-0.014-0.163-0.033-0.218-0.055-0.053-0.022-0.093-0.055-0.122-0.098s-0.043-0.102-0.043-0.177c0-0.247 0.152-0.371 0.455-0.371 0.096 0 0.215 0.012 0.359 0.036l0.069 0.014-0.005 0.187c-0.179-0.026-0.316-0.038-0.412-0.038-0.163 0-0.244 0.049-0.244 0.148 0 0.037 0.010 0.065 0.031 0.086 0.021 0.019 0.047 0.034 0.079 0.043 0.034 0.010 0.081 0.020 0.141 0.031 0.011 0.002 0.034 0.006 0.067 0.012 0.094 0.018 0.167 0.038 0.22 0.062 0.054 0.022 0.094 0.056 0.12 0.101 0.027 0.045 0.041 0.105 0.041 0.182 0 0.132-0.038 0.23-0.115 0.292-0.077 0.061-0.195 0.091-0.354 0.091zM26.030 5.682h0.223v1.196h-0.223v-1.196zM26.030 5.206h0.22v0.242h-0.22v-0.242zM27.036 6.905c-0.187 0-0.321-0.049-0.402-0.148-0.081-0.101-0.122-0.258-0.122-0.471 0-0.218 0.041-0.378 0.124-0.479s0.216-0.151 0.4-0.151c0.185 0 0.318 0.051 0.4 0.153 0.083 0.101 0.124 0.259 0.124 0.476 0 0.212-0.041 0.368-0.122 0.469s-0.215 0.151-0.402 0.151zM27.036 6.711c0.077 0 0.136-0.014 0.177-0.041 0.043-0.027 0.073-0.071 0.091-0.132s0.026-0.145 0.026-0.254c0-0.113-0.010-0.201-0.029-0.263-0.017-0.062-0.048-0.106-0.091-0.132-0.041-0.027-0.1-0.041-0.175-0.041s-0.134 0.014-0.177 0.041c-0.043 0.026-0.074 0.070-0.093 0.134-0.017 0.062-0.026 0.149-0.026 0.261 0 0.107 0.009 0.191 0.026 0.254 0.017 0.061 0.048 0.104 0.091 0.132s0.103 0.041 0.179 0.041zM27.834 5.682h0.22v0.079c0.069-0.038 0.131-0.065 0.187-0.081s0.115-0.024 0.177-0.024c0.101 0 0.179 0.020 0.237 0.060s0.098 0.102 0.122 0.187c0.024 0.083 0.036 0.196 0.036 0.34v0.636h-0.223v-0.632c0-0.101-0.006-0.178-0.019-0.232-0.011-0.056-0.034-0.096-0.067-0.12-0.032-0.026-0.079-0.038-0.141-0.038-0.085 0-0.173 0.018-0.266 0.055l-0.041 0.019v0.947h-0.223v-1.196z">
            </path>
            <path
                d="M6.37 15.251v1.646h-0.402l-0.569-1.445h-0.038v1.445h-0.23v-1.646h0.409l0.557 1.445h0.043v-1.445h0.23zM7.185 16.924c-0.187 0-0.321-0.049-0.402-0.148-0.081-0.101-0.122-0.258-0.122-0.471 0-0.218 0.041-0.378 0.124-0.479s0.216-0.151 0.4-0.151c0.185 0 0.318 0.051 0.4 0.153 0.083 0.101 0.124 0.259 0.124 0.476 0 0.212-0.041 0.368-0.122 0.469s-0.215 0.151-0.402 0.151zM7.185 16.73c0.077 0 0.136-0.014 0.177-0.041 0.043-0.027 0.073-0.071 0.091-0.132s0.026-0.145 0.026-0.254c0-0.113-0.010-0.201-0.029-0.263-0.018-0.062-0.048-0.106-0.091-0.132-0.041-0.027-0.1-0.041-0.175-0.041s-0.134 0.014-0.177 0.041c-0.043 0.026-0.074 0.070-0.093 0.134-0.018 0.062-0.026 0.149-0.026 0.261 0 0.107 0.009 0.191 0.026 0.254 0.018 0.061 0.048 0.105 0.091 0.132s0.103 0.041 0.179 0.041zM7.983 15.701h0.22v0.151c0.142-0.091 0.282-0.15 0.421-0.177v0.225c-0.062 0.013-0.127 0.030-0.194 0.053s-0.123 0.044-0.167 0.065l-0.057 0.026v0.854h-0.223v-1.196zM8.829 15.701h0.22v0.079c0.061-0.035 0.118-0.061 0.172-0.079s0.11-0.026 0.167-0.026c0.062 0 0.12 0.010 0.172 0.031 0.053 0.019 0.094 0.049 0.124 0.089 0.064-0.035 0.133-0.064 0.208-0.086 0.077-0.022 0.154-0.034 0.232-0.034 0.099 0 0.176 0.020 0.232 0.060s0.096 0.102 0.12 0.187c0.024 0.084 0.036 0.198 0.036 0.34v0.636h-0.223v-0.632c0-0.101-0.006-0.178-0.019-0.232-0.011-0.056-0.033-0.096-0.065-0.12-0.030-0.026-0.076-0.038-0.136-0.038-0.045 0-0.091 0.006-0.139 0.017-0.048 0.010-0.090 0.022-0.127 0.038l-0.043 0.019c0.018 0.069 0.026 0.177 0.026 0.325v0.622h-0.225v-0.617c0-0.107-0.006-0.188-0.017-0.244-0.011-0.057-0.033-0.098-0.065-0.122-0.030-0.026-0.076-0.038-0.136-0.038-0.045 0-0.091 0.006-0.139 0.017-0.046 0.011-0.085 0.024-0.117 0.038l-0.038 0.019v0.947h-0.223v-1.196zM11.101 16.924c-0.113 0-0.199-0.032-0.258-0.096s-0.089-0.155-0.089-0.275c0-0.118 0.030-0.204 0.091-0.258 0.061-0.056 0.157-0.090 0.29-0.103l0.34-0.031v-0.093c0-0.070-0.015-0.12-0.045-0.151-0.030-0.032-0.075-0.048-0.134-0.048-0.134 0-0.289 0.010-0.464 0.029l-0.007-0.163c0.169-0.040 0.326-0.060 0.471-0.060 0.14 0 0.242 0.032 0.306 0.096 0.064 0.062 0.096 0.161 0.096 0.297v0.577c0.003 0.032 0.014 0.057 0.031 0.074 0.019 0.016 0.049 0.027 0.089 0.034l-0.007 0.172c-0.069 0-0.127-0.008-0.175-0.024-0.048-0.014-0.090-0.038-0.127-0.069-0.136 0.062-0.271 0.093-0.407 0.093zM11.142 16.737c0.097 0 0.191-0.015 0.282-0.045l0.050-0.017v-0.352l-0.311 0.029c-0.062 0.006-0.108 0.026-0.139 0.057-0.029 0.030-0.043 0.076-0.043 0.136 0 0.128 0.053 0.191 0.16 0.191zM12.051 15.194h0.223v1.703h-0.223v-1.703zM13.175 15.251h0.603c0.183 0 0.32 0.045 0.409 0.134s0.134 0.226 0.134 0.409c0 0.188-0.046 0.331-0.139 0.428-0.091 0.096-0.226 0.144-0.404 0.144h-0.373v0.531h-0.23v-1.646zM13.776 16.165c0.207 0 0.311-0.124 0.311-0.371 0-0.12-0.025-0.207-0.074-0.261-0.049-0.056-0.128-0.084-0.237-0.084h-0.371v0.715h0.371zM14.56 15.701h0.22v0.151c0.142-0.091 0.282-0.15 0.421-0.177v0.225c-0.062 0.013-0.127 0.030-0.194 0.053s-0.123 0.044-0.168 0.065l-0.057 0.026v0.854h-0.223v-1.196zM15.406 15.701h0.223v1.196h-0.223v-1.196zM15.406 15.225h0.22v0.242h-0.22v-0.242zM16.374 16.924c-0.118 0-0.213-0.022-0.285-0.065-0.070-0.043-0.121-0.11-0.153-0.201-0.030-0.091-0.045-0.211-0.045-0.359 0-0.198 0.034-0.351 0.103-0.459 0.070-0.11 0.196-0.165 0.378-0.165 0.046 0 0.096 0.003 0.148 0.010 0.053 0.005 0.123 0.016 0.213 0.034l-0.007 0.177c-0.136-0.013-0.231-0.019-0.287-0.019-0.085 0-0.15 0.013-0.196 0.038s-0.079 0.069-0.098 0.129c-0.018 0.061-0.026 0.147-0.026 0.258 0 0.108 0.009 0.192 0.026 0.251 0.019 0.059 0.052 0.102 0.098 0.129s0.114 0.041 0.203 0.041l0.282-0.022 0.007 0.182c-0.16 0.027-0.28 0.041-0.361 0.041zM17.437 16.924c-0.183 0-0.314-0.047-0.392-0.141-0.078-0.096-0.117-0.246-0.117-0.452 0-0.222 0.041-0.386 0.124-0.493 0.084-0.108 0.214-0.163 0.39-0.163 0.325 0 0.488 0.185 0.488 0.555l-0.014 0.163h-0.763c0.002 0.086 0.013 0.153 0.034 0.201 0.021 0.046 0.054 0.080 0.101 0.101s0.112 0.031 0.196 0.031c0.049 0 0.105-0.001 0.167-0.002 0.062-0.003 0.118-0.007 0.167-0.012l0.067-0.007 0.005 0.172c-0.187 0.032-0.337 0.048-0.452 0.048zM17.708 16.218c0-0.129-0.021-0.221-0.062-0.275-0.040-0.054-0.108-0.081-0.203-0.081-0.101 0-0.174 0.029-0.22 0.086-0.046 0.056-0.070 0.146-0.072 0.27h0.557z">
            </path>
            <path
                d="M30.075 16.331h-0.668l-0.15 0.416h-0.217l0.609-1.595h0.184l0.61 1.595h-0.216l-0.152-0.416zM29.47 16.159h0.542l-0.272-0.746-0.271 0.746zM30.816 15.563l0.006 0.131c0.087-0.102 0.204-0.153 0.352-0.153 0.166 0 0.278 0.064 0.338 0.191 0.039-0.057 0.090-0.103 0.153-0.138s0.138-0.053 0.225-0.053c0.26 0 0.392 0.138 0.396 0.413v0.794h-0.203v-0.782c0-0.085-0.019-0.148-0.058-0.19s-0.104-0.063-0.195-0.063c-0.075 0-0.138 0.023-0.187 0.068s-0.078 0.105-0.087 0.181v0.786h-0.204v-0.777c0-0.172-0.084-0.258-0.253-0.258-0.133 0-0.224 0.057-0.273 0.17v0.865h-0.203v-1.185h0.192zM32.539 16.144c0-0.116 0.023-0.22 0.068-0.313s0.109-0.164 0.191-0.215c0.082-0.050 0.175-0.075 0.279-0.075 0.161 0 0.292 0.056 0.391 0.167s0.15 0.26 0.15 0.446v0.014c0 0.115-0.022 0.219-0.067 0.311s-0.107 0.162-0.19 0.214c-0.082 0.051-0.176 0.077-0.282 0.077-0.161 0-0.291-0.056-0.391-0.167s-0.149-0.26-0.149-0.444v-0.014zM32.743 16.168c0 0.131 0.030 0.237 0.091 0.317s0.143 0.119 0.245 0.119c0.103 0 0.185-0.040 0.245-0.121s0.091-0.194 0.091-0.34c0-0.13-0.031-0.235-0.093-0.315s-0.143-0.122-0.245-0.122c-0.1 0-0.181 0.040-0.242 0.119s-0.092 0.194-0.092 0.342zM34.604 16.63c-0.079 0.093-0.195 0.139-0.347 0.139-0.126 0-0.223-0.037-0.289-0.109s-0.099-0.183-0.1-0.326v-0.771h0.203v0.766c0 0.18 0.073 0.269 0.219 0.269 0.155 0 0.258-0.058 0.309-0.173v-0.862h0.203v1.185h-0.193l-0.004-0.117zM35.301 15.563l0.007 0.149c0.090-0.114 0.209-0.171 0.355-0.171 0.25 0 0.377 0.141 0.379 0.424v0.783h-0.203v-0.784c-0.001-0.085-0.020-0.149-0.059-0.189s-0.097-0.061-0.179-0.061c-0.066 0-0.123 0.018-0.173 0.053s-0.088 0.081-0.116 0.138v0.844h-0.203v-1.185h0.192zM36.622 15.276v0.287h0.221v0.157h-0.221v0.735c0 0.047 0.010 0.083 0.029 0.107s0.053 0.035 0.101 0.035c0.023 0 0.055-0.004 0.096-0.013v0.164c-0.053 0.015-0.105 0.022-0.156 0.022-0.091 0-0.159-0.027-0.205-0.082s-0.069-0.133-0.069-0.233v-0.735h-0.216v-0.157h0.216v-0.287h0.203z">
            </path>
            <path
                d="M38.059 16.153h-0.534v-0.165h0.534v0.165zM40.071 16.748h-0.211l-0.803-1.229v1.229h-0.211v-1.595h0.211l0.805 1.234v-1.234h0.209v1.595zM41.058 16.748h-0.204v-1.35l-0.409 0.15v-0.184l0.581-0.218h0.032v1.602zM42.651 16.068c0 0.237-0.041 0.414-0.122 0.529s-0.208 0.173-0.38 0.173c-0.17 0-0.296-0.056-0.378-0.169s-0.124-0.282-0.127-0.506v-0.271c0-0.234 0.041-0.409 0.121-0.522s0.208-0.171 0.381-0.171c0.172 0 0.298 0.055 0.379 0.165s0.123 0.279 0.125 0.508v0.263zM42.449 15.79c0-0.172-0.024-0.297-0.072-0.375s-0.124-0.118-0.229-0.118c-0.104 0-0.179 0.039-0.227 0.117s-0.072 0.198-0.073 0.36v0.324c0 0.172 0.025 0.3 0.075 0.382s0.126 0.123 0.228 0.123c0.1 0 0.174-0.039 0.222-0.116s0.074-0.199 0.077-0.366v-0.332zM43.911 16.068c0 0.237-0.041 0.414-0.122 0.529s-0.208 0.173-0.38 0.173c-0.17 0-0.296-0.056-0.378-0.169s-0.124-0.282-0.127-0.506v-0.271c0-0.234 0.041-0.409 0.122-0.522s0.208-0.171 0.381-0.171c0.172 0 0.298 0.055 0.379 0.165s0.123 0.279 0.125 0.508v0.263zM43.708 15.79c0-0.172-0.024-0.297-0.072-0.375s-0.125-0.118-0.229-0.118c-0.104 0-0.179 0.039-0.227 0.117s-0.072 0.198-0.073 0.36v0.324c0 0.172 0.025 0.3 0.074 0.382s0.126 0.123 0.228 0.123c0.1 0 0.174-0.039 0.222-0.116s0.074-0.199 0.077-0.366v-0.332zM45.17 16.068c0 0.237-0.041 0.414-0.122 0.529s-0.208 0.173-0.38 0.173c-0.17 0-0.296-0.056-0.378-0.169s-0.124-0.282-0.127-0.506v-0.271c0-0.234 0.041-0.409 0.122-0.522s0.208-0.171 0.381-0.171c0.172 0 0.298 0.055 0.379 0.165s0.123 0.279 0.125 0.508v0.263zM44.968 15.79c0-0.172-0.024-0.297-0.072-0.375s-0.125-0.118-0.229-0.118c-0.104 0-0.179 0.039-0.227 0.117s-0.072 0.198-0.073 0.36v0.324c0 0.172 0.025 0.3 0.074 0.382s0.126 0.123 0.228 0.123c0.1 0 0.174-0.039 0.222-0.116s0.075-0.199 0.077-0.366v-0.332z">
            </path>
            <path
                d="M50.308 16.748h-0.211l-0.803-1.229v1.229h-0.211v-1.595h0.211l0.805 1.234v-1.234h0.209v1.595zM50.596 16.144c0-0.116 0.023-0.22 0.068-0.313s0.109-0.164 0.191-0.215c0.082-0.050 0.175-0.075 0.279-0.075 0.161 0 0.292 0.056 0.391 0.167s0.15 0.26 0.15 0.446v0.014c0 0.115-0.022 0.219-0.067 0.311s-0.107 0.162-0.189 0.214c-0.082 0.051-0.176 0.077-0.282 0.077-0.161 0-0.291-0.056-0.391-0.167s-0.149-0.26-0.149-0.444v-0.014zM50.8 16.168c0 0.131 0.030 0.237 0.091 0.317s0.143 0.119 0.245 0.119c0.103 0 0.185-0.040 0.245-0.121s0.091-0.194 0.091-0.34c0-0.13-0.031-0.235-0.093-0.315s-0.143-0.122-0.245-0.122c-0.1 0-0.181 0.040-0.242 0.119s-0.092 0.194-0.092 0.342zM51.933 16.642c0-0.035 0.010-0.064 0.031-0.088s0.053-0.035 0.094-0.035c0.042 0 0.073 0.012 0.094 0.035s0.033 0.052 0.033 0.088c0 0.034-0.011 0.062-0.033 0.084s-0.053 0.034-0.094 0.034c-0.042 0-0.073-0.011-0.094-0.034s-0.031-0.051-0.031-0.084zM53.023 16.144c0-0.116 0.023-0.22 0.068-0.313s0.11-0.164 0.191-0.215c0.082-0.050 0.175-0.075 0.279-0.075 0.161 0 0.292 0.056 0.391 0.167s0.15 0.26 0.15 0.446v0.014c0 0.115-0.022 0.219-0.067 0.311s-0.107 0.162-0.189 0.214c-0.082 0.051-0.176 0.077-0.283 0.077-0.161 0-0.291-0.056-0.391-0.167s-0.149-0.26-0.149-0.444v-0.014zM53.227 16.168c0 0.131 0.030 0.237 0.091 0.317s0.143 0.119 0.245 0.119c0.103 0 0.185-0.040 0.245-0.121s0.091-0.194 0.091-0.34c0-0.13-0.031-0.235-0.093-0.315s-0.143-0.122-0.245-0.122c-0.1 0-0.181 0.040-0.242 0.119s-0.092 0.194-0.092 0.342zM54.455 16.748v-1.028h-0.187v-0.157h0.187v-0.122c0-0.127 0.034-0.225 0.102-0.295s0.164-0.104 0.288-0.104c0.047 0 0.093 0.006 0.139 0.019l-0.011 0.164c-0.034-0.007-0.071-0.010-0.11-0.010-0.066 0-0.116 0.019-0.152 0.058s-0.054 0.093-0.054 0.164v0.125h0.253v0.157h-0.253v1.028h-0.203zM56.782 15.326h-0.513v1.422h-0.209v-1.422h-0.511v-0.173h1.233v0.173zM57.207 16.748h-0.203v-1.185h0.203v1.185zM56.987 15.248c0-0.033 0.010-0.061 0.030-0.083s0.050-0.034 0.090-0.034c0.039 0 0.069 0.011 0.090 0.034s0.031 0.050 0.031 0.083-0.010 0.060-0.031 0.082c-0.020 0.022-0.050 0.033-0.090 0.033s-0.069-0.011-0.090-0.033c-0.020-0.022-0.030-0.049-0.030-0.082zM58.007 16.604c0.072 0 0.135-0.022 0.189-0.066s0.084-0.099 0.090-0.164h0.192c-0.004 0.068-0.027 0.133-0.070 0.194s-0.101 0.11-0.173 0.147c-0.071 0.037-0.147 0.055-0.228 0.055-0.161 0-0.29-0.054-0.386-0.161s-0.142-0.256-0.142-0.442v-0.034c0-0.115 0.021-0.218 0.063-0.308s0.103-0.16 0.182-0.209c0.080-0.050 0.173-0.074 0.282-0.074 0.133 0 0.243 0.040 0.331 0.119s0.135 0.183 0.141 0.31h-0.192c-0.006-0.077-0.035-0.139-0.088-0.188s-0.116-0.074-0.193-0.074c-0.103 0-0.183 0.037-0.24 0.112s-0.084 0.181-0.084 0.321v0.038c0 0.137 0.028 0.242 0.084 0.316s0.137 0.111 0.241 0.111zM59.037 16.199l-0.127 0.133v0.416h-0.203v-1.682h0.203v1.017l0.108-0.13 0.369-0.39h0.246l-0.461 0.495 0.515 0.69h-0.238l-0.413-0.549zM60.313 16.77c-0.161 0-0.291-0.052-0.392-0.158s-0.151-0.247-0.151-0.424v-0.037c0-0.118 0.022-0.222 0.067-0.314s0.108-0.165 0.188-0.217c0.081-0.053 0.169-0.079 0.263-0.079 0.154 0 0.274 0.051 0.359 0.152s0.128 0.247 0.128 0.436v0.084h-0.803c0.003 0.117 0.037 0.211 0.102 0.284s0.149 0.107 0.25 0.107c0.071 0 0.132-0.015 0.182-0.044s0.093-0.068 0.13-0.116l0.124 0.096c-0.099 0.153-0.248 0.229-0.447 0.229zM60.287 15.707c-0.082 0-0.15 0.030-0.206 0.090s-0.090 0.142-0.103 0.25h0.594v-0.015c-0.006-0.103-0.033-0.183-0.083-0.239s-0.117-0.085-0.202-0.085zM61.285 15.276v0.287h0.221v0.157h-0.221v0.735c0 0.047 0.010 0.083 0.030 0.107s0.053 0.035 0.101 0.035c0.023 0 0.055-0.004 0.096-0.013v0.164c-0.053 0.015-0.105 0.022-0.156 0.022-0.090 0-0.159-0.027-0.205-0.082s-0.069-0.133-0.069-0.233v-0.735h-0.216v-0.157h0.216v-0.287h0.203zM62.434 16.433c0-0.055-0.021-0.097-0.062-0.127s-0.113-0.057-0.216-0.079c-0.102-0.022-0.184-0.048-0.244-0.079s-0.105-0.067-0.134-0.11c-0.028-0.042-0.043-0.093-0.043-0.151 0-0.097 0.041-0.179 0.123-0.246s0.188-0.101 0.315-0.101c0.134 0 0.243 0.035 0.326 0.104s0.126 0.158 0.126 0.266h-0.204c0-0.055-0.024-0.103-0.071-0.143s-0.106-0.060-0.178-0.060c-0.074 0-0.131 0.016-0.173 0.048s-0.063 0.074-0.063 0.126c0 0.049 0.019 0.086 0.058 0.111s0.108 0.049 0.209 0.071c0.101 0.023 0.184 0.050 0.246 0.081s0.109 0.069 0.139 0.114c0.031 0.044 0.046 0.098 0.046 0.161 0 0.106-0.042 0.191-0.127 0.255s-0.195 0.095-0.33 0.095c-0.095 0-0.179-0.017-0.252-0.050s-0.13-0.080-0.172-0.14c-0.041-0.061-0.061-0.126-0.061-0.196h0.203c0.004 0.068 0.031 0.122 0.081 0.162s0.118 0.059 0.202 0.059c0.077 0 0.138-0.015 0.184-0.046s0.070-0.073 0.070-0.125zM63.879 16.153h-0.534v-0.165h0.534v0.165z">
            </path>
            <path
                d="M64.706 15.948l0.081-0.795h0.817v0.187h-0.645l-0.048 0.435c0.078-0.046 0.167-0.069 0.266-0.069 0.145 0 0.261 0.048 0.346 0.144s0.128 0.225 0.128 0.389c0 0.164-0.045 0.294-0.134 0.389s-0.212 0.141-0.371 0.141c-0.141 0-0.256-0.039-0.345-0.117s-0.14-0.186-0.152-0.324h0.192c0.012 0.091 0.045 0.16 0.097 0.207s0.122 0.069 0.208 0.069c0.094 0 0.168-0.032 0.221-0.096s0.081-0.153 0.081-0.266c0-0.107-0.029-0.192-0.088-0.256s-0.135-0.098-0.231-0.098c-0.088 0-0.158 0.019-0.208 0.058l-0.054 0.044-0.162-0.042zM66.872 16.068c0 0.237-0.041 0.414-0.122 0.529s-0.208 0.173-0.38 0.173c-0.17 0-0.296-0.056-0.378-0.169s-0.124-0.282-0.127-0.506v-0.271c0-0.234 0.041-0.409 0.122-0.522s0.208-0.171 0.381-0.171c0.171 0 0.298 0.055 0.379 0.165s0.123 0.279 0.125 0.508v0.263zM66.669 15.79c0-0.172-0.024-0.297-0.072-0.375s-0.125-0.118-0.229-0.118c-0.104 0-0.179 0.039-0.227 0.117s-0.072 0.198-0.073 0.36v0.324c0 0.172 0.025 0.3 0.074 0.382s0.126 0.123 0.228 0.123c0.1 0 0.174-0.039 0.222-0.116s0.074-0.199 0.077-0.366v-0.332z">
            </path>
            <path
                d="M28.895 25.122v-1.595h0.45c0.139 0 0.261 0.031 0.368 0.092s0.189 0.149 0.246 0.262c0.058 0.113 0.088 0.243 0.089 0.39v0.102c0 0.15-0.029 0.282-0.088 0.395s-0.141 0.2-0.249 0.261c-0.107 0.061-0.233 0.092-0.376 0.093h-0.441zM29.106 23.7v1.25h0.221c0.162 0 0.288-0.050 0.378-0.151s0.136-0.244 0.136-0.43v-0.093c0-0.181-0.043-0.322-0.128-0.422s-0.205-0.152-0.361-0.153h-0.245zM30.556 25.122h-0.203v-1.185h0.203v1.185zM30.337 23.622c0-0.033 0.010-0.061 0.030-0.083s0.050-0.034 0.090-0.034c0.039 0 0.069 0.011 0.090 0.034s0.031 0.050 0.031 0.083-0.010 0.060-0.031 0.082c-0.020 0.022-0.050 0.033-0.090 0.033s-0.069-0.011-0.090-0.033c-0.020-0.022-0.030-0.049-0.030-0.082zM31.571 24.807c0-0.055-0.021-0.097-0.063-0.127s-0.113-0.057-0.216-0.079c-0.102-0.022-0.184-0.048-0.244-0.079s-0.104-0.067-0.134-0.11c-0.029-0.042-0.043-0.093-0.043-0.151 0-0.097 0.041-0.179 0.123-0.246s0.188-0.101 0.316-0.101c0.134 0 0.243 0.035 0.326 0.104s0.126 0.158 0.126 0.266h-0.204c0-0.055-0.024-0.103-0.071-0.143s-0.106-0.060-0.177-0.060c-0.074 0-0.131 0.016-0.173 0.048s-0.062 0.074-0.062 0.126c0 0.049 0.019 0.086 0.058 0.11s0.108 0.049 0.209 0.071c0.102 0.023 0.184 0.050 0.246 0.081s0.109 0.069 0.139 0.114c0.031 0.044 0.046 0.098 0.046 0.161 0 0.106-0.042 0.191-0.127 0.255s-0.195 0.095-0.33 0.095c-0.095 0-0.179-0.017-0.252-0.050s-0.13-0.080-0.172-0.14c-0.041-0.061-0.061-0.126-0.061-0.196h0.203c0.004 0.068 0.031 0.122 0.081 0.162s0.118 0.059 0.202 0.059c0.077 0 0.138-0.015 0.184-0.046s0.070-0.073 0.070-0.125zM32.513 24.978c0.072 0 0.135-0.022 0.189-0.066s0.084-0.099 0.090-0.164h0.192c-0.004 0.068-0.027 0.133-0.070 0.194s-0.101 0.11-0.173 0.147c-0.071 0.037-0.147 0.055-0.228 0.055-0.161 0-0.29-0.054-0.386-0.161s-0.142-0.256-0.142-0.442v-0.034c0-0.115 0.021-0.218 0.064-0.308s0.103-0.16 0.182-0.209c0.080-0.050 0.173-0.074 0.281-0.074 0.133 0 0.243 0.040 0.331 0.119s0.135 0.183 0.141 0.31h-0.192c-0.006-0.077-0.035-0.14-0.088-0.188s-0.116-0.074-0.193-0.074c-0.103 0-0.183 0.037-0.24 0.112s-0.084 0.181-0.084 0.321v0.038c0 0.137 0.028 0.242 0.084 0.316s0.137 0.111 0.241 0.111zM33.158 24.518c0-0.116 0.023-0.22 0.068-0.313s0.109-0.164 0.191-0.215c0.082-0.050 0.175-0.076 0.279-0.076 0.161 0 0.292 0.056 0.391 0.167s0.15 0.26 0.15 0.446v0.014c0 0.115-0.022 0.219-0.067 0.311s-0.107 0.162-0.189 0.214c-0.082 0.051-0.176 0.077-0.283 0.077-0.161 0-0.291-0.056-0.391-0.167s-0.149-0.26-0.149-0.444v-0.014zM33.362 24.542c0 0.131 0.030 0.237 0.091 0.317s0.143 0.119 0.245 0.119c0.103 0 0.185-0.040 0.245-0.121s0.091-0.194 0.091-0.34c0-0.13-0.031-0.235-0.093-0.315s-0.143-0.122-0.245-0.122c-0.1 0-0.181 0.040-0.242 0.119s-0.092 0.194-0.092 0.342zM35.222 25.004c-0.079 0.093-0.195 0.139-0.347 0.139-0.126 0-0.223-0.037-0.289-0.109s-0.099-0.183-0.1-0.326v-0.771h0.203v0.766c0 0.18 0.073 0.269 0.219 0.269 0.155 0 0.258-0.058 0.309-0.173v-0.862h0.203v1.185h-0.193l-0.004-0.117zM35.92 23.936l0.007 0.149c0.091-0.114 0.209-0.171 0.355-0.171 0.25 0 0.377 0.141 0.379 0.424v0.783h-0.203v-0.784c-0.001-0.085-0.020-0.149-0.059-0.189s-0.097-0.061-0.179-0.061c-0.066 0-0.123 0.017-0.173 0.052s-0.088 0.081-0.116 0.138v0.844h-0.203v-1.185h0.192zM37.241 23.649v0.287h0.221v0.157h-0.221v0.735c0 0.047 0.010 0.083 0.030 0.107s0.053 0.035 0.101 0.035c0.023 0 0.055-0.004 0.096-0.013v0.164c-0.053 0.015-0.105 0.022-0.156 0.022-0.090 0-0.159-0.027-0.205-0.082s-0.069-0.133-0.069-0.233v-0.735h-0.216v-0.157h0.216v-0.287h0.203z">
            </path>
            <path
                d="M38.678 24.527h-0.535v-0.165h0.535v0.165zM40.077 25.122h-0.204v-1.35l-0.409 0.15v-0.184l0.581-0.218h0.032v1.602zM40.764 24.322l0.081-0.795h0.817v0.187h-0.645l-0.048 0.435c0.078-0.046 0.167-0.069 0.266-0.069 0.145 0 0.261 0.048 0.346 0.144s0.128 0.225 0.128 0.389c0 0.164-0.045 0.294-0.134 0.389s-0.212 0.141-0.371 0.141c-0.141 0-0.256-0.039-0.345-0.117s-0.14-0.186-0.152-0.324h0.192c0.012 0.091 0.045 0.16 0.097 0.207s0.122 0.069 0.208 0.069c0.094 0 0.168-0.032 0.221-0.096s0.081-0.153 0.081-0.266c0-0.107-0.029-0.192-0.088-0.256s-0.135-0.098-0.231-0.098c-0.088 0-0.158 0.019-0.208 0.058l-0.054 0.044-0.162-0.042zM41.913 23.834c0-0.096 0.030-0.174 0.091-0.237s0.14-0.093 0.236-0.093c0.097 0 0.176 0.031 0.236 0.094s0.091 0.143 0.091 0.242v0.078c0 0.096-0.031 0.175-0.092 0.237s-0.138 0.091-0.232 0.091c-0.095 0-0.173-0.030-0.236-0.091s-0.093-0.143-0.093-0.244v-0.077zM42.064 23.918c0 0.057 0.016 0.104 0.048 0.141s0.075 0.055 0.129 0.055c0.052 0 0.093-0.018 0.125-0.054s0.048-0.085 0.048-0.147v-0.080c0-0.057-0.016-0.104-0.047-0.141s-0.074-0.056-0.128-0.056c-0.054 0-0.097 0.019-0.128 0.056s-0.047 0.086-0.047 0.146v0.080zM42.69 24.73c0-0.096 0.030-0.174 0.091-0.235s0.14-0.093 0.236-0.093 0.174 0.031 0.236 0.092c0.061 0.061 0.092 0.143 0.092 0.244v0.078c0 0.096-0.031 0.174-0.092 0.237s-0.138 0.092-0.233 0.092c-0.095 0-0.173-0.030-0.236-0.091s-0.093-0.143-0.093-0.244v-0.079zM42.841 24.816c0 0.058 0.016 0.105 0.048 0.142s0.075 0.055 0.129 0.055c0.053 0 0.094-0.018 0.126-0.054s0.047-0.086 0.047-0.148v-0.081c0-0.058-0.016-0.105-0.048-0.141s-0.074-0.055-0.127-0.055c-0.052 0-0.094 0.018-0.127 0.055s-0.048 0.084-0.048 0.146v0.081zM42.288 25.001l-0.115-0.072 0.779-1.246 0.115 0.072-0.779 1.246z">
            </path>
            <path
                d="M48.514 25.122h-0.211l-0.803-1.229v1.229h-0.211v-1.595h0.211l0.805 1.234v-1.234h0.209v1.595zM48.801 24.518c0-0.116 0.023-0.22 0.068-0.313s0.109-0.164 0.191-0.215c0.082-0.050 0.175-0.076 0.279-0.076 0.161 0 0.292 0.056 0.391 0.167s0.15 0.26 0.15 0.446v0.014c0 0.115-0.022 0.219-0.067 0.311s-0.107 0.162-0.189 0.214c-0.082 0.051-0.176 0.077-0.282 0.077-0.161 0-0.291-0.056-0.391-0.167s-0.149-0.26-0.149-0.444v-0.014zM49.005 24.542c0 0.131 0.030 0.237 0.091 0.317s0.143 0.119 0.245 0.119c0.103 0 0.185-0.040 0.245-0.121s0.091-0.194 0.091-0.34c0-0.13-0.031-0.235-0.093-0.315s-0.143-0.122-0.245-0.122c-0.1 0-0.181 0.040-0.242 0.119s-0.092 0.194-0.092 0.342zM50.139 25.015c0-0.035 0.010-0.064 0.031-0.088s0.053-0.035 0.094-0.035c0.042 0 0.073 0.012 0.094 0.035s0.033 0.052 0.033 0.088c0 0.034-0.011 0.062-0.033 0.084s-0.053 0.034-0.094 0.034c-0.042 0-0.073-0.011-0.094-0.034s-0.031-0.051-0.031-0.084zM51.228 24.518c0-0.116 0.023-0.22 0.068-0.313s0.11-0.164 0.191-0.215c0.082-0.050 0.175-0.076 0.279-0.076 0.161 0 0.292 0.056 0.391 0.167s0.15 0.26 0.15 0.446v0.014c0 0.115-0.022 0.219-0.067 0.311s-0.107 0.162-0.189 0.214c-0.082 0.051-0.176 0.077-0.283 0.077-0.161 0-0.291-0.056-0.391-0.167s-0.149-0.26-0.149-0.444v-0.014zM51.432 24.542c0 0.131 0.030 0.237 0.091 0.317s0.143 0.119 0.245 0.119c0.103 0 0.185-0.040 0.245-0.121s0.091-0.194 0.091-0.34c0-0.13-0.031-0.235-0.093-0.315s-0.143-0.122-0.245-0.122c-0.1 0-0.181 0.040-0.242 0.119s-0.092 0.194-0.092 0.342zM52.661 25.122v-1.028h-0.187v-0.157h0.187v-0.122c0-0.127 0.034-0.225 0.102-0.295s0.164-0.104 0.288-0.104c0.047 0 0.093 0.006 0.139 0.019l-0.011 0.164c-0.034-0.007-0.071-0.010-0.11-0.010-0.066 0-0.116 0.019-0.152 0.058s-0.054 0.093-0.054 0.164v0.125h0.253v0.157h-0.253v1.028h-0.203zM54.987 23.7h-0.513v1.422h-0.209v-1.422h-0.511v-0.173h1.233v0.173zM55.412 25.122h-0.203v-1.185h0.203v1.185zM55.193 23.622c0-0.033 0.010-0.061 0.030-0.083s0.050-0.034 0.090-0.034c0.039 0 0.069 0.011 0.090 0.034s0.031 0.050 0.031 0.083-0.010 0.060-0.031 0.082c-0.020 0.022-0.050 0.033-0.090 0.033s-0.069-0.011-0.090-0.033c-0.020-0.022-0.030-0.049-0.030-0.082zM56.213 24.978c0.072 0 0.135-0.022 0.189-0.066s0.084-0.099 0.090-0.164h0.192c-0.004 0.068-0.027 0.133-0.070 0.194s-0.101 0.11-0.173 0.147c-0.071 0.037-0.147 0.055-0.228 0.055-0.161 0-0.29-0.054-0.386-0.161s-0.142-0.256-0.142-0.442v-0.034c0-0.115 0.021-0.218 0.063-0.308s0.103-0.16 0.182-0.209c0.080-0.050 0.173-0.074 0.282-0.074 0.133 0 0.243 0.040 0.331 0.119s0.135 0.183 0.141 0.31h-0.192c-0.006-0.077-0.035-0.14-0.088-0.188s-0.116-0.074-0.193-0.074c-0.103 0-0.183 0.037-0.24 0.112s-0.084 0.181-0.084 0.321v0.038c0 0.137 0.028 0.242 0.084 0.316s0.137 0.111 0.241 0.111zM57.242 24.573l-0.127 0.133v0.416h-0.203v-1.682h0.203v1.017l0.108-0.13 0.369-0.39h0.246l-0.461 0.495 0.515 0.69h-0.238l-0.413-0.549zM58.518 25.143c-0.161 0-0.291-0.052-0.392-0.158s-0.151-0.247-0.151-0.424v-0.037c0-0.118 0.022-0.222 0.067-0.314s0.108-0.165 0.188-0.217c0.081-0.053 0.169-0.079 0.263-0.079 0.154 0 0.274 0.051 0.359 0.152s0.128 0.247 0.128 0.436v0.084h-0.803c0.003 0.117 0.037 0.211 0.102 0.284s0.149 0.107 0.25 0.107c0.071 0 0.132-0.015 0.182-0.044s0.093-0.068 0.13-0.116l0.124 0.096c-0.099 0.153-0.248 0.229-0.447 0.229zM58.493 24.081c-0.082 0-0.15 0.030-0.206 0.090s-0.090 0.142-0.103 0.25h0.594v-0.015c-0.006-0.103-0.033-0.183-0.083-0.239s-0.117-0.085-0.202-0.085zM59.491 23.649v0.287h0.221v0.157h-0.221v0.735c0 0.047 0.010 0.083 0.030 0.107s0.053 0.035 0.101 0.035c0.023 0 0.055-0.004 0.096-0.013v0.164c-0.053 0.015-0.105 0.022-0.156 0.022-0.090 0-0.159-0.027-0.205-0.082s-0.069-0.133-0.069-0.233v-0.735h-0.216v-0.157h0.216v-0.287h0.203zM60.64 24.807c0-0.055-0.021-0.097-0.062-0.127s-0.113-0.057-0.216-0.079c-0.102-0.022-0.184-0.048-0.244-0.079s-0.105-0.067-0.134-0.11c-0.028-0.042-0.043-0.093-0.043-0.151 0-0.097 0.041-0.179 0.123-0.246s0.188-0.101 0.315-0.101c0.134 0 0.243 0.035 0.326 0.104s0.126 0.158 0.126 0.266h-0.204c0-0.055-0.024-0.103-0.071-0.143s-0.106-0.060-0.178-0.060c-0.074 0-0.131 0.016-0.173 0.048s-0.063 0.074-0.063 0.126c0 0.049 0.019 0.086 0.058 0.11s0.108 0.049 0.209 0.071c0.101 0.023 0.184 0.050 0.246 0.081s0.109 0.069 0.139 0.114c0.031 0.044 0.046 0.098 0.046 0.161 0 0.106-0.042 0.191-0.127 0.255s-0.195 0.095-0.33 0.095c-0.095 0-0.179-0.017-0.252-0.050s-0.13-0.080-0.172-0.14c-0.041-0.061-0.061-0.126-0.061-0.196h0.203c0.004 0.068 0.031 0.122 0.081 0.162s0.118 0.059 0.202 0.059c0.077 0 0.138-0.015 0.184-0.046s0.070-0.073 0.070-0.125zM62.084 24.527h-0.534v-0.165h0.534v0.165z">
            </path>
            <path
                d="M62.911 24.322l0.081-0.795h0.817v0.187h-0.645l-0.048 0.435c0.078-0.046 0.167-0.069 0.266-0.069 0.145 0 0.261 0.048 0.346 0.144s0.128 0.225 0.128 0.389c0 0.164-0.045 0.294-0.134 0.389s-0.212 0.141-0.371 0.141c-0.141 0-0.256-0.039-0.345-0.117s-0.14-0.186-0.152-0.324h0.192c0.012 0.091 0.045 0.16 0.097 0.207s0.122 0.069 0.208 0.069c0.094 0 0.168-0.032 0.221-0.096s0.081-0.153 0.081-0.266c0-0.107-0.029-0.192-0.088-0.256s-0.135-0.098-0.231-0.098c-0.088 0-0.158 0.019-0.208 0.058l-0.054 0.044-0.162-0.042zM65.077 24.441c0 0.237-0.041 0.414-0.122 0.529s-0.208 0.173-0.38 0.173c-0.17 0-0.296-0.056-0.378-0.169s-0.124-0.282-0.127-0.506v-0.27c0-0.234 0.041-0.409 0.122-0.522s0.208-0.171 0.381-0.171c0.171 0 0.298 0.055 0.379 0.165s0.123 0.279 0.125 0.508v0.263zM64.875 24.164c0-0.172-0.024-0.297-0.072-0.375s-0.125-0.118-0.229-0.118c-0.104 0-0.179 0.039-0.227 0.117s-0.072 0.198-0.073 0.36v0.324c0 0.172 0.025 0.3 0.074 0.382s0.126 0.123 0.228 0.123c0.1 0 0.174-0.039 0.222-0.116s0.074-0.199 0.077-0.366v-0.332z">
            </path>
            <path
                d="M70.021 24.384h-0.691v0.565h0.803v0.172h-1.013v-1.595h1.002v0.173h-0.792v0.513h0.691v0.172zM70.76 24.369l0.263-0.433h0.237l-0.388 0.586 0.4 0.599h-0.234l-0.274-0.444-0.274 0.444h-0.235l0.4-0.599-0.388-0.586h0.234l0.259 0.433zM72.477 24.542c0 0.18-0.041 0.326-0.124 0.436s-0.194 0.165-0.335 0.165c-0.144 0-0.257-0.046-0.34-0.137v0.571h-0.203v-1.641h0.185l0.010 0.131c0.083-0.102 0.197-0.153 0.344-0.153 0.142 0 0.255 0.054 0.337 0.161s0.125 0.257 0.125 0.448v0.019zM72.274 24.519c0-0.134-0.029-0.239-0.086-0.317s-0.135-0.116-0.234-0.116c-0.123 0-0.215 0.054-0.276 0.163v0.566c0.061 0.108 0.153 0.162 0.278 0.162 0.097 0 0.174-0.038 0.231-0.115s0.087-0.192 0.087-0.344zM72.955 25.122h-0.203v-1.185h0.203v1.185zM72.736 23.622c0-0.033 0.010-0.061 0.030-0.083s0.050-0.034 0.090-0.034c0.039 0 0.069 0.011 0.090 0.034s0.031 0.050 0.031 0.083-0.010 0.060-0.031 0.082c-0.020 0.022-0.050 0.033-0.090 0.033s-0.069-0.011-0.090-0.033c-0.020-0.022-0.030-0.049-0.030-0.082zM73.853 24.118c-0.031-0.005-0.064-0.008-0.1-0.008-0.133 0-0.223 0.057-0.271 0.17v0.841h-0.203v-1.185h0.197l0.003 0.137c0.066-0.106 0.161-0.159 0.282-0.159 0.039 0 0.069 0.005 0.090 0.015v0.188zM74.448 24.825l0.276-0.888h0.217l-0.476 1.368c-0.074 0.197-0.191 0.296-0.352 0.296l-0.038-0.003-0.076-0.014v-0.164l0.055 0.004c0.069 0 0.122-0.014 0.16-0.042s0.070-0.078 0.095-0.152l0.045-0.121-0.423-1.172h0.221l0.296 0.888zM75.711 25.122v-1.595h0.45c0.139 0 0.261 0.031 0.368 0.092s0.189 0.149 0.246 0.262c0.058 0.113 0.088 0.243 0.089 0.39v0.102c0 0.15-0.029 0.282-0.088 0.395s-0.141 0.2-0.249 0.261c-0.107 0.061-0.233 0.092-0.376 0.093h-0.441zM75.921 23.7v1.25h0.221c0.162 0 0.288-0.050 0.378-0.151s0.136-0.244 0.136-0.43v-0.093c0-0.181-0.043-0.322-0.128-0.422s-0.205-0.152-0.361-0.153h-0.245zM77.882 25.122c-0.012-0.023-0.021-0.065-0.029-0.125-0.094 0.098-0.207 0.147-0.337 0.147-0.117 0-0.213-0.033-0.288-0.099s-0.112-0.15-0.112-0.252c0-0.123 0.047-0.219 0.14-0.287s0.226-0.103 0.396-0.103h0.197v-0.093c0-0.071-0.021-0.127-0.063-0.169s-0.105-0.064-0.187-0.064c-0.072 0-0.133 0.018-0.182 0.055s-0.073 0.081-0.073 0.133h-0.204c0-0.059 0.021-0.116 0.063-0.171s0.099-0.099 0.171-0.131c0.072-0.032 0.152-0.048 0.238-0.048 0.137 0 0.243 0.034 0.321 0.103s0.118 0.162 0.12 0.282v0.545c0 0.109 0.014 0.195 0.042 0.26v0.017h-0.213zM77.546 24.967c0.064 0 0.124-0.016 0.181-0.049s0.098-0.076 0.124-0.128v-0.243h-0.159c-0.248 0-0.372 0.073-0.372 0.218 0 0.064 0.021 0.113 0.064 0.149s0.097 0.054 0.163 0.054zM78.646 23.649v0.287h0.221v0.157h-0.221v0.735c0 0.047 0.010 0.083 0.030 0.107s0.053 0.035 0.101 0.035c0.023 0 0.056-0.004 0.096-0.013v0.164c-0.053 0.015-0.105 0.022-0.156 0.022-0.091 0-0.159-0.027-0.205-0.082s-0.069-0.133-0.069-0.233v-0.735h-0.216v-0.157h0.216v-0.287h0.203zM79.596 25.143c-0.161 0-0.291-0.052-0.392-0.158s-0.151-0.247-0.151-0.424v-0.037c0-0.118 0.022-0.222 0.067-0.314s0.108-0.165 0.188-0.217c0.081-0.053 0.169-0.079 0.263-0.079 0.154 0 0.274 0.051 0.359 0.152s0.128 0.247 0.128 0.436v0.084h-0.803c0.003 0.117 0.037 0.211 0.102 0.284s0.149 0.107 0.25 0.107c0.071 0 0.132-0.015 0.182-0.044s0.093-0.068 0.13-0.116l0.124 0.096c-0.099 0.153-0.248 0.229-0.447 0.229zM79.571 24.081c-0.082 0-0.15 0.030-0.206 0.090s-0.090 0.142-0.103 0.25h0.594v-0.015c-0.006-0.103-0.034-0.183-0.083-0.239s-0.117-0.085-0.201-0.085zM81.272 24.527h-0.534v-0.165h0.534v0.165zM83.051 25.122h-1.045v-0.146l0.552-0.613c0.082-0.093 0.138-0.168 0.169-0.226s0.047-0.119 0.047-0.181c0-0.083-0.025-0.151-0.076-0.205s-0.118-0.080-0.201-0.080c-0.101 0-0.179 0.029-0.236 0.086s-0.083 0.137-0.083 0.239h-0.203c0-0.147 0.047-0.265 0.141-0.356s0.222-0.136 0.38-0.136c0.148 0 0.265 0.039 0.352 0.117s0.129 0.181 0.129 0.31c0 0.157-0.1 0.344-0.3 0.561l-0.427 0.463h0.801v0.165zM84.31 25.122h-1.045v-0.146l0.552-0.613c0.082-0.093 0.138-0.168 0.169-0.226s0.047-0.119 0.047-0.181c0-0.083-0.025-0.151-0.076-0.205s-0.118-0.080-0.201-0.080c-0.101 0-0.179 0.029-0.236 0.086s-0.083 0.137-0.083 0.239h-0.203c0-0.147 0.047-0.265 0.141-0.356s0.222-0.136 0.38-0.136c0.148 0 0.265 0.039 0.352 0.117s0.129 0.181 0.129 0.31c0 0.157-0.1 0.344-0.3 0.561l-0.427 0.463h0.801v0.165zM84.586 25.258h-0.174l0.666-1.732h0.173l-0.665 1.732zM86.449 24.441c0 0.237-0.041 0.414-0.122 0.529s-0.208 0.173-0.38 0.173c-0.17 0-0.296-0.056-0.378-0.169s-0.124-0.282-0.127-0.506v-0.27c0-0.234 0.041-0.409 0.122-0.522s0.208-0.171 0.381-0.171c0.171 0 0.298 0.055 0.379 0.165s0.123 0.279 0.125 0.508v0.263zM86.247 24.164c0-0.172-0.024-0.297-0.072-0.375s-0.125-0.118-0.229-0.118c-0.104 0-0.179 0.039-0.227 0.117s-0.072 0.198-0.073 0.36v0.324c0 0.172 0.025 0.3 0.074 0.382s0.126 0.123 0.228 0.123c0.1 0 0.174-0.039 0.222-0.116s0.074-0.199 0.077-0.366v-0.332zM87.375 25.122h-0.204v-1.35l-0.409 0.15v-0.184l0.58-0.218h0.032v1.602zM88.030 25.258h-0.174l0.666-1.732h0.173l-0.665 1.732zM89.938 25.122h-1.045v-0.146l0.552-0.613c0.082-0.093 0.138-0.168 0.169-0.226s0.047-0.119 0.047-0.181c0-0.083-0.025-0.151-0.076-0.205s-0.118-0.080-0.202-0.080c-0.101 0-0.179 0.029-0.235 0.086s-0.083 0.137-0.083 0.239h-0.203c0-0.147 0.047-0.265 0.141-0.356s0.222-0.136 0.38-0.136c0.148 0 0.265 0.039 0.352 0.117s0.129 0.181 0.129 0.31c0 0.157-0.1 0.344-0.3 0.561l-0.427 0.463h0.801v0.165zM91.152 24.441c0 0.237-0.041 0.414-0.122 0.529s-0.208 0.173-0.38 0.173c-0.17 0-0.296-0.056-0.378-0.169s-0.124-0.282-0.127-0.506v-0.27c0-0.234 0.041-0.409 0.122-0.522s0.208-0.171 0.381-0.171c0.171 0 0.298 0.055 0.379 0.165s0.123 0.279 0.125 0.508v0.263zM90.949 24.164c0-0.172-0.024-0.297-0.072-0.375s-0.125-0.118-0.229-0.118c-0.104 0-0.179 0.039-0.227 0.117s-0.072 0.198-0.073 0.36v0.324c0 0.172 0.025 0.3 0.074 0.382s0.126 0.123 0.228 0.123c0.1 0 0.174-0.039 0.222-0.116s0.074-0.199 0.077-0.366v-0.332zM92.456 25.122h-1.045v-0.146l0.552-0.613c0.082-0.093 0.138-0.168 0.169-0.226s0.047-0.119 0.047-0.181c0-0.083-0.025-0.151-0.076-0.205s-0.118-0.080-0.202-0.080c-0.101 0-0.179 0.029-0.236 0.086s-0.083 0.137-0.083 0.239h-0.203c0-0.147 0.047-0.265 0.141-0.356s0.222-0.136 0.38-0.136c0.148 0 0.265 0.039 0.352 0.117s0.129 0.181 0.129 0.31c0 0.157-0.1 0.344-0.3 0.561l-0.427 0.463h0.801v0.165zM93.716 25.122h-1.045v-0.146l0.552-0.613c0.082-0.093 0.138-0.168 0.169-0.226s0.047-0.119 0.047-0.181c0-0.083-0.025-0.151-0.076-0.205s-0.118-0.080-0.202-0.080c-0.101 0-0.179 0.029-0.236 0.086s-0.083 0.137-0.083 0.239h-0.203c0-0.147 0.047-0.265 0.141-0.356s0.221-0.136 0.38-0.136c0.148 0 0.265 0.039 0.352 0.117s0.129 0.181 0.129 0.31c0 0.157-0.1 0.344-0.3 0.561l-0.427 0.463h0.801v0.165z">
            </path>
            <path
                d="M5.36 23.826v0.512h0.646v0.199h-0.646v0.534h0.79v0.201h-1.019v-1.646h1.019v0.201h-0.79zM6.692 25.297c-0.113 0-0.199-0.032-0.258-0.096s-0.089-0.155-0.089-0.275c0-0.118 0.030-0.204 0.091-0.258 0.061-0.056 0.157-0.090 0.29-0.103l0.34-0.031v-0.093c0-0.070-0.015-0.12-0.045-0.151-0.030-0.032-0.075-0.048-0.134-0.048-0.134 0-0.289 0.010-0.464 0.029l-0.007-0.163c0.169-0.040 0.326-0.060 0.471-0.060 0.14 0 0.242 0.032 0.306 0.096 0.064 0.062 0.096 0.161 0.096 0.297v0.577c0.003 0.032 0.014 0.057 0.031 0.074 0.019 0.016 0.049 0.027 0.089 0.034l-0.007 0.172c-0.069 0-0.127-0.008-0.175-0.024-0.048-0.014-0.090-0.038-0.127-0.069-0.136 0.062-0.271 0.093-0.407 0.093zM6.733 25.111c0.097 0 0.191-0.015 0.282-0.045l0.050-0.017v-0.352l-0.311 0.029c-0.062 0.006-0.108 0.026-0.139 0.057-0.029 0.030-0.043 0.076-0.043 0.136 0 0.128 0.053 0.191 0.16 0.191zM7.628 24.075h0.22v0.151c0.142-0.091 0.282-0.15 0.421-0.177v0.225c-0.062 0.013-0.127 0.030-0.194 0.053s-0.123 0.044-0.167 0.065l-0.057 0.026v0.854h-0.223v-1.196zM8.488 23.568h0.223v1.703h-0.223v-1.703zM9.422 25.271h-0.194l-0.325-1.196h0.223l0.273 1.005h0.072l0.275-1.005h0.223l-0.474 1.718h-0.22l0.148-0.522zM10.741 23.625h0.613c0.169 0 0.293 0.034 0.373 0.103 0.081 0.069 0.122 0.178 0.122 0.328 0 0.094-0.016 0.17-0.048 0.227-0.032 0.056-0.083 0.102-0.153 0.139 0.083 0.032 0.144 0.079 0.184 0.141 0.041 0.062 0.062 0.145 0.062 0.249 0 0.306-0.172 0.459-0.517 0.459h-0.636v-1.646zM11.353 24.338c0.089 0 0.155-0.022 0.199-0.065s0.065-0.108 0.065-0.196c0-0.088-0.022-0.151-0.067-0.191-0.045-0.041-0.114-0.062-0.208-0.062h-0.371v0.514h0.383zM11.367 25.070c0.097 0 0.171-0.020 0.22-0.060s0.074-0.107 0.074-0.201c0-0.182-0.101-0.273-0.304-0.273h-0.388v0.534h0.397zM12.179 24.075h0.223v1.196h-0.223v-1.196zM12.179 23.599h0.22v0.242h-0.22v-0.242zM12.73 24.075h0.22v0.151c0.142-0.091 0.282-0.15 0.421-0.177v0.225c-0.062 0.013-0.127 0.030-0.194 0.053s-0.123 0.044-0.167 0.065l-0.057 0.026v0.854h-0.223v-1.196zM13.933 25.297c-0.155 0-0.266-0.049-0.333-0.148-0.067-0.101-0.101-0.253-0.101-0.457 0-0.227 0.040-0.39 0.12-0.49 0.080-0.102 0.207-0.153 0.383-0.153 0.085 0 0.178 0.011 0.28 0.034v-0.514h0.223v1.703h-0.223v-0.072c-0.124 0.065-0.241 0.098-0.349 0.098zM13.979 25.096c0.038 0 0.082-0.006 0.132-0.017s0.092-0.024 0.129-0.038l0.043-0.017v-0.754c-0.099-0.019-0.183-0.029-0.254-0.029-0.11 0-0.187 0.034-0.232 0.101s-0.067 0.179-0.067 0.337c0 0.144 0.018 0.249 0.055 0.316 0.038 0.067 0.103 0.101 0.194 0.101zM15.392 23.625h0.603c0.183 0 0.32 0.045 0.409 0.134s0.134 0.226 0.134 0.409c0 0.188-0.046 0.331-0.139 0.428-0.091 0.096-0.226 0.144-0.404 0.144h-0.373v0.531h-0.23v-1.646zM15.993 24.539c0.207 0 0.311-0.124 0.311-0.371 0-0.12-0.025-0.206-0.074-0.261-0.049-0.056-0.128-0.084-0.237-0.084h-0.371v0.715h0.371zM16.777 24.075h0.22v0.151c0.142-0.091 0.282-0.15 0.421-0.177v0.225c-0.062 0.013-0.127 0.030-0.194 0.053s-0.123 0.044-0.167 0.065l-0.057 0.026v0.854h-0.223v-1.196zM17.623 24.075h0.223v1.196h-0.223v-1.196zM17.623 23.599h0.22v0.242h-0.22v-0.242zM18.591 25.297c-0.118 0-0.213-0.022-0.285-0.065-0.070-0.043-0.121-0.11-0.153-0.201-0.030-0.091-0.045-0.211-0.045-0.359 0-0.198 0.034-0.351 0.103-0.459 0.070-0.11 0.196-0.165 0.378-0.165 0.046 0 0.096 0.003 0.148 0.010 0.053 0.005 0.123 0.016 0.213 0.034l-0.007 0.177c-0.136-0.013-0.231-0.019-0.287-0.019-0.085 0-0.15 0.013-0.196 0.038s-0.079 0.069-0.098 0.129c-0.018 0.061-0.026 0.147-0.026 0.258 0 0.108 0.009 0.192 0.026 0.251 0.019 0.059 0.052 0.102 0.098 0.129s0.114 0.041 0.203 0.041l0.282-0.022 0.007 0.182c-0.16 0.027-0.28 0.041-0.361 0.041zM19.655 25.297c-0.183 0-0.314-0.047-0.392-0.141-0.078-0.096-0.117-0.246-0.117-0.452 0-0.222 0.041-0.386 0.124-0.493 0.084-0.108 0.215-0.163 0.39-0.163 0.325 0 0.488 0.185 0.488 0.555l-0.014 0.163h-0.763c0.002 0.086 0.013 0.153 0.034 0.201 0.021 0.046 0.054 0.080 0.101 0.101s0.112 0.031 0.196 0.031c0.049 0 0.105-0.001 0.167-0.002 0.062-0.003 0.118-0.007 0.167-0.012l0.067-0.007 0.005 0.172c-0.187 0.032-0.337 0.048-0.452 0.048zM19.925 24.592c0-0.129-0.021-0.221-0.062-0.275-0.040-0.054-0.108-0.081-0.203-0.081-0.101 0-0.174 0.029-0.22 0.086-0.046 0.056-0.070 0.146-0.072 0.27h0.557z">
            </path>
            <path
                d="M6.568 7.339h-0.225c-0.015 0-0.029-0.006-0.040-0.016s-0.016-0.025-0.016-0.040v-0.113h-0.113v0.113c0 0.015-0.006 0.029-0.016 0.040s-0.025 0.016-0.040 0.016h-0.225c-0.015 0-0.029-0.006-0.040-0.016s-0.016-0.025-0.016-0.040v-0.113h-0.113v0.113c0 0.015-0.006 0.029-0.016 0.040s-0.025 0.016-0.040 0.016h-0.225c-0.015 0-0.029-0.006-0.040-0.016s-0.016-0.025-0.016-0.040v-0.113h-0.113v0.113c0 0.015-0.006 0.029-0.016 0.040s-0.025 0.016-0.040 0.016h-0.225c-0.015 0-0.029-0.006-0.040-0.016s-0.016-0.025-0.016-0.040v-1.746h0.113v1.69h0.113v-0.056c0-0.030 0.012-0.059 0.033-0.080s0.050-0.033 0.080-0.033h0.113c0.030 0 0.059 0.012 0.080 0.033s0.033 0.050 0.033 0.080v0.056h0.113v-0.056c0-0.030 0.012-0.059 0.033-0.080s0.050-0.033 0.080-0.033h0.113c0.030 0 0.059 0.012 0.080 0.033s0.033 0.050 0.033 0.080v0.056h0.113v-0.056c0-0.030 0.012-0.059 0.033-0.080s0.050-0.033 0.080-0.033h0.113c0.030 0 0.059 0.012 0.080 0.033s0.033 0.050 0.033 0.080v0.056h0.113v-0.563h0.113v0.62c0 0.015-0.006 0.029-0.016 0.040s-0.025 0.016-0.040 0.016z">
            </path>
            <path
                d="M6.624 6.55h-0.113v-1.802h-0.113v0.056c0 0.030-0.012 0.059-0.033 0.080s-0.050 0.033-0.080 0.033h-0.113c-0.030 0-0.059-0.012-0.080-0.033s-0.033-0.050-0.033-0.080v-0.056h-0.113v0.056c0 0.030-0.012 0.059-0.033 0.080s-0.050 0.033-0.080 0.033h-0.113c-0.030 0-0.059-0.012-0.080-0.033s-0.033-0.050-0.033-0.080v-0.056h-0.113v0.056c0 0.030-0.012 0.059-0.033 0.080s-0.050 0.033-0.080 0.033h-0.113c-0.030 0-0.059-0.012-0.080-0.033s-0.033-0.050-0.033-0.080v-0.056h-0.113v0.676h-0.113v-0.732c0-0.015 0.006-0.029 0.016-0.040s0.025-0.016 0.040-0.016h0.225c0.015 0 0.029 0.006 0.040 0.016s0.016 0.025 0.016 0.040v0.113h0.113v-0.113c0-0.015 0.006-0.029 0.016-0.040s0.025-0.016 0.040-0.016h0.225c0.015 0 0.029 0.006 0.040 0.016s0.016 0.025 0.016 0.040v0.113h0.113v-0.113c0-0.015 0.006-0.029 0.016-0.040s0.025-0.016 0.040-0.016h0.225c0.015 0 0.029 0.006 0.040 0.016s0.016 0.025 0.016 0.040v0.113h0.113v-0.113c0-0.015 0.006-0.029 0.016-0.040s0.025-0.016 0.040-0.016h0.225c0.015 0 0.029 0.006 0.040 0.016s0.016 0.025 0.016 0.040v1.859z">
            </path>
            <path d="M5.216 6.776h-0.225v0.113h0.225v-0.113z"></path>
            <path d="M5.554 6.776h-0.225v0.113h0.225v-0.113z"></path>
            <path d="M5.892 6.776h-0.225v0.113h0.225v-0.113z"></path>
            <path d="M6.23 6.776h-0.225v0.113h0.225v-0.113z"></path>
            <path d="M6.568 6.776h-0.225v0.113h0.225v-0.113z"></path>
            <path d="M6.568 5.030h-1.577v0.113h1.577v-0.113z"></path>
            <path d="M6.568 5.199h-1.577v0.113h1.577v-0.113z"></path>
            <path
                d="M6.793 7.339h-0.225v-0.113h0.187l0.46-1.203 0.105 0.040-0.474 1.239c-0.004 0.011-0.011 0.020-0.021 0.026s-0.021 0.010-0.032 0.010z">
            </path>
            <path
                d="M7.363 5.951l-0.105-0.040 0.25-0.654-0.105-0.038-0.019 0.052c-0.010 0.028-0.031 0.050-0.058 0.063s-0.058 0.014-0.086 0.004l-0.106-0.038c-0.014-0.005-0.027-0.013-0.038-0.023s-0.020-0.022-0.026-0.036c-0.006-0.013-0.010-0.028-0.010-0.042s0.002-0.029 0.007-0.043l0.019-0.051-0.105-0.038-0.019 0.052c-0.010 0.028-0.031 0.050-0.058 0.063s-0.058 0.014-0.086 0.004l-0.106-0.038c-0.014-0.005-0.027-0.013-0.038-0.022s-0.020-0.022-0.026-0.035c-0.006-0.013-0.010-0.028-0.011-0.043s0.002-0.029 0.007-0.043l0.019-0.051-0.11-0.039 0.038-0.106 0.163 0.059c0.007 0.003 0.013 0.006 0.019 0.011s0.010 0.011 0.013 0.018c0.003 0.007 0.005 0.014 0.005 0.021s-0.001 0.015-0.003 0.022l-0.039 0.104 0.106 0.037 0.039-0.104c0.005-0.014 0.016-0.025 0.029-0.032s0.029-0.007 0.043-0.002l0.211 0.076c0.007 0.003 0.013 0.006 0.019 0.011s0.010 0.011 0.013 0.018c0.003 0.007 0.005 0.014 0.005 0.021s-0.001 0.015-0.003 0.022l-0.038 0.104 0.106 0.037 0.039-0.104c0.005-0.014 0.016-0.025 0.029-0.032s0.029-0.007 0.043-0.002l0.211 0.076c0.007 0.003 0.014 0.006 0.019 0.011s0.010 0.011 0.013 0.018c0.003 0.007 0.005 0.014 0.005 0.022s-0.001 0.015-0.004 0.022l-0.271 0.708z">
            </path>
            <path d="M6.587 5.219l-0.038 0.106 0.879 0.315 0.038-0.106-0.879-0.315z"></path>
            <path d="M6.587 5.396l-0.038 0.106 0.821 0.295 0.038-0.106-0.821-0.295z"></path>
        </symbol>
        <symbol id="icon-arr-left-spear" viewBox="0 0 36 32">
            <path
                d="M1.113 14.151c-0.694 0.694-0.694 1.82 0 2.514l11.314 11.314c0.694 0.694 1.82 0.694 2.514 0s0.694-1.82 0-2.514l-10.057-10.057 10.057-10.057c0.694-0.694 0.694-1.82 0-2.514s-1.82-0.694-2.514 0l-11.314 11.314zM35.556 13.63l-33.185-0v3.556l33.185 0v-3.556z">
            </path>
        </symbol>
        <symbol id="icon-Arrow---Down-2" viewBox="0 0 54 32">
            <path
                d="M3.075 2.387c0.939-0.954 2.409-1.040 3.445-0.26l0.297 0.26 21.199 21.528 21.199-21.528c0.939-0.954 2.409-1.040 3.445-0.26l0.297 0.26c0.939 0.954 1.025 2.446 0.256 3.498l-0.256 0.301-23.069 23.427c-0.939 0.954-2.409 1.041-3.445 0.26l-0.297-0.26-23.069-23.427c-1.033-1.049-1.033-2.75 0-3.799z">
            </path>
        </symbol>
        <symbol id="icon-Arrow---Left-Circle" viewBox="0 0 34 32">
            <path
                d="M32.419 16c0-8.837-7.196-16-16.072-16s-16.072 7.163-16.072 16c0 8.836 7.197 16 16.072 16s16.072-7.164 16.072-16zM30.008 16c0 7.51-6.117 13.6-13.661 13.6s-13.661-6.090-13.661-13.6c0-7.511 6.117-13.6 13.661-13.6s13.661 6.089 13.661 13.6zM19.632 11.162c0.351-0.469 0.314-1.136-0.113-1.563-0.47-0.47-1.233-0.471-1.705-0.004l-5.603 5.554-0.117 0.135c-0.352 0.471-0.313 1.14 0.117 1.566l5.603 5.554 0.135 0.116c0.473 0.348 1.142 0.307 1.569-0.12l0.116-0.135c0.349-0.471 0.309-1.137-0.12-1.562l-4.744-4.705 4.744-4.702 0.117-0.134z">
            </path>
        </symbol>
        <symbol id="icon-Arrow---Right-Circle" viewBox="0 0 34 32">
            <path
                d="M0.563 16c0 8.837 7.196 16 16.072 16s16.072-7.163 16.072-16c0-8.836-7.197-16-16.072-16s-16.072 7.164-16.072 16zM2.973 16c0-7.51 6.117-13.6 13.661-13.6s13.661 6.090 13.661 13.6c0 7.511-6.117 13.6-13.661 13.6s-13.661-6.089-13.661-13.6zM13.349 20.838c-0.351 0.469-0.314 1.136 0.113 1.563 0.47 0.47 1.233 0.471 1.705 0.004l5.603-5.554 0.117-0.135c0.352-0.47 0.313-1.139-0.117-1.566l-5.603-5.554-0.135-0.116c-0.473-0.348-1.142-0.307-1.569 0.12l-0.116 0.135c-0.349 0.471-0.309 1.137 0.12 1.562l4.744 4.705-4.744 4.702-0.117 0.134z">
            </path>
        </symbol>
        <symbol id="icon-arrow-spear-left" viewBox="0 0 32 32">
            <path
                d="M29.994 14.291h-21.231l9.752-9.752-2.477-2.46-13.956 13.956 13.956 13.956 2.46-2.46-9.734-9.752h21.231v-3.489z">
            </path>
        </symbol>
        <symbol id="icon-arr-right" viewBox="0 0 36 32">
            <path
                d="M34.456 16.665c0.694-0.694 0.694-1.82 0-2.514l-11.314-11.314c-0.694-0.694-1.82-0.694-2.514 0s-0.694 1.82 0 2.514l10.057 10.057-10.057 10.057c-0.694 0.694-0.694 1.82 0 2.514s1.82 0.694 2.514 0l11.314-11.314zM0.014 17.186h33.185v-3.556h-33.185v3.556z">
            </path>
        </symbol>
        <symbol id="icon-arr-right-spear" viewBox="0 0 36 32">
            <path
                d="M34.456 16.665c0.694-0.694 0.694-1.82 0-2.514l-11.314-11.314c-0.694-0.694-1.82-0.694-2.514 0s-0.694 1.82 0 2.514l10.057 10.057-10.057 10.057c-0.694 0.694-0.694 1.82 0 2.514s1.82 0.694 2.514 0l11.314-11.314zM0.014 17.186h33.185v-3.556h-33.185v3.556z">
            </path>
        </symbol>
        <symbol id="icon-Calendar" viewBox="0 0 32 32">
            <path stroke-linejoin="round" stroke-linecap="round" stroke-miterlimit="4" stroke-width="2.6667"
                d="M4.123 12.539h23.765"></path>
            <path stroke-linejoin="round" stroke-linecap="round" stroke-miterlimit="4" stroke-width="2.6667"
                d="M21.923 17.746h0.012"></path>
            <path stroke-linejoin="round" stroke-linecap="round" stroke-miterlimit="4" stroke-width="2.6667"
                d="M16.006 17.746h0.012"></path>
            <path stroke-linejoin="round" stroke-linecap="round" stroke-miterlimit="4" stroke-width="2.6667"
                d="M10.078 17.746h0.012"></path>
            <path stroke-linejoin="round" stroke-linecap="round" stroke-miterlimit="4" stroke-width="2.6667"
                d="M21.923 22.928h0.012"></path>
            <path stroke-linejoin="round" stroke-linecap="round" stroke-miterlimit="4" stroke-width="2.6667"
                d="M16.006 22.928h0.012"></path>
            <path stroke-linejoin="round" stroke-linecap="round" stroke-miterlimit="4" stroke-width="2.6667"
                d="M10.078 22.928h0.012"></path>
            <path stroke-linejoin="round" stroke-linecap="round" stroke-miterlimit="4" stroke-width="2.6667"
                d="M21.392 2.667v4.388"></path>
            <path stroke-linejoin="round" stroke-linecap="round" stroke-miterlimit="4" stroke-width="2.6667"
                d="M10.621 2.667v4.388"></path>
            <path stroke-linejoin="round" stroke-linecap="round" stroke-miterlimit="4" stroke-width="2.6667"
                d="M21.651 4.772h-11.29c-3.916 0-6.361 2.181-6.361 6.191v12.066c0 4.072 2.446 6.304 6.361 6.304h11.277c3.928 0 6.361-2.194 6.361-6.203v-12.167c0.012-4.009-2.421-6.191-6.349-6.191z">
            </path>
        </symbol>
        <symbol id="icon-Call" viewBox="0 0 32 32">
            <path
                d="M31.038 23.511c-0.888-0.909-4.732-3.965-5.686-4.165-1.061-0.224-1.901 0.264-2.644 0.691-0.763 0.44-1.421 0.821-2.25 0.52-4.249-1.734-7.284-4.768-9.012-9-0.306-0.842 0.074-1.502 0.514-2.266 0.427-0.741 0.909-1.582 0.69-2.643-0.198-0.954-3.254-4.797-4.164-5.685-0.602-0.586-1.216-0.909-1.845-0.962-2.373-0.099-5.305 3.318-5.771 4.069-1.165 1.605-1.157 3.734 0.021 6.32 2.836 6.944 13.677 17.785 20.703 20.707 1.295 0.602 2.481 0.902 3.545 0.902 1.043 0 1.97-0.29 2.767-0.862 0.6-0.342 4.18-3.379 4.094-5.797-0.051-0.618-0.374-1.232-0.96-1.83z">
            </path>
        </symbol>
        <symbol id="icon-Chart" viewBox="0 0 34 32">
            <path
                d="M23.38 0h-14.011c-5.441 0-9.066 3.872-9.066 9.429v13.142c0 5.562 3.616 9.429 9.066 9.429h14.011c5.45 0 9.066-3.867 9.066-9.429v-13.142c0-5.562-3.616-9.429-9.066-9.429zM9.37 2.233h14.011c4.175 0 6.824 2.833 6.824 7.197v13.142c0 4.364-2.649 7.197-6.824 7.197h-14.011c-4.175 0-6.824-2.833-6.824-7.197v-13.142c0-4.358 2.658-7.197 6.824-7.197zM17.543 8.286c-0.074-0.545-0.543-0.965-1.111-0.965-0.619 0-1.121 0.5-1.121 1.116v15.096l0.010 0.152c0.074 0.545 0.543 0.965 1.111 0.965 0.619 0 1.121-0.5 1.121-1.116v-15.096l-0.010-0.151zM10.566 13.172c-0.074-0.545-0.543-0.965-1.111-0.965-0.619 0-1.121 0.5-1.121 1.116v10.21l0.010 0.152c0.074 0.545 0.543 0.965 1.111 0.965 0.619 0 1.121-0.5 1.121-1.116v-10.21l-0.010-0.151zM23.295 17.603c0.568 0 1.037 0.42 1.111 0.965l0.010 0.152v4.815c0 0.616-0.502 1.116-1.121 1.116-0.568 0-1.037-0.42-1.111-0.965l-0.010-0.152v-4.815c0-0.616 0.502-1.116 1.121-1.116z">
            </path>
        </symbol>
        <symbol id="icon-copy" viewBox="0 0 29 32">
            <path
                d="M17.837 32h-11.937c-2.757 0-5-2.243-5-5v-16.938c0-2.757 2.243-5 5-5h11.937c2.757 0 5 2.243 5 5v16.938c0 2.757-2.243 5-5 5zM5.9 7.563c-1.378 0-2.5 1.122-2.5 2.5v16.938c0 1.378 1.122 2.5 2.5 2.5h11.937c1.378 0 2.5-1.122 2.5-2.5v-16.938c0-1.378-1.122-2.5-2.5-2.5h-11.937zM27.837 23.875v-18.875c0-2.757-2.243-5-5-5h-13.875c-0.69 0-1.25 0.56-1.25 1.25s0.56 1.25 1.25 1.25h13.875c1.378 0 2.5 1.122 2.5 2.5v18.875c0 0.69 0.56 1.25 1.25 1.25s1.25-0.56 1.25-1.25z">
            </path>
        </symbol>
        <symbol id="icon-copy-ring" viewBox="0 0 46 32">
            <path
                d="M25.143 25.143c0 1.371-0.914 2.286-2.286 2.286h-16c-1.371 0-2.286-0.914-2.286-2.286v-9.143c0-1.371 0.914-2.286 2.286-2.286h16c1.371 0 2.286 0.914 2.286 2.286h4.571c0-3.886-2.971-6.857-6.857-6.857h-16c-3.886 0-6.857 2.971-6.857 6.857v9.143c0 3.886 2.971 6.857 6.857 6.857h16c3.886 0 6.857-2.971 6.857-6.857h-4.571z">
            </path>
            <path
                d="M38.857 0h-16c-3.886 0-6.857 2.971-6.857 6.857h4.571c0-1.371 0.914-2.286 2.286-2.286h16c1.371 0 2.286 0.914 2.286 2.286v9.143c0 1.371-0.914 2.286-2.286 2.286h-16c-1.371 0-2.286-0.914-2.286-2.286h-4.571c0 3.886 2.971 6.857 6.857 6.857h16c3.886 0 6.857-2.971 6.857-6.857v-9.143c0-3.886-2.971-6.857-6.857-6.857z">
            </path>
        </symbol>
        <symbol id="icon-delete" viewBox="0 0 27 32">
            <path
                d="M9.561 0.084v2.426h-9.172v4.464h26.205v-4.464h-9.172v-2.426h-7.861zM1.797 10.372v21.449h23.39v-21.449h-23.39z">
            </path>
        </symbol>
        <symbol id="icon-Dot" viewBox="0 0 32 32">
            <path d="M32 16c0 8.837-7.163 16-16 16s-16-7.163-16-16c0-8.837 7.163-16 16-16s16 7.163 16 16z"></path>
        </symbol>
        <symbol id="icon-Fb" viewBox="0 0 32 32">
            <path
                d="M32 16c0-8.838-7.163-16-16-16s-16 7.162-16 16c0 7.987 5.85 14.606 13.5 15.806v-11.181h-4.063v-4.625h4.063v-3.525c0-4.009 2.387-6.225 6.044-6.225 1.75 0 3.581 0.313 3.581 0.313v3.938h-2.019c-1.987 0-2.606 1.234-2.606 2.5v3h4.437l-0.709 4.625h-3.728v11.181c7.65-1.2 13.5-7.819 13.5-15.806z">
            </path>
            <path
                d="M22.228 20.625l0.709-4.625h-4.437v-3c0-1.266 0.619-2.5 2.606-2.5h2.019v-3.938c0 0-1.831-0.313-3.581-0.313-3.656 0-6.044 2.216-6.044 6.225v3.525h-4.063v4.625h4.063v11.181c0.816 0.128 1.65 0.194 2.5 0.194s1.684-0.066 2.5-0.194v-11.181h3.728z">
            </path>
        </symbol>
        <symbol id="icon-Filter" viewBox="0 0 40 32">
            <path
                d="M4.466 0c-2.449 0-4.463 1.984-4.463 4.395s2.014 4.395 4.463 4.395c2.449 0 4.463-1.984 4.463-4.395s-2.014-4.395-4.463-4.395v0zM4.466 2.637c1.002 0 1.785 0.772 1.785 1.758s-0.783 1.758-1.785 1.758c-1.002 0-1.785-0.772-1.785-1.758s0.783-1.758 1.785-1.758zM12.806 3.077c-0.701 0.036-1.306 0.697-1.269 1.387s0.708 1.286 1.409 1.25h24.1c0.707 0.010 1.358-0.622 1.358-1.319s-0.651-1.328-1.358-1.319c-8.076 0-16.173 0-24.239 0v0zM4.466 10.988c-2.449 0-4.463 1.983-4.463 4.395s2.014 4.395 4.463 4.395 4.463-1.984 4.463-4.395c0-2.412-2.014-4.395-4.463-4.395v0zM4.466 13.626c1.002 0 1.785 0.771 1.785 1.758s-0.783 1.758-1.785 1.758-1.785-0.772-1.785-1.758c0-0.987 0.783-1.758 1.785-1.758zM12.806 14.065c-0.701 0.036-1.306 0.697-1.269 1.387s0.708 1.286 1.409 1.25h24.1c0.707 0.010 1.358-0.622 1.358-1.319s-0.651-1.328-1.358-1.319c-8.076 0-16.173 0-24.239 0v0zM4.466 21.977c-2.449 0-4.463 1.983-4.463 4.395s2.014 4.395 4.463 4.395 4.463-1.983 4.463-4.395c0-2.412-2.014-4.395-4.463-4.395v0zM4.466 24.614c1.002 0 1.785 0.772 1.785 1.758s-0.783 1.758-1.785 1.758-1.785-0.772-1.785-1.758c0-0.987 0.783-1.758 1.785-1.758v0zM12.806 25.053c-0.701 0.036-1.306 0.697-1.269 1.387s0.708 1.286 1.409 1.25h8.926c0.707 0.010 1.358-0.622 1.358-1.319s-0.651-1.328-1.358-1.319c-3.017 0-6.059 0-9.065 0zM26.195 25.053c-0.701 0.036-1.306 0.697-1.269 1.387s0.708 1.286 1.409 1.25h2.678c0.707 0.010 1.358-0.622 1.358-1.319s-0.651-1.328-1.358-1.319c-0.932 0-1.897 0-2.817 0z">
            </path>
        </symbol>
        <symbol id="icon-image-thumbnail" viewBox="0 0 32 32">
            <path
                d="M9.311 2.806c-3.951 0-6.504 2.709-6.504 6.889v12.595c0 1.173 0.218 2.22 0.59 3.126 0.016-0.019 0.367-0.447 0.826-1.006 0.895-1.090 2.197-2.677 2.206-2.685 1.061-1.211 3.053-3.018 5.667-1.924 0.573 0.238 1.082 0.563 1.551 0.862 0.046 0.029 0.091 0.058 0.136 0.087 0.879 0.587 1.395 0.863 1.932 0.817 0.222-0.031 0.431-0.097 0.629-0.219 0.746-0.46 2.681-3.201 3.26-4.022 0.085-0.12 0.141-0.199 0.159-0.224 1.671-2.177 4.247-2.76 6.394-1.472 0.288 0.172 2.354 1.615 3.038 2.194v-8.13c0-4.18-2.553-6.889-6.518-6.889h-13.365zM22.675 0.667c5.178 0 8.657 3.622 8.657 9.028v12.595c0 0.136-0.014 0.264-0.029 0.391-0.010 0.090-0.020 0.179-0.025 0.271-0.003 0.056-0.005 0.112-0.006 0.168-0.002 0.074-0.004 0.149-0.010 0.223-0.003 0.029-0.009 0.057-0.015 0.085s-0.012 0.056-0.015 0.085c-0.051 0.482-0.129 0.942-0.238 1.388-0.026 0.112-0.056 0.219-0.086 0.328l-0.006 0.024c-0.123 0.432-0.267 0.845-0.44 1.239-0.030 0.066-0.062 0.131-0.094 0.195-0.021 0.043-0.043 0.086-0.064 0.13-0.187 0.376-0.389 0.736-0.624 1.070-0.043 0.062-0.090 0.12-0.136 0.178-0.031 0.038-0.061 0.077-0.091 0.116-0.244 0.316-0.498 0.618-0.787 0.892-0.058 0.055-0.12 0.105-0.182 0.155-0.039 0.031-0.078 0.063-0.115 0.095-0.296 0.254-0.598 0.498-0.931 0.707-0.073 0.046-0.15 0.084-0.227 0.122-0.050 0.025-0.099 0.049-0.148 0.076-0.339 0.187-0.681 0.37-1.053 0.511-0.090 0.034-0.185 0.059-0.281 0.083-0.068 0.018-0.136 0.035-0.202 0.056-0.033 0.010-0.066 0.021-0.099 0.031-0.333 0.104-0.665 0.207-1.023 0.268-0.208 0.036-0.428 0.050-0.648 0.064-0.095 0.006-0.191 0.012-0.285 0.020-0.102 0.008-0.201 0.020-0.301 0.032-0.162 0.020-0.325 0.040-0.496 0.040h-13.365c-0.577 0-1.127-0.058-1.659-0.146-0.019-0.003-0.037-0.006-0.056-0.009l-0.001-0c-2.075-0.357-3.797-1.358-5.003-2.869-0.008 0-0.012-0.006-0.016-0.013-0.003-0.005-0.006-0.011-0.012-0.016-1.213-1.527-1.898-3.58-1.898-5.991v-12.595c0-5.407 3.482-9.028 8.645-9.028h13.365zM14.467 10.656c0 2.078-1.738 3.81-3.826 3.81-1.835 0-3.399-1.341-3.75-3.076-0.058-0.26-0.091-0.528-0.091-0.805 0-2.092 1.7-3.785 3.801-3.785 1.070 0 2.038 0.45 2.732 1.168 0.697 0.693 1.134 1.647 1.134 2.689z">
            </path>
        </symbol>
        <symbol id="icon-image-upload" viewBox="0 0 32 32">
            <path stroke-linejoin="round" stroke-linecap="round" stroke-miterlimit="4" stroke-width="1.5484"
                d="M21.738 3.667h-11.532c-4.020 0-6.539 2.845-6.539 6.872v10.865c0 4.027 2.508 6.872 6.539 6.872h11.531c4.032 0 6.54-2.845 6.54-6.872v-10.865c0-4.027-2.508-6.872-6.539-6.872z">
            </path>
            <path stroke-linejoin="round" stroke-linecap="round" stroke-miterlimit="4" stroke-width="1.5484"
                d="M14.271 11.714c0 1.359-1.103 2.461-2.461 2.461-1.357 0-2.46-1.103-2.46-2.461s1.103-2.461 2.46-2.461c1.359 0 2.461 1.103 2.461 2.461z">
            </path>
            <path stroke-linejoin="round" stroke-linecap="round" stroke-miterlimit="4" stroke-width="1.5484"
                d="M28.276 19.934c-1.325-1.153-2.479-2.541-3.999-3.457-1.523-0.916-3.159-0.351-4.215 1.016-1.020 1.321-1.657 3.099-3.197 3.932-1.897 1.028-3.012-0.629-4.595-1.293-1.767-0.74-3.108 0.591-4.14 1.869-1.033 1.28-2.080 2.547-3.131 3.813">
            </path>
        </symbol>
        <symbol id="icon-info-circle" viewBox="0 0 32 32">
            <path
                d="M15.998 14.51c-0.395 0-0.774 0.157-1.054 0.436s-0.436 0.659-0.436 1.054v5.961c0 0.395 0.157 0.774 0.436 1.054s0.659 0.437 1.054 0.437c0.395 0 0.774-0.157 1.054-0.437s0.436-0.658 0.436-1.054v-5.961c0-0.395-0.157-0.774-0.436-1.054s-0.659-0.436-1.054-0.436zM16.564 8.668c-0.363-0.149-0.77-0.149-1.133 0-0.183 0.071-0.35 0.177-0.492 0.313-0.132 0.145-0.237 0.311-0.313 0.492-0.083 0.177-0.124 0.371-0.119 0.566-0.001 0.196 0.036 0.391 0.111 0.572s0.183 0.347 0.322 0.486c0.145 0.132 0.311 0.237 0.492 0.313 0.226 0.093 0.471 0.129 0.714 0.104s0.476-0.108 0.679-0.243c0.203-0.135 0.37-0.319 0.485-0.534s0.177-0.455 0.178-0.699c-0.006-0.395-0.16-0.772-0.432-1.058-0.142-0.136-0.309-0.242-0.492-0.313zM15.998 1.098c-2.947 0-5.828 0.874-8.279 2.511s-4.361 3.965-5.489 6.688c-1.128 2.723-1.423 5.719-0.848 8.61s1.994 5.546 4.078 7.63c2.084 2.084 4.739 3.503 7.63 4.078s5.887 0.28 8.61-0.848c2.723-1.128 5.050-3.038 6.688-5.489s2.511-5.332 2.511-8.279c0-1.957-0.386-3.895-1.134-5.703s-1.846-3.451-3.23-4.835c-1.384-1.384-3.026-2.481-4.834-3.23s-3.746-1.134-5.703-1.134zM15.998 27.922c-2.358 0-4.663-0.699-6.623-2.009s-3.489-3.172-4.391-5.35c-0.902-2.178-1.138-4.575-0.678-6.888s1.595-4.437 3.263-6.104c1.667-1.667 3.791-2.803 6.104-3.263s4.71-0.224 6.888 0.678c2.178 0.902 4.040 2.43 5.35 4.391s2.009 4.265 2.009 6.623c0 3.162-1.256 6.194-3.492 8.43s-5.268 3.492-8.43 3.492z">
            </path>
        </symbol>
        <symbol id="icon-Insta" viewBox="0 0 32 32">
            <path
                d="M15.994 2.883c4.273 0 4.775 0.019 6.464 0.095 1.562 0.070 2.406 0.33 2.971 0.552 0.749 0.292 1.283 0.635 1.841 1.194s0.908 1.092 1.194 1.841c0.216 0.565 0.483 1.41 0.552 2.971 0.076 1.689 0.095 2.19 0.095 6.463s-0.019 4.775-0.095 6.463c-0.070 1.562-0.33 2.406-0.552 2.971-0.292 0.749-0.635 1.283-1.194 1.841s-1.092 0.908-1.841 1.194c-0.565 0.216-1.409 0.483-2.971 0.552-1.689 0.076-2.191 0.095-6.464 0.095s-4.775-0.019-6.463-0.095c-1.562-0.070-2.406-0.33-2.971-0.552-0.749-0.292-1.283-0.635-1.841-1.194s-0.908-1.092-1.194-1.841c-0.216-0.565-0.483-1.41-0.552-2.971-0.076-1.689-0.095-2.19-0.095-6.463s0.019-4.775 0.095-6.463c0.070-1.562 0.33-2.406 0.552-2.971 0.292-0.749 0.635-1.283 1.194-1.841s1.092-0.908 1.841-1.194c0.565-0.216 1.41-0.483 2.971-0.552 1.689-0.083 2.19-0.095 6.463-0.095zM15.994 0c-4.343 0-4.889 0.019-6.597 0.095-1.702 0.076-2.864 0.349-3.879 0.743-1.054 0.406-1.943 0.959-2.832 1.848s-1.435 1.784-1.848 2.832c-0.394 1.016-0.667 2.178-0.743 3.886-0.076 1.702-0.095 2.248-0.095 6.59s0.019 4.889 0.095 6.597c0.076 1.701 0.349 2.863 0.743 3.886 0.406 1.054 0.959 1.943 1.848 2.832s1.784 1.435 2.832 1.848c1.016 0.394 2.178 0.667 3.886 0.743s2.248 0.095 6.597 0.095 4.889-0.019 6.597-0.095c1.702-0.076 2.863-0.349 3.886-0.743 1.054-0.406 1.943-0.959 2.832-1.848s1.435-1.784 1.848-2.832c0.394-1.016 0.667-2.178 0.743-3.886s0.095-2.248 0.095-6.597c0-4.349-0.019-4.889-0.095-6.597-0.076-1.702-0.349-2.864-0.743-3.886-0.406-1.054-0.959-1.943-1.848-2.832s-1.784-1.435-2.832-1.848c-1.016-0.394-2.178-0.667-3.886-0.743-1.714-0.070-2.26-0.089-6.603-0.089z">
            </path>
            <path
                d="M15.997 7.777c-4.533 0-8.216 3.676-8.216 8.216s3.683 8.216 8.216 8.216c4.533 0 8.216-3.683 8.216-8.216s-3.683-8.216-8.216-8.216zM15.997 21.327c-2.946 0-5.333-2.387-5.333-5.333s2.387-5.333 5.333-5.333c2.946 0 5.333 2.387 5.333 5.333s-2.387 5.333-5.333 5.333z">
            </path>
            <path
                d="M24.532 9.371c1.059 0 1.917-0.858 1.917-1.917s-0.858-1.917-1.917-1.917c-1.059 0-1.917 0.858-1.917 1.917s0.859 1.917 1.917 1.917z">
            </path>
        </symbol>
        <symbol id="icon-Location" viewBox="0 0 25 32">
            <path
                d="M12.444 1.635c6.873 0 12.444 5.571 12.444 12.444 0 5.259-3.695 10.989-10.989 17.254-0.406 0.348-0.923 0.54-1.457 0.539s-1.052-0.193-1.456-0.542l-0.482-0.419c-6.971-6.101-10.503-11.691-10.503-16.832 0-6.873 5.571-12.444 12.444-12.444zM12.444 9.293c-1.269 0-2.487 0.504-3.384 1.402s-1.402 2.115-1.402 3.384c0 1.269 0.504 2.487 1.402 3.384s2.115 1.402 3.384 1.402 2.487-0.504 3.384-1.402c0.898-0.898 1.402-2.115 1.402-3.384s-0.504-2.487-1.402-3.384c-0.898-0.898-2.115-1.402-3.384-1.402z">
            </path>
        </symbol>
        <symbol id="icon-Lock" viewBox="0 0 29 32">
            <path
                d="M23.024 11.008v-2.528c0-4.672-3.869-8.48-8.601-8.48h-0.049c-4.731 0-8.601 3.778-8.617 8.48v2.528c0.764-0.254 1.577-0.4 2.422-0.4h0.016v-2.16c0.016-3.342 2.78-6.048 6.194-6.048h0.016c3.414 0 6.178 2.736 6.178 6.080v2.128h0.016c0.816 0 1.616 0.136 2.344 0.374-0.727-0.238-1.528-0.373-2.343-0.373h-12.421c-0.845 0-1.658 0.146-2.422 0.4-2.878 0.992-4.959 3.682-4.959 6.864v6.864c0 4 3.317 7.264 7.381 7.264h12.421c4.081 0 7.397-3.264 7.397-7.264v-6.864c0-3.182-2.081-5.872-4.975-6.864-0-0-0-0-0-0zM15.823 23.072c0 0.784-0.634 1.408-1.431 1.408-0.78 0-1.414-0.624-1.414-1.408v-3.552c0-0.766 0.634-1.392 1.414-1.392 0.797 0 1.431 0.626 1.431 1.392v3.552z">
            </path>
        </symbol>
        <symbol id="icon-Love" viewBox="0 0 35 32">
            <path fill="none" stroke="#219653" style="stroke: var(--color5, #219653)" stroke-linejoin="miter"
                stroke-linecap="butt" stroke-miterlimit="4" stroke-width="1.0323"
                d="M17.517 5.195l0.435 0.685 0.436-0.685c2.854-4.485 6.888-5.415 10.179-4.127 3.327 1.302 6.013 4.917 6.013 9.775 0 1.754-0.907 3.828-2.382 6.024-1.465 2.182-3.443 4.416-5.482 6.474-2.037 2.057-4.123 3.926-5.795 5.382-0.601 0.523-1.147 0.991-1.619 1.395-0.186 0.159-0.36 0.308-0.521 0.447-0.327 0.281-0.61 0.527-0.83 0.725-0.228-0.201-0.523-0.449-0.864-0.731-0.233-0.193-0.489-0.404-0.767-0.633-0.437-0.36-0.928-0.764-1.465-1.211-1.749-1.456-3.936-3.326-6.074-5.383-2.141-2.059-4.22-4.293-5.761-6.476-1.552-2.198-2.503-4.269-2.503-6.014 0-4.877 2.872-8.499 6.412-9.8 3.513-1.291 7.748-0.321 10.589 4.151z">
            </path>
        </symbol>
        <symbol id="icon-Message" viewBox="0 0 36 32">
            <path
                d="M26.559 0c2.384 0 4.677 0.942 6.364 2.633 1.689 1.687 2.633 3.963 2.633 6.345v14.044c0 4.96-4.036 8.978-8.997 8.978h-17.563c-4.962 0-8.996-4.018-8.996-8.978v-14.044c0-4.96 4.016-8.978 8.996-8.978h17.563zM29.388 11.627l0.142-0.142c0.425-0.516 0.425-1.262-0.020-1.778-0.247-0.265-0.587-0.427-0.94-0.462-0.373-0.020-0.729 0.107-0.997 0.356l-8.016 6.4c-1.031 0.855-2.508 0.855-3.556 0l-8-6.4c-0.553-0.409-1.317-0.356-1.778 0.124-0.48 0.48-0.533 1.244-0.126 1.778l0.233 0.231 8.089 6.311c0.996 0.782 2.203 1.209 3.467 1.209 1.26 0 2.489-0.427 3.483-1.209l8.020-6.418z">
            </path>
        </symbol>
        <symbol id="icon-Modal-cancle" viewBox="0 0 32 32">
            <path stroke-linejoin="round" stroke-linecap="round" stroke-miterlimit="4" stroke-width="4"
                d="M2 30l28-28M30 30l-28-28"></path>
        </symbol>
        <symbol id="icon-option-3dot" viewBox="0 0 102 32">
            <path
                d="M23.901 16c0-6.165-4.998-11.163-11.163-11.163s-11.163 4.998-11.163 11.163c0 6.165 4.998 11.163 11.163 11.163s11.163-4.998 11.163-11.163z">
            </path>
            <path
                d="M59.626 16c0-6.165-4.998-11.163-11.163-11.163s-11.163 4.998-11.163 11.163c0 6.165 4.998 11.163 11.163 11.163s11.163-4.998 11.163-11.163z">
            </path>
            <path
                d="M97.576 16c0-6.165-4.998-11.163-11.163-11.163s-11.163 4.998-11.163 11.163c0 6.165 4.998 11.163 11.163 11.163s11.163-4.998 11.163-11.163z">
            </path>
        </symbol>
        <symbol id="icon-Profile" viewBox="0 0 26 32">
            <path
                d="M12.807 0c-4.694 0-8.5 3.822-8.5 8.536s3.806 8.536 8.5 8.536c4.694 0 8.5-3.822 8.5-8.536s-3.806-8.536-8.5-8.536zM12.807 2.316c3.421 0 6.194 2.785 6.194 6.22s-2.773 6.22-6.194 6.22c-3.421 0-6.194-2.785-6.194-6.22s2.773-6.22 6.194-6.22zM9.328 20.513c-1.244 0.086-2.502 0.264-3.743 0.53-2.395 0.493-4.31 1.479-5.126 3.116-0.308 0.64-0.462 1.326-0.46 2.020-0.001 0.689 0.152 1.376 0.449 2.004 0.783 1.619 2.475 2.535 4.761 3.043l0.409 0.085c1.207 0.272 2.465 0.456 3.732 0.542 0.108 0.032 0.365 0.061 0.646 0.075l0.231 0.009c0.119 0.003 0.253 0.004 0.454 0.004 1.821 0.1 3.708 0.071 5.586-0.089 1.001-0.068 2.009-0.199 3.008-0.391l0.748-0.155c2.468-0.487 4.316-1.413 5.126-3.12 0.6-1.268 0.6-2.739 0-4.006-0.808-1.703-2.632-2.621-5.145-3.139-0.986-0.21-1.988-0.366-2.996-0.466l-0.738-0.062c-2.31-0.204-4.633-0.204-6.943 0zM16.070 22.821l0.020 0.002c1.158 0.081 2.309 0.244 3.444 0.486 1.866 0.384 3.133 1.022 3.533 1.867 0.302 0.637 0.302 1.378-0 2.015-0.374 0.79-1.512 1.4-3.156 1.772l-0.36 0.076c-1.158 0.258-2.305 0.425-3.459 0.504-1.791 0.152-3.572 0.18-5.349 0.084l-0.63-0.011c-0.175-0.009-0.322-0.026-0.459-0.053-1.081-0.082-2.054-0.211-2.999-0.398l-0.564-0.119c-1.872-0.367-3.15-1.007-3.564-1.864-0.145-0.307-0.222-0.654-0.222-1.005-0.001-0.349 0.075-0.688 0.223-0.997 0.403-0.809 1.757-1.505 3.528-1.87 1.143-0.245 2.294-0.407 3.451-0.488 2.197-0.194 4.385-0.194 6.561-0.002z">
            </path>
        </symbol>
        <symbol id="icon-schedule" viewBox="0 0 30 32">
            <path
                d="M9.483 32c-0.642 0-1.251-0.051-1.825-0.152l-0.34-0.066c-3.695-0.789-5.843-3.694-5.843-8.117v-15.331c0-0.534 0.031-1.046 0.093-1.536 0.544-4.296 3.419-6.798 7.914-6.798h12.040c4.981 0 7.959 3.072 8.006 8.211v15.454c0 5.211-2.986 8.334-8.006 8.334h-12.040zM9.483 2.331c-3.828 0-5.768 2.021-5.768 6.003v15.331c0 3.982 1.94 6.003 5.768 6.003h12.025c3.826 0 5.754-2.021 5.754-6.003v-15.331c0-3.982-1.928-6.003-5.754-6.003h-12.025zM22.212 22.774c0-0.64-0.497-1.158-1.111-1.158h-11.238c-0.614 0-1.113 0.518-1.113 1.158s0.499 1.158 1.113 1.158h11.238c0.614 0 1.111-0.518 1.111-1.158zM21.101 14.834c0.428-0.048 0.848 0.163 1.077 0.542 0.229 0.382 0.229 0.866 0 1.248-0.229 0.379-0.648 0.59-1.077 0.542h-11.238c-0.57-0.067-1.002-0.568-1.002-1.166s0.432-1.101 1.002-1.166h11.238zM15.154 9.234c0-0.598-0.432-1.101-1.002-1.166h-4.275c-0.572 0.066-1.004 0.568-1.004 1.166 0 0.597 0.432 1.099 1.004 1.165h4.275c0.57-0.066 1.002-0.568 1.002-1.165z">
            </path>
        </symbol>
        <symbol id="icon-Share" viewBox="0 0 30 32">
            <path
                d="M5.279 20.060c1.373 0 2.614-0.552 3.555-1.435l9.442 5.52c-0.112 0.43-0.171 0.872-0.176 1.316 0 2.978 2.368 5.401 5.279 5.401s5.279-2.423 5.279-5.401-2.368-5.401-5.279-5.401c-1.373 0-2.614 0.552-3.555 1.435l-9.442-5.52c0.095-0.381 0.155-0.775 0.163-1.185l9.278-5.424c0.943 0.883 2.184 1.435 3.557 1.435 2.911 0 5.279-2.423 5.279-5.401s-2.368-5.401-5.279-5.401c-2.911 0-5.279 2.423-5.279 5.401 0 0.457 0.072 0.892 0.176 1.316l-8.573 5.014c-0.477-0.757-1.132-1.38-1.905-1.812s-1.639-0.659-2.519-0.66c-2.911 0-5.279 2.423-5.279 5.401s2.368 5.401 5.279 5.401zM23.379 23.147c1.247 0 2.262 1.038 2.262 2.315s-1.015 2.315-2.262 2.315c-1.247 0-2.262-1.038-2.262-2.315s1.015-2.315 2.262-2.315zM23.379 3.086c1.247 0 2.262 1.038 2.262 2.315s-1.015 2.315-2.262 2.315c-1.247 0-2.262-1.039-2.262-2.315s1.015-2.315 2.262-2.315zM5.279 12.345c1.247 0 2.262 1.039 2.262 2.315s-1.015 2.315-2.262 2.315c-1.247 0-2.262-1.039-2.262-2.315s1.015-2.315 2.262-2.315z">
            </path>
        </symbol>
        <symbol id="icon-smile-face" viewBox="0 0 32 32">
            <path stroke-linejoin="miter" stroke-linecap="butt" stroke-miterlimit="4" stroke-width="0.8889"
                d="M16 1.778c-7.842 0-14.222 6.379-14.222 14.222s6.38 14.222 14.222 14.222c7.843 0 14.222-6.38 14.222-14.222s-6.38-14.222-14.222-14.222zM16 29.323c-7.346 0-13.324-5.977-13.324-13.324s5.977-13.324 13.324-13.324c7.347 0 13.324 5.977 13.324 13.324s-5.977 13.324-13.324 13.324z">
            </path>
            <path stroke-linejoin="miter" stroke-linecap="butt" stroke-miterlimit="4" stroke-width="0.8889"
                d="M16.001 23.919c-3.013 0-5.539-1.538-6.193-3.593h-0.934c0.644 2.555 3.593 4.492 7.126 4.492s6.482-1.937 7.126-4.492h-0.933c-0.654 2.055-3.18 3.593-6.193 3.593h0z">
            </path>
            <path stroke-linejoin="miter" stroke-linecap="butt" stroke-miterlimit="4" stroke-width="0.8889"
                d="M8.681 11.27h4.207v1.347h-4.207v-1.347z"></path>
            <path stroke-linejoin="miter" stroke-linecap="butt" stroke-miterlimit="4" stroke-width="0.8889"
                d="M19.91 11.27h4.207v1.347h-4.207v-1.347z"></path>
        </symbol>
        <symbol id="icon-un-happy-face" viewBox="0 0 32 32">
            <path fill="#01789a" style="fill: var(--color1, #01789a); stroke: var(--color1, #01789a)" stroke="#01789a"
                stroke-linejoin="miter" stroke-linecap="butt" stroke-miterlimit="4" stroke-width="0.8889"
                d="M16 1.778c-7.842 0-14.222 6.379-14.222 14.222s6.38 14.222 14.222 14.222 14.222-6.38 14.222-14.222c0-7.842-6.38-14.222-14.222-14.222zM16 29.323c-7.346 0-13.324-5.977-13.324-13.324s5.977-13.324 13.324-13.324c7.347 0 13.324 5.977 13.324 13.324s-5.977 13.324-13.324 13.324z">
            </path>
            <path fill="#01789a" style="fill: var(--color1, #01789a); stroke: var(--color1, #01789a)" stroke="#01789a"
                stroke-linejoin="miter" stroke-linecap="butt" stroke-miterlimit="4" stroke-width="0.8889"
                d="M15.994 20.326c-3.534 0-6.483 1.937-7.126 4.492h0.934c0.654-2.055 3.179-3.593 6.193-3.593s5.539 1.538 6.192 3.593h0.934c-0.645-2.555-3.594-4.492-7.127-4.492h-0z">
            </path>
            <path fill="#01789a" style="fill: var(--color1, #01789a); stroke: var(--color1, #01789a)" stroke="#01789a"
                stroke-linejoin="miter" stroke-linecap="butt" stroke-miterlimit="4" stroke-width="0.8889"
                d="M8.688 11.269h4.207v1.347h-4.207v-1.347z"></path>
            <path fill="#01789a" style="fill: var(--color1, #01789a); stroke: var(--color1, #01789a)" stroke="#01789a"
                stroke-linejoin="miter" stroke-linecap="butt" stroke-miterlimit="4" stroke-width="0.8889"
                d="M19.91 11.269h4.207v1.347h-4.207v-1.347z"></path>
        </symbol>
        <symbol id="icon-Star-filled" viewBox="0 0 36 32">
            <path
                d="M17.476 0l5.439 9.273 10.561 2.271-7.2 8.002 1.089 10.676-9.889-4.327-9.889 4.327 1.089-10.676-7.2-8.002 10.561-2.271 5.439-9.273z">
            </path>
        </symbol>
        <symbol id="icon-Star-outline" viewBox="0 0 34 32">
            <path
                d="M6.004 29.92c0.424 0.789 1.252 1.282 2.152 1.28 0.379 0.002 0.755-0.086 1.093-0.256l7.316-3.808c0.019-0.011 0.042-0.018 0.064-0.016l7.266 3.776c0.352 0.189 0.746 0.286 1.144 0.285 0.127 0 0.256-0.011 0.381-0.029 1.308-0.213 2.202-1.432 2.009-2.736l-1.414-8.016c-0.008-0.012-0.010-0.012-0.011-0.014s-0-0.001-0-0.002c0-0.005 0.011-0.016 0.011-0.016l5.898-5.68c0.871-0.837 0.982-2.186 0.257-3.152-0.394-0.506-0.971-0.838-1.607-0.928l-8.136-1.168c-0.014 0-0.031-0.016-0.047-0.032l-3.634-7.264c-0.41-0.821-1.249-1.339-2.17-1.344-0.267 0-0.534 0.042-0.788 0.128-0.609 0.206-1.112 0.642-1.398 1.216l-3.629 7.243c0 0.034-0.034 0.048-0.066 0.048l-8.116 1.168c-0.497 0.083-0.96 0.304-1.334 0.64-0.474 0.462-0.741 1.098-0.741 1.76 0.002 0.629 0.256 1.23 0.707 1.669l5.947 5.696c0.013 0.013 0.018 0.030 0.018 0.048l-1.432 7.984c-0.085 0.522 0.006 1.056 0.259 1.52zM16.532 3.147l0.016-0.011h0.030l0.015 0.014c0.014 0 0.027 0.003 0.039 0.013 0.010 0.010 0.014 0.022 0.013 0.037l3.632 7.23c0.349 0.712 1.027 1.208 1.815 1.328l8.136 1.178c0.015 0 0.029 0.003 0.042 0.010 0.008 0.002 0.015 0.002 0.023 0l0.016 0.014-0.016 0.035-5.898 5.694c-0.587 0.547-0.849 1.357-0.693 2.142l1.416 7.97-0.032 0.030h-0.034c-0.006 0.003-0.013 0.003-0.019 0-0.016-0.002-0.032-0.008-0.047-0.016h-0.015l-7.232-3.76c-0.347-0.179-0.733-0.275-1.125-0.274-0.403 0-0.802 0.101-1.159 0.29l-7.279 3.8c-0.008 0.002-0.018 0.002-0.026 0-0.034 0-0.063-0.022-0.071-0.054v-0.032l1.414-7.968c0.132-0.779-0.125-1.574-0.691-2.128l-5.947-5.68c-0.002-0.024 0.002-0.045 0.014-0.066l0.098-0.032 8.084-1.154c0.788-0.122 1.464-0.616 1.815-1.328l3.634-7.248c0.008-0.014 0.018-0.027 0.032-0.035z">
            </path>
        </symbol>
        <symbol id="icon-Ticket" viewBox="0 0 32 32">
            <path
                d="M18.396 30.449h-2.537c-0.168 0-0.33-0.067-0.449-0.186s-0.186-0.28-0.186-0.448v-1.269h-1.269v1.269c0 0.168-0.067 0.33-0.186 0.448s-0.28 0.186-0.449 0.186h-2.537c-0.168 0-0.33-0.067-0.449-0.186s-0.186-0.28-0.186-0.448v-1.269h-1.269v1.269c0 0.168-0.067 0.33-0.186 0.448s-0.28 0.186-0.449 0.186h-2.537c-0.168 0-0.33-0.067-0.449-0.186s-0.186-0.28-0.186-0.448v-1.269h-1.269v1.269c0 0.168-0.067 0.33-0.186 0.448s-0.28 0.186-0.449 0.186h-2.537c-0.168 0-0.33-0.067-0.449-0.186s-0.186-0.28-0.186-0.448v-19.665h1.269v19.031h1.269v-0.634c0-0.337 0.134-0.659 0.372-0.897s0.561-0.372 0.897-0.372h1.269c0.336 0 0.659 0.134 0.897 0.372s0.372 0.561 0.372 0.897v0.634h1.269v-0.634c0-0.337 0.134-0.659 0.372-0.897s0.561-0.372 0.897-0.372h1.269c0.337 0 0.659 0.134 0.897 0.372s0.372 0.561 0.372 0.897v0.634h1.269v-0.634c0-0.337 0.134-0.659 0.372-0.897s0.561-0.372 0.897-0.372h1.269c0.336 0 0.659 0.134 0.897 0.372s0.372 0.561 0.372 0.897v0.634h1.269v-6.344h1.269v6.978c0 0.168-0.067 0.33-0.186 0.448s-0.28 0.186-0.448 0.186z">
            </path>
            <path
                d="M19.031 21.568h-1.269v-20.299h-1.269v0.634c0 0.337-0.134 0.659-0.372 0.897s-0.561 0.372-0.897 0.372h-1.269c-0.336 0-0.659-0.134-0.897-0.372s-0.372-0.561-0.372-0.897v-0.634h-1.269v0.634c0 0.337-0.134 0.659-0.372 0.897s-0.561 0.372-0.897 0.372h-1.269c-0.336 0-0.659-0.134-0.897-0.372s-0.372-0.561-0.372-0.897v-0.634h-1.269v0.634c0 0.337-0.134 0.659-0.372 0.897s-0.561 0.372-0.897 0.372h-1.269c-0.337 0-0.659-0.134-0.897-0.372s-0.372-0.561-0.372-0.897v-0.634h-1.269v7.612h-1.269v-8.247c0-0.168 0.067-0.33 0.186-0.449s0.28-0.186 0.449-0.186h2.537c0.168 0 0.33 0.067 0.449 0.186s0.186 0.28 0.186 0.449v1.269h1.269v-1.269c0-0.168 0.067-0.33 0.186-0.449s0.28-0.186 0.449-0.186h2.537c0.168 0 0.33 0.067 0.449 0.186s0.186 0.28 0.186 0.449v1.269h1.269v-1.269c0-0.168 0.067-0.33 0.186-0.449s0.28-0.186 0.449-0.186h2.537c0.168 0 0.33 0.067 0.449 0.186s0.186 0.28 0.186 0.449v1.269h1.269v-1.269c0-0.168 0.067-0.33 0.186-0.449s0.28-0.186 0.449-0.186h2.537c0.168 0 0.33 0.067 0.448 0.186s0.186 0.28 0.186 0.449v20.934z">
            </path>
            <path d="M3.171 24.106h-2.537v1.269h2.537v-1.269z"></path>
            <path d="M6.978 24.106h-2.537v1.269h2.537v-1.269z"></path>
            <path d="M10.784 24.106h-2.537v1.269h2.537v-1.269z"></path>
            <path d="M14.59 24.106h-2.537v1.269h2.537v-1.269z"></path>
            <path d="M18.396 24.106h-2.537v1.269h2.537v-1.269z"></path>
            <path d="M18.396 4.44h-17.762v1.269h17.762v-1.269z"></path>
            <path d="M18.396 6.343h-17.762v1.269h17.762v-1.269z"></path>
            <path
                d="M20.934 30.449h-2.537v-1.269h2.101l5.187-13.548 1.185 0.454-5.343 13.956c-0.046 0.12-0.127 0.223-0.233 0.296s-0.231 0.111-0.36 0.111v0z">
            </path>
            <path
                d="M27.355 14.817l-1.185-0.453 2.82-7.369-1.18-0.423-0.216 0.584c-0.118 0.313-0.354 0.567-0.657 0.707s-0.65 0.156-0.964 0.043l-1.191-0.427c-0.158-0.056-0.302-0.143-0.426-0.255s-0.224-0.249-0.294-0.401c-0.070-0.15-0.11-0.312-0.117-0.477s0.019-0.33 0.077-0.485l0.212-0.571-1.188-0.426-0.216 0.584c-0.118 0.313-0.354 0.566-0.657 0.707s-0.65 0.155-0.964 0.043l-1.191-0.425c-0.157-0.055-0.301-0.141-0.424-0.253s-0.223-0.246-0.294-0.397c-0.071-0.15-0.111-0.313-0.118-0.479s0.018-0.332 0.076-0.488l0.212-0.571-1.239-0.444 0.429-1.194 1.84 0.661c0.079 0.028 0.151 0.072 0.213 0.128s0.112 0.125 0.148 0.201c0.035 0.076 0.055 0.158 0.059 0.242s-0.010 0.167-0.039 0.246l-0.434 1.174 1.189 0.411 0.441-1.175c0.058-0.157 0.175-0.285 0.327-0.355s0.325-0.079 0.483-0.022l2.38 0.858c0.079 0.028 0.151 0.072 0.213 0.128s0.112 0.125 0.147 0.201 0.055 0.158 0.059 0.242c0.003 0.084-0.010 0.167-0.039 0.246l-0.433 1.174 1.189 0.411 0.437-1.17c0.058-0.157 0.175-0.285 0.327-0.355s0.325-0.079 0.483-0.022l2.382 0.851c0.080 0.028 0.153 0.072 0.216 0.129s0.113 0.126 0.149 0.203c0.035 0.077 0.055 0.16 0.058 0.245s-0.011 0.169-0.041 0.248l-3.055 7.972z">
            </path>
            <path d="M18.608 6.576l-0.428 1.194 9.903 3.553 0.428-1.194-9.903-3.553z"></path>
            <path d="M18.61 8.571l-0.428 1.194 9.251 3.319 0.428-1.194-9.251-3.319z"></path>
        </symbol>
        <symbol id="icon-ticket-money" viewBox="0 0 46 32">
            <path
                d="M16 11.429c-0.606 0-1.188 0.241-1.616 0.669s-0.669 1.010-0.669 1.616v4.571c0 0.606 0.241 1.188 0.669 1.616s1.010 0.669 1.616 0.669c0.606 0 1.188-0.241 1.616-0.669s0.669-1.010 0.669-1.616v-4.571c0-0.606-0.241-1.188-0.669-1.616s-1.010-0.669-1.616-0.669zM43.429 13.714c0.606 0 1.188-0.241 1.616-0.669s0.669-1.010 0.669-1.616v-9.143c0-0.606-0.241-1.188-0.669-1.616s-1.010-0.669-1.616-0.669h-41.143c-0.606 0-1.188 0.241-1.616 0.669s-0.669 1.010-0.669 1.616v9.143c0 0.606 0.241 1.188 0.669 1.616s1.010 0.669 1.616 0.669c0.606 0 1.188 0.241 1.616 0.669s0.669 1.010 0.669 1.616c0 0.606-0.241 1.188-0.669 1.616s-1.010 0.669-1.616 0.669c-0.606 0-1.188 0.241-1.616 0.669s-0.669 1.010-0.669 1.616v9.143c0 0.606 0.241 1.188 0.669 1.616s1.010 0.669 1.616 0.669h41.143c0.606 0 1.188-0.241 1.616-0.669s0.669-1.010 0.669-1.616v-9.143c0-0.606-0.241-1.188-0.669-1.616s-1.010-0.669-1.616-0.669c-0.606 0-1.188-0.241-1.616-0.669s-0.669-1.010-0.669-1.616c0-0.606 0.241-1.188 0.669-1.616s1.010-0.669 1.616-0.669zM41.143 9.554c-1.324 0.48-2.467 1.357-3.276 2.51s-1.242 2.527-1.242 3.936 0.434 2.782 1.242 3.936c0.808 1.153 1.952 2.030 3.276 2.51v4.983h-22.857c0-0.606-0.241-1.188-0.669-1.616s-1.010-0.669-1.616-0.669c-0.606 0-1.188 0.241-1.616 0.669s-0.669 1.010-0.669 1.616h-9.143v-4.983c1.324-0.48 2.468-1.357 3.276-2.51s1.242-2.527 1.242-3.936c0-1.408-0.434-2.782-1.242-3.936s-1.952-2.030-3.276-2.51v-4.983h9.143c0 0.606 0.241 1.188 0.669 1.616s1.010 0.669 1.616 0.669c0.606 0 1.188-0.241 1.616-0.669s0.669-1.010 0.669-1.616h22.857v4.983z">
            </path>
        </symbol>
        <symbol id="icon-Time-Circle" viewBox="0 0 32 32">
            <path stroke-linejoin="round" stroke-linecap="round" stroke-miterlimit="4" stroke-width="2.6667"
                d="M28.333 16.001c0 6.812-5.521 12.333-12.333 12.333s-12.333-5.521-12.333-12.333c0-6.812 5.521-12.333 12.333-12.333s12.333 5.521 12.333 12.333z">
            </path>
            <path stroke-linejoin="round" stroke-linecap="round" stroke-miterlimit="4" stroke-width="2.6667"
                d="M20.575 19.924l-5.027-2.999v-6.463"></path>
        </symbol>
        <symbol id="icon-Twt" viewBox="0 0 38 32">
            <path
                d="M12.076 31.202c14.491 0 22.416-12.005 22.416-22.416 0-0.341 0-0.68-0.023-1.018 1.542-1.115 2.873-2.496 3.931-4.078-1.438 0.637-2.963 1.055-4.525 1.24 1.645-0.985 2.876-2.533 3.464-4.358-1.546 0.918-3.238 1.564-5.003 1.912-1.188-1.263-2.759-2.099-4.47-2.38s-3.467 0.011-4.996 0.829c-1.529 0.818-2.745 2.117-3.461 3.696s-0.892 3.35-0.499 5.039c-3.132-0.157-6.197-0.971-8.994-2.389s-5.265-3.409-7.243-5.842c-1.007 1.734-1.316 3.788-0.863 5.741s1.634 3.662 3.302 4.776c-1.254-0.037-2.48-0.375-3.576-0.986 0 0.032 0 0.066 0 0.1 0 1.819 0.63 3.582 1.782 4.989s2.756 2.373 4.538 2.734c-1.16 0.316-2.377 0.363-3.557 0.135 0.503 1.565 1.484 2.934 2.803 3.915s2.913 1.525 4.557 1.556c-2.79 2.192-6.236 3.383-9.784 3.379-0.627-0.001-1.253-0.039-1.875-0.114 3.603 2.312 7.795 3.539 12.076 3.533z">
            </path>
        </symbol>
        <symbol id="icon-un-happy-face" viewBox="0 0 32 32">
            <path stroke-linejoin="miter" stroke-linecap="butt" stroke-miterlimit="4" stroke-width="0.8889"
                d="M16 1.778c-7.842 0-14.222 6.379-14.222 14.222s6.38 14.222 14.222 14.222 14.222-6.38 14.222-14.222c0-7.842-6.38-14.222-14.222-14.222zM16 29.323c-7.346 0-13.324-5.977-13.324-13.324s5.977-13.324 13.324-13.324c7.347 0 13.324 5.977 13.324 13.324s-5.977 13.324-13.324 13.324z">
            </path>
            <path stroke-linejoin="miter" stroke-linecap="butt" stroke-miterlimit="4" stroke-width="0.8889"
                d="M15.994 20.326c-3.534 0-6.483 1.937-7.126 4.492h0.934c0.654-2.055 3.179-3.593 6.193-3.593s5.539 1.538 6.192 3.593h0.934c-0.645-2.555-3.594-4.492-7.127-4.492h-0z">
            </path>
            <path stroke-linejoin="miter" stroke-linecap="butt" stroke-miterlimit="4" stroke-width="0.8889"
                d="M8.688 11.269h4.207v1.347h-4.207v-1.347z"></path>
            <path stroke-linejoin="miter" stroke-linecap="butt" stroke-miterlimit="4" stroke-width="0.8889"
                d="M19.91 11.269h4.207v1.347h-4.207v-1.347z"></path>
        </symbol>
        <symbol id="icon-upload-spear" viewBox="0 0 32 32">
            <path stroke-linejoin="round" stroke-linecap="round" stroke-miterlimit="4" stroke-width="2.6667"
                d="M9.171 11.533h-1.382c-3.015 0-5.459 2.444-5.459 5.459v7.222c0 3.013 2.444 5.458 5.459 5.458h16.489c3.015 0 5.459-2.444 5.459-5.458v-7.237c0-3.006-2.437-5.444-5.443-5.444h-1.397">
            </path>
            <path stroke-linejoin="round" stroke-linecap="round" stroke-miterlimit="4" stroke-width="2.6667"
                d="M16.032 1.469v17.839"></path>
            <path stroke-linejoin="round" stroke-linecap="round" stroke-miterlimit="4" stroke-width="2.6667"
                d="M11.715 5.806l4.319-4.338 4.32 4.338"></path>
        </symbol>
        <symbol id="icon-user-group" viewBox="0 0 44 32">
            <path
                d="M30.317 8.466c0 4.699-3.746 8.467-8.419 8.467s-8.419-3.768-8.419-8.467c0-4.701 3.746-8.466 8.419-8.466s8.419 3.765 8.419 8.466zM21.898 32c-6.862 0-12.722-1.088-12.722-5.44 0-4.354 5.822-5.481 12.722-5.481 6.862 0 12.722 1.088 12.722 5.442 0 4.352-5.822 5.479-12.722 5.479zM33.914 8.618c0 2.396-0.715 4.627-1.968 6.483-0.129 0.191-0.014 0.448 0.213 0.488 0.313 0.054 0.638 0.085 0.967 0.094 3.286 0.086 6.236-2.041 7.050-5.243 1.207-4.757-2.337-9.028-6.85-9.028-0.491 0-0.96 0.052-1.417 0.146-0.063 0.014-0.129 0.043-0.165 0.099-0.043 0.068-0.011 0.16 0.032 0.22 1.356 1.911 2.136 4.242 2.136 6.742zM39.356 19.025c2.208 0.434 3.66 1.32 4.262 2.608 0.509 1.057 0.509 2.284 0 3.34-0.921 1.997-3.888 2.639-5.041 2.804-0.238 0.036-0.43-0.171-0.405-0.411 0.589-5.535-4.097-8.16-5.31-8.763-0.052-0.027-0.063-0.068-0.057-0.094 0.004-0.018 0.025-0.047 0.065-0.052 2.623-0.049 5.444 0.312 6.486 0.567zM10.874 15.683c0.329-0.009 0.652-0.038 0.967-0.094 0.227-0.040 0.342-0.297 0.213-0.488-1.254-1.855-1.968-4.087-1.968-6.483 0-2.5 0.781-4.831 2.136-6.742 0.043-0.059 0.073-0.151 0.032-0.22-0.036-0.054-0.104-0.085-0.165-0.099-0.458-0.094-0.928-0.146-1.418-0.146-4.513 0-8.057 4.271-6.848 9.028 0.815 3.203 3.764 5.33 7.050 5.243zM11.194 18.509c0.005 0.027-0.005 0.067-0.056 0.095-1.214 0.603-5.901 3.228-5.312 8.761 0.025 0.241-0.165 0.447-0.403 0.413-1.153-0.166-4.121-0.807-5.041-2.805-0.51-1.057-0.51-2.282 0-3.339 0.602-1.288 2.052-2.174 4.26-2.61 1.044-0.254 3.863-0.614 6.488-0.566 0.039 0.005 0.059 0.034 0.063 0.050z">
            </path>
        </symbol>
        <symbol id="icon-Vector" viewBox="0 0 35 32">
            <path stroke-linejoin="miter" stroke-linecap="butt" stroke-miterlimit="4" stroke-width="1.0323"
                d="M17.517 5.195l0.435 0.685 0.436-0.685c2.854-4.485 6.888-5.415 10.179-4.127 3.327 1.302 6.013 4.917 6.013 9.775 0 1.754-0.907 3.828-2.382 6.024-1.465 2.182-3.443 4.416-5.482 6.474-2.037 2.057-4.123 3.926-5.795 5.382-0.601 0.523-1.147 0.991-1.619 1.395-0.186 0.159-0.36 0.308-0.521 0.447-0.327 0.281-0.61 0.527-0.83 0.725-0.228-0.201-0.523-0.449-0.864-0.731-0.233-0.193-0.489-0.404-0.767-0.633-0.437-0.36-0.928-0.764-1.465-1.211-1.749-1.456-3.936-3.326-6.074-5.383-2.141-2.059-4.22-4.293-5.761-6.476-1.552-2.198-2.503-4.269-2.503-6.014 0-4.877 2.872-8.499 6.412-9.8 3.513-1.291 7.748-0.321 10.589 4.151z">
            </path>
        </symbol>
        <symbol id="icon-Wifi" viewBox="0 0 41 32">
            <path
                d="M34.624 17.548c-3.649-3.652-8.593-5.662-13.919-5.662s-10.269 2.010-13.918 5.662l3.47 3.47c2.724-2.724 6.433-4.226 10.448-4.226 4.015 0.002 7.724 1.502 10.448 4.226l3.47-3.47z">
            </path>
            <path
                d="M41.412 10.148c-11.221-11.224-30.191-11.224-41.412 0l3.47 3.47c9.344-9.344 25.127-9.344 34.471 0l3.471-3.47z">
            </path>
            <path
                d="M20.706 31.52c2.711 0 4.909-2.198 4.909-4.909s-2.198-4.909-4.909-4.909c-2.711 0-4.909 2.198-4.909 4.909s2.198 4.909 4.909 4.909z">
            </path>
        </symbol>
    </defs>
</svg>