
<svg width="16" height="16" viewBox="0 0 16 16" fill="none" xmlns="http://www.w3.org/2000/svg">
<path d="M9.545 8.86167C9.47828 8.92397 9.42506 8.99932 9.38865 9.08303C9.35224 9.16674 9.33341 9.25704 9.33333 9.34833V10.6667C9.33333 10.8435 9.40357 11.013 9.5286 11.1381C9.65362 11.2631 9.82319 11.3333 10 11.3333C10.1768 11.3333 10.3464 11.2631 10.4714 11.1381C10.5964 11.013 10.6667 10.8435 10.6667 10.6667V9.62333C11.5188 8.7222 11.9956 7.53023 12 6.29V3.305C11.9233 1.51333 10.0933 0 8 0C5.90667 0 4.07667 1.51333 4 3.33333V6.29C4.00441 7.53023 4.48119 8.7222 5.33333 9.62333V10.1933L1.785 11.4367C1.26333 11.6194 0.811347 11.9598 0.491564 12.4106C0.171782 12.8615 6.74923e-06 13.4006 0 13.9533V15.3333C0 15.5101 0.0702379 15.6797 0.195262 15.8047C0.320286 15.9298 0.489856 16 0.666667 16H10C10.1768 16 10.3464 15.9298 10.4714 15.8047C10.5964 15.6797 10.6667 15.5101 10.6667 15.3333C10.6667 15.1565 10.5964 14.987 10.4714 14.8619C10.3464 14.7369 10.1768 14.6667 10 14.6667H1.33333V13.9533C1.3334 13.6769 1.41941 13.4072 1.57946 13.1818C1.7395 12.9564 1.96568 12.7862 2.22667 12.695L6.22667 11.2967C6.35605 11.2499 6.46779 11.1642 6.54657 11.0514C6.62534 10.9386 6.6673 10.8042 6.66667 10.6667V9.34833C6.6668 9.25717 6.64823 9.16694 6.61211 9.08323C6.57599 8.99953 6.52309 8.92412 6.45667 8.86167C6.10433 8.53197 5.82298 8.13385 5.62983 7.69166C5.43668 7.24948 5.33579 6.77253 5.33333 6.29V3.36167C5.37833 2.28167 6.625 1.33333 8 1.33333C9.375 1.33333 10.6217 2.28167 10.6667 3.33333V6.29C10.6643 6.77239 10.5637 7.24924 10.3708 7.6914C10.1779 8.13357 9.89695 8.53177 9.545 8.86167Z" fill="#023E4F"/>
<path d="M15.3334 12.6666H14.0001V11.3333C14.0001 11.1565 13.9298 10.9869 13.8048 10.8619C13.6798 10.7369 13.5102 10.6666 13.3334 10.6666C13.1566 10.6666 12.987 10.7369 12.862 10.8619C12.737 10.9869 12.6667 11.1565 12.6667 11.3333V12.6666H11.3334C11.1566 12.6666 10.987 12.7369 10.862 12.8619C10.737 12.9869 10.6667 13.1565 10.6667 13.3333C10.6667 13.5101 10.737 13.6797 10.862 13.8047C10.987 13.9297 11.1566 14 11.3334 14H12.6667V15.3333C12.6667 15.5101 12.737 15.6797 12.862 15.8047C12.987 15.9297 13.1566 16 13.3334 16C13.5102 16 13.6798 15.9297 13.8048 15.8047C13.9298 15.6797 14.0001 15.5101 14.0001 15.3333V14H15.3334C15.5102 14 15.6798 13.9297 15.8048 13.8047C15.9298 13.6797 16.0001 13.5101 16.0001 13.3333C16.0001 13.1565 15.9298 12.9869 15.8048 12.8619C15.6798 12.7369 15.5102 12.6666 15.3334 12.6666Z" fill="#023E4F"/>
</svg>
