<svg width="40" height="38" viewBox="0 0 40 38" fill="none" xmlns="http://www.w3.org/2000/svg">
<path d="M34.3826 3.73899H29.4365V2.69347C29.4365 1.68816 28.6322 0.883911 27.6269 0.883911C26.6216 0.883911 25.8174 1.68816 25.8174 2.69347V3.73899H14.1156V2.69347C14.1156 1.68816 13.3113 0.883911 12.306 0.883911C11.3007 0.883911 10.4964 1.68816 10.4964 2.69347V3.73899H5.59053C3.01694 3.73899 0.885681 5.83004 0.885681 8.44385V32.9332C0.885681 35.5068 2.97673 37.6381 5.59053 37.6381H34.4228C36.9964 37.6381 39.1277 35.547 39.1277 32.9332V8.44385C39.0875 5.83004 36.9964 3.73899 34.3826 3.73899ZM5.59053 7.35811H10.5367V8.40363C10.5367 9.40894 11.3409 10.2132 12.3462 10.2132C13.3515 10.2132 14.1558 9.40894 14.1558 8.40363V7.35811H25.8576V8.40363C25.8576 9.40894 26.6618 10.2132 27.6671 10.2132C28.6725 10.2132 29.4767 9.40894 29.4767 8.40363V7.35811H34.4228C35.026 7.35811 35.5086 7.84066 35.5086 8.44385V13.2291H4.5048V8.44385C4.5048 7.84066 4.98735 7.35811 5.59053 7.35811ZM34.3826 34.0189H5.59053C4.98735 34.0189 4.5048 33.5364 4.5048 32.9332V16.808H35.5086V32.9332C35.4684 33.5364 34.9858 34.0189 34.3826 34.0189Z" fill="#023E4F"/>
</svg>
