<svg width="179" height="172" viewBox="0 0 179 172" fill="none" xmlns="http://www.w3.org/2000/svg">
<path d="M158.675 13.7406H132.512V6.21148C132.512 2.8234 129.688 0 126.3 0C122.912 0 120.089 2.8234 120.089 6.21148V13.7406H58.915V6.21148C58.915 2.8234 56.0916 0 52.7035 0C49.3154 0 46.492 2.8234 46.492 6.21148V13.7406H20.1403C9.03489 13.7406 0 22.7754 0 33.8808V151.711C0 162.816 9.03489 171.851 20.1403 171.851H158.675C169.781 171.851 178.815 162.816 178.815 151.711V33.6926C178.815 22.7754 169.781 13.7406 158.675 13.7406ZM166.392 151.523C166.392 155.664 163.004 159.052 158.675 159.052H20.1403C15.9993 159.052 12.423 155.664 12.423 151.523V71.7144H166.204V151.523H166.392ZM166.392 59.1032H12.423V33.6926C12.423 29.5516 15.8111 26.1635 20.1403 26.1635H46.3038V33.6926C46.3038 37.0807 49.1272 39.9041 52.5153 39.9041C55.9034 39.9041 58.7268 37.0807 58.7268 33.6926V26.1635H119.9V33.6926C119.9 37.0807 122.724 39.9041 126.112 39.9041C129.5 39.9041 132.323 37.0807 132.323 33.6926V26.1635H158.487C162.628 26.1635 166.204 29.5516 166.204 33.6926V59.1032H166.392Z" fill="#01789A"/>
<path d="M72.4674 121.217C73.2203 121.782 73.4085 122.912 73.2203 123.664L70.9616 136.464C70.3969 139.475 73.5968 141.922 76.4202 140.417L87.7138 134.582C88.4667 134.205 89.596 134.205 90.3489 134.582L101.831 140.605C104.654 142.111 107.854 139.664 107.289 136.652L105.219 124.041C105.031 123.1 105.407 122.159 105.972 121.594L115.383 112.559C117.642 110.3 116.324 106.536 113.313 106.159L100.701 104.277C99.7603 104.089 99.0074 103.524 98.6309 102.771L92.7959 91.1012C91.4783 88.2778 87.5255 88.2778 86.0197 91.1012L80.3729 102.583C79.9965 103.336 79.2436 104.089 78.3024 104.089L65.3148 105.971C62.3032 106.348 60.9856 110.112 63.2443 112.371L72.4674 121.217Z" fill="#01789A"/>
</svg>
