<svg width="130" height="167" viewBox="0 0 130 167" fill="none" xmlns="http://www.w3.org/2000/svg">
<path d="M102.713 128.883C118.168 132.353 129.813 146.228 129.813 162.692V163.972C129.813 165.502 128.572 166.743 127.044 166.743H63.287C61.7569 166.743 60.5162 165.502 60.5162 163.972V162.692C60.5162 145.928 72.5715 131.855 88.4448 128.704C93.137 127.783 98.052 127.823 102.713 128.883V128.883ZM42.1948 41.4682C57.6517 44.9406 69.2969 58.8133 69.2969 75.2778V76.5601C69.2969 78.0881 68.0562 79.3288 66.5261 79.3288H2.76871C1.24072 79.3288 0 78.0881 0 76.5601V75.2778C0 58.5135 12.0554 44.441 27.9265 41.2913C32.6209 40.3691 37.5358 40.4086 42.1948 41.4682V41.4682ZM79.6036 46.9578C77.0285 44.3848 80.9443 40.4669 83.5194 43.042L92.3376 51.8603V20.6904C92.3376 17.0474 97.8772 17.0474 97.8772 20.6904V51.9748L106.81 43.042C109.385 40.4669 113.301 44.3848 110.728 46.9578L97.1236 60.562C96.0431 61.6424 94.2862 61.6424 93.2057 60.562L79.6036 46.9578V46.9578ZM34.6485 0C45.3736 0 54.0898 8.71416 54.0898 19.4434C54.0898 30.179 45.3861 38.8848 34.6485 38.8848C23.9129 38.8848 15.205 30.1748 15.205 19.4434C15.205 8.71832 23.9254 0 34.6485 0V0ZM34.6485 5.53951C26.9585 5.53951 20.7445 11.7514 20.7445 19.4434C20.7445 27.1313 26.9606 33.3453 34.6485 33.3453C42.328 33.3453 48.5503 27.1209 48.5503 19.4434C48.5503 11.7577 42.3322 5.53951 34.6485 5.53951V5.53951ZM46.6101 48.7606L37.0071 64.5589C35.9246 66.3492 33.337 66.3076 32.2857 64.5527L22.6868 48.7627C13.0546 53.1426 6.14738 62.6333 5.57698 73.7893H63.72C63.1496 62.6333 56.2465 53.1406 46.6101 48.7606ZM28.0306 46.937L34.6485 57.8245L41.2642 46.937C36.9321 45.9128 32.3669 45.9148 28.0306 46.937V46.937ZM19.0854 119.785C16.5124 122.36 20.4281 126.276 23.0032 123.703L31.8215 114.883V146.055C31.8215 149.696 37.361 149.696 37.361 146.055V114.77L46.2937 123.703C48.8688 126.276 52.7846 122.36 50.2095 119.785L36.6074 106.181C35.527 105.103 33.77 105.103 32.6896 106.181L19.0854 119.785V119.785ZM95.1646 87.4143C105.892 87.4143 114.608 96.1285 114.608 106.856C114.608 117.593 105.902 126.299 95.1646 126.299C84.4312 126.299 75.7233 117.589 75.7233 106.856C75.7233 96.1326 84.4416 87.4143 95.1646 87.4143ZM95.1646 92.9538C87.4747 92.9538 81.2628 99.1657 81.2628 106.856C81.2628 114.546 87.4768 120.76 95.1646 120.76C102.844 120.76 109.069 114.535 109.069 106.856C109.069 99.172 102.85 92.9538 95.1646 92.9538ZM107.126 136.175L97.5233 151.973C96.4408 153.764 93.8532 153.722 92.8019 151.967L83.203 136.175C73.5708 140.557 66.6635 150.048 66.0931 161.204H124.236C123.668 150.048 116.763 140.555 107.126 136.175ZM88.5489 134.351L95.1646 145.239L101.782 134.351C97.4483 133.325 92.8831 133.329 88.5489 134.351V134.351Z" fill="#01789A"/>
</svg>
