<svg width="165" height="165" viewBox="0 0 165 165" fill="none" xmlns="http://www.w3.org/2000/svg">
<path d="M99.6792 164.986H85.9304C85.0188 164.986 84.1445 164.624 83.4999 163.979C82.8553 163.335 82.4932 162.46 82.4932 161.549V154.674H75.6188V161.549C75.6188 162.46 75.2567 163.335 74.6121 163.979C73.9674 164.624 73.0932 164.986 72.1816 164.986H58.4327C57.5211 164.986 56.6469 164.624 56.0023 163.979C55.3577 163.335 54.9955 162.46 54.9955 161.549V154.674H48.1211V161.549C48.1211 162.46 47.759 163.335 47.1144 163.979C46.4698 164.624 45.5955 164.986 44.6839 164.986H30.9351C30.0235 164.986 29.1492 164.624 28.5046 163.979C27.86 163.335 27.4979 162.46 27.4979 161.549V154.674H20.6235V161.549C20.6235 162.46 20.2613 163.335 19.6167 163.979C18.9721 164.624 18.0979 164.986 17.1863 164.986H3.43742C2.52582 164.986 1.65155 164.624 1.00695 163.979C0.362347 163.335 0.000213623 162.46 0.000213623 161.549V54.9954H6.87463V158.112H13.749V154.674C13.749 152.851 14.4733 151.103 15.7625 149.813C17.0517 148.524 18.8003 147.8 20.6235 147.8H27.4979C29.3211 147.8 31.0696 148.524 32.3588 149.813C33.648 151.103 34.3723 152.851 34.3723 154.674V158.112H41.2467V154.674C41.2467 152.851 41.971 151.103 43.2602 149.813C44.5494 148.524 46.2979 147.8 48.1211 147.8H54.9955C56.8187 147.8 58.5673 148.524 59.8565 149.813C61.1457 151.103 61.87 152.851 61.87 154.674V158.112H68.7444V154.674C68.7444 152.851 69.4686 151.103 70.7578 149.813C72.047 148.524 73.7956 147.8 75.6188 147.8H82.4932C84.3164 147.8 86.0649 148.524 87.3541 149.813C88.6433 151.103 89.3676 152.851 89.3676 154.674V158.112H96.242V123.74H103.116V161.549C103.116 162.46 102.754 163.335 102.11 163.979C101.465 164.624 100.591 164.986 99.6792 164.986Z" fill="white"/>
<path d="M103.116 116.865H96.2418V6.87442H89.3674V10.3116C89.3674 12.1348 88.6431 13.8834 87.3539 15.1726C86.0647 16.4618 84.3162 17.186 82.493 17.186H75.6186C73.7954 17.186 72.0468 16.4618 70.7576 15.1726C69.4684 13.8834 68.7442 12.1348 68.7442 10.3116V6.87442H61.8697V10.3116C61.8697 12.1348 61.1455 13.8834 59.8563 15.1726C58.5671 16.4618 56.8185 17.186 54.9953 17.186H48.1209C46.2977 17.186 44.5492 16.4618 43.26 15.1726C41.9708 13.8834 41.2465 12.1348 41.2465 10.3116V6.87442H34.3721V10.3116C34.3721 12.1348 33.6478 13.8834 32.3586 15.1726C31.0694 16.4618 29.3209 17.186 27.4977 17.186H20.6232C18.8 17.186 17.0515 16.4618 15.7623 15.1726C14.4731 13.8834 13.7488 12.1348 13.7488 10.3116V6.87442H6.87442V48.1209H0V3.43721C0 2.5256 0.362133 1.65134 1.00673 1.00673C1.65134 0.362133 2.5256 0 3.43721 0L17.186 0C18.0976 0 18.9719 0.362133 19.6165 1.00673C20.2611 1.65134 20.6232 2.5256 20.6232 3.43721V10.3116H27.4977V3.43721C27.4977 2.5256 27.8598 1.65134 28.5044 1.00673C29.149 0.362133 30.0233 0 30.9349 0L44.6837 0C45.5953 0 46.4696 0.362133 47.1142 1.00673C47.7588 1.65134 48.1209 2.5256 48.1209 3.43721V10.3116H54.9953V3.43721C54.9953 2.5256 55.3575 1.65134 56.0021 1.00673C56.6467 0.362133 57.5209 0 58.4325 0L72.1814 0C73.093 0 73.9672 0.362133 74.6118 1.00673C75.2564 1.65134 75.6186 2.5256 75.6186 3.43721V10.3116H82.493V3.43721C82.493 2.5256 82.8551 1.65134 83.4997 1.00673C84.1443 0.362133 85.0186 0 85.9302 0L99.679 0C100.591 0 101.465 0.362133 102.109 1.00673C102.754 1.65134 103.116 2.5256 103.116 3.43721V116.865Z" fill="white"/>
<path d="M17.186 130.615H3.43719V137.489H17.186V130.615Z" fill="white"/>
<path d="M37.8095 130.615H24.0607V137.489H37.8095V130.615Z" fill="white"/>
<path d="M58.4327 130.615H44.6839V137.489H58.4327V130.615Z" fill="white"/>
<path d="M79.056 130.615H65.3071V137.489H79.056V130.615Z" fill="white"/>
<path d="M99.6792 130.615H85.9304V137.489H99.6792V130.615Z" fill="white"/>
<path d="M99.679 24.0603H3.43719V30.9347H99.679V24.0603Z" fill="white"/>
<path d="M99.679 34.3711H3.43719V41.2455H99.679V34.3711Z" fill="white"/>
<path d="M113.428 164.985H99.6792V158.111H111.063L139.166 84.7026L145.587 87.1602L116.638 162.779C116.389 163.428 115.949 163.987 115.376 164.381C114.803 164.775 114.124 164.986 113.428 164.985V164.985Z" fill="white"/>
<path d="M148.219 80.2829L141.799 77.8288L157.081 37.9022L150.687 35.6095L149.519 38.7752C148.881 40.4706 147.603 41.8474 145.959 42.6082C144.315 43.3689 142.438 43.4527 140.733 42.8414L134.282 40.5282C133.427 40.2255 132.642 39.7552 131.972 39.1449C131.302 38.5346 130.761 37.7965 130.38 36.9741C129.999 36.1632 129.783 35.2842 129.746 34.3888C129.709 33.4934 129.851 32.5996 130.164 31.7599L131.312 28.6664L124.877 26.3566L123.705 29.5222C123.067 31.2164 121.787 32.5916 120.144 33.351C118.5 34.1104 116.624 34.1932 114.92 33.5816L108.468 31.2787C107.619 30.9789 106.837 30.5135 106.169 29.9094C105.501 29.3053 104.959 28.5746 104.575 27.7596C104.192 26.9446 103.974 26.0616 103.934 25.1617C103.894 24.2618 104.033 23.3629 104.343 22.5172L105.491 19.4237L98.7786 17.0177L101.102 10.5454L111.07 14.127C111.497 14.2804 111.89 14.5171 112.226 14.8232C112.561 15.1293 112.832 15.4989 113.024 15.9106C113.216 16.3222 113.324 16.7678 113.343 17.2215C113.361 17.6753 113.29 18.1282 113.132 18.5541L110.781 24.9129L117.226 27.1403L119.615 20.7711C119.929 19.9208 120.566 19.2289 121.387 18.8459C122.208 18.4629 123.148 18.4198 124.001 18.726L136.897 23.3731C137.325 23.5265 137.717 23.7632 138.053 24.0693C138.388 24.3754 138.66 24.745 138.851 25.1566C139.043 25.5683 139.151 26.0139 139.17 26.4676C139.189 26.9213 139.117 27.3743 138.96 27.8002L136.612 34.1625L143.053 36.3898L145.418 30.0516C145.732 29.2013 146.369 28.5094 147.19 28.1264C148.011 27.7433 148.951 27.7002 149.804 28.0064L162.711 32.6192C163.143 32.7723 163.54 33.0104 163.879 33.3195C164.218 33.6285 164.491 34.0023 164.684 34.4187C164.876 34.8351 164.983 35.2857 164.998 35.7441C165.013 36.2024 164.937 36.6592 164.773 37.0875L148.219 80.2829Z" fill="white"/>
<path d="M100.827 35.6325L98.5049 42.103L152.165 61.3563L154.487 54.8857L100.827 35.6325Z" fill="white"/>
<path d="M100.839 46.4404L98.5176 52.9109L148.642 70.8954L150.963 64.4248L100.839 46.4404Z" fill="white"/>
</svg>
