<svg
width="16"
height="19"
viewBox="0 0 16 19"
fill="none"
xmlns="http://www.w3.org/2000/svg"
>
<path
d="M14.25 19H1.58333C1.16341 19 0.76068 18.8332 0.463748 18.5363C0.166815 18.2393 0 17.8366 0 17.4167V1.58333C0 1.16341 0.166815 0.76068 0.463748 0.463748C0.76068 0.166815 1.16341 0 1.58333 0H14.25C14.6699 0 15.0727 0.166815 15.3696 0.463748C15.6665 0.76068 15.8333 1.16341 15.8333 1.58333V17.4167C15.8333 17.8366 15.6665 18.2393 15.3696 18.5363C15.0727 18.8332 14.6699 19 14.25 19ZM1.58333 1.58333V17.4167H14.25V1.58333H1.58333Z"
fill="#023E4F"
/>
<path
d="M7.91675 7.91675C7.44702 7.91675 6.98784 7.77746 6.59727 7.51649C6.2067 7.25552 5.90229 6.8846 5.72254 6.45062C5.54278 6.01665 5.49574 5.53911 5.58738 5.07841C5.67902 4.6177 5.90522 4.19452 6.23737 3.86237C6.56952 3.53022 6.9927 3.30402 7.45341 3.21238C7.91411 3.12074 8.39165 3.16778 8.82562 3.34754C9.2596 3.52729 9.63052 3.8317 9.89149 4.22227C10.1525 4.61284 10.2917 5.07202 10.2917 5.54175C10.2917 6.17164 10.0415 6.77573 9.59613 7.22113C9.15073 7.66653 8.54664 7.91675 7.91675 7.91675ZM7.91675 4.75008C7.76017 4.75008 7.60711 4.79651 7.47692 4.8835C7.34673 4.97049 7.24526 5.09413 7.18534 5.23879C7.12543 5.38345 7.10975 5.54263 7.14029 5.6962C7.17084 5.84976 7.24624 5.99083 7.35696 6.10154C7.46767 6.21226 7.60873 6.28766 7.7623 6.3182C7.91587 6.34875 8.07505 6.33307 8.21971 6.27315C8.36436 6.21323 8.48801 6.11176 8.575 5.98158C8.66199 5.85139 8.70842 5.69833 8.70842 5.54175C8.70842 5.33179 8.62501 5.13042 8.47654 4.98196C8.32808 4.83349 8.12671 4.75008 7.91675 4.75008Z"
fill="#023E4F"
/>
<path
d="M7.91659 16.6249C7.1337 16.6249 6.3684 16.3928 5.71746 15.9578C5.06651 15.5229 4.55916 14.9047 4.25956 14.1814C3.95997 13.4581 3.88158 12.6622 4.03431 11.8944C4.18705 11.1265 4.56404 10.4212 5.11762 9.86762C5.67121 9.31404 6.37651 8.93705 7.14436 8.78431C7.9122 8.63158 8.70809 8.70997 9.43138 9.00956C10.1547 9.30916 10.7729 9.81651 11.2078 10.4675C11.6428 11.1184 11.8749 11.8837 11.8749 12.6666C11.8749 13.7164 11.4579 14.7232 10.7156 15.4656C9.97322 16.2079 8.9664 16.6249 7.91659 16.6249ZM7.91659 10.2916C7.44686 10.2916 6.98767 10.4309 6.59711 10.6918C6.20654 10.9528 5.90213 11.3237 5.72237 11.7577C5.54262 12.1917 5.49558 12.6692 5.58722 13.1299C5.67886 13.5906 5.90506 14.0138 6.23721 14.346C6.56936 14.6781 6.99254 14.9043 7.45325 14.996C7.91395 15.0876 8.39149 15.0406 8.82546 14.8608C9.25944 14.681 9.63036 14.3766 9.89133 13.9861C10.1523 13.5955 10.2916 13.1363 10.2916 12.6666C10.2916 12.0367 10.0414 11.4326 9.59597 10.9872C9.15057 10.5418 8.54648 10.2916 7.91659 10.2916Z"
fill="#023E4F"
/>
</svg>
