<svg
   width="52"
   height="52"
   viewBox="0 0 52 52"
   fill="none"
   xmlns="http://www.w3.org/2000/svg"
>
   <circle
      cx="26"
      cy="26"
      r="24.5"
      stroke="white"
      stroke-width="3"
   />
   <path
      d="M37.0613 19.4805L31.9723 22.4058V21.4619C31.9723 20.6565 31.6524 19.8841 31.0829 19.3146C30.5134 18.7451 29.741 18.4252 28.9356 18.4252H16.5484C15.743 18.4252 14.9706 18.7451 14.4011 19.3146C13.8317 19.8841 13.5117 20.6565 13.5117 21.4619V30.9162C13.5117 31.7216 13.8317 32.494 14.4011 33.0634C14.9706 33.6329 15.743 33.9529 16.5484 33.9529H28.9356C29.741 33.9529 30.5134 33.6329 31.0829 33.0634C31.6524 32.494 31.9723 31.7216 31.9723 30.9162V29.9723L37.0613 32.8976C38.0255 33.4518 38.8176 32.9963 38.8176 31.8854V20.4978C38.8176 19.3818 38.028 18.9263 37.0613 19.4805Z"
      fill="white"
   />
</svg>
