<svg
   width="52"
   height="52"
   viewBox="0 0 52 52"
   fill="none"
   xmlns="http://www.w3.org/2000/svg"


>
   <circle cx="26" cy="26" r="26" fill="#C73D3D" />
   <path
      d="M37.0613 19.4805L31.9723 22.4059V21.462C31.9723 20.6566 31.6524 19.8842 31.0829 19.3147C30.5134 18.7452 29.741 18.4253 28.9356 18.4253H16.5484C15.743 18.4253 14.9706 18.7452 14.4011 19.3147C13.8317 19.8842 13.5117 20.6566 13.5117 21.462V30.9163C13.5117 31.7216 13.8317 32.494 14.4011 33.0635C14.9706 33.633 15.743 33.953 16.5484 33.953H28.9356C29.741 33.953 30.5134 33.633 31.0829 33.0635C31.6524 32.494 31.9723 31.7216 31.9723 30.9163V29.9724L37.0613 32.8977C38.0255 33.4519 38.8176 32.9964 38.8176 31.8855V20.4978C38.8176 19.3819 38.028 18.9263 37.0613 19.4805Z"
      stroke="white"
      stroke-width="2"
   />
   <line
      x1="12.2071"
      y1="12.7929"
      x2="38.2071"
      y2="38.7929"
      stroke="white"
      stroke-width="2"
   />
</svg>
