<svg width="55" height="55" viewBox="0 0 55 55" fill="none" xmlns="http://www.w3.org/2000/svg">
<path d="M3.0904 0C1.39972 0 0 1.39972 0 3.0904V11.7435C0 13.4342 1.39972 14.8339 3.0904 14.8339H10.1597L18.4845 20.1842C18.6996 20.3272 18.954 20.3992 19.2121 20.3901C19.4703 20.3811 19.719 20.2914 19.9236 20.1338C20.1282 19.9761 20.2782 19.7583 20.3526 19.511C20.4271 19.2637 20.4222 18.9993 20.3387 18.7549L19.0253 14.8339H22.869C24.5597 14.8339 25.9594 13.4342 25.9594 11.7435V3.0904C25.9594 1.39972 24.5597 0 22.869 0H3.0904ZM3.0904 2.47232H22.869C23.2328 2.47232 23.4871 2.72661 23.4871 3.0904V11.7435C23.4871 12.1073 23.2328 12.3616 22.869 12.3616H17.3063C17.1105 12.361 16.9173 12.4069 16.7428 12.4956C16.5682 12.5842 16.4172 12.713 16.3021 12.8715C16.1871 13.0299 16.1113 13.2134 16.081 13.4068C16.0508 13.6002 16.0669 13.7981 16.128 13.9841L16.862 16.2053L11.1834 12.5548C10.9815 12.4263 10.7467 12.3592 10.5074 12.3616H3.0904C2.72662 12.3616 2.47232 12.1073 2.47232 11.7435V3.0904C2.47232 2.72661 2.72662 2.47232 3.0904 2.47232ZM6.06492 4.32657C5.90256 4.33414 5.74329 4.37363 5.59619 4.44277C5.4491 4.51191 5.31706 4.60935 5.20763 4.72952C5.09819 4.8497 5.0135 4.99025 4.9584 5.14316C4.90329 5.29606 4.87884 5.45833 4.88645 5.62068C4.89406 5.78304 4.93358 5.94231 5.00275 6.08939C5.07192 6.23647 5.16939 6.36848 5.28958 6.47789C5.40978 6.5873 5.55035 6.67196 5.70327 6.72704C5.85618 6.78212 6.01845 6.80653 6.18081 6.79889H19.7786C19.9424 6.8012 20.105 6.77094 20.257 6.70986C20.409 6.64878 20.5474 6.55809 20.664 6.44307C20.7807 6.32805 20.8733 6.191 20.9366 6.03987C20.9998 5.88874 21.0323 5.72655 21.0323 5.56273C21.0323 5.39891 20.9998 5.23672 20.9366 5.08559C20.8733 4.93446 20.7807 4.7974 20.664 4.68238C20.5474 4.56737 20.409 4.47668 20.257 4.4156C20.105 4.35451 19.9424 4.32425 19.7786 4.32657H6.18081C6.1422 4.32475 6.10353 4.32475 6.06492 4.32657ZM38.9391 6.79889C35.8815 6.79889 33.3764 9.30404 33.3764 12.3616C33.3764 14.1062 34.1918 15.6639 35.4624 16.6882H34.6125C31.8946 16.6882 29.6679 18.9149 29.6679 21.6328V28.4317H24.7232C24.6846 28.4299 24.646 28.4299 24.6073 28.4317C24.3 28.4607 24.0146 28.6036 23.8073 28.8324C23.6 29.0611 23.4857 29.3592 23.4871 29.6679V33.9944C23.487 34.1799 23.5286 34.363 23.6088 34.5301C23.6891 34.6973 23.8059 34.8443 23.9506 34.9602L26.7127 37.1814L30.3246 53.406C30.3819 53.6822 30.5319 53.9305 30.7497 54.1097C30.9675 54.2888 31.2401 54.3881 31.5221 54.3911H46.3561C46.6381 54.3881 46.9106 54.2888 47.1285 54.1097C47.3463 53.9305 47.4963 53.6822 47.5536 53.406L51.1655 37.1814L53.9275 34.9602C54.0723 34.8443 54.1891 34.6973 54.2694 34.5301C54.3496 34.363 54.3912 34.1799 54.3911 33.9944V29.6679C54.3911 29.34 54.2608 29.0256 54.029 28.7938C53.7972 28.562 53.4828 28.4317 53.1549 28.4317H48.2103V21.6328C48.2103 18.9149 45.9836 16.6882 43.2657 16.6882H42.4158C43.6864 15.6639 44.5018 14.1062 44.5018 12.3616C44.5018 9.30404 41.9967 6.79889 38.9391 6.79889ZM6.06492 8.03505C5.90256 8.04263 5.74329 8.08212 5.59619 8.15126C5.4491 8.2204 5.31706 8.31783 5.20763 8.43801C5.09819 8.55818 5.0135 8.69873 4.9584 8.85164C4.90329 9.00455 4.87884 9.16681 4.88645 9.32917C4.89406 9.49152 4.93358 9.65079 5.00275 9.79787C5.07192 9.94495 5.16939 10.077 5.28958 10.1864C5.40978 10.2958 5.55035 10.3804 5.70327 10.4355C5.85618 10.4906 6.01845 10.515 6.18081 10.5074H19.7786C19.9424 10.5097 20.105 10.4794 20.257 10.4183C20.409 10.3573 20.5474 10.2666 20.664 10.1516C20.7807 10.0365 20.8733 9.89948 20.9366 9.74835C20.9998 9.59722 21.0323 9.43503 21.0323 9.27121C21.0323 9.10739 20.9998 8.9452 20.9366 8.79407C20.8733 8.64294 20.7807 8.50589 20.664 8.39087C20.5474 8.27585 20.409 8.18516 20.257 8.12408C20.105 8.063 19.9424 8.03273 19.7786 8.03505H6.18081C6.1422 8.03324 6.10353 8.03324 6.06492 8.03505ZM38.9391 9.27121C40.6605 9.27121 42.0295 10.6402 42.0295 12.3616C42.0295 14.083 40.6605 15.452 38.9391 15.452C37.2177 15.452 35.8487 14.083 35.8487 12.3616C35.8487 10.6402 37.2177 9.27121 38.9391 9.27121ZM37.0462 19.1605H40.832L39.731 20.9954L38.9391 22.3089L38.1472 20.9954L37.0462 19.1605ZM34.1103 19.2185C34.135 19.2135 34.1626 19.2226 34.1876 19.2185L36.0225 22.2702L37.8768 25.3606C37.9863 25.5447 38.1419 25.6972 38.3281 25.803C38.5143 25.9089 38.7249 25.9646 38.9391 25.9646C39.1533 25.9646 39.3639 25.9089 39.5501 25.803C39.7363 25.6972 39.8918 25.5447 40.0014 25.3606L41.8557 22.2702L43.6906 19.2185C44.8677 19.4157 45.738 20.3893 45.738 21.6328V28.4317H32.1402V21.6328C32.1402 20.4157 32.9715 19.4444 34.1103 19.2185ZM25.9594 30.904H30.8075H47.09H51.9188V33.3957L49.2919 35.501C49.0758 35.6781 48.926 35.9232 48.867 36.1964L45.371 51.9188H32.5072L29.0112 36.1964C28.9522 35.9232 28.8024 35.6781 28.5862 35.501L25.9594 33.3957V30.904Z" fill="#EDF6F8"/>
</svg>
