<svg width="1440" height="1083" viewBox="0 0 1440 1083" fill="none" xmlns="http://www.w3.org/2000/svg">
<mask id="mask0" mask-type="alpha" maskUnits="userSpaceOnUse" x="0" y="0" width="1440" height="1083">
<rect width="1440" height="1083" fill="#C4C4C4"/>
</mask>
<g mask="url(#mask0)">
<g opacity="0.3">
<path d="M1394.5 6.83032L1485.13 9.23024L1479.16 119.141L1394.5 6.83032Z" fill="#DCDCDC"/>
<path d="M1374.53 6.83032L1392.66 31.6115L1311.99 79.0705L1293.46 53.0759L1374.53 6.83032Z" fill="#DCDCDC"/>
<path d="M595.874 131.411L663.844 -4.27893" stroke="#B6D9F7" stroke-width="9" stroke-miterlimit="10"/>
<path d="M550.842 221.313L587.177 148.749" stroke="#B6D9F7" stroke-width="9" stroke-miterlimit="10"/>
<path d="M446.725 409.828L531.012 255.316" stroke="#B6D9F7" stroke-width="9" stroke-miterlimit="10"/>
<path d="M376.081 540.609L436.325 430.429" stroke="#B6D9F7" stroke-width="9" stroke-miterlimit="10"/>
<path d="M-55 1235.75L107.955 1030.81L353.037 582.729" stroke="#B6D9F7" stroke-width="9" stroke-miterlimit="10"/>
<path d="M1084.88 424.308L996.809 333.434L915.331 241.995L880.103 78.7736L772.772 -21.4565" stroke="#B6D9F7" stroke-width="9" stroke-miterlimit="10"/>
<path d="M1459.6 711.893L1300.57 612.903L1106.92 447.768" stroke="#B6D9F7" stroke-width="9" stroke-miterlimit="10"/>
<path d="M2.54344 3.86438L117.169 43.4225C117.169 43.4225 94.8542 192.649 -4.58856 271.145L2.54344 3.86438Z" fill="#D6D6D6"/>
<path d="M69.3776 -41.1683L68.3781 -3.74044L143.885 28.4023L145.695 -39.1459L69.3776 -41.1683Z" fill="#DCDCDC"/>
<path d="M207.911 -10.7511L294.224 18.2906L263.616 79.3671L180.491 43.9885L207.911 -10.7511Z" fill="#DCDCDC"/>
<path d="M229.335 144.326L249.434 105.308L157.853 57.4711L141.995 99.1865L229.335 144.326Z" fill="#DCDCDC"/>
<path d="M133.567 114.341L116.385 155.329L201.996 197.449L223.365 157.351L133.567 114.341Z" fill="#DCDCDC"/>
<path d="M107.875 173.827L85.3982 212.01L168.632 262.273L193.81 213.331L107.875 173.827Z" fill="#DCDCDC"/>
<path d="M72.9168 227.731L54.7086 258.013L147.1 304.096L161.148 276.808L72.9168 227.731Z" fill="#DCDCDC"/>
<path d="M140.94 316.042L129.216 338.828L35.5002 291.099L49.0888 267.208L140.94 316.042Z" fill="#DCDCDC"/>
<path d="M22.0751 343.169L21.5078 363.663L96.826 401.765L106.659 382.619L22.0751 343.169Z" fill="#DCDCDC"/>
<path d="M314.136 25.5167L299.305 52.8865L384.619 95.5997L408.554 52.1046L354.416 46.6306L314.136 25.5167Z" fill="#DCDCDC"/>
<path d="M369.192 130.656L280.636 87.2956L296.98 57.1483L384.212 100.67L369.192 130.656Z" fill="#DCDCDC"/>
<path d="M335.776 197.394L245.41 152.308L266.158 114.044L354.551 160.182L335.776 197.394Z" fill="#DCDCDC"/>
<path d="M302.329 248.116L216.421 205.834L235.601 170.429L320.348 212.144L302.329 248.116Z" fill="#DCDCDC"/>
<path d="M270.02 312.644L182.275 268.853L208.372 220.693L294.523 263.702L270.02 312.644Z" fill="#DCDCDC"/>
<path d="M248.841 354.899L159.745 310.433L173.847 284.384L261.673 329.309L248.841 354.899Z" fill="#DCDCDC"/>
<path d="M231.738 389.064L141.129 344.787L153.07 322.298L242.76 367.06L231.738 389.064Z" fill="#DCDCDC"/>
<path d="M211.343 417.809L124.733 375.069L134.944 356.22L220.933 398.663L211.343 417.809Z" fill="#DCDCDC"/>
<path d="M195.079 450.276L107.415 407.024L117.653 388.121L204.21 432.075L195.079 450.276Z" fill="#DCDCDC"/>
<path d="M487.734 189.818L393.127 142.601L428.166 72.6262L525.34 118.036L487.734 189.818Z" fill="#DCDCDC"/>
<path d="M530.823 211.309L504.915 198.392L541.277 125.828L569.454 139.904L530.823 211.309Z" fill="#DCDCDC"/>
<path d="M446.428 268.691L353.252 222.202L378.133 172.505L471.065 221.69L446.428 268.691Z" fill="#DCDCDC"/>
<path d="M421.871 315.611L329.534 269.527L347.121 234.445L440.08 280.852L421.871 315.611Z" fill="#DCDCDC"/>
<path d="M391.182 374.179L300.357 327.771L322.752 283.09L414.82 329.039L391.182 374.179Z" fill="#DCDCDC"/>
<path d="M366.842 420.668L271.641 373.155L285.23 346.055L379.296 396.885L366.842 420.668Z" fill="#DCDCDC"/>
<path d="M349.445 453.835L254.865 406.645L265.266 385.909L360.224 433.314L349.445 453.835Z" fill="#DCDCDC"/>
<path d="M332.83 486.328L238.52 439.273L248.489 419.4L342.663 466.805L332.83 486.328Z" fill="#DCDCDC"/>
<path d="M316.782 516.26L223.337 469.61L229.983 456.316L324.238 501.968L316.782 516.26Z" fill="#DCDCDC"/>
<path d="M463.368 336.32L434.948 322.136L482.575 227.056L513.427 243.182L463.368 336.32Z" fill="#DCDCDC"/>
<path d="M428.652 400.174L402.42 386.287L426.41 339.232L454.289 353.146L428.652 400.174Z" fill="#DCDCDC"/>
<path d="M358.006 531.575L332.45 518.821L389.317 405.297L417.413 421.503L358.006 531.575Z" fill="#DCDCDC"/>
<path d="M289.785 548.106L197.557 502.077L185.573 526.002L277.801 572.031L289.785 548.106Z" fill="#DCDCDC"/>
<path d="M270.022 587.583L177.794 541.554L153.233 590.586L245.461 636.614L270.022 587.583Z" fill="#DCDCDC"/>
<path d="M237.684 652.15L145.456 606.121L135.876 625.247L228.103 671.275L237.684 652.15Z" fill="#DCDCDC"/>
<path d="M220.308 686.815L128.08 640.786L99.3271 698.187L191.555 744.216L220.308 686.815Z" fill="#DCDCDC"/>
<path d="M183.775 759.738L91.5469 713.709L80.7705 735.222L172.998 781.251L183.775 759.738Z" fill="#DCDCDC"/>
<path d="M144.805 822.693L58.8695 779.036L72.9984 750.831L159.258 793.867L144.805 822.693Z" fill="#DCDCDC"/>
<path d="M114.331 883.554L28.0716 840.49L29.2332 803.682L127.947 856.373L114.331 883.554Z" fill="#DCDCDC"/>
<path d="M93.9603 924.191L7.72797 881.154L8.91663 842.89L109.548 893.1L93.9603 924.191Z" fill="#DCDCDC"/>
<path d="M246.489 729.771L220.041 716.585L232.036 692.667L259.078 706.608L246.489 729.771Z" fill="#DCDCDC"/>
<path d="M266.292 693.314L238.628 679.508L250.596 655.616L278.881 670.124L266.292 693.314Z" fill="#DCDCDC"/>
<path d="M286.173 656.911L257.186 642.457L269.153 618.539L298.249 634.152L286.173 656.911Z" fill="#DCDCDC"/>
<path d="M305.895 620.427L275.746 605.38L301.356 554.254L332.505 571.431L305.895 620.427Z" fill="#DCDCDC"/>
<path d="M228.605 762.696L200.375 748.621L209.371 730.689L238.169 745.061L228.605 762.696Z" fill="#DCDCDC"/>
<path d="M206.669 803.063L182.706 791.118L195.484 765.608L220.284 777.985L206.669 803.063Z" fill="#DCDCDC"/>
<path d="M184.921 843.106L159.526 830.189L170.44 808.401L196.645 821.507L184.921 843.106Z" fill="#DCDCDC"/>
<path d="M154.504 899.112L130.92 887.329L142.59 863.977L166.553 876.92L154.504 899.112Z" fill="#DCDCDC"/>
<path d="M132.783 939.076L110.55 927.994L122.518 904.076L145.561 915.563L132.783 939.076Z" fill="#DCDCDC"/>
<path d="M33.4474 329.039L113.439 369.46L123.462 350.018L31.5834 304.177L33.4474 329.039Z" fill="#DCDCDC"/>
<path d="M-2.48279 402.278L-7.48059 553.715L18.1568 554.551L76.3204 441.594L-2.48279 402.278Z" fill="#DCDCDC"/>
<path d="M89.2332 634.287L8.70111 589.174L20.1825 568.007L101.039 613.308L89.2332 634.287Z" fill="#DCDCDC"/>
<path d="M73.0506 666.592L-8.48108 620.886L3.00036 599.718L84.8562 645.613L73.0506 666.592Z" fill="#DCDCDC"/>
<path d="M56.8951 698.869L-9.61619 661.603L-14.3168 631.698L68.7007 677.89L56.8951 698.869Z" fill="#DCDCDC"/>
<path d="M40.7136 731.145L-10.318 702.562L-9.56157 675.381L52.5192 710.166L40.7136 731.145Z" fill="#DCDCDC"/>
<path d="M25.3416 761.995L-10.8047 743.631L-10.8587 715.992L36.3368 742.445L25.3416 761.995Z" fill="#DCDCDC"/>
<path d="M105.389 602.01L25.9916 557.517L37.365 536.295L117.195 581.031L105.389 602.01Z" fill="#DCDCDC"/>
<path d="M121.57 569.732L43.0908 525.752L54.5452 504.584L133.375 548.753L121.57 569.732Z" fill="#DCDCDC"/>
<path d="M136.538 539.828L59.0042 496.387L70.5127 475.138L148.343 518.849L136.538 539.828Z" fill="#DCDCDC"/>
<path d="M151.531 509.95L74.9976 466.833L86.3709 445.827L163.31 488.971L151.531 509.95Z" fill="#DCDCDC"/>
<path d="M-15.045 909.657L-17.8276 947.112L91.5837 1014.69L107.685 985.294L-15.045 909.657Z" fill="#DCDCDC"/>
<path d="M-19.8273 967.04L-25.0142 1154.75L81.1824 1029.76L-19.8273 967.04Z" fill="#DCDCDC"/>
<path d="M614.274 56.6621L577.507 53.5072L552.355 109.703L578.587 122.781L614.274 56.6621Z" fill="#DCDCDC"/>
<path d="M438.133 52.6984L558.945 53.8848L534.172 101.182L434.243 60.4644L438.133 52.6984Z" fill="#DCDCDC"/>
<path d="M462.313 16.9421L461.098 37.247L613.328 43.7187L613.247 22.0116L462.313 16.9421Z" fill="#DCDCDC"/>
<path d="M323.239 -8.62109L322.159 8.98728L424.978 37.1661L424.573 4.07959L323.239 -8.62109Z" fill="#DCDCDC"/>
<path d="M-13.2078 781.033L11.1328 794.03L9.32282 817.193L-14.4505 814.793L-13.2078 781.033Z" fill="#DCDCDC"/>
<path d="M657.551 56.0691L704.287 58.469L653.363 160.101L615.029 140.983L657.551 56.0691Z" fill="#DCDCDC"/>
<path d="M606.737 158.51L643.208 177.251L603.847 247.739L570.024 230.858L606.737 158.51Z" fill="#DCDCDC"/>
<path d="M718.659 56.6891L746.809 60.2755L683.35 175.067L664.169 165.494L718.659 56.6891Z" fill="#DCDCDC"/>
<path d="M655.12 183.534L615.678 254.561L633.805 264.7L674.706 190.68L655.12 183.534Z" fill="#DCDCDC"/>
<path d="M808.942 45.3636L724.547 198.635L797.434 246.175L873.914 170.914L857.029 91.1778L808.942 45.3636Z" fill="#DCDCDC"/>
<path d="M713.904 217.969L675.354 287.998L747.295 328.338L780.929 261.194L713.904 217.969Z" fill="#DCDCDC"/>
<path d="M601.171 288.996L616.057 296.789L530.067 452.298L518.37 446.474L601.171 288.996Z" fill="#DCDCDC"/>
<path d="M548.057 261.276L587.986 282.12L505.644 440.11L467.904 421.288L548.057 261.276Z" fill="#DCDCDC"/>
<path d="M457.342 442.105L493.921 461.143L430.165 572.833L395.883 552.367L457.342 442.105Z" fill="#DCDCDC"/>
<path d="M505.971 467.317L518.343 473.573L455.911 586.504L443.511 580.302L505.971 467.317Z" fill="#DCDCDC"/>
<path d="M333.396 733.924L304.625 718.041L373.325 594.027L402.744 608.616L333.396 733.924Z" fill="#DCDCDC"/>
<path d="M364.815 751.262L344.905 740.26L416.144 611.555L436 622.503L364.815 751.262Z" fill="#DCDCDC"/>
<path d="M321.946 746.262L298.299 733.221L227.058 861.927L250.705 874.967L321.946 746.262Z" fill="#DCDCDC"/>
<path d="M357.097 765.646L333.45 752.606L262.21 881.312L285.856 894.352L357.097 765.646Z" fill="#DCDCDC"/>
<path d="M186.543 988.019L162.904 974.968L205.615 897.82L229.443 910.548L186.543 988.019Z" fill="#DCDCDC"/>
<path d="M175.774 1013.58L152.128 1000.54L131.617 1037.6L155.263 1050.64L175.774 1013.58Z" fill="#DCDCDC"/>
<path d="M224.633 1004.84L200.995 991.82L241.95 917.207L266.021 930.07L224.633 1004.84Z" fill="#DCDCDC"/>
<path d="M571.401 476.486L645.584 513.509L710.286 384.291L641.262 349.857L571.401 476.486Z" fill="#D6D6D6"/>
<path d="M648.771 336.212L715.391 371.105L724.306 353.308L658.335 318.873L648.771 336.212Z" fill="#DCDCDC"/>
<path d="M725.899 397.99L795.571 433.423L813.428 399.851L743.297 363.232L725.899 397.99Z" fill="#DCDCDC"/>
<path d="M626.593 533.363L595.448 517.819L583.874 540.924L615.019 556.468L626.593 533.363Z" fill="#DCDCDC"/>
<path d="M546.356 522.219L579.125 538.56L590.687 515.451L558.702 499.838L546.356 522.219Z" fill="#DCDCDC"/>
<path d="M611.244 564.026L580.098 548.482L568.525 571.587L599.67 587.131L611.244 564.026Z" fill="#DCDCDC"/>
<path d="M530.363 551.261L563.754 569.22L575.343 546.11L542.304 529.607L530.363 551.261Z" fill="#DCDCDC"/>
<path d="M595.898 594.687L564.753 579.143L553.179 602.248L584.324 617.792L595.898 594.687Z" fill="#DCDCDC"/>
<path d="M513.262 582.324L548.409 599.878L559.998 576.742L525.743 559.673L513.262 582.324Z" fill="#DCDCDC"/>
<path d="M580.528 625.338L549.382 609.794L537.809 632.899L568.954 648.443L580.528 625.338Z" fill="#DCDCDC"/>
<path d="M496.702 612.391L533.064 630.539L544.627 607.403L509.183 589.714L496.702 612.391Z" fill="#DCDCDC"/>
<path d="M718.927 582.236L687.782 566.692L676.208 589.797L707.353 605.34L718.927 582.236Z" fill="#DCDCDC"/>
<path d="M682.974 564.295L651.828 548.751L640.255 571.856L671.4 587.4L682.974 564.295Z" fill="#DCDCDC"/>
<path d="M703.558 612.885L672.413 597.341L660.839 620.446L691.985 635.99L703.558 612.885Z" fill="#DCDCDC"/>
<path d="M667.627 594.957L636.482 579.413L624.908 602.518L656.054 618.062L667.627 594.957Z" fill="#DCDCDC"/>
<path d="M688.21 643.547L657.065 628.003L645.491 651.108L676.636 666.652L688.21 643.547Z" fill="#DCDCDC"/>
<path d="M652.255 625.607L621.109 610.063L609.536 633.168L640.681 648.712L652.255 625.607Z" fill="#DCDCDC"/>
<path d="M672.836 674.197L641.691 658.654L630.117 681.758L661.263 697.302L672.836 674.197Z" fill="#DCDCDC"/>
<path d="M636.908 656.271L605.763 640.727L594.189 663.831L625.335 679.375L636.908 656.271Z" fill="#DCDCDC"/>
<path d="M788.375 443.55L757.229 428.006L745.656 451.111L776.801 466.655L788.375 443.55Z" fill="#DCDCDC"/>
<path d="M752.456 425.596L721.311 410.052L709.737 433.157L740.882 448.701L752.456 425.596Z" fill="#DCDCDC"/>
<path d="M773.04 474.188L741.894 458.644L730.321 481.749L761.466 497.292L773.04 474.188Z" fill="#DCDCDC"/>
<path d="M777.041 543.387L812.566 561.103L825.993 538.911L788.631 520.278L777.041 543.387Z" fill="#DCDCDC"/>
<path d="M756.536 577.039L792.034 594.756L805.487 572.563L768.125 553.903L756.536 577.039Z" fill="#DCDCDC"/>
<path d="M794.435 508.682L832.716 527.801L883.126 444.505L840.199 417.324L794.435 508.682Z" fill="#DCDCDC"/>
<path d="M781.011 613.227L749.863 597.668L744.865 607.672L775.635 623.043L781.011 613.227Z" fill="#DCDCDC"/>
<path d="M769.367 634.529L739.056 619.267L691.671 713.862L718.659 727.317L769.367 634.529Z" fill="#DCDCDC"/>
<path d="M737.11 456.259L705.964 440.715L694.391 463.82L725.536 479.364L737.11 456.259Z" fill="#DCDCDC"/>
<path d="M757.668 504.838L726.523 489.294L714.949 512.399L746.094 527.943L757.668 504.838Z" fill="#DCDCDC"/>
<path d="M721.74 486.909L690.595 471.365L679.021 494.47L710.166 510.014L721.74 486.909Z" fill="#DCDCDC"/>
<path d="M742.323 535.499L711.177 519.956L699.603 543.06L730.749 558.604L742.323 535.499Z" fill="#DCDCDC"/>
<path d="M706.39 517.571L675.244 502.027L663.671 525.132L694.816 540.676L706.39 517.571Z" fill="#DCDCDC"/>
<path d="M539.446 681.452L508.3 665.908L496.727 689.013L527.872 704.557L539.446 681.452Z" fill="#DCDCDC"/>
<path d="M463.609 672.497L491.948 686.654L503.538 663.545L476.09 649.846L463.609 672.497Z" fill="#DCDCDC"/>
<path d="M524.097 712.115L492.952 696.571L481.378 719.676L512.523 735.22L524.097 712.115Z" fill="#DCDCDC"/>
<path d="M447.049 702.563L476.603 717.314L488.193 694.204L459.53 679.913L447.049 702.563Z" fill="#DCDCDC"/>
<path d="M508.726 742.765L477.58 727.221L466.007 750.326L497.152 765.87L508.726 742.765Z" fill="#DCDCDC"/>
<path d="M430.813 732.063L461.259 747.972L472.822 724.863L443.132 709.682L430.813 732.063Z" fill="#DCDCDC"/>
<path d="M493.38 773.427L462.235 757.883L450.661 780.988L481.806 796.532L493.38 773.427Z" fill="#DCDCDC"/>
<path d="M413.956 762.696L445.888 778.632L457.477 755.523L426.545 739.802L413.956 762.696Z" fill="#DCDCDC"/>
<path d="M627.775 725.573L596.629 710.03L585.056 733.134L616.201 748.678L627.775 725.573Z" fill="#DCDCDC"/>
<path d="M591.819 707.633L560.674 692.089L549.1 715.194L580.246 730.738L591.819 707.633Z" fill="#DCDCDC"/>
<path d="M612.402 756.225L581.257 740.681L569.683 763.785L600.828 779.329L612.402 756.225Z" fill="#DCDCDC"/>
<path d="M576.473 738.295L545.328 722.751L533.754 745.856L564.899 761.4L576.473 738.295Z" fill="#DCDCDC"/>
<path d="M597.056 786.885L565.91 771.341L554.337 794.446L585.482 809.99L597.056 786.885Z" fill="#DCDCDC"/>
<path d="M561.101 768.946L529.956 753.402L518.382 776.507L549.528 792.051L561.101 768.946Z" fill="#DCDCDC"/>
<path d="M581.686 817.537L550.541 801.993L538.967 825.098L570.112 840.642L581.686 817.537Z" fill="#DCDCDC"/>
<path d="M545.765 799.584L514.62 784.04L503.046 807.144L534.192 822.688L545.765 799.584Z" fill="#DCDCDC"/>
<path d="M459.914 821.319L428.769 805.775L417.195 828.88L448.34 844.424L459.914 821.319Z" fill="#DCDCDC"/>
<path d="M386.048 813.364L412.415 826.523L424.005 803.413L398.34 791.036L386.048 813.364Z" fill="#DCDCDC"/>
<path d="M444.543 851.97L413.398 836.426L401.824 859.531L432.97 875.075L444.543 851.97Z" fill="#DCDCDC"/>
<path d="M369.489 843.43L397.071 857.182L408.634 834.073L381.97 820.752L369.489 843.43Z" fill="#DCDCDC"/>
<path d="M363.816 935.544L401.799 939.427L429.22 882.665L398.071 867.133L363.816 935.544Z" fill="#DCDCDC"/>
<path d="M320.104 933.089L357.979 935.219L393.288 864.732L365.409 850.818L320.104 933.089Z" fill="#DCDCDC"/>
<path d="M566.937 846.802L535.792 831.258L524.218 854.363L555.364 869.907L566.937 846.802Z" fill="#DCDCDC"/>
<path d="M530.982 828.862L499.837 813.318L488.263 836.423L519.408 851.966L530.982 828.862Z" fill="#DCDCDC"/>
<path d="M551.565 877.453L520.419 861.909L508.846 885.014L539.991 900.558L551.565 877.453Z" fill="#DCDCDC"/>
<path d="M515.636 859.524L484.49 843.98L472.917 867.085L504.062 882.629L515.636 859.524Z" fill="#DCDCDC"/>
<path d="M480.466 944.281L520.179 944.308L536.253 908.147L505.104 892.588L480.466 944.281Z" fill="#DCDCDC"/>
<path d="M436.622 939.615L474.497 941.746L500.323 890.188L469.175 874.656L436.622 939.615Z" fill="#DCDCDC"/>
<path d="M638.372 874.683L596.039 853.542L624.621 796.484L668.791 818.541L638.372 874.683Z" fill="#DCDCDC"/>
<path d="M606.654 949.161L548.355 947.139L589.256 865.487L631.589 886.601L606.654 949.161Z" fill="#DCDCDC"/>
<path d="M675.164 806.892L630.562 784.646L651.715 742.391L697.83 765.419L675.164 806.892Z" fill="#DCDCDC"/>
<path d="M427.084 958.653L598.847 968.738L584.934 1003.07L413.199 992.522L427.084 958.653Z" fill="#DCDCDC"/>
<path d="M412.037 1012.66L579.639 1016.92L555.785 1076.73L409.335 1071.85L412.037 1012.66Z" fill="#DCDCDC"/>
<path d="M306.408 953.314L283.607 986.886L387.345 996L391.938 957.817L306.408 953.314Z" fill="#DCDCDC"/>
<path d="M276.043 998.022L264.886 1014.47L262.103 1051.44L387.777 1061.09L387.859 1010.08L276.043 998.022Z" fill="#DCDCDC"/>
<path d="M260.7 1070.18L258.917 1093.94L380.675 1104.56L387.861 1075.84L260.7 1070.18Z" fill="#DCDCDC"/>
<path d="M121.734 1048.15L150.478 1062.5L114.764 1116.91L84.9932 1094.59L121.734 1048.15Z" fill="#DCDCDC"/>
<path d="M169.659 1061.61L199.808 1068.67L198.214 1135.63L140.699 1119.39L169.659 1061.61Z" fill="#DCDCDC"/>
<path d="M190.406 1020.16L190.838 1042.79L219.339 1059.56L221.717 1035.77L190.406 1020.16Z" fill="#DCDCDC"/>
<path d="M209.587 1071.21L204.184 1135.76L212.181 1136.38L218.205 1072.69L209.587 1071.21Z" fill="#DCDCDC"/>
<path d="M804.299 277.319L763.668 337.506L848.279 390.547L872.485 354.44L804.299 277.319Z" fill="#DCDCDC"/>
<path d="M887.424 361.884L859.113 397.343L897.231 421.235L918.573 386.018L887.424 361.884Z" fill="#DCDCDC"/>
<path d="M846.252 238.436L818.373 267.369L866.892 320.761L888.504 295.521L846.252 238.436Z" fill="#DCDCDC"/>
<path d="M872.594 327.313L895.935 306.064L939.402 351.339L925.516 374.529L872.594 327.313Z" fill="#DCDCDC"/>
<path d="M881.453 206.563L856.977 232.18L946.613 335.457L952.854 317.094L890.8 250.732L881.453 206.563Z" fill="#DCDCDC"/>
<path d="M844.63 -19.4611L808.7 -21.4565L909.737 66.828L930.998 181.673L938.535 169.836L935.212 130.763L936.725 50.2982L844.63 -19.4611Z" fill="#DCDCDC"/>
<path d="M946.856 65.4258L944.884 131.194L1004.37 133.001L946.856 65.4258Z" fill="#DCDCDC"/>
<path d="M944.884 146.16L946.856 169.054L1015.96 166.681L1014.31 147.428L944.884 146.16Z" fill="#DCDCDC"/>
<path d="M1015.15 194.186L953.854 191.975L986.894 252.808L1015.15 194.186Z" fill="#DCDCDC"/>
<path d="M933.106 193.161L944.614 192.972L982.787 261.033L976.87 272.817L940.778 234.553L933.106 193.161Z" fill="#DCDCDC"/>
<path d="M1038.71 -4.30603L965.037 -6.1936L947.261 48.7078L1038.71 -4.30603Z" fill="#DCDCDC"/>
<path d="M949.26 -6.11281L890.962 -8.297L931.781 40.9687L949.26 -6.11281Z" fill="#DCDCDC"/>
<path d="M684.917 1.46411L685.106 38.4336L744.026 35.9528L753.4 2.27307L684.917 1.46411Z" fill="#DCDCDC"/>
<path d="M1021.52 29.9664L1032.93 51.5926L982.515 84.4904L967.333 63.7001L1021.52 29.9664Z" fill="#DCDCDC"/>
<path d="M988.378 92.4991L1043.68 168.272L1082.44 133.082L1033.41 63.781L988.378 92.4991Z" fill="#DCDCDC"/>
<path d="M1094.17 126.232L1152.23 92.337L1082.23 -2.01477L1030.31 31.3683L1094.17 126.232Z" fill="#DCDCDC"/>
<path d="M1161.95 86.6209L1101.01 -3.11975L1299.57 6.23722L1161.95 86.6209Z" fill="#DCDCDC"/>
<path d="M1474.3 143.005L1473.35 238.004L1432.43 247.954L1394.85 195.237L1474.3 143.005Z" fill="#DCDCDC"/>
<path d="M1399.77 41.265L1317.69 87.0522L1350.22 132.651L1426.62 77.9379L1399.77 41.265Z" fill="#DCDCDC"/>
<path d="M1357.95 143.491L1389.31 187.498L1468.36 134.916L1433.7 87.5916L1357.95 143.491Z" fill="#DCDCDC"/>
<path d="M1182.19 116.417L1201.02 144.38L1290.14 91.9328L1271.44 65.5607L1182.19 116.417Z" fill="#DCDCDC"/>
<path d="M1204.74 149.612L1223.27 176.901L1312.69 123.698L1295.46 99.4292L1204.74 149.612Z" fill="#DCDCDC"/>
<path d="M1225.54 180.244L1245.94 210.257L1335.85 156.326L1316.83 129.523L1225.54 180.244Z" fill="#DCDCDC"/>
<path d="M1247.99 213.277L1268.39 243.317L1359 188.954L1340.01 162.178L1247.99 213.277Z" fill="#DCDCDC"/>
<path d="M1270.42 246.336L1298.51 287.701L1391.2 236.305L1363.16 194.806L1270.42 246.336Z" fill="#DCDCDC"/>
<path d="M1057.65 187.39L1078.77 216.297L1174.22 160.128L1154.12 132.92L1057.65 187.39Z" fill="#DCDCDC"/>
<path d="M1081.34 219.857L1102.41 248.683L1197.02 192.487L1177.16 165.629L1081.34 219.857Z" fill="#DCDCDC"/>
<path d="M1104.89 252.107L1126.02 281.041L1219.79 224.791L1200.23 198.338L1104.89 252.107Z" fill="#DCDCDC"/>
<path d="M1128.89 284.951L1149.66 313.399L1242.84 257.5L1223.28 231.02L1128.89 284.951Z" fill="#DCDCDC"/>
<path d="M1152.5 317.309L1179.21 353.874L1274.06 301.265L1246.32 263.729L1152.5 317.309Z" fill="#DCDCDC"/>
<path d="M1426.16 332.275L1196.64 491.99L1124.67 431.13L1159.6 398.367L1420.97 255.45L1426.16 332.275Z" fill="#DCDCDC"/>
<path d="M1352.19 406.215L1410.87 468.37L1304.24 581.543L1213.01 505.609L1352.19 406.215Z" fill="#DCDCDC"/>
<path d="M1363.86 397.828L1426.05 450.06L1471.22 413.684L1468.55 323.323L1363.86 397.828Z" fill="#DCDCDC"/>
<path d="M1471.11 434.824L1317.48 592.571L1469.76 688.918L1471.11 434.824Z" fill="#D6D6D6"/>
<path d="M1167.41 528.286L1115.81 571.781L1256.02 679.913L1290.84 636.148L1167.41 528.286Z" fill="#DCDCDC"/>
<path d="M1298.11 640.542L1263.69 684.873L1426.73 799.152L1435.48 718.229L1298.11 640.542Z" fill="#DCDCDC"/>
<path d="M1155.6 517.877L1104.38 562.963L1038.41 512.053L1090.2 463.488L1155.6 517.877Z" fill="#DCDCDC"/>
<path d="M1013.72 535.216L903.848 667.346L930.296 692.532L1077.45 576.5L1013.72 535.216Z" fill="#DCDCDC"/>
<path d="M1095.22 589.633L1048.81 624.58L1140.88 697.386L1187.4 657.774L1095.22 589.633Z" fill="#DCDCDC"/>
<path d="M1199.72 666.86L1152.39 706.877L1197.02 741.258L1239.35 696.145L1199.72 666.86Z" fill="#DCDCDC"/>
<path d="M1144.88 713.241L1116.59 737.132L1169.35 786.128L1190.99 751.046L1144.88 713.241Z" fill="#DCDCDC"/>
<path d="M1109.22 743.388L1042.87 799.476L1117.27 870.611L1164.25 794.434L1109.22 743.388Z" fill="#DCDCDC"/>
<path d="M1042.55 629.298L1028.17 640.111L1117.73 717.07L1133.34 703.776L1042.55 629.298Z" fill="#DCDCDC"/>
<path d="M1066.67 687.947L1088.58 708.279L1017.26 775.369L994.754 753.931L1066.67 687.947Z" fill="#DCDCDC"/>
<path d="M1096.2 716.99L1106.35 726.778L1034.14 791.441L1024.47 782.219L1096.2 716.99Z" fill="#DCDCDC"/>
<path d="M1020.15 646.151L1053.4 681.314L984.84 744.467L942.183 703.857L1020.15 646.151Z" fill="#DCDCDC"/>
<path d="M931.429 713.161L847.466 796.026L883.802 827.117L972.492 753.771L931.429 713.161Z" fill="#DCDCDC"/>
<path d="M984.568 765.581L905.872 833.884L939.101 869.155L1019.74 800.501L984.568 765.581Z" fill="#DCDCDC"/>
<path d="M1029.82 810.506L990.352 843.862L1053.3 906.611L1107.17 887.007L1029.82 810.506Z" fill="#DCDCDC"/>
<path d="M980.328 852.328L947.694 879.914L997.51 926.915L1039.22 911.733L980.328 852.328Z" fill="#DCDCDC"/>
<path d="M1255.18 707.848L1278.36 724.998L1238.3 759.136L1219.63 744.602L1255.18 707.848Z" fill="#DCDCDC"/>
<path d="M1287.44 731.685L1315.91 752.745L1271.15 785.238L1248.18 768.196L1287.44 731.685Z" fill="#DCDCDC"/>
<path d="M1323.93 762.615L1368.75 791.791L1308.75 813.633L1278.93 791.629L1323.93 762.615Z" fill="#DCDCDC"/>
<path d="M1211.85 752.853L1195.99 776.34L1265.85 829.246L1295.68 818.406L1211.85 752.853Z" fill="#DCDCDC"/>
<path d="M1184.89 790.038L1126.91 879.806L1250.83 834.719L1184.89 790.038Z" fill="#DCDCDC"/>
<path d="M1275.25 844.481L1150.09 889.405L1312.4 1022.05L1335.98 988.503L1366.32 908.281L1275.25 844.481Z" fill="#D6D6D6"/>
<path d="M1221.47 974.077L1120.02 1071.75L1236.81 1130.02L1299.59 1040.25L1221.47 974.077Z" fill="#D6D6D6"/>
<path d="M1132.13 895.851L1106.95 904.884L1188.89 981.089L1208.04 963.022L1132.13 895.851Z" fill="#D6D6D6"/>
<path d="M1097.6 908.256L1064.02 920.309L1157.6 1010.62L1182.51 987.129L1097.6 908.256Z" fill="#D6D6D6"/>
<path d="M1055.73 923.274L1009.23 939.966L1107.84 1057.53L1150.79 1017.01L1055.73 923.274Z" fill="#D6D6D6"/>
<path d="M995.916 944.765L943.534 964.207L982.004 1017.68L1027.47 982.732L995.916 944.765Z" fill="#DCDCDC"/>
<path d="M1032.85 991.416L987.867 1025.8L1049.65 1112.44L1095.77 1068.94L1032.85 991.416Z" fill="#DCDCDC"/>
<path d="M1226.81 1143.77L1181.86 1170.47L1109.27 1082.1L1226.81 1143.77Z" fill="#DCDCDC"/>
<path d="M1370.91 810.155L1289.57 839.331L1371.24 895.311L1370.91 810.155Z" fill="#D6D6D6"/>
<path d="M838.687 804.034L802.433 807.593L897.553 960.756L981.759 932.659L838.687 804.034Z" fill="#DCDCDC"/>
<path d="M774.527 802.335L722.28 778.902L634.967 950.725L875.834 964.234L774.527 802.335Z" fill="#D6D6D6"/>
<path d="M895.69 677.809L917.924 699.786L831.664 783.729L817.373 772.403L895.69 677.809Z" fill="#DCDCDC"/>
<path d="M811.349 628.354L880.778 669.072L802.678 767.873L744.946 740.449L811.349 628.354Z" fill="#DCDCDC"/>
<path d="M907.117 460.684L932.268 479.101L884.127 553.445L861.731 541.715L907.117 460.684Z" fill="#DCDCDC"/>
<path d="M855.142 553.471L878.429 564.797L839.149 629.028L817.996 616.489L855.142 553.471Z" fill="#DCDCDC"/>
<path d="M942.911 486.247L895.959 557.705L918.462 570.594L965.118 501.132L942.911 486.247Z" fill="#DCDCDC"/>
<path d="M925.918 572.644L944.64 588.284L996.752 522.354L972.141 505.258L925.918 572.644Z" fill="#DCDCDC"/>
<path d="M887.64 574.316L907.604 584.293L864.839 644.237L850.008 635.446L887.64 574.316Z" fill="#DCDCDC"/>
<path d="M916.574 591.304L933.863 601.928L889.991 659.122L872.377 648.686L916.574 591.304Z" fill="#DCDCDC"/>
<path d="M958.609 367.977L920.896 436.092L1022.36 499.676L1046.71 471.659L958.609 367.977Z" fill="#DCDCDC"/>
<path d="M973.52 339.205L965.55 356.355L1056.62 457.61L1070.88 443.345L1056.7 428.19L973.52 339.205Z" fill="#DCDCDC"/>
<path d="M1004.29 278.452L996.537 293.661L1104.6 408.264L1122.05 393.945L1004.29 278.452Z" fill="#DCDCDC"/>
<path d="M1047.89 192.945L1070.4 223.955L1032.23 285.652L1009.48 268.259L1047.89 192.945Z" fill="#DCDCDC"/>
<path d="M1047.3 293.175L1071.78 320.087L1108.38 276.565L1080.74 238.193L1047.3 293.175Z" fill="#DCDCDC"/>
<path d="M1121.62 294.496L1086.12 334.216L1132.86 385.208L1154.88 367.357L1168.9 359.591L1121.62 294.496Z" fill="#DCDCDC"/>
<path d="M625.377 970.086L609.681 1008.78L749.538 1011.45L747.728 976.531L625.377 970.086Z" fill="#DCDCDC"/>
<path d="M604.143 1022.45L580.154 1081.61L742.299 1091.67L745.676 1031.16L604.143 1022.45Z" fill="#DCDCDC"/>
<path d="M767.287 977.556L759.291 1072.2L873.916 1075.87L877.428 983.353L767.287 977.556Z" fill="#DCDCDC"/>
<path d="M1109.78 1260.18L911.683 974.995L932.43 967.31L1115.86 1231.44L1239.67 1156.04L1352.89 998.536L1391.04 900.112L1392.61 823.045L1414.03 823.477L1412.38 904.346L1371.89 1008.78L1254.56 1172.03L1109.78 1260.18Z" fill="#DCDCDC"/>
</g>
</g>
</svg>
