<svg width="31" height="30" viewBox="0 0 31 30" fill="none" xmlns="http://www.w3.org/2000/svg">
<path fill-rule="evenodd" clip-rule="evenodd" d="M15.0811 2.42575e-06C12.0119 0.00172213 9.02068 0.953359 6.50879 2.71192C6.39876 2.78618 6.30461 2.8816 6.23184 2.99263C6.15907 3.10365 6.10912 3.22805 6.08493 3.35858C6.06073 3.4891 6.06276 3.62314 6.0909 3.75287C6.11903 3.8826 6.17272 4.00543 6.24882 4.1142C6.32492 4.22297 6.42191 4.3155 6.53414 4.3864C6.64637 4.4573 6.77159 4.50514 6.90251 4.52715C7.03342 4.54915 7.1674 4.54487 7.29664 4.51456C7.42588 4.48424 7.5478 4.4285 7.65527 4.35059C9.83368 2.82549 12.4266 2.0015 15.083 2C22.2739 1.99622 28.082 7.80845 28.082 15C28.082 22.1915 22.2736 28 15.082 28C7.89048 28 2.0807 22.1913 2.08203 15C2.08252 12.3436 2.89965 9.75169 4.41992 7.57227C4.49532 7.46455 4.54874 7.34303 4.57713 7.21465C4.60552 7.08627 4.60831 6.95355 4.58536 6.82409C4.56241 6.69462 4.51415 6.57096 4.44336 6.46016C4.37256 6.34936 4.28062 6.25361 4.17278 6.17839C4.06495 6.10316 3.94334 6.04993 3.81491 6.02175C3.68649 5.99356 3.55377 5.99098 3.42434 6.01414C3.29491 6.0373 3.17132 6.08575 3.06064 6.15672C2.94996 6.22769 2.85435 6.31978 2.7793 6.42774C1.0256 8.94178 0.0826008 11.9338 0.0820315 15C0.0804956 23.2726 6.8096 30 15.082 30C23.3545 30 30.082 23.2724 30.082 15C30.082 6.72756 23.3542 -0.00466527 15.0811 2.42575e-06ZM15.082 6C13.4373 6 12.082 7.35528 12.082 9V12H9.08203C7.43733 12 6.08203 13.3553 6.08203 15C6.08203 16.6447 7.43733 18 9.08203 18H12.082V21C12.082 22.6447 13.4373 24 15.082 24C16.7267 24 18.082 22.6447 18.082 21V18H21.082C22.7267 18 24.082 16.6447 24.082 15C24.082 13.3553 22.7267 12 21.082 12H18.082V9C18.082 7.35528 16.7267 6 15.082 6ZM15.082 8C15.6533 8 16.082 8.42871 16.082 9V13C16.0821 13.2652 16.1874 13.5195 16.375 13.7071C16.5625 13.8946 16.8168 14 17.082 14H21.082C21.6533 14 22.082 14.4287 22.082 15C22.082 15.5713 21.6533 16 21.082 16H17.082C16.8168 16 16.5625 16.1054 16.375 16.2929C16.1874 16.4805 16.0821 16.7348 16.082 17V21C16.082 21.5713 15.6533 22 15.082 22C14.5107 22 14.082 21.5713 14.082 21V17C14.082 16.7348 13.9766 16.4805 13.7891 16.2929C13.6016 16.1054 13.3472 16 13.082 16H9.08203C8.51073 16 8.08203 15.5713 8.08203 15C8.08203 14.4287 8.51073 14 9.08203 14H13.082C13.3472 14 13.6016 13.8946 13.7891 13.7071C13.9766 13.5195 14.082 13.2652 14.082 13V9C14.082 8.42871 14.5107 8 15.082 8Z" fill="#023E4F"/>
</svg>
