<svg width="47" height="38" viewBox="0 0 47 38" fill="none" xmlns="http://www.w3.org/2000/svg">
<path d="M32.5849 37.2356H4.65818C3.37198 37.1811 2.15983 36.619 1.28737 35.6724C0.414906 34.7257 -0.0466914 33.4718 0.00373714 32.1855V5.05007C-0.0466914 3.76371 0.414906 2.50982 1.28737 1.5632C2.15983 0.616579 3.37198 0.0544481 4.65818 0H32.5849C33.8711 0.0544481 35.0832 0.616579 35.9557 1.5632C36.8281 2.50982 37.2897 3.76371 37.2393 5.05007V12.2179L43.2203 9.30889C43.5745 9.14017 43.9656 9.06376 44.3573 9.08674C44.749 9.10973 45.1285 9.23137 45.4606 9.44036C45.7926 9.64936 46.0665 9.93891 46.2566 10.2821C46.4468 10.6253 46.5471 11.011 46.5482 11.4034V27.0889C46.549 27.5047 46.4384 27.9131 46.2279 28.2717C46.0174 28.6303 45.7147 28.9259 45.3512 29.1279C44.9877 29.3298 44.5767 29.4307 44.161 29.42C43.7454 29.4093 43.3401 29.2874 42.9875 29.067L37.2393 25.5994V32.2786C37.2648 33.5491 36.792 34.7791 35.9222 35.7055C35.0523 36.6319 33.8545 37.1811 32.5849 37.2356ZM4.65818 4.65444C4.65818 4.65444 4.65818 4.81735 4.65818 5.05007V32.1855C4.6503 32.3377 4.70016 32.4873 4.79781 32.6044L32.5849 32.5811C32.5849 32.5811 32.5849 32.4415 32.5849 32.1855V21.3406C32.584 20.9248 32.6946 20.5164 32.9051 20.1578C33.1156 19.7992 33.4184 19.5035 33.7819 19.3016C34.1454 19.0997 34.5563 18.9988 34.972 19.0095C35.3877 19.0202 35.7929 19.1421 36.1455 19.3625L41.8937 22.9464V15.1502L35.9128 18.0127C35.5568 18.1823 35.1635 18.2586 34.7699 18.2345C34.3763 18.2104 33.9953 18.0867 33.6626 17.875C33.3299 17.6633 33.0565 17.3705 32.8679 17.0242C32.6794 16.6778 32.582 16.2893 32.5849 15.8949V5.05007C32.5891 4.90542 32.5393 4.76436 32.4452 4.65444H4.65818Z" fill="#EDF6F8"/>
<path d="M18.6208 20.945C17.24 20.945 15.8902 20.5356 14.742 19.7684C13.5939 19.0012 12.699 17.9109 12.1706 16.6351C11.6422 15.3594 11.5039 13.9556 11.7733 12.6013C12.0427 11.247 12.7076 10.003 13.684 9.02658C14.6604 8.05017 15.9045 7.38523 17.2588 7.11584C18.6131 6.84645 20.0169 6.98471 21.2926 7.51314C22.5683 8.04157 23.6587 8.93642 24.4259 10.0846C25.193 11.2327 25.6025 12.5825 25.6025 13.9634C25.6025 15.815 24.8669 17.5908 23.5576 18.9001C22.2483 20.2095 20.4725 20.945 18.6208 20.945ZM18.6208 11.6361C18.1605 11.6361 17.7106 11.7726 17.3279 12.0283C16.9452 12.2841 16.6469 12.6475 16.4708 13.0728C16.2946 13.498 16.2485 13.9659 16.3383 14.4174C16.4281 14.8688 16.6498 15.2835 16.9752 15.609C17.3007 15.9344 17.7154 16.1561 18.1668 16.2459C18.6182 16.3357 19.0862 16.2896 19.5114 16.1134C19.9367 15.9373 20.3001 15.639 20.5558 15.2563C20.8116 14.8736 20.9481 14.4236 20.9481 13.9634C20.9481 13.3461 20.7029 12.7542 20.2664 12.3178C19.83 11.8813 19.238 11.6361 18.6208 11.6361Z" fill="#EDF6F8"/>
<path d="M25.6031 37.2355H11.6397C11.0225 37.2355 10.4306 36.9903 9.99413 36.5538C9.55769 36.1174 9.3125 35.5254 9.3125 34.9082V27.9266C9.3125 25.4577 10.2933 23.0899 12.039 21.3442C13.7848 19.5984 16.1525 18.6177 18.6214 18.6177C21.0903 18.6177 23.458 19.5984 25.2038 21.3442C26.9495 23.0899 27.9303 25.4577 27.9303 27.9266V34.9082C27.9303 35.5254 27.6851 36.1174 27.2486 36.5538C26.8122 36.9903 26.2203 37.2355 25.6031 37.2355ZM13.9669 32.581H23.2758V27.9266C23.2758 26.6921 22.7855 25.5083 21.9126 24.6354C21.0397 23.7625 19.8558 23.2721 18.6214 23.2721C17.387 23.2721 16.2031 23.7625 15.3302 24.6354C14.4573 25.5083 13.9669 26.6921 13.9669 27.9266V32.581Z" fill="#EDF6F8"/>
</svg>
