<svg width="24" height="22" viewBox="0 0 24 22" fill="none" xmlns="http://www.w3.org/2000/svg">
<path d="M20.6747 1.87258H17.3927V0.928112C17.3927 0.503101 17.0385 0.148926 16.6135 0.148926C16.1885 0.148926 15.8343 0.503101 15.8343 0.928112V1.87258H8.16048V0.928112C8.16048 0.503101 7.8063 0.148926 7.38129 0.148926C6.95628 0.148926 6.60211 0.503101 6.60211 0.928112V1.87258H3.29647C1.90338 1.87258 0.77002 3.00594 0.77002 4.39903V19.18C0.77002 20.573 1.90338 21.7064 3.29647 21.7064H20.6747C22.0678 21.7064 23.2011 20.573 23.2011 19.18V4.37542C23.2011 3.00594 22.0678 1.87258 20.6747 1.87258ZM21.6428 19.1563C21.6428 19.6758 21.2177 20.1008 20.6747 20.1008H3.29647C2.77701 20.1008 2.32839 19.6758 2.32839 19.1563V9.14498H21.6191V19.1563H21.6428ZM21.6428 7.563H2.32839V4.37542C2.32839 3.85596 2.7534 3.43095 3.29647 3.43095H6.5785V4.37542C6.5785 4.80043 6.93267 5.15461 7.35768 5.15461C7.78269 5.15461 8.13687 4.80043 8.13687 4.37542V3.43095H15.8107V4.37542C15.8107 4.80043 16.1648 5.15461 16.5899 5.15461C17.0149 5.15461 17.369 4.80043 17.369 4.37542V3.43095H20.6511C21.1705 3.43095 21.6191 3.85596 21.6191 4.37542V7.563H21.6428Z" fill="#01789A"/>
<path d="M9.86078 15.3549C9.95522 15.4257 9.97884 15.5674 9.95522 15.6619L9.67188 17.2675C9.60105 17.6452 10.0024 17.9522 10.3566 17.7633L11.7733 17.0313C11.8678 16.9841 12.0094 16.9841 12.1039 17.0313L13.5442 17.7869C13.8984 17.9758 14.2998 17.6689 14.2289 17.2911L13.9692 15.7091C13.9456 15.591 13.9928 15.473 14.0637 15.4021L15.2442 14.2688C15.5276 13.9854 15.3623 13.5132 14.9845 13.466L13.4025 13.2299C13.2845 13.2062 13.19 13.1354 13.1428 13.041L12.4108 11.577C12.2456 11.2229 11.7497 11.2229 11.5608 11.577L10.8525 13.0173C10.8052 13.1118 10.7108 13.2062 10.5927 13.2062L8.96353 13.4424C8.58575 13.4896 8.42046 13.9618 8.7038 14.2452L9.86078 15.3549Z" fill="#01789A"/>
</svg>
