<svg width="45" height="49" viewBox="0 0 45 49" fill="none" xmlns="http://www.w3.org/2000/svg">
<path d="M38.8307 33.4546C37.2679 33.4546 36.0469 34.7244 36.0469 36.2384C36.0469 37.8013 37.3167 39.0223 38.8307 39.0223C40.3936 39.0223 41.6145 37.7524 41.6145 36.2384C41.6145 34.7244 40.3936 33.4546 38.8307 33.4546Z" fill="#EDF6F8"/>
<path d="M41.6635 40.097H35.9493C34.5818 40.097 33.4585 41.2692 33.4585 42.6855V45.0786H44.1054V42.6855C44.1543 41.2692 43.031 40.097 41.6635 40.097Z" fill="#EDF6F8"/>
<path d="M22.5675 0C21.0047 0 19.7837 1.26982 19.7837 2.78383C19.7837 4.29785 21.0535 5.56767 22.5675 5.56767C24.0815 5.56767 25.3514 4.29785 25.3514 2.78383C25.3514 1.26982 24.0815 0 22.5675 0Z" fill="#EDF6F8"/>
<path d="M25.3998 6.64209H19.6856C18.3181 6.64209 17.1948 7.81423 17.1948 9.23057V11.6237H27.8418V9.23057C27.8906 7.81423 26.7673 6.64209 25.3998 6.64209Z" fill="#EDF6F8"/>
<path d="M6.05972 33.406C4.49687 33.406 3.22705 34.6758 3.22705 36.2387C3.22705 37.8015 4.49687 39.0714 6.05972 39.0714C7.62258 39.0714 8.8924 37.8015 8.8924 36.2387C8.8924 34.6758 7.62258 33.406 6.05972 33.406Z" fill="#EDF6F8"/>
<path d="M8.94084 40.097H3.17781C1.81031 40.097 0.687012 41.2692 0.687012 42.6855V45.1275H11.4316V42.6855C11.4316 41.2692 10.3083 40.097 8.94084 40.097Z" fill="#EDF6F8"/>
<path d="M42.4452 25.9337C42.494 28.1803 42.1521 30.2804 41.5661 32.2828L43.1289 33.7968C44.0569 31.306 44.4964 28.6687 44.4476 25.8848C44.3011 16.6054 38.3915 8.79111 30.1377 5.66541L30.1865 7.81433C37.2682 10.8424 42.2987 17.8264 42.4452 25.9337Z" fill="#EDF6F8"/>
<path d="M2.00607 25.9337C1.95723 28.1803 2.29911 30.2804 2.88518 32.2828L1.32232 33.7968C0.394376 31.306 -0.0451763 28.6687 0.00366294 25.8848C0.150181 16.6054 6.05972 8.79111 14.3135 5.66541L14.2647 7.81433C7.18303 10.8424 2.15259 17.8264 2.00607 25.9337Z" fill="#EDF6F8"/>
<path d="M30.1371 44.4928C27.7439 45.5184 25.1066 46.1045 22.3228 46.1045C19.7832 46.1045 17.2924 45.6161 15.0458 44.737L13.5317 46.251C16.2179 47.4231 19.1971 48.1069 22.274 48.1069C25.595 48.1069 28.7696 47.3743 31.5534 46.0068L30.1371 44.4928Z" fill="#EDF6F8"/>
<path d="M31.4556 16.5078H13.6293C12.7013 16.5078 11.9688 17.2404 11.9688 18.1683V21.8313H33.1161V18.1683C33.1161 17.2892 32.3835 16.5078 31.4556 16.5078ZM16.755 20.2196C16.2178 20.2196 15.7294 19.78 15.7294 19.194C15.7294 18.6567 16.1689 18.1683 16.755 18.1683C17.3411 18.1683 17.7806 18.6079 17.7806 19.194C17.7806 19.7312 17.3411 20.2196 16.755 20.2196ZM28.3299 20.2196C27.7927 20.2196 27.3043 19.78 27.3043 19.194C27.3043 18.6567 27.7438 18.1683 28.3299 18.1683C28.916 18.1683 29.3555 18.6079 29.3555 19.194C29.3555 19.7312 28.8671 20.2196 28.3299 20.2196Z" fill="#EDF6F8"/>
<path d="M11.9688 22.9546V33.5527C11.9688 34.4806 12.7013 35.2132 13.6293 35.2132H31.5044C32.4324 35.2132 33.165 34.4806 33.165 33.5527V22.9546H11.9688ZM21.5412 31.648L18.562 28.6688L19.6853 27.5455L21.5412 29.4014L25.3507 25.5919L26.474 26.7152L21.5412 31.648Z" fill="#EDF6F8"/>
</svg>
