<svg width="142" height="28" viewBox="0 0 142 28" fill="none" xmlns="http://www.w3.org/2000/svg">
<path d="M46.9196 6.53198H46.9669C47.2506 6.53198 47.4161 6.74477 47.4161 7.02849V19.7721C47.4161 19.9849 47.2506 20.2213 46.9669 20.2213C46.7541 20.2213 46.5176 20.0558 46.5176 19.7721V6.9812C46.5176 6.74477 46.6831 6.53198 46.9196 6.53198ZM34.7907 7.19399H43.1367C43.4204 7.19399 43.5859 7.47771 43.5859 7.6905C43.5859 7.90328 43.4204 8.13971 43.1367 8.13971H35.2399V13.4594H42.3801C42.5929 13.4594 42.8293 13.6249 42.8293 13.9086C42.8293 14.1214 42.6638 14.3579 42.3801 14.3579H35.3108V19.8431C35.2635 20.1268 35.0271 20.3396 34.767 20.3396C34.4833 20.3396 34.2705 20.1268 34.2705 19.8431V7.71414H34.3178C34.2942 7.40678 34.5306 7.19399 34.7907 7.19399ZM59.0249 11.1424C59.0249 10.8587 58.8121 10.6932 58.5756 10.6932C58.2919 10.6932 58.1264 10.906 58.1264 11.1424V16.4621C58.1264 18.2826 56.6369 19.7012 54.8164 19.6539C52.8776 19.6539 51.7664 18.4008 51.7664 16.4148V11.1424C51.7664 10.8587 51.5536 10.6932 51.3172 10.6932C51.1044 10.6932 50.868 10.906 50.868 11.1424V16.5803C50.868 18.8264 52.3102 20.4814 54.6745 20.4814C56.1167 20.5287 57.488 19.7721 58.1501 18.4954V19.8667C58.1501 20.1504 58.3628 20.3159 58.5993 20.3159C58.883 20.3159 59.0485 20.1031 59.0485 19.8667H59.0012V11.1424H59.0249ZM67.4182 11.2133C67.4182 11.4261 67.2054 11.5916 66.9689 11.5916H63.919V17.6915C63.919 19.0628 64.6992 19.5593 65.8577 19.5593C66.236 19.5593 66.6379 19.512 66.9689 19.3938C67.1817 19.3938 67.3472 19.5593 67.3472 19.7721C67.3472 19.9376 67.229 20.1031 67.0635 20.1504C66.6143 20.3159 66.1178 20.3632 65.6922 20.3632C64.25 20.3632 63.0442 19.5357 63.0442 17.7861V11.5916H62.0039C61.7911 11.5916 61.5547 11.3788 61.5547 11.1424C61.5547 10.9296 61.7675 10.7641 62.0039 10.7641H63.0442V8.13971C63.0442 7.92693 63.2097 7.6905 63.4225 7.6905H63.4698C63.6825 7.6905 63.919 7.90328 63.919 8.13971V10.7641H66.9689C67.2054 10.7641 67.4182 10.9769 67.4182 11.2133ZM74.5111 11.5916C74.7239 11.5916 74.9603 11.4261 74.9603 11.2133C74.9603 11.0005 74.7475 10.7641 74.5111 10.7641H71.4611V8.13971C71.4611 7.92693 71.2483 7.6905 71.0119 7.6905H70.9646C70.7518 7.6905 70.5863 7.90328 70.5863 8.13971V10.7641H69.546C69.3332 10.7641 69.0968 10.9296 69.0968 11.1424C69.0968 11.3552 69.3096 11.5916 69.546 11.5916H70.5863V17.7861C70.5863 19.5357 71.7921 20.3632 73.2344 20.3632C73.6836 20.3632 74.1801 20.3159 74.6057 20.1504C74.7712 20.1031 74.8894 19.9376 74.8894 19.7721C74.8894 19.5593 74.7239 19.3938 74.5111 19.3938C74.1801 19.512 73.8018 19.5593 73.3999 19.5593C72.2414 19.5593 71.4611 19.0628 71.4611 17.6915V11.5916H74.5111ZM76.6153 15.4927C76.6153 12.7028 78.5541 10.504 81.1548 10.504C83.8738 10.504 85.5761 12.7028 85.5761 15.4927C85.5761 15.7055 85.3633 15.9419 85.1269 15.9419H77.6083C77.7738 18.3063 79.4998 19.6776 81.3676 19.6776C82.5261 19.6776 83.6846 19.181 84.4648 18.3535C84.5121 18.3063 84.6303 18.2353 84.7486 18.2353C84.9613 18.2353 85.1978 18.4481 85.1978 18.6845C85.1978 18.8028 85.1505 18.8973 85.0323 19.0155C84.0866 20.0558 82.7153 20.5996 81.3203 20.5524C78.7669 20.5524 76.6153 18.5663 76.6153 15.5637V15.4927ZM89.1698 13.5067C89.7845 11.9226 91.2741 10.7641 92.9764 10.6459C93.2601 10.6459 93.4729 10.8587 93.4729 11.1897C93.4729 11.4025 93.3074 11.6862 93.0237 11.6862H92.9764C90.9194 11.899 89.1698 13.3885 89.1698 16.4621V19.9849C89.1225 20.2686 88.957 20.4341 88.6733 20.4341C88.4605 20.4341 88.2241 20.2213 88.2241 19.9849V11.1897C88.2714 10.906 88.4369 10.7405 88.7206 10.7405C88.9334 10.7405 89.1698 10.9532 89.1698 11.1897V13.5067ZM108.061 10.1494C107.399 10.1494 106.855 10.5986 106.689 11.237L105.082 16.3439L103.474 11.237C103.308 10.575 102.694 10.0784 101.984 10.0784H101.819C101.11 10.0784 100.495 10.5277 100.329 11.237L98.7216 16.2966L97.1848 11.1897C97.0193 10.575 96.4755 10.1021 95.8135 10.1021H95.7662C95.057 10.1021 94.4895 10.7168 94.4895 11.4261C94.4895 11.6389 94.5368 11.8753 94.6077 12.0881L97.0903 19.181C97.2558 19.8903 97.8705 20.3868 98.6271 20.4341H98.7453C99.4546 20.4341 100.069 19.9376 100.282 19.2283L101.89 14.1687L103.498 19.2283C103.663 19.9376 104.325 20.4341 105.034 20.4341H105.153C105.933 20.4341 106.595 19.9376 106.76 19.181L109.243 12.0408C109.29 11.8753 109.361 11.6625 109.361 11.497V11.4498C109.337 10.7168 108.794 10.1494 108.061 10.1494ZM111.938 10.6459C112.978 10.3149 114.042 10.1021 115.154 10.1494C116.69 10.1494 117.802 10.5986 118.629 11.3079C119.409 12.1827 119.788 13.3412 119.74 14.4997V18.9919C119.74 19.7721 119.126 20.3632 118.369 20.3632C117.66 20.3632 117.045 19.8667 116.998 19.1574C116.218 19.9849 115.106 20.4814 113.948 20.4105C112.127 20.4105 110.52 19.3229 110.52 17.3369C110.52 15.1381 112.175 14.0978 114.563 14.0978C115.39 14.0978 116.218 14.216 116.998 14.4761V14.3106C116.998 13.1048 116.288 12.49 114.846 12.49C114.184 12.49 113.522 12.5373 112.86 12.7738C112.742 12.821 112.577 12.8211 112.482 12.8211C111.82 12.8683 111.276 12.3718 111.276 11.7335C111.229 11.2606 111.489 10.8114 111.938 10.6459ZM128.252 11.0951C128.417 10.4804 128.961 10.1021 129.576 10.1021C130.356 10.1021 130.947 10.7168 130.947 11.4261V11.4734C130.947 11.6862 130.9 11.9226 130.782 12.1354L127.803 19.2283C127.519 19.9376 126.857 20.3868 126.148 20.4341H125.982C125.202 20.3868 124.611 19.8903 124.374 19.181L121.277 12.0881C121.159 11.8753 121.112 11.6389 121.112 11.4261C121.159 10.6459 121.774 10.1021 122.483 10.1021C123.145 10.1021 123.689 10.5513 123.854 11.1424L126.006 16.9113L128.252 11.0951ZM132.082 15.7055C132.2 18.4481 134.565 20.5996 137.331 20.4341C138.608 20.4341 139.813 20.0558 140.806 19.2283C141.09 19.0155 141.185 18.7318 141.185 18.4008V18.3535C141.185 17.7388 140.688 17.266 140.073 17.266C139.861 17.266 139.577 17.3132 139.411 17.4787C138.797 17.928 138.087 18.188 137.354 18.1408C136.149 18.188 135.085 17.3605 134.919 16.1547H140.617C141.327 16.1074 141.894 15.4927 141.823 14.7834V14.5706C141.823 12.0881 139.672 10.0075 137.023 10.0784C134.092 10.0784 132.035 12.4428 132.035 15.3036V15.7055H132.082Z" fill="#10112B"/>
<path d="M77.5449 15.0436C77.7104 12.963 79.1999 11.3553 81.0914 11.3553C83.2429 11.3553 84.4014 13.1049 84.5196 15.0436H77.5449ZM117.029 16.6986C117.029 17.7862 116.083 18.4482 114.759 18.4009C113.884 18.4009 113.222 17.9517 113.222 17.1951V17.1478C113.222 16.3203 114.003 15.7765 115.208 15.7765C115.823 15.7765 116.485 15.942 117.029 16.1548V16.6986ZM137.055 12.3483C135.896 12.3483 135.116 13.1758 134.903 14.4998H139.159C138.993 13.2231 138.213 12.3483 137.055 12.3483Z" fill="white"/>
<path d="M19.9963 0.219321C32.4326 -1.64849 24.4649 8.94364 20.6111 11.9227C23.2591 13.956 25.978 16.8168 27.1366 20.0559C29.2881 25.9903 23.992 26.8651 19.9963 25.3756C15.6224 23.8388 11.7685 20.5524 9.21507 16.6986C8.50578 16.6986 7.72556 16.5804 6.99262 16.3676C8.43485 20.4342 9.04957 24.5954 8.64764 28C8.64764 21.1435 5.38489 14.3343 0.679906 8.65992C-0.975112 6.67389 0.727191 5.20802 2.21671 7.12311C3.23336 8.51806 4.15544 9.96029 4.98295 11.4498C6.61433 5.87003 14.5584 0.999544 19.9963 0.219321ZM18.2231 10.3149C20.6583 8.82542 28.0586 0.881329 21.1549 1.59062C17.1828 2.03984 12.3596 5.70453 10.3736 8.06884C13.1398 7.73784 15.9534 8.94363 18.2231 10.3149ZM11.3666 16.4858C13.5891 18.9683 16.6154 21.3799 19.8781 22.2547C21.7696 22.7512 23.8502 22.5384 23.0936 19.8431C22.3134 17.3606 20.3273 15.1854 18.3886 13.5304C17.8448 13.9087 17.2301 14.3106 16.6154 14.5707C14.9604 15.4928 13.1871 16.1548 11.3666 16.4858Z" fill="#EBA12A"/>
<path d="M10.3013 9.81801C12.1928 9.65251 14.2261 10.6455 15.7865 11.6385C14.297 12.3478 12.642 12.797 10.9161 12.8916C8.38624 12.9153 7.8661 10.0544 10.3013 9.81801Z" fill="white"/>
</svg>
