
<svg id="Guide" height="512" viewBox="0 0 512 512" width="512" xmlns="http://www.w3.org/2000/svg">
    <g fill="rgb(200,200,200)">
        <path d="m16 125.186a6 6 0 0 0 6-6v-83.186a14.015 14.015 0 0 1 14-14h90.123a6 6 0 0 0 0-12h-90.123a26.03 26.03 0 0 0 -26 26v83.186a6 6 0 0 0 6 6z"/>
        <path d="m496 382.025a6 6 0 0 0 -6 6v87.975a14.015 14.015 0 0 1 -14 14h-83.558a6 6 0 0 0 0 12h83.558a26.029 26.029 0 0 0 26-26v-87.975a6 6 0 0 0 -6-6z"/>
        <path d="m476 10h-81.878a6 6 0 0 0 0 12h81.878a14.015 14.015 0 0 1 14 14v78.985a6 6 0 1 0 12 0v-78.985a26.03 26.03 0 0 0 -26-26z"/>
        <path d="m113.521 490h-77.521a14.015 14.015 0 0 1 -14-14v-77.053a6 6 0 0 0 -12 0v77.053a26.029 26.029 0 0 0 26 26h77.521a6 6 0 0 0 0-12z"/>
    </g>
</svg>