<svg width="44" height="47" viewBox="0 0 44 47" fill="none" xmlns="http://www.w3.org/2000/svg">
<path d="M8.11034 30.664C11.0497 30.664 13.4326 28.2812 13.4326 25.3418C13.4326 22.4024 11.0497 20.0195 8.11034 20.0195C5.17094 20.0195 2.78809 22.4024 2.78809 25.3418C2.78809 28.2812 5.17094 30.664 8.11034 30.664Z" fill="#EDF6F8"/>
<path d="M10.112 32.0801H6.15695C3.32492 32.0801 0.883519 34.2285 0.541723 37.0605L0.00461404 41.6504C-0.044214 42.2363 0.297582 42.8223 0.883519 42.9199C3.17844 43.4082 5.57101 43.6523 8.11007 43.6523C9.13546 43.6523 10.1609 43.6035 11.1374 43.5058L11.6257 39.4043C11.8698 37.3047 12.944 35.4492 14.5065 34.1797C13.4812 32.9102 11.8698 32.0801 10.112 32.0801Z" fill="#EDF6F8"/>
<path d="M35.063 30.664C38.0024 30.664 40.3852 28.2812 40.3852 25.3418C40.3852 22.4024 38.0024 20.0195 35.063 20.0195C32.1236 20.0195 29.7407 22.4024 29.7407 25.3418C29.7407 28.2812 32.1236 30.664 35.063 30.664Z" fill="#EDF6F8"/>
<path d="M42.6318 37.0605C42.29 34.2285 39.8974 32.0801 37.0166 32.0801H33.0615C31.3037 32.0801 29.6924 32.9102 28.667 34.2285C30.2295 35.498 31.3037 37.3535 31.5478 39.4531L32.0361 43.5547C33.0127 43.6523 34.0381 43.7012 35.0635 43.7012C37.6025 43.7012 39.9951 43.457 42.29 42.9687C42.876 42.8223 43.2666 42.2851 43.1689 41.6992L42.6318 37.0605Z" fill="#EDF6F8"/>
<path d="M23.5398 34.7656H19.6335C16.7527 34.7656 14.3601 36.9141 14.0183 39.7461L13.4812 44.3359C13.4323 44.9219 13.7741 45.5078 14.3601 45.6055C16.655 46.0937 19.0476 46.3379 21.5866 46.3379C24.1257 46.3379 26.5183 46.0937 28.8132 45.6055C29.3991 45.459 29.7897 44.9219 29.6921 44.3359L29.155 39.7461C28.8132 36.9141 26.4206 34.7656 23.5398 34.7656Z" fill="#EDF6F8"/>
<path d="M21.5869 33.3498C24.5263 33.3498 26.9092 30.967 26.9092 28.0276C26.9092 25.0882 24.5263 22.7053 21.5869 22.7053C18.6475 22.7053 16.2646 25.0882 16.2646 28.0276C16.2646 30.967 18.6475 33.3498 21.5869 33.3498Z" fill="#EDF6F8"/>
<path d="M12.602 14.7461H17.9243L19.9263 18.7011C20.6098 20.0683 22.6118 20.0683 23.2954 18.7011L25.2973 14.7461H30.6196C32.0356 14.7461 33.2075 13.5742 33.2075 12.1582V2.58789C33.2075 1.17187 32.0356 0 30.6196 0H12.602C11.186 0 10.0142 1.17187 10.0142 2.58789V12.1094C10.0142 13.5742 11.186 14.7461 12.602 14.7461ZM27.6899 5.46874C28.7153 5.46874 29.5454 6.29882 29.5454 7.32421C29.5454 8.3496 28.7153 9.17967 27.6899 9.17967C26.6645 9.17967 25.8345 8.3496 25.8345 7.32421C25.8345 6.29882 26.6645 5.46874 27.6899 5.46874ZM21.5864 5.46874C22.6118 5.46874 23.4419 6.29882 23.4419 7.32421C23.4419 8.3496 22.6118 9.17967 21.5864 9.17967C20.561 9.17967 19.7309 8.3496 19.7309 7.32421C19.7309 6.29882 20.561 5.46874 21.5864 5.46874ZM15.4829 5.46874C16.5083 5.46874 17.3384 6.29882 17.3384 7.32421C17.3384 8.3496 16.5083 9.17967 15.4829 9.17967C14.4575 9.17967 13.6274 8.3496 13.6274 7.32421C13.6274 6.29882 14.4575 5.46874 15.4829 5.46874Z" fill="#EDF6F8"/>
</svg>
