<svg width="26" height="26" viewBox="0 0 26 26" fill="none" xmlns="http://www.w3.org/2000/svg">
<path d="M24.9072 12.5499L13.5769 1.21965C13.4354 1.07897 13.244 1 13.0444 1C12.8449 1 12.6534 1.07897 12.5119 1.21965L1.18163 12.5499C1.05788 12.6944 0.99322 12.8803 1.00056 13.0704C1.00791 13.2605 1.08671 13.4408 1.22124 13.5753C1.35576 13.7099 1.53609 13.7887 1.7262 13.796C1.9163 13.8034 2.10217 13.7387 2.24667 13.615L13.0406 2.82099L23.8346 13.6225C23.9791 13.7463 24.165 13.8109 24.3551 13.8036C24.5452 13.7962 24.7255 13.7174 24.86 13.5829C24.9945 13.4484 25.0734 13.268 25.0807 13.0779C25.088 12.8878 25.0234 12.702 24.8996 12.5575L24.9072 12.5499Z" fill="#023E4F" stroke="#01789A" stroke-width="0.4"/>
<path d="M20.5943 23.6611H16.8175V16.1076H9.26402V23.6611H5.48726V13.0862L3.97656 14.5969V23.6611C3.97656 24.0618 4.13573 24.446 4.41904 24.7293C4.70235 25.0126 5.0866 25.1718 5.48726 25.1718H10.7747V17.6183H15.3068V25.1718H20.5943C20.9949 25.1718 21.3792 25.0126 21.6625 24.7293C21.9458 24.446 22.105 24.0618 22.105 23.6611V14.4156L20.5943 12.9049V23.6611Z" fill="#023E4F" stroke="#01789A" stroke-width="0.4"/>
</svg>
