<svg width="27" height="27" viewBox="0 0 27 27" fill="none" xmlns="http://www.w3.org/2000/svg">
<path fill-rule="evenodd" clip-rule="evenodd" d="M19.0587 1.55249H7.88707C3.99269 1.55249 1.55273 4.30891 1.55273 8.20974V18.7355C1.55273 22.6364 3.98236 25.3928 7.88707 25.3928H19.0574C22.9634 25.3928 25.393 22.6364 25.393 18.7355V8.20974C25.393 4.30891 22.9634 1.55249 19.0587 1.55249Z" stroke="#200E32" stroke-width="1.5" stroke-linecap="round" stroke-linejoin="round"/>
<path fill-rule="evenodd" clip-rule="evenodd" d="M11.8252 9.34792C11.8252 10.6641 10.757 11.7323 9.44074 11.7323C8.12583 11.7323 7.05762 10.6641 7.05762 9.34792C7.05762 8.03171 8.12583 6.9635 9.44074 6.9635C10.757 6.9635 11.8252 8.03171 11.8252 9.34792Z" stroke="#200E32" stroke-width="1.5" stroke-linecap="round" stroke-linejoin="round"/>
<path d="M25.3919 17.311C24.108 16.1938 22.9907 14.8491 21.5182 13.9618C20.0431 13.0744 18.4582 13.622 17.4352 14.946C16.4471 16.226 15.8297 17.9478 14.3378 18.7551C12.4998 19.751 11.4199 18.1455 9.88672 17.5022C8.17526 16.7853 6.87585 18.0744 5.8761 19.3131C4.87505 20.5531 3.8611 21.7802 2.84326 23.0073" stroke="#200E32" stroke-width="1.5" stroke-linecap="round" stroke-linejoin="round"/>
</svg>
