<svg width="27" height="18" viewBox="0 0 27 18" fill="none" xmlns="http://www.w3.org/2000/svg">
<path d="M-1.15378e-07 7.67784L0 10.3174L24.275 10.3174L24.275 7.67784L-1.15378e-07 7.67784Z" fill="#023E4F"/>
<path d="M26.2059 9.03099C26.2059 9.03231 26.2059 9.03495 26.2059 9.03759C26.2033 10.0446 25.6833 10.9988 24.7766 11.6547L16.367 17.7481C15.7771 18.1757 14.9509 18.045 14.5246 17.4538C14.0983 16.8625 14.229 16.0363 14.8189 15.6114L23.2285 9.51799C23.4436 9.36225 23.5664 9.1854 23.5677 9.03099C23.5677 8.87789 23.445 8.70104 23.2325 8.54399L14.815 2.38462C14.2264 1.95437 14.097 1.12819 14.5286 0.540896C14.9588 -0.0477224 15.785 -0.175739 16.3723 0.254507L24.7898 6.41388C25.6899 7.07377 26.2059 8.02664 26.2059 9.03099Z" fill="#023E4F"/>
</svg>
