<svg
   width="52"
   height="52"
   viewBox="0 0 52 52"
   fill="none"
   xmlns="http://www.w3.org/2000/svg"
>
   <circle cx="26" cy="26" r="26" fill="none" />
   <path
      d="M25.0411 36.4913H26.0411V35.4913V33.4219V32.5187L25.1425 32.4271C21.2508 32.0306 18.1963 28.7022 18.1963 24.6359C18.1963 24.6272 18.1979 24.6217 18.1995 24.6177C18.2015 24.6131 18.2044 24.6086 18.2081 24.6049C18.2118 24.6012 18.215 24.5994 18.2168 24.5986C18.2179 24.5981 18.2194 24.5975 18.2234 24.5975C18.2274 24.5975 18.229 24.5981 18.23 24.5986C18.2318 24.5994 18.2351 24.6012 18.2387 24.6049C18.2424 24.6086 18.2454 24.6131 18.2473 24.6177C18.249 24.6217 18.2505 24.6272 18.2505 24.6359C18.2505 28.9082 21.6763 32.39 25.9268 32.39C30.1777 32.39 33.6031 28.9079 33.6031 24.6359C33.6031 24.6272 33.6047 24.6217 33.6063 24.6177C33.6083 24.6131 33.6112 24.6086 33.6149 24.6049C33.6186 24.6012 33.6218 24.5994 33.6236 24.5986C33.6247 24.5981 33.6262 24.5975 33.6302 24.5975C33.6318 24.5975 33.6331 24.5976 33.634 24.5978C33.6354 24.598 33.6362 24.5983 33.6368 24.5986C33.6386 24.5994 33.6419 24.6012 33.6455 24.6049C33.6492 24.6086 33.6522 24.6131 33.6541 24.6177C33.6558 24.6217 33.6573 24.6272 33.6573 24.6359C33.6573 28.6234 30.7194 31.9025 26.935 32.401L26.0656 32.5155V33.3924V35.4913V36.4913H27.0656H28.5839C28.5861 36.4913 28.5872 36.4915 28.5875 36.4915L28.5884 36.4918C28.5888 36.492 28.5893 36.4923 28.5901 36.4928C28.5908 36.4933 28.5917 36.4939 28.5926 36.4949C28.5944 36.4967 28.5953 36.4983 28.5956 36.4991L28.5959 36.5C28.596 36.5003 28.5962 36.5014 28.5962 36.5035C28.5962 36.5057 28.596 36.5067 28.5959 36.507L28.5956 36.508C28.5953 36.5087 28.5944 36.5103 28.5926 36.5122C28.5907 36.514 28.5891 36.5149 28.5884 36.5152L28.5875 36.5155C28.5872 36.5156 28.5861 36.5158 28.5839 36.5158H23.5228C23.5206 36.5158 23.5195 36.5156 23.5192 36.5155L23.5183 36.5152C23.5179 36.515 23.5173 36.5147 23.5165 36.5142C23.5158 36.5137 23.515 36.513 23.5141 36.5122C23.5123 36.5103 23.5114 36.5087 23.5111 36.508L23.5108 36.507C23.5107 36.5067 23.5105 36.5057 23.5105 36.5035C23.5105 36.5014 23.5107 36.5003 23.5108 36.5L23.5111 36.4991C23.5114 36.4983 23.5123 36.4967 23.5141 36.4949C23.5159 36.493 23.5176 36.4921 23.5183 36.4918L23.5192 36.4915C23.5193 36.4915 23.5194 36.4915 23.5196 36.4915C23.5201 36.4914 23.5211 36.4913 23.5228 36.4913H25.0411ZM22.4983 19.3741C22.4983 17.3524 24.1087 15.7405 26.0533 15.7405C27.9995 15.7405 29.6084 17.353 29.6084 19.3801V24.5252C29.6084 26.5511 27.9971 28.1648 26.0533 28.1648C24.1072 28.1648 22.4983 26.5522 22.4983 24.5282V19.3741Z"
      stroke="white"
      stroke-width="2"
   />
   <line
      x1="13.2071"
      y1="12.7929"
      x2="39.2071"
      y2="38.7929"
      stroke="white"
      stroke-width="2"
   />
</svg>
