<svg
   width="52"
   height="52"
   viewBox="0 0 52 52"
   fill="none"
   xmlns="http://www.w3.org/2000/svg"

>
   <path
      d="M25.0411 35.4912V33.4219C20.635 32.973 17.1963 29.2111 17.1963 24.6359C17.1963 24.0624 17.6561 23.5975 18.2234 23.5975C18.7907 23.5975 19.2505 24.0624 19.2505 24.6359C19.2505 28.3668 22.2394 31.3899 25.9268 31.3899C29.6145 31.3899 32.6031 28.3665 32.6031 24.6359C32.6031 24.0624 33.063 23.5975 33.6302 23.5975C34.1975 23.5975 34.6573 24.0624 34.6573 24.6359C34.6573 29.1229 31.3498 32.828 27.0656 33.3923V35.4912H28.5839C29.143 35.4912 29.5962 35.9444 29.5962 36.5035C29.5962 37.0625 29.143 37.5157 28.5839 37.5157H23.5228C22.9637 37.5157 22.5105 37.0625 22.5105 36.5035C22.5105 35.9444 22.9637 35.4912 23.5228 35.4912H25.0411ZM21.4983 19.3741C21.4983 16.816 23.5406 14.7404 26.0533 14.7404C28.5691 14.7404 30.6084 16.8181 30.6084 19.3801V24.5251C30.6084 27.0861 28.5665 29.1648 26.0533 29.1648C23.5382 29.1648 21.4983 27.0875 21.4983 24.5281V19.3741Z"
      fill="white"
   />
   <circle
      cx="26"
      cy="26"
      r="24.5"
      stroke="white"
      stroke-width="3"
   />
</svg>
