<svg width="41" height="41" viewBox="0 0 41 41" fill="none" xmlns="http://www.w3.org/2000/svg">
<path d="M38.5486 11.1305L35.4544 13.3652C36.4858 15.514 37.0444 17.9206 37.0444 20.4131C37.0444 29.6098 29.5668 37.0874 20.3701 37.0874C11.1735 37.0874 3.69585 29.6098 3.69585 20.4131C3.69585 11.2165 11.2165 3.73882 20.4131 3.73882C22.9487 3.73882 25.3552 4.2975 27.461 5.3289L29.6957 2.27768C26.9453 0.816525 23.7652 0 20.4131 0C9.15367 0 0 9.15367 0 20.4131C0 31.6726 9.15367 40.8262 20.4131 40.8262C31.6726 40.8262 40.8262 31.6726 40.8262 20.4131C40.8262 17.0611 40.0097 13.9239 38.5486 11.1305Z" fill="#01789A"/>
<path d="M20.4131 11.2595C21.2726 11.2595 22.1321 11.3884 22.9487 11.6462L25.2263 8.46608C23.7222 7.86443 22.1321 7.52063 20.4131 7.52063C13.2793 7.52063 7.47766 13.3223 7.47766 20.4561C7.47766 27.59 13.2793 33.3486 20.4131 33.3486C27.547 33.3486 33.3486 27.547 33.3486 20.4131C33.3486 18.6941 33.0048 17.0611 32.4032 15.5999L29.223 17.9206C29.4809 18.6941 29.5668 19.5536 29.5668 20.4131C29.5668 25.4842 25.4412 29.5668 20.4131 29.5668C15.3421 29.5668 11.2165 25.4412 11.2165 20.4131C11.2165 15.3851 15.3421 11.2595 20.4131 11.2595Z" fill="#01789A"/>
<path d="M19.8544 14.9983C19.5536 14.6975 19.1238 14.6115 18.737 14.6975C18.3503 14.8264 18.0494 15.1272 17.9635 15.514L16.2015 23.2925C16.1156 23.6792 16.2445 24.066 16.5023 24.3239C16.7172 24.5387 17.018 24.6677 17.3189 24.6677C17.4048 24.6677 17.4908 24.6677 17.5767 24.6247L25.3552 22.8627C25.742 22.7768 26.0858 22.4759 26.1717 22.0892C26.3006 21.7024 26.1717 21.2726 25.8709 20.9718L23.98 19.1239L39.451 5.62973C40.7832 4.46941 40.8262 2.44958 39.5799 1.24628C38.3336 5.63264e-06 36.3138 0.0859556 35.1965 1.37521L21.7023 16.8462L19.8544 14.9983Z" fill="#01789A"/>
</svg>
