<svg width="20" height="22" viewBox="0 0 20 22" fill="none" xmlns="http://www.w3.org/2000/svg">
<path d="M19.756 17.7066H0.0820312V15.7392H1.06573V8.8838C1.06573 3.9771 5.03005 0 9.91904 0C14.808 0 18.7723 3.9771 18.7723 8.8838V15.7392H19.756V17.7066ZM3.03313 15.7392H16.8049V8.8838C16.8049 5.06409 13.722 1.9674 9.91904 1.9674C6.11605 1.9674 3.03313 5.06409 3.03313 8.8838V15.7392ZM7.45979 18.6903H12.3783C12.3783 19.3425 12.1192 19.9681 11.658 20.4293C11.1968 20.8905 10.5713 21.1496 9.91904 21.1496C9.26681 21.1496 8.64128 20.8905 8.18009 20.4293C7.71889 19.9681 7.45979 19.3425 7.45979 18.6903Z" fill="#023E4F"/>
</svg>
