<svg width="142" height="25" viewBox="0 0 142 25" fill="none" xmlns="http://www.w3.org/2000/svg">
<path d="M20.801 2.38583H1.99842C1.36699 2.38583 0.829102 2.92372 0.829102 3.57854V5.7067C0.829102 6.36152 1.36699 6.89941 1.99842 6.89941H20.801C21.4559 6.89941 21.9704 6.36152 21.9937 5.7067V3.60192C21.9937 2.92372 21.4559 2.38583 20.801 2.38583ZM20.801 14.196H1.99842C1.6944 14.196 1.39037 14.3129 1.1799 14.5468C0.946033 14.7806 0.829102 15.0613 0.829102 15.3887V17.5168C0.829102 18.1716 1.36699 18.7095 1.99842 18.7095H20.801C21.4559 18.7095 21.9704 18.195 21.9937 17.5168V15.3887C21.9704 14.7105 21.4559 14.196 20.801 14.196ZM12.5924 20.0893H1.99842C1.6944 20.0893 1.39037 20.2063 1.1799 20.4401C0.96942 20.674 0.829102 20.9546 0.829102 21.282V23.4102C0.829102 24.065 1.36699 24.6029 1.99842 24.6029H12.569C13.2239 24.6029 13.7384 24.065 13.7384 23.4336V21.3054C13.7618 20.6038 13.2473 20.0659 12.5924 20.0893ZM21.9937 8.2792H1.99842C1.6944 8.2792 1.39037 8.39613 1.1799 8.63C0.96942 8.86386 0.829102 9.1445 0.829102 9.47191V11.6001C0.829102 12.2549 1.36699 12.7928 1.99842 12.7928H21.9704C22.6252 12.7928 23.1397 12.2549 23.1397 11.6001V9.47191C23.1631 8.81709 22.6252 8.30259 21.9937 8.2792Z" fill="#00C3F7"/>
<path d="M43.8588 7.15622C43.2741 6.54818 42.5959 6.08045 41.8242 5.75304C41.0524 5.42563 40.2339 5.26193 39.392 5.26193C38.5735 5.23854 37.7783 5.42563 37.03 5.77643C36.5389 6.01029 36.0945 6.3377 35.7203 6.73527V6.36108C35.7203 6.17399 35.6502 5.9869 35.5333 5.84659C35.4163 5.70627 35.2292 5.61272 35.0188 5.61272H32.4229C32.2358 5.61272 32.0487 5.68288 31.9318 5.84659C31.7914 5.9869 31.7213 6.17399 31.7447 6.36108V23.8541C31.7447 24.0412 31.8148 24.2283 31.9318 24.3686C32.0721 24.5089 32.2358 24.5791 32.4229 24.5791H35.0889C35.276 24.5791 35.4397 24.5089 35.58 24.3686C35.7203 24.2516 35.8139 24.0645 35.7905 23.8541V17.8672C36.1647 18.2881 36.6558 18.5921 37.1937 18.7792C37.8953 19.0365 38.6202 19.1768 39.3686 19.1768C40.2105 19.1768 41.0524 19.0131 41.8242 18.6857C42.5959 18.3583 43.2975 17.8906 43.8822 17.2825C44.4902 16.6511 44.9579 15.9027 45.2854 15.0842C45.6595 14.1721 45.8232 13.1899 45.7999 12.2077C45.8232 11.2254 45.6362 10.2432 45.2854 9.30776C44.9346 8.53601 44.4668 7.78765 43.8588 7.15622ZM41.4734 13.4939C41.3331 13.8681 41.1226 14.1955 40.842 14.4995C40.3041 15.0842 39.5323 15.4116 38.7372 15.4116C38.3396 15.4116 37.942 15.3414 37.5679 15.1543C37.2171 14.9906 36.8897 14.7802 36.609 14.4995C36.3284 14.2189 36.1179 13.8681 35.9776 13.4939C35.6736 12.6988 35.6736 11.8335 35.9776 11.0384C36.1179 10.6642 36.3518 10.3368 36.609 10.0561C36.8897 9.77549 37.2171 9.54163 37.5679 9.37793C37.942 9.21422 38.3396 9.12067 38.7372 9.12067C39.1581 9.12067 39.5323 9.19083 39.9299 9.37793C40.2807 9.54163 40.6081 9.7521 40.8653 10.0327C41.146 10.3134 41.3331 10.6408 41.4968 11.015C41.7774 11.8335 41.754 12.6988 41.4734 13.4939ZM60.0889 5.63611H57.4462C57.2592 5.63611 57.0721 5.70627 56.9551 5.84659C56.8148 5.9869 56.7447 6.174 56.7447 6.38447V6.71188C56.4172 6.31431 55.9963 6.01029 55.552 5.79981C54.827 5.44902 54.0318 5.28532 53.2367 5.28532C51.5295 5.28532 49.9158 5.96352 48.6998 7.15622C48.0683 7.78765 47.5772 8.53602 47.2498 9.35454C46.8756 10.2666 46.6885 11.2488 46.7119 12.2544C46.6885 13.2367 46.8756 14.2189 47.2498 15.1543C47.6006 15.9729 48.0683 16.7212 48.6998 17.3527C49.8925 18.5688 51.5295 19.247 53.2133 19.247C54.0085 19.2703 54.8036 19.0833 55.5286 18.7325C55.9729 18.4986 56.4172 18.1946 56.7447 17.8204V18.1712C56.7447 18.3583 56.8148 18.5454 56.9551 18.6857C57.0955 18.8026 57.2592 18.8962 57.4462 18.8962H60.0889C60.276 18.8962 60.4631 18.826 60.58 18.6857C60.7203 18.5454 60.7905 18.3583 60.7905 18.1712V6.40786C60.7905 6.22077 60.7203 6.03368 60.6034 5.89336C60.4631 5.72965 60.276 5.63611 60.0889 5.63611ZM56.5108 13.4939C56.3705 13.8681 56.16 14.1955 55.8794 14.4995C55.5987 14.7802 55.2947 15.014 54.9439 15.1777C54.1955 15.5285 53.3303 15.5285 52.5819 15.1777C52.2311 15.014 51.9037 14.7802 51.6231 14.4995C51.3424 14.2189 51.1319 13.8681 50.9916 13.4939C50.711 12.6988 50.711 11.8335 50.9916 11.0384C51.1319 10.6642 51.3424 10.3602 51.6231 10.0561C51.9037 9.77549 52.2077 9.54163 52.5819 9.37793C53.3303 9.02713 54.1955 9.02713 54.9205 9.37793C55.2713 9.54163 55.5987 9.7521 55.856 10.0327C56.1132 10.3134 56.3237 10.6408 56.4874 11.015C56.8148 11.8335 56.8148 12.6988 56.5108 13.4939ZM86.4219 11.9036C86.0477 11.5762 85.6034 11.2956 85.1357 11.1085C84.6446 10.898 84.1067 10.7577 83.5922 10.6408L81.5809 10.2432C81.0664 10.1497 80.6923 10.0094 80.5052 9.84565C80.3415 9.72872 80.2245 9.54163 80.2245 9.33115C80.2245 9.12067 80.3415 8.93358 80.5987 8.76988C80.9495 8.58279 81.3237 8.48924 81.7213 8.51263C82.2358 8.51263 82.7503 8.62956 83.218 8.81665C83.6857 9.02713 84.1301 9.23761 84.551 9.51824C85.1357 9.89243 85.6502 9.82227 86.001 9.40131L86.9598 8.30215C87.1469 8.11506 87.2404 7.8812 87.2638 7.62395C87.2404 7.34331 87.1001 7.10945 86.8896 6.92236C86.4921 6.57156 85.8373 6.19738 84.972 5.8232C84.1067 5.44902 83.0075 5.26193 81.7213 5.26193C80.9261 5.23854 80.1544 5.35547 79.406 5.58933C78.7746 5.79981 78.1665 6.10384 77.6287 6.5014C77.1375 6.87559 76.7634 7.34331 76.4827 7.90458C76.2255 8.44247 76.0852 9.02713 76.0852 9.61179C76.0852 10.7109 76.4126 11.5996 77.0674 12.2544C77.7222 12.9093 78.5875 13.3536 79.6633 13.5641L81.768 14.0318C82.2124 14.102 82.6801 14.2423 83.1011 14.4528C83.3349 14.5463 83.4752 14.7802 83.4752 15.0374C83.4752 15.2713 83.3583 15.4818 83.1011 15.6689C82.8438 15.8559 82.4229 15.9729 81.8616 15.9729C81.3003 15.9729 80.7157 15.8559 80.2012 15.5987C79.71 15.3648 79.2657 15.0608 78.8447 14.71C78.6577 14.5697 78.4706 14.4528 78.2367 14.3592C78.0028 14.2891 77.6988 14.3592 77.3948 14.6165L76.2489 15.4818C75.9215 15.7156 75.7578 16.1132 75.8513 16.4874C75.9215 16.8849 76.2255 17.2591 76.8101 17.7035C78.2601 18.6857 79.9907 19.2002 81.7447 19.1534C82.5632 19.1534 83.3817 19.0599 84.1534 18.826C84.8316 18.6155 85.4631 18.3115 86.0244 17.8906C86.5389 17.5164 86.9598 17.0253 87.2404 16.4406C87.5211 15.8793 87.6614 15.2713 87.6614 14.6399C87.6848 14.0786 87.5678 13.5173 87.334 13.0028C87.1001 12.6286 86.7961 12.2311 86.4219 11.9036ZM97.9748 15.1076C97.8578 14.8971 97.6474 14.7568 97.3901 14.71C97.1562 14.71 96.899 14.7802 96.7119 14.9205C96.3845 15.131 96.0103 15.2479 95.6361 15.2713C95.5192 15.2713 95.3789 15.2479 95.262 15.2245C95.1216 15.2011 95.0047 15.131 94.9112 15.0374C94.7942 14.9205 94.7007 14.7802 94.6305 14.6399C94.537 14.406 94.4902 14.1721 94.5136 13.9383V9.14406H97.928C98.1385 9.14406 98.3256 9.05052 98.4659 8.9102C98.6062 8.76988 98.6997 8.60617 98.6997 8.3957V6.36108C98.6997 6.15061 98.6296 5.96352 98.4659 5.84659C98.3256 5.70627 98.1385 5.63611 97.9514 5.63611H94.5136V2.36202C94.5136 2.17493 94.4434 1.96445 94.3031 1.84752C94.1628 1.73059 93.9991 1.66043 93.812 1.63704H91.146C90.9589 1.63704 90.7718 1.7072 90.6315 1.84752C90.4911 1.98784 90.3976 2.17493 90.3976 2.36202V5.63611H88.8775C88.6904 5.63611 88.5033 5.70627 88.363 5.86997C88.2461 6.01029 88.1759 6.19738 88.1759 6.38447V8.41908C88.1759 8.60617 88.2461 8.79327 88.363 8.93359C88.4799 9.09729 88.667 9.16745 88.8775 9.16745H90.3976V14.8737C90.3742 15.5519 90.5145 16.2301 90.7952 16.8382C91.0524 17.3527 91.3798 17.797 91.8242 18.1712C92.2451 18.522 92.7362 18.7792 93.2741 18.9196C93.812 19.0833 94.3733 19.1768 94.9345 19.1768C95.6595 19.1768 96.4079 19.0599 97.1095 18.826C97.7643 18.6155 98.3489 18.2413 98.8167 17.7502C99.1207 17.4462 99.1441 16.9551 98.9102 16.6043L97.9748 15.1076ZM112.428 5.63611H109.785C109.598 5.63611 109.434 5.70627 109.294 5.84659C109.153 5.9869 109.083 6.174 109.083 6.38447V6.71188C108.756 6.31431 108.358 6.01029 107.891 5.79981C107.166 5.44902 106.37 5.28532 105.575 5.28532C103.868 5.28532 102.254 5.96352 101.038 7.15622C100.407 7.78765 99.9158 8.53602 99.5884 9.35454C99.2142 10.2666 99.0272 11.2488 99.0505 12.2311C99.0272 13.2133 99.2142 14.1955 99.5884 15.131C99.9158 15.9495 100.43 16.6979 101.038 17.3293C102.231 18.5454 103.845 19.2236 105.552 19.2236C106.347 19.247 107.142 19.0599 107.867 18.7325C108.335 18.4986 108.756 18.1946 109.083 17.8204V18.1712C109.083 18.3583 109.153 18.5454 109.294 18.6623C109.434 18.8026 109.598 18.8728 109.785 18.8728H112.428C112.825 18.8728 113.129 18.5688 113.129 18.1712V6.40786C113.129 6.22077 113.059 6.03368 112.942 5.89336C112.825 5.72965 112.638 5.63611 112.428 5.63611ZM108.873 13.4939C108.732 13.8681 108.522 14.1955 108.241 14.4995C107.961 14.7802 107.657 15.014 107.306 15.1777C106.932 15.3414 106.534 15.435 106.113 15.435C105.692 15.435 105.318 15.3414 104.944 15.1777C104.593 15.014 104.266 14.7802 103.985 14.4995C103.704 14.2189 103.494 13.8681 103.377 13.4939C103.096 12.6988 103.096 11.8335 103.377 11.0384C103.517 10.6642 103.728 10.3368 103.985 10.0561C104.266 9.77549 104.593 9.54163 104.944 9.37793C105.318 9.21422 105.716 9.12067 106.113 9.12067C106.511 9.12067 106.908 9.19083 107.306 9.37793C107.657 9.54163 107.961 9.7521 108.241 10.0327C108.522 10.3134 108.732 10.6408 108.873 11.015C109.177 11.8101 109.177 12.6988 108.873 13.4939ZM126.927 14.9205L125.407 13.7512C125.126 13.5173 124.846 13.4471 124.612 13.5407C124.401 13.6342 124.214 13.7746 124.051 13.9383C123.723 14.3358 123.326 14.6866 122.905 14.9906C122.437 15.2479 121.946 15.3882 121.431 15.3414C120.823 15.3414 120.262 15.1777 119.771 14.8269C119.28 14.4761 118.906 14.0084 118.718 13.4238C118.578 13.0262 118.508 12.6286 118.508 12.2311C118.508 11.8101 118.578 11.4125 118.718 10.9916C118.859 10.6174 119.046 10.29 119.326 10.0094C119.607 9.72872 119.911 9.49486 120.262 9.35454C120.636 9.19083 121.034 9.09729 121.455 9.09729C121.969 9.0739 122.484 9.21422 122.928 9.47147C123.372 9.75211 123.747 10.1029 124.074 10.5239C124.214 10.6876 124.401 10.8279 124.612 10.9214C124.846 11.015 125.126 10.9448 125.407 10.7109L126.927 9.56501C127.114 9.44808 127.254 9.26099 127.325 9.05052C127.418 8.81665 127.395 8.55941 127.254 8.34893C126.67 7.43686 125.875 6.6885 124.916 6.15061C123.91 5.58934 122.718 5.28532 121.384 5.28532C120.449 5.28532 119.514 5.4724 118.625 5.8232C117.783 6.17399 117.035 6.66511 116.403 7.29654C115.772 7.92797 115.257 8.67634 114.906 9.51824C114.182 11.2722 114.182 13.2367 114.906 14.9906C115.257 15.8092 115.748 16.5809 116.403 17.189C117.736 18.4986 119.514 19.2002 121.384 19.2002C122.718 19.2002 123.91 18.8962 124.916 18.3349C125.875 17.797 126.693 17.0486 127.278 16.1132C127.395 15.9027 127.418 15.6455 127.348 15.435C127.254 15.2479 127.114 15.0608 126.927 14.9205ZM141.006 17.6567L136.819 11.5295L140.398 6.80543C140.561 6.59495 140.631 6.29093 140.538 6.03368C140.468 5.84659 140.304 5.65949 139.86 5.65949H137.03C136.866 5.65949 136.703 5.70627 136.562 5.77643C136.375 5.86997 136.235 6.01029 136.141 6.17399L133.288 10.1731H132.61V0.724978C132.61 0.537887 132.54 0.350794 132.399 0.210476C132.259 0.0701576 132.095 0 131.908 0H129.266C129.079 0 128.892 0.0701576 128.751 0.210476C128.611 0.350794 128.541 0.514501 128.541 0.724978V18.1478C128.541 18.3583 128.611 18.522 128.751 18.6623C128.892 18.8026 129.079 18.8728 129.266 18.8728H131.908C132.095 18.8728 132.283 18.8026 132.399 18.6623C132.54 18.522 132.61 18.3349 132.61 18.1478V13.5407H133.358L136.469 18.3115C136.656 18.6623 137.007 18.8728 137.381 18.8728H140.351C140.795 18.8728 140.982 18.6623 141.076 18.4752C141.193 18.1946 141.169 17.8906 141.006 17.6567ZM75.1029 5.63611H72.1329C71.899 5.63611 71.6885 5.70627 71.5248 5.86997C71.3845 6.01029 71.291 6.17399 71.2442 6.36108L69.0459 14.4995H68.508L66.1693 6.36108C66.1226 6.19738 66.0524 6.03368 65.9355 5.86997C65.7952 5.70627 65.6081 5.61272 65.3976 5.61272H62.3808C61.9832 5.61272 61.7493 5.72965 61.6324 6.01029C61.5622 6.24415 61.5622 6.5014 61.6324 6.73527L65.3742 18.1946C65.4444 18.3583 65.5145 18.5454 65.6549 18.6623C65.7952 18.8026 66.0056 18.8728 66.2161 18.8728H67.8064L67.6661 19.247L67.3153 20.2993C67.1984 20.6268 67.0113 20.9074 66.7306 21.1179C66.4734 21.305 66.1694 21.4219 65.8419 21.3985C65.5613 21.3985 65.3041 21.3283 65.0468 21.2348C64.7896 21.1179 64.5557 20.9776 64.3452 20.8138C64.1581 20.6735 63.9243 20.6034 63.667 20.6034H63.6436C63.363 20.6268 63.1057 20.7671 62.9654 21.0243L62.03 22.4041C61.6558 23.0122 61.8663 23.3863 62.1001 23.5968C62.6146 24.0645 63.1993 24.4153 63.8541 24.6258C64.5791 24.8831 65.3274 25 66.0758 25C67.4322 25 68.5548 24.6258 69.4201 23.9008C70.3087 23.1057 70.9869 22.0767 71.3143 20.9074L75.6642 6.73527C75.7578 6.47802 75.7811 6.22077 75.6876 5.98691C75.6642 5.8232 75.5005 5.63611 75.1029 5.63611Z" fill="#011B33"/>
</svg>
