<svg width="20" height="19" viewBox="0 0 20 19" fill="none" xmlns="http://www.w3.org/2000/svg">
<path d="M12.5071 11.7904L12.5071 11.7905L12.5128 11.7886C14.2934 11.2018 16.2166 11.6958 17.3743 13.0858C18.2732 14.1955 18.8152 15.6169 18.8152 17.1404C18.8152 17.651 18.4069 18.0593 17.8963 18.0593H2.50295C1.99236 18.0593 1.58404 17.651 1.58404 17.1404C1.58404 15.6156 2.12694 14.1931 3.02717 13.0831C4.15778 11.7 6.10058 11.2 7.88639 11.7886L7.88638 11.7886L7.89217 11.7904C8.62768 12.0268 9.39782 12.1607 10.1996 12.1607C11.0014 12.1607 11.7716 12.0268 12.5071 11.7904ZM14.0933 4.72188C14.0933 6.86152 12.3393 8.61557 10.1996 8.61557C8.05998 8.61557 6.30592 6.86152 6.30592 4.72188C6.30592 2.58224 8.05998 0.828183 10.1996 0.828183C12.3393 0.828183 14.0933 2.58224 14.0933 4.72188Z" stroke="#023E4F" stroke-width="1.65637"/>
</svg>
