<svg width="22" height="28" viewBox="0 0 22 28" fill="none" xmlns="http://www.w3.org/2000/svg">
<path d="M17.2617 21.582C19.8189 22.1562 21.7457 24.4519 21.7457 27.1762V27.388C21.7457 27.6412 21.5404 27.8465 21.2876 27.8465H10.7382C10.485 27.8465 10.2797 27.6412 10.2797 27.388V27.1762C10.2797 24.4023 12.2744 22.0738 14.9008 21.5524C15.6772 21.4001 16.4905 21.4066 17.2617 21.582ZM7.24822 7.11825C9.80575 7.69279 11.7326 9.98819 11.7326 12.7124V12.9246C11.7326 13.1774 11.5273 13.3827 11.2741 13.3827H0.724718C0.471893 13.3827 0.266602 13.1774 0.266602 12.9246V12.7124C0.266602 9.93859 2.2613 7.61012 4.88738 7.08897C5.66411 6.93638 6.47735 6.94292 7.24822 7.11825ZM13.438 8.02656C13.0119 7.60082 13.6598 6.95257 14.0859 7.37865L15.5449 8.83773V3.68031C15.5449 3.07752 16.4615 3.07752 16.4615 3.68031V8.85668L17.9396 7.37865C18.3656 6.95257 19.0135 7.60082 18.5878 8.02656L16.3368 10.2775C16.1581 10.4563 15.8674 10.4563 15.6886 10.2775L13.438 8.02656ZM5.9996 0.256836C7.7742 0.256836 9.2164 1.6987 9.2164 3.47398C9.2164 5.2503 7.77626 6.69079 5.9996 6.69079C4.22328 6.69079 2.78245 5.24961 2.78245 3.47398C2.78245 1.69939 4.22535 0.256836 5.9996 0.256836ZM5.9996 1.17341C4.72721 1.17341 3.69903 2.20125 3.69903 3.47398C3.69903 4.74603 4.72755 5.77421 5.9996 5.77421C7.27027 5.77421 8.29982 4.74431 8.29982 3.47398C8.29982 2.20228 7.27096 1.17341 5.9996 1.17341ZM7.9788 8.32485L6.38986 10.9389C6.21075 11.2351 5.7826 11.2282 5.60865 10.9378L4.0204 8.32519C2.42664 9.04991 1.28376 10.6203 1.18938 12.4661H10.8098C10.7154 10.6203 9.57325 9.04957 7.9788 8.32485ZM4.9046 8.02311L5.9996 9.82458L7.09426 8.02311C6.37746 7.85364 5.62208 7.85399 4.9046 8.02311ZM3.4245 20.0767C2.99877 20.5028 3.64667 21.1507 4.07276 20.725L5.53184 19.2656V24.4233C5.53184 25.0258 6.44842 25.0258 6.44842 24.4233V19.247L7.92644 20.725C8.35253 21.1507 9.00043 20.5028 8.57435 20.0767L6.32373 17.8258C6.14496 17.6473 5.85424 17.6473 5.67547 17.8258L3.4245 20.0767ZM16.0127 14.7206C17.7877 14.7206 19.2299 16.1624 19.2299 17.9374C19.2299 19.714 17.7894 21.1545 16.0127 21.1545C14.2367 21.1545 12.7959 19.7133 12.7959 17.9374C12.7959 16.1631 14.2385 14.7206 16.0127 14.7206ZM16.0127 15.6371C14.7403 15.6371 13.7125 16.665 13.7125 17.9374C13.7125 19.2098 14.7407 20.2379 16.0127 20.2379C17.2834 20.2379 18.3133 19.208 18.3133 17.9374C18.3133 16.666 17.2844 15.6371 16.0127 15.6371ZM17.9919 22.7886L16.403 25.4026C16.2239 25.6988 15.7957 25.6919 15.6218 25.4016L14.0335 22.7886C12.4397 23.5136 11.2969 25.084 11.2025 26.9299H20.8229C20.7289 25.084 19.5864 23.5133 17.9919 22.7886ZM14.9181 22.4868L16.0127 24.2883L17.1077 22.4868C16.3906 22.317 15.6352 22.3177 14.9181 22.4868Z" fill="#01789A"/>
</svg>
