<svg width="24" height="24" viewBox="0 0 24 24" fill="none" xmlns="http://www.w3.org/2000/svg">
<path d="M9.9627 19.9254C12.1731 19.9249 14.3199 19.185 16.0611 17.8233L21.5356 23.2978L23.2965 21.5369L17.822 16.0624C19.1844 14.321 19.9249 12.1737 19.9254 9.9627C19.9254 4.46952 15.4559 0 9.9627 0C4.46952 0 0 4.46952 0 9.9627C0 15.4559 4.46952 19.9254 9.9627 19.9254ZM9.9627 2.49068C14.0835 2.49068 17.4347 5.84188 17.4347 9.9627C17.4347 14.0835 14.0835 17.4347 9.9627 17.4347C5.84188 17.4347 2.49067 14.0835 2.49067 9.9627C2.49067 5.84188 5.84188 2.49068 9.9627 2.49068Z" fill="#01789A"/>
<path d="M11.7211 8.20178C12.1931 8.675 12.4534 9.30016 12.4534 9.96268H14.944C14.9452 9.30817 14.8165 8.65993 14.5656 8.05543C14.3146 7.45093 13.9463 6.90217 13.482 6.44087C11.5966 4.55792 8.32757 4.55792 6.44337 6.44087L8.20179 8.20427C9.14825 7.2603 10.7796 7.26279 11.7211 8.20178Z" fill="#01789A"/>
</svg>
