<svg width="25" height="25" viewBox="0 0 25 25" fill="none" xmlns="http://www.w3.org/2000/svg">
<path d="M14.5478 24.0791H12.5412C12.4082 24.0791 12.2806 24.0263 12.1865 23.9322C12.0924 23.8381 12.0396 23.7105 12.0396 23.5775V22.5742H11.0363V23.5775C11.0363 23.7105 10.9834 23.8381 10.8893 23.9322C10.7953 24.0263 10.6677 24.0791 10.5346 24.0791H8.52802C8.39497 24.0791 8.26738 24.0263 8.1733 23.9322C8.07922 23.8381 8.02637 23.7105 8.02637 23.5775V22.5742H7.02307V23.5775C7.02307 23.7105 6.97022 23.8381 6.87614 23.9322C6.78207 24.0263 6.65447 24.0791 6.52143 24.0791H4.51483C4.38179 24.0791 4.25419 24.0263 4.16011 23.9322C4.06604 23.8381 4.01319 23.7105 4.01319 23.5775V22.5742H3.00989V23.5775C3.00989 23.7105 2.95704 23.8381 2.86296 23.9322C2.76888 24.0263 2.64129 24.0791 2.50824 24.0791H0.501648C0.368603 24.0791 0.241007 24.0263 0.146929 23.9322C0.0528521 23.8381 0 23.7105 0 23.5775V8.02637H1.0033V23.0758H2.00659V22.5742C2.00659 22.3081 2.1123 22.0529 2.30045 21.8647C2.48861 21.6766 2.7438 21.5709 3.00989 21.5709H4.01319C4.27928 21.5709 4.53447 21.6766 4.72262 21.8647C4.91078 22.0529 5.01648 22.3081 5.01648 22.5742V23.0758H6.01978V22.5742C6.01978 22.3081 6.12548 22.0529 6.31364 21.8647C6.50179 21.6766 6.75698 21.5709 7.02307 21.5709H8.02637C8.29246 21.5709 8.54765 21.6766 8.73581 21.8647C8.92396 22.0529 9.02967 22.3081 9.02967 22.5742V23.0758H10.033V22.5742C10.033 22.3081 10.1387 22.0529 10.3268 21.8647C10.515 21.6766 10.7702 21.5709 11.0363 21.5709H12.0396C12.3056 21.5709 12.5608 21.6766 12.749 21.8647C12.9371 22.0529 13.0429 22.3081 13.0429 22.5742V23.0758H14.0461V18.0593H15.0494V23.5775C15.0494 23.7105 14.9966 23.8381 14.9025 23.9322C14.8084 24.0263 14.6808 24.0791 14.5478 24.0791Z" fill="#01789A"/>
<path d="M15.0494 17.056H14.0461V1.0033H13.0429V1.50494C13.0429 1.77104 12.9371 2.02623 12.749 2.21438C12.5608 2.40254 12.3056 2.50824 12.0396 2.50824H11.0363C10.7702 2.50824 10.515 2.40254 10.3268 2.21438C10.1387 2.02623 10.033 1.77104 10.033 1.50494V1.0033H9.02967V1.50494C9.02967 1.77104 8.92396 2.02623 8.73581 2.21438C8.54765 2.40254 8.29246 2.50824 8.02637 2.50824H7.02307C6.75698 2.50824 6.50179 2.40254 6.31364 2.21438C6.12548 2.02623 6.01978 1.77104 6.01978 1.50494V1.0033H5.01648V1.50494C5.01648 1.77104 4.91078 2.02623 4.72262 2.21438C4.53447 2.40254 4.27928 2.50824 4.01319 2.50824H3.00989C2.7438 2.50824 2.48861 2.40254 2.30045 2.21438C2.1123 2.02623 2.00659 1.77104 2.00659 1.50494V1.0033H1.0033V7.02307H0V0.501648C0 0.368603 0.0528521 0.241007 0.146929 0.146929C0.241007 0.0528521 0.368603 0 0.501648 0L2.50824 0C2.64129 0 2.76888 0.0528521 2.86296 0.146929C2.95704 0.241007 3.00989 0.368603 3.00989 0.501648V1.50494H4.01319V0.501648C4.01319 0.368603 4.06604 0.241007 4.16011 0.146929C4.25419 0.0528521 4.38179 0 4.51483 0L6.52143 0C6.65447 0 6.78207 0.0528521 6.87614 0.146929C6.97022 0.241007 7.02307 0.368603 7.02307 0.501648V1.50494H8.02637V0.501648C8.02637 0.368603 8.07922 0.241007 8.1733 0.146929C8.26738 0.0528521 8.39497 0 8.52802 0L10.5346 0C10.6677 0 10.7953 0.0528521 10.8893 0.146929C10.9834 0.241007 11.0363 0.368603 11.0363 0.501648V1.50494H12.0396V0.501648C12.0396 0.368603 12.0924 0.241007 12.1865 0.146929C12.2806 0.0528521 12.4082 0 12.5412 0L14.5478 0C14.6808 0 14.8084 0.0528521 14.9025 0.146929C14.9966 0.241007 15.0494 0.368603 15.0494 0.501648V17.056Z" fill="#01789A"/>
<path d="M2.5083 19.0626H0.501709V20.0659H2.5083V19.0626Z" fill="#01789A"/>
<path d="M5.51807 19.0626H3.51147V20.0659H5.51807V19.0626Z" fill="#01789A"/>
<path d="M8.52808 19.0626H6.52148V20.0659H8.52808V19.0626Z" fill="#01789A"/>
<path d="M11.5378 19.0626H9.53125V20.0659H11.5378V19.0626Z" fill="#01789A"/>
<path d="M14.5479 19.0626H12.5413V20.0659H14.5479V19.0626Z" fill="#01789A"/>
<path d="M14.5479 3.51154H0.501709V4.51483H14.5479V3.51154Z" fill="#01789A"/>
<path d="M14.5479 5.01648H0.501709V6.01978H14.5479V5.01648Z" fill="#01789A"/>
<path d="M16.5544 24.0791H14.5479V23.0758H16.2093L20.3108 12.3621L21.2479 12.7208L17.023 23.7571C16.9866 23.8518 16.9224 23.9334 16.8387 23.9909C16.7551 24.0484 16.656 24.0791 16.5544 24.0791Z" fill="#01789A"/>
<path d="M21.632 11.717L20.6949 11.3588L22.9252 5.53168L21.9921 5.19708L21.8216 5.6591C21.7286 5.90654 21.542 6.10747 21.3021 6.2185C21.0622 6.32954 20.7882 6.34177 20.5394 6.25255L19.5978 5.91494C19.4731 5.87077 19.3585 5.80213 19.2607 5.71305C19.163 5.62398 19.084 5.51626 19.0284 5.39623C18.9727 5.27788 18.9413 5.1496 18.9358 5.01892C18.9304 4.88824 18.9511 4.7578 18.9968 4.63523L19.1644 4.18375L18.2253 3.84664L18.0542 4.30866C17.961 4.55592 17.7743 4.75662 17.5344 4.86746C17.2945 4.97829 17.0207 4.99038 16.772 4.90111L15.8304 4.565C15.7064 4.52126 15.5924 4.45333 15.4949 4.36517C15.3973 4.27701 15.3183 4.17036 15.2623 4.05141C15.2063 3.93247 15.1745 3.80359 15.1686 3.67225C15.1628 3.54091 15.1832 3.40973 15.2284 3.2863L15.396 2.83482L14.4163 2.48367L14.7554 1.53906L16.2102 2.06178C16.2725 2.08418 16.3299 2.11871 16.3788 2.16339C16.4278 2.20807 16.4674 2.26201 16.4954 2.32209C16.5233 2.38216 16.5392 2.44719 16.5419 2.51342C16.5446 2.57964 16.5341 2.64574 16.5111 2.7079L16.168 3.63595L17.1086 3.96102L17.4572 3.03147C17.503 2.90737 17.596 2.80639 17.7159 2.75049C17.8358 2.69459 17.9729 2.6883 18.0974 2.73299L19.9795 3.41121C20.0419 3.43361 20.0992 3.46815 20.1482 3.51283C20.1971 3.5575 20.2368 3.61144 20.2647 3.67152C20.2927 3.7316 20.3085 3.79663 20.3112 3.86285C20.314 3.92907 20.3035 3.99517 20.2805 4.05734L19.9379 4.98589L20.878 5.31095L21.2231 4.38592C21.2689 4.26182 21.3619 4.16084 21.4817 4.10494C21.6016 4.04904 21.7387 4.04275 21.8632 4.08744L23.7469 4.76065C23.81 4.783 23.868 4.81775 23.9174 4.86285C23.9669 4.90796 24.0068 4.9625 24.0349 5.02328C24.0629 5.08405 24.0785 5.14982 24.0808 5.21671C24.083 5.28361 24.0718 5.35028 24.0479 5.41279L21.632 11.717Z" fill="#01789A"/>
<path d="M14.7153 5.20049L14.3765 6.14484L22.208 8.95478L22.5468 8.01043L14.7153 5.20049Z" fill="#01789A"/>
<path d="M14.7173 6.77788L14.3784 7.72223L21.6938 10.347L22.0327 9.40265L14.7173 6.77788Z" fill="#01789A"/>
</svg>
