<svg width="52" height="52" viewBox="0 0 52 52" fill="none" xmlns="http://www.w3.org/2000/svg">
<path d="M29.07 0C16.5616 0 6.41574 10.1459 6.41574 22.6542C6.41574 35.1626 16.5616 45.3084 29.07 45.3084C41.5783 45.3084 51.7242 35.1626 51.7242 22.6542C51.7242 10.1459 41.5783 0 29.07 0ZM29.07 40.4373C19.269 40.4373 11.3147 32.4705 11.3147 22.6542C11.3147 12.8558 19.269 4.87119 29.07 4.87119C38.8531 4.87119 46.8252 12.8558 46.8252 22.6542C46.8252 32.4705 38.8531 40.4373 29.07 40.4373Z" fill="#01789A"/>
<path d="M15.5118 44.7288C15.733 44.8644 15.772 45.1642 15.5887 45.3478L11.0797 49.8648C8.53289 52.3915 4.42865 52.3915 1.89799 49.8648C-0.632664 47.3219 -0.632664 43.2242 1.89799 40.6975L6.3921 36.2104C6.57507 36.0277 6.87359 36.0659 7.00985 36.2856C9.14252 39.7242 12.0659 42.6151 15.5118 44.7288Z" fill="#01789A"/>
<path d="M40.0707 19.0384C33.9945 12.9897 24.1721 12.9898 18.0959 19.0386L15.096 22.025C14.7783 22.3413 14.7783 22.8555 15.096 23.1718L18.0959 26.1582C24.1721 32.207 33.9945 32.2071 40.0707 26.1584L43.0709 23.1718C43.3886 22.8555 43.3886 22.3412 43.0709 22.025L40.0707 19.0384ZM29.0835 27.4529C26.3973 27.4529 24.229 25.2846 24.229 22.5984C24.229 19.9123 26.3973 17.7439 29.0835 17.7439C31.7695 17.7439 33.9379 19.9123 33.9379 22.5984C33.9379 25.2846 31.7695 27.4529 29.0835 27.4529Z" fill="#01789A"/>
<path d="M29.1482 25.8081C30.9216 25.8081 32.3592 24.3704 32.3592 22.597C32.3592 20.8236 30.9216 19.386 29.1482 19.386C27.3748 19.386 25.9372 20.8236 25.9372 22.597C25.9372 24.3704 27.3748 25.8081 29.1482 25.8081Z" fill="#01789A"/>
</svg>
