<svg width="26" height="25" viewBox="0 0 26 25" fill="none" xmlns="http://www.w3.org/2000/svg">
<path d="M12.6675 0.00480935C12.9627 0.0461689 13.0387 0.101956 13.1704 0.204874C13.7714 0.67618 13.5396 1.92177 12.5435 1.92466C12.5089 1.92466 12.4742 1.92562 12.4406 1.92562C9.66367 1.96506 6.94348 3.13082 5.00598 5.11511C1.90406 8.29402 1.09059 13.4774 3.24252 17.497C4.77713 20.3614 7.68002 22.4496 10.9002 22.9632C15.1723 23.6442 19.756 21.4646 21.8819 17.5528C23.7165 14.1767 23.5252 9.79643 21.3329 6.56558C20.0973 4.7448 18.2964 3.33569 16.205 2.56621L16.1204 2.53062C15.8579 2.38827 15.806 2.31036 15.7175 2.16801C15.3127 1.50914 15.981 0.430908 16.9242 0.780059C21.5252 2.48638 24.7781 6.92435 25.0617 11.775C25.2877 15.631 23.6146 19.5534 20.6464 22.0648C17.3983 24.8128 12.6954 25.7458 8.60405 24.3742C4.35213 22.9478 1.00598 19.0975 0.247326 14.6066C-0.544982 9.92436 1.55598 4.86022 5.58482 2.13723C7.62809 0.756013 10.0791 0.0038474 12.5762 0C12.606 0.0019237 12.6367 0.00288566 12.6675 0.00480935ZM18.1021 6.10774C18.3098 6.13275 18.3646 6.16064 18.4685 6.21547C18.8627 6.42419 19.0752 6.9282 18.9348 7.36199C18.9175 7.41682 18.9098 7.42932 18.8877 7.48126L15.3694 14.849C15.2194 15.1414 15.1329 15.1905 14.9156 15.303L7.55021 18.8215C7.10021 19.0186 6.97425 18.9196 6.80309 18.857C6.3454 18.6878 6.06655 18.1328 6.2204 17.6576C6.23771 17.6038 6.24444 17.5913 6.26751 17.5393L9.78578 10.1706C9.93578 9.87915 10.0214 9.82913 10.2387 9.71756L17.605 6.19815C17.7608 6.12986 17.9281 6.09812 18.1021 6.10774ZM11.3752 11.3075L9.17617 15.9119L13.78 13.7131L15.9781 9.10775C14.4444 9.84067 12.9098 10.5736 11.3752 11.3075Z" fill="#023E4F"/>
</svg>
