<svg width="49" height="45" viewBox="0 0 49 45" fill="none" xmlns="http://www.w3.org/2000/svg">
<path d="M23.52 29.0242V30.3867C23.52 30.7106 23.6487 31.0211 23.8776 31.2501C24.1066 31.4791 24.4172 31.6077 24.741 31.6077C25.0648 31.6077 25.3753 31.4791 25.6043 31.2501C25.8333 31.0211 25.9619 30.7106 25.9619 30.3867V29.0242C25.9612 27.6365 25.4409 26.2994 24.5036 25.2762C23.5662 24.2529 22.2797 23.6178 20.8974 23.4957C21.7976 22.7736 22.4513 21.7897 22.7684 20.6801C23.0854 19.5705 23.0502 18.3898 22.6674 17.3011C22.2847 16.2124 21.5733 15.2693 20.6317 14.6022C19.69 13.9351 18.5644 13.5768 17.4104 13.5768C16.2564 13.5768 15.1308 13.9351 14.1891 14.6022C13.2475 15.2693 12.5361 16.2124 12.1534 17.3011C11.7707 18.3898 11.7354 19.5705 12.0524 20.6801C12.3695 21.7897 13.0232 22.7736 13.9234 23.4957C12.5402 23.6166 11.2525 24.2513 10.3142 25.2746C9.37579 26.298 8.85484 27.6357 8.854 29.0242V30.3867C8.854 30.7106 8.98264 31.0211 9.21161 31.2501C9.44058 31.4791 9.75114 31.6077 10.075 31.6077C10.3988 31.6077 10.7093 31.4791 10.9383 31.2501C11.1673 31.0211 11.2959 30.7106 11.2959 30.3867V29.0242C11.2972 28.1999 11.6255 27.4099 12.2088 26.8275C12.7921 26.2452 13.5826 25.9181 14.4069 25.9181C14.8955 25.918 15.3711 25.7606 15.7634 25.4693C16.1556 25.178 16.4437 24.7681 16.585 24.3004C16.7263 23.8327 16.7133 23.3319 16.548 22.8721C16.3826 22.4123 16.0737 22.0179 15.6669 21.7473C15.2792 21.4879 14.9545 21.1451 14.7166 20.7439C14.4787 20.3427 14.3335 19.8934 14.2919 19.4288C14.2502 18.9643 14.313 18.4963 14.4757 18.0591C14.6384 17.622 14.8969 17.2268 15.2322 16.9026C15.5319 16.6087 15.8881 16.3788 16.2794 16.2268C16.6706 16.0749 17.0886 16.004 17.5081 16.0186C18.3169 16.0594 19.0801 16.4059 19.6431 16.988C20.2062 17.57 20.5271 18.3443 20.5409 19.154C20.54 19.6656 20.4135 20.1692 20.1725 20.6205C19.9315 21.0718 19.5834 21.4571 19.1588 21.7424C18.7523 22.0128 18.4436 22.4068 18.2781 22.8661C18.1126 23.3254 18.0993 23.8257 18.24 24.2932C18.3806 24.7607 18.6679 25.1705 19.0594 25.4622C19.4508 25.754 19.9257 25.9121 20.4139 25.9132C21.2382 25.9145 22.0282 26.2428 22.6106 26.8261C23.1929 27.4094 23.52 28.1999 23.52 29.0242Z" fill="#EDF6F8"/>
<path d="M44.2227 0H29.2832C28.1883 -7.64929e-07 27.1381 0.43463 26.3634 1.20842C25.5887 1.9822 25.1528 3.03186 25.1515 4.1268V5.14263H7.51615C6.52269 5.14263 5.56991 5.53728 4.86742 6.23977C4.16494 6.94226 3.77029 7.89503 3.77029 8.8885V34.0595H1.22095C1.06061 34.0595 0.901843 34.0911 0.753711 34.1525C0.605579 34.2138 0.470983 34.3038 0.357607 34.4172C0.128635 34.6461 0 34.9567 0 35.2805V39.632C0.00129437 40.8616 0.490679 42.0405 1.36063 42.9095C2.23059 43.7785 3.40995 44.2667 4.6396 44.2667H43.2215C44.4503 44.2654 45.6284 43.7767 46.4973 42.9078C47.3662 42.0389 47.855 40.8608 47.8563 39.632V35.2805C47.8563 34.9567 47.7276 34.6461 47.4986 34.4172C47.2697 34.1882 46.9591 34.0595 46.6353 34.0595H44.086V20.0089H44.2227C45.3168 20.0076 46.3657 19.5724 47.1394 18.7987C47.913 18.0251 48.3482 16.9762 48.3495 15.8821V4.1268C48.3482 3.0327 47.913 1.98379 47.1394 1.21014C46.3657 0.436494 45.3168 0.0012925 44.2227 0ZM6.21706 8.8885C6.21706 8.54266 6.35445 8.21099 6.59899 7.96645C6.84353 7.72191 7.1752 7.58452 7.52104 7.58452H25.1515V16.5463C25.1528 17.4642 25.518 18.3442 26.1671 18.9933C26.8162 19.6424 27.6962 20.0076 28.6141 20.0089H30.6409V23.7108C30.6405 23.9526 30.7118 24.1891 30.846 24.3903C30.9801 24.5914 31.1709 24.7483 31.3943 24.8409C31.6177 24.9335 31.8635 24.9576 32.1006 24.9103C32.3378 24.8631 32.5555 24.7464 32.7263 24.5752L37.3024 20.0089H41.649V34.0595H28.6825C28.3587 34.0595 28.0481 34.1882 27.8192 34.4172C27.5902 34.6461 27.4615 34.9567 27.4615 35.2805V36.5063H20.3996V35.2805C20.3996 34.9567 20.271 34.6461 20.042 34.4172C19.813 34.1882 19.5025 34.0595 19.1786 34.0595H6.21706V8.8885ZM45.4192 36.5014V39.632C45.4179 40.214 45.1858 40.7717 44.7738 41.1828C44.3618 41.5939 43.8036 41.8248 43.2215 41.8248H4.6396C4.05673 41.8248 3.49774 41.5932 3.08559 41.1811C2.67344 40.7689 2.44189 40.2099 2.44189 39.6271V36.5014H17.9577V36.6528C17.9583 36.9551 18.0187 37.2543 18.1352 37.5331C18.2518 37.812 18.4223 38.0651 18.6369 38.278C18.8515 38.4908 19.1061 38.6591 19.386 38.7733C19.6658 38.8875 19.9655 38.9453 20.2677 38.9433H27.5934C28.2005 38.942 28.7823 38.7003 29.2116 38.271C29.6409 37.8418 29.8826 37.2599 29.8839 36.6528V36.5014H45.4192ZM45.9076 15.887C45.9076 16.1082 45.864 16.3273 45.7794 16.5318C45.6947 16.7362 45.5706 16.9219 45.4141 17.0784C45.2577 17.2348 45.0719 17.3589 44.8675 17.4436C44.6631 17.5283 44.444 17.5719 44.2227 17.5719H36.7945C36.634 17.5716 36.4751 17.6029 36.3268 17.6641C36.1784 17.7253 36.0436 17.8151 35.93 17.9284L33.0877 20.7659V18.7879C33.0877 18.4641 32.959 18.1536 32.7301 17.9246C32.5011 17.6956 32.1905 17.567 31.8667 17.567H28.619C28.4846 17.5676 28.3513 17.5417 28.2269 17.4907C28.1025 17.4397 27.9894 17.3646 27.8941 17.2698C27.7988 17.1749 27.7232 17.0622 27.6716 16.938C27.62 16.8139 27.5934 16.6807 27.5934 16.5463V4.1268C27.5934 3.67994 27.7709 3.25137 28.0869 2.93539C28.4029 2.61941 28.8315 2.4419 29.2783 2.4419H44.2227C44.6696 2.4419 45.0981 2.61941 45.4141 2.93539C45.7301 3.25137 45.9076 3.67994 45.9076 4.1268V15.887Z" fill="#EDF6F8"/>
<path d="M36.7507 11.3108C37.425 11.3108 37.9717 10.7642 37.9717 10.0898C37.9717 9.41553 37.425 8.8689 36.7507 8.8689C36.0764 8.8689 35.5298 9.41553 35.5298 10.0898C35.5298 10.7642 36.0764 11.3108 36.7507 11.3108Z" fill="#EDF6F8"/>
<path d="M41.678 11.3108C42.3523 11.3108 42.8989 10.7642 42.8989 10.0898C42.8989 9.41553 42.3523 8.8689 41.678 8.8689C41.0037 8.8689 40.457 9.41553 40.457 10.0898C40.457 10.7642 41.0037 11.3108 41.678 11.3108Z" fill="#EDF6F8"/>
<path d="M31.8274 11.3108C32.5017 11.3108 33.0483 10.7642 33.0483 10.0898C33.0483 9.41553 32.5017 8.8689 31.8274 8.8689C31.1531 8.8689 30.6064 9.41553 30.6064 10.0898C30.6064 10.7642 31.1531 11.3108 31.8274 11.3108Z" fill="#EDF6F8"/>
</svg>
