<svg width="27" height="18" viewBox="0 0 27 18" fill="none" xmlns="http://www.w3.org/2000/svg">
<path d="M22.9472 14.6741C22.7816 14.6743 22.6223 14.6114 22.5016 14.4982L18.6755 10.9185C18.4123 10.6726 18.3986 10.2598 18.6448 9.99662C18.8907 9.73366 19.3037 9.71992 19.5667 9.96588L23.3925 13.5456C23.588 13.7284 23.6518 14.0123 23.5533 14.2613C23.455 14.5103 23.2146 14.6741 22.9467 14.6741L22.9472 14.6741Z" fill="#C11E1E"/>
<path d="M23.0869 18H3.26105C2.39646 17.9991 1.56753 17.6553 0.956114 17.0439C0.34494 16.4325 0.000894401 15.6038 0 14.7392V3.26105C0.000931668 2.39646 0.344952 1.56753 0.956114 0.956115C1.56753 0.344941 2.39646 0.000894401 3.26105 0H23.0869C23.9515 0.000931668 24.7802 0.344953 25.3916 0.956115C26.003 1.56753 26.3468 2.39646 26.3477 3.26105V14.7392C26.3468 15.6038 26.003 16.4325 25.3916 17.0439C24.7802 17.6553 23.9515 17.9991 23.0869 18ZM3.26105 1.30451C2.74211 1.30521 2.24483 1.51158 1.878 1.87842C1.51118 2.24526 1.30479 2.74253 1.30433 3.26122V14.7394C1.30479 15.2581 1.51116 15.7554 1.878 16.1222C2.24484 16.4888 2.74235 16.6952 3.26105 16.6956H23.0869C23.6056 16.6952 24.1029 16.4888 24.4697 16.1222C24.8363 15.7553 25.0427 15.2581 25.0432 14.7394V3.26122C25.0427 2.74252 24.8363 2.24501 24.4697 1.87818C24.1029 1.51134 23.6056 1.30497 23.0869 1.30451L3.26105 1.30451Z" fill="#C11E1E"/>
<path d="M13.175 10.865C12.45 10.8667 11.7437 10.6335 11.1621 10.2005L3.01236 4.10961C2.86795 4.00853 2.77059 3.85317 2.74264 3.67894C2.71469 3.50495 2.75825 3.32678 2.86375 3.1854C2.96926 3.04425 3.12765 2.95155 3.30257 2.92872C3.47726 2.90613 3.65404 2.95527 3.79216 3.06498L11.9431 9.15585C12.2997 9.41998 12.7316 9.56252 13.1753 9.56252C13.6189 9.56252 14.0508 9.41998 14.4074 9.15585L22.5584 3.06498C22.8469 2.8493 23.2555 2.90846 23.4712 3.19704C23.6866 3.48539 23.6277 3.89414 23.3391 4.10963L15.1888 10.2023C14.6069 10.6346 13.9007 10.8672 13.1756 10.8652L13.175 10.865Z" fill="#C11E1E"/>
<path d="M3.40281 14.6741C3.13495 14.6743 2.89412 14.5108 2.79557 14.2616C2.69728 14.0123 2.7611 13.7284 2.95698 13.5456L6.78287 9.96611V9.96588C7.04584 9.71992 7.4588 9.73366 7.70476 9.99662C7.95095 10.2598 7.93721 10.6726 7.67401 10.9185L3.84812 14.4982C3.72748 14.6112 3.56816 14.6743 3.40278 14.6741L3.40281 14.6741Z" fill="#C11E1E"/>
</svg>
