<svg width="32" height="27" viewBox="0 0 32 27" fill="none" xmlns="http://www.w3.org/2000/svg">
<path d="M10.0634 26.4348C22.1389 26.4348 28.7437 16.2637 28.7437 7.4433C28.7437 7.1544 28.7437 6.86681 28.7245 6.58052C30.0094 5.63565 31.1185 4.46572 32 3.12551C30.8018 3.6653 29.5307 4.0193 28.2291 4.17568C29.5997 3.34151 30.6254 2.0295 31.1155 0.483832C29.8268 1.26131 28.4168 1.80924 26.9466 2.10398C25.9567 1.03388 24.6475 0.325289 23.2216 0.0878565C21.7957 -0.149576 20.3326 0.0973863 19.0586 0.790528C17.7847 1.48367 16.771 2.58435 16.1743 3.92223C15.5777 5.26012 15.4314 6.76063 15.7581 8.19156C13.1478 8.05852 10.5943 7.3689 8.26322 6.16747C5.93214 4.96604 3.87563 3.27965 2.2272 1.21778C1.38764 2.68718 1.1305 4.42666 1.50813 6.08204C1.88577 7.73742 2.86979 9.18424 4.25984 10.1279C3.21503 10.0964 2.193 9.8099 1.28 9.29248C1.28 9.3198 1.28 9.34843 1.28 9.37706C1.28041 10.9181 1.80513 12.4116 2.76516 13.6041C3.72519 14.7967 5.06141 15.615 6.5472 15.9201C5.58063 16.1881 4.5665 16.2273 3.58272 16.0346C4.00225 17.3609 4.81903 18.5207 5.91881 19.3518C7.01859 20.1829 8.34639 20.6438 9.71648 20.6699C7.39166 22.5275 4.51976 23.5359 1.56288 23.5328C1.04052 23.5318 0.518661 23.4997 0 23.4365C3.00241 25.3954 6.49589 26.4344 10.0634 26.4296" fill="#1DA1F2"/>
</svg>
