<svg width="21" height="24" viewBox="0 0 21 24" fill="none" xmlns="http://www.w3.org/2000/svg">
<path d="M18.5132 0C17.3021 0 16.3026 0.999503 16.3026 2.21053C16.3026 2.58897 16.3991 2.9509 16.5703 3.26398L14.2044 5.6213C13.8546 5.38844 13.434 5.25 12.9868 5.25C12.2669 5.25 11.6216 5.60708 11.2167 6.14803L10.2237 5.77673C10.2094 4.57749 9.21546 3.59211 8.01316 3.59211C6.80214 3.59211 5.80263 4.59161 5.80263 5.80263C5.80263 6.02013 5.8377 6.23369 5.89761 6.43298L3.47122 8.41036C3.11303 8.15988 2.6759 8.01316 2.21053 8.01316C0.999504 8.01316 0 9.01266 0 10.2237C0 11.4347 0.999502 12.4342 2.21053 12.4342C3.42155 12.4342 4.42105 11.4347 4.42105 10.2237C4.42105 10.0846 4.41169 9.95017 4.38651 9.81785L6.9338 7.72821C7.25331 7.90877 7.62367 8.01316 8.01316 8.01316C8.64085 8.01316 9.21492 7.74968 9.61924 7.32237L10.7936 7.76275C10.9423 8.83441 11.8775 9.67105 12.9868 9.67105C14.1979 9.67105 15.1974 8.67155 15.1974 7.46053C15.1974 7.30624 15.185 7.1573 15.1542 7.01151L17.8483 4.31743C18.0584 4.38472 18.2821 4.42105 18.5132 4.42105C19.7242 4.42105 20.7237 3.42155 20.7237 2.21053C20.7237 0.999503 19.7242 0 18.5132 0ZM18.5132 1.65789C18.8282 1.65789 19.0658 1.8955 19.0658 2.21053C19.0658 2.52556 18.8282 2.76316 18.5132 2.76316C18.1981 2.76316 17.9605 2.52556 17.9605 2.21053C17.9605 1.8955 18.1981 1.65789 18.5132 1.65789ZM8.01316 5.25C8.32819 5.25 8.56579 5.4876 8.56579 5.80263C8.56579 6.11766 8.32819 6.35526 8.01316 6.35526C7.69813 6.35526 7.46053 6.11766 7.46053 5.80263C7.46053 5.4876 7.69813 5.25 8.01316 5.25ZM12.9868 6.90789C13.3019 6.90789 13.5395 7.1455 13.5395 7.46053C13.5395 7.77556 13.3019 8.01316 12.9868 8.01316C12.6858 8.01316 12.4541 7.79786 12.4342 7.5037C12.4242 7.35478 12.4756 7.25051 12.4947 7.21011C12.5836 7.02987 12.7646 6.90789 12.9868 6.90789ZM17.3215 8.56579C16.9171 8.60818 16.5768 8.98804 16.5789 9.39474V22.6579C16.579 23.0919 16.9739 23.4868 17.4079 23.4868H20.1711C20.6051 23.4868 21 23.0919 21 22.6579V9.39474C21 8.96071 20.6051 8.56583 20.1711 8.56579C19.2253 8.56578 18.2603 8.56579 17.3215 8.56579ZM2.21053 9.67105C2.52555 9.67105 2.76316 9.90866 2.76316 10.2237C2.76316 10.5387 2.52555 10.7763 2.21053 10.7763C1.8955 10.7763 1.65789 10.5387 1.65789 10.2237C1.65789 9.90866 1.8955 9.67105 2.21053 9.67105ZM18.2368 10.2237H19.3421V21.8289H18.2368V10.2237ZM6.26891 12.1579C5.86443 12.2003 5.52414 12.5801 5.52632 12.9868V22.9342C5.52636 23.3682 5.92124 23.7631 6.35526 23.7632H9.11842C9.55244 23.7631 9.94732 23.3682 9.94737 22.9342V12.9868C9.94732 12.5528 9.55244 12.1579 9.11842 12.1579C8.17264 12.1579 7.2077 12.1579 6.26891 12.1579ZM11.7952 13.5395C11.3907 13.5819 11.0505 13.9617 11.0526 14.3684V22.6579C11.0527 23.0919 11.4476 23.4868 11.8816 23.4868H14.6447C15.0788 23.4868 15.4736 23.0919 15.4737 22.6579V14.3684C15.4736 13.9344 15.0788 13.5395 14.6447 13.5395C13.699 13.5395 12.734 13.5395 11.7952 13.5395ZM7.18421 13.8158H8.28947V22.1053H7.18421V13.8158ZM12.7105 15.1974H13.8158V21.8289H12.7105V15.1974ZM1.01891 15.4737C0.614432 15.5161 0.274141 15.8959 0.276316 16.3026V22.9342C0.276359 23.3682 0.671239 23.7631 1.10526 23.7632H3.86842C4.30244 23.7631 4.69732 23.3682 4.69737 22.9342V16.3026C4.69732 15.8686 4.30244 15.4737 3.86842 15.4737C2.92264 15.4737 1.9577 15.4737 1.01891 15.4737ZM1.93421 17.1316H3.03947V22.1053H1.93421V17.1316Z" fill="#8737ED"/>
</svg>
