<svg width="17" height="22" viewBox="0 0 17 22" fill="none" xmlns="http://www.w3.org/2000/svg">
<mask id="mask0_7631_17210" style="mask-type:alpha" maskUnits="userSpaceOnUse" x="0" y="0" width="17" height="22">
<path fill-rule="evenodd" clip-rule="evenodd" d="M12.8088 0.518555C12.938 1.74592 12.4644 2.97947 11.7608 3.86557C11.0572 4.75224 9.90236 5.4409 8.77193 5.34991C8.61788 4.14683 9.18883 2.89158 9.84076 2.10732C10.5682 1.2217 11.7946 0.560964 12.8088 0.518555ZM16.9961 15.8952C16.8741 15.8438 14.324 14.7692 14.2962 11.6555C14.2738 9.05825 16.2919 7.78182 16.4651 7.67226C16.4688 7.66995 16.4717 7.66815 16.4736 7.66688C15.2895 5.86359 13.4455 5.61595 12.7886 5.5875C11.8287 5.4863 10.8975 5.86847 10.1371 6.18055C9.6543 6.37869 9.24034 6.54858 8.93159 6.54858C8.5871 6.54858 8.16147 6.37294 7.68389 6.17586C7.05855 5.91781 6.34417 5.62301 5.6063 5.63766C3.89547 5.66352 2.31926 6.67218 1.43726 8.26503C-0.338191 11.4725 0.984059 16.2242 2.71428 18.8268C3.56103 20.0991 4.57021 21.5322 5.89548 21.48C6.48855 21.4558 6.91015 21.269 7.34606 21.0758C7.84881 20.853 8.3706 20.6218 9.19645 20.6218C9.98542 20.6218 10.4843 20.8464 10.964 21.0623C11.4221 21.2685 11.8627 21.4668 12.5217 21.4542C13.8947 21.4278 14.7663 20.1555 15.6061 18.8785C16.5463 17.4489 16.9516 16.0634 16.997 15.9083C16.9985 15.9032 16.9996 15.8994 17.0004 15.897C16.9998 15.8967 16.9984 15.8961 16.9961 15.8952Z" fill="black"/>
</mask>
<g mask="url(#mask0_7631_17210)">
<rect x="-8" y="-6" width="34.3553" height="34.3553" fill="#F2F2F2"/>
</g>
</svg>
