<svg width="8" height="12" viewBox="0 0 8 12" fill="none" xmlns="http://www.w3.org/2000/svg">
<path fill-rule="evenodd" clip-rule="evenodd" d="M1.12588 1.11298C1.16568 1.07717 1.21296 1.04875 1.26501 1.02937C1.31707 1.00998 1.37287 1 1.42923 1C1.48559 1 1.54139 1.00998 1.59344 1.02937C1.6455 1.04875 1.69278 1.07717 1.73258 1.11298L6.87412 5.72783C6.91402 5.76355 6.94568 5.80599 6.96728 5.85271C6.98888 5.89943 7 5.94952 7 6.0001C7 6.05068 6.98888 6.10077 6.96728 6.14749C6.94568 6.19422 6.91402 6.23665 6.87412 6.27238L1.73258 10.8872C1.65213 10.9594 1.54301 11 1.42923 11C1.31545 11 1.20633 10.9594 1.12588 10.8872C1.04542 10.815 1.00022 10.7171 1.00022 10.6149C1.00022 10.5128 1.04542 10.4149 1.12588 10.3427L5.96493 6.0001L1.12588 1.65753C1.08598 1.62181 1.05432 1.57937 1.03272 1.53265C1.01112 1.48593 1 1.43584 1 1.38526C1 1.33467 1.01112 1.28459 1.03272 1.23786C1.05432 1.19114 1.08598 1.14871 1.12588 1.11298Z" fill="#023E4F" stroke="#023E4F" stroke-width="2"/>
</svg>
