<svg width="16" height="16" viewBox="0 0 16 16" fill="none" xmlns="http://www.w3.org/2000/svg">
<path fill-rule="evenodd" clip-rule="evenodd" d="M16 8C16 12.4185 12.4185 16 8 16C3.58154 16 0 12.4185 0 8C0 3.58154 3.58154 0 8 0C12.4185 0 16 3.58154 16 8ZM11.7657 4.23435C12.0781 4.54681 12.0781 5.05334 11.7657 5.36565L9.13124 8.00007L11.7657 10.6345C12.0781 10.9468 12.0781 11.4533 11.7657 11.7658C11.4532 12.0782 10.9467 12.0782 10.6343 11.7658L7.99993 9.13138L5.36552 11.7658C5.05319 12.0782 4.54666 12.0782 4.23421 11.7658C3.92176 11.4533 3.92175 10.9468 4.23421 10.6345L6.86862 8.00007L4.23421 5.36565C3.92175 5.05333 3.92175 4.5468 4.23421 4.23435C4.54667 3.9219 5.0532 3.92189 5.36552 4.23435L7.99993 6.86876L10.6343 4.23435C10.9467 3.92189 11.4532 3.92189 11.7657 4.23435Z" fill="#023E4F"/>
</svg>
