<svg width="16" height="12" viewBox="0 0 16 12" fill="none" xmlns="http://www.w3.org/2000/svg">
<path d="M15.3871 5.47859C14.7827 3.91501 13.7333 2.56282 12.3687 1.58914C11.0041 0.615471 9.38405 0.0629951 7.70887 0C6.0337 0.0629951 4.41369 0.615471 3.04909 1.58914C1.68448 2.56282 0.635093 3.91501 0.0306177 5.47859C-0.0102059 5.59151 -0.0102059 5.71516 0.0306177 5.82807C0.635093 7.39166 1.68448 8.74385 3.04909 9.71752C4.41369 10.6912 6.0337 11.2437 7.70887 11.3067C9.38405 11.2437 11.0041 10.6912 12.3687 9.71752C13.7333 8.74385 14.7827 7.39166 15.3871 5.82807C15.428 5.71516 15.428 5.59151 15.3871 5.47859ZM7.70887 10.2788C4.98499 10.2788 2.10693 8.25901 1.06364 5.65333C2.10693 3.04766 4.98499 1.02788 7.70887 1.02788C10.4328 1.02788 13.3108 3.04766 14.3541 5.65333C13.3108 8.25901 10.4328 10.2788 7.70887 10.2788Z" fill="#023E4F"/>
<path d="M7.70864 2.56982C7.09875 2.56982 6.50256 2.75068 5.99546 3.08951C5.48836 3.42835 5.09312 3.90994 4.85973 4.4734C4.62634 5.03686 4.56527 5.65688 4.68425 6.25505C4.80324 6.85321 5.09692 7.40267 5.52818 7.83392C5.95943 8.26517 6.50888 8.55886 7.10705 8.67785C7.70522 8.79683 8.32523 8.73576 8.88869 8.50237C9.45215 8.26898 9.93375 7.87374 10.2726 7.36664C10.6114 6.85954 10.7923 6.26335 10.7923 5.65346C10.7923 4.83563 10.4674 4.05129 9.8891 3.473C9.3108 2.89471 8.52647 2.56982 7.70864 2.56982ZM7.70864 7.70922C7.30205 7.70922 6.90459 7.58865 6.56652 7.36276C6.22845 7.13687 5.96496 6.8158 5.80936 6.44016C5.65377 6.06452 5.61306 5.65118 5.69238 5.2524C5.7717 4.85362 5.96749 4.48732 6.255 4.19982C6.5425 3.91232 6.9088 3.71653 7.30758 3.6372C7.70636 3.55788 8.1197 3.59859 8.49534 3.75419C8.87098 3.90978 9.19205 4.17328 9.41794 4.51134C9.64383 4.84941 9.76439 5.24687 9.76439 5.65346C9.76439 6.19868 9.54781 6.72157 9.16228 7.1071C8.77675 7.49263 8.25386 7.70922 7.70864 7.70922Z" fill="#023E4F"/>
</svg>
