<svg width="13" height="13" viewBox="0 0 13 13" fill="none" xmlns="http://www.w3.org/2000/svg">
<path d="M4.88943 9.28704L3.17791 7.45389C2.91603 7.17338 2.92542 6.73369 3.20593 6.46257C3.49583 6.20069 3.93537 6.21947 4.19725 6.49998L5.4038 7.78135L8.32172 4.66698C8.59299 4.38647 9.03253 4.36769 9.31304 4.62957C9.60294 4.90084 9.61233 5.34038 9.35045 5.62089L5.91831 9.28704C5.78744 9.42729 5.60039 9.5115 5.40394 9.5115C5.21674 9.5115 5.02044 9.42729 4.88943 9.28704Z" fill="#1EAE07"/>
<path d="M6.5 1.40284C5.08777 1.40284 3.81579 1.9734 2.8899 2.89929C1.96401 3.81579 1.40284 5.08777 1.40284 6.5C1.40284 7.91223 1.96401 9.18421 2.8899 10.1007C3.81579 11.0266 5.08777 11.5972 6.5 11.5972C7.90284 11.5972 9.17482 11.0266 10.1007 10.1007C11.0266 9.18421 11.5972 7.91223 11.5972 6.5C11.5972 5.08777 11.0266 3.81579 10.1007 2.89929C9.17482 1.9734 7.90284 1.40284 6.5 1.40284ZM0 6.5C0 2.90868 2.90868 0 6.5 0C10.0913 0 13 2.90868 13 6.5C13 10.0913 10.0913 13 6.5 13C2.90868 13 0 10.0913 0 6.5Z" fill="#1EAE07"/>
</svg>
