<svg width="16" height="17" viewBox="0 0 16 17" fill="none" xmlns="http://www.w3.org/2000/svg">
<path d="M3.91406 7.42712H12.0918V9.2049H3.91406V7.42712Z" fill="#F2994A"/>
<path d="M8 0.315918C3.5888 0.315918 0 3.90472 0 8.31592C0 12.7271 3.5888 16.3159 8 16.3159C12.4112 16.3159 16 12.7271 16 8.31592C16 3.90472 12.4112 0.315918 8 0.315918ZM8 14.7159C4.4712 14.7159 1.6 11.8447 1.6 8.31592C1.6 4.78712 4.4712 1.91592 8 1.91592C11.5288 1.91592 14.4 4.78712 14.4 8.31592C14.4 11.8447 11.5288 14.7159 8 14.7159Z" fill="#F2994A"/>
</svg>
