<svg width="29" height="22" viewBox="0 0 29 22" fill="none" xmlns="http://www.w3.org/2000/svg">
<path d="M20.5224 17.5951C21.1322 17.5951 21.6811 17.2902 21.9861 16.8023C22.291 17.2902 22.8399 17.5951 23.4498 17.5951C24.4256 17.5951 25.188 16.8023 25.188 15.8569C25.188 14.8811 24.3951 14.1188 23.4498 14.1188C22.8399 14.1188 22.291 14.4237 21.9861 14.9116C21.6811 14.4237 21.1322 14.1188 20.5224 14.1188C19.5465 14.1188 18.7842 14.9116 18.7842 15.8569C18.7842 16.8023 19.5465 17.5951 20.5224 17.5951Z" fill="#F08800"/>
<path d="M27.4753 5.36698H12.3502C11.9232 2.34805 9.36172 0 6.22082 0C2.77497 0 0 2.80547 0 6.22082C0 9.36173 2.34805 11.9537 5.39748 12.3502V20.1872C5.39748 21.0105 6.06835 21.6814 6.89169 21.6814H27.5058C28.3291 21.6814 29 21.0105 29 20.1872V6.8612C28.9695 6.03786 28.2986 5.36698 27.4753 5.36698ZM6.22082 10.7645C3.72029 10.7645 1.67718 8.72135 1.67718 6.22082C1.67718 3.7203 3.72029 1.67718 6.22082 1.67718C8.72135 1.67718 10.7645 3.7203 10.7645 6.22082C10.7645 8.72135 8.72135 10.7645 6.22082 10.7645ZM27.2923 20.0042H7.04416V12.3502C7.83701 12.2587 8.56888 11.9842 9.20925 11.6183H27.2923V20.0042ZM27.2923 8.78234H11.8623C12.1062 8.23344 12.2892 7.65405 12.3502 7.01367H27.2923V8.78234Z" fill="#F08800"/>
<path d="M10.0019 15.1861H13.4173C13.8442 15.1861 14.1796 14.8507 14.1796 14.4237C14.1796 13.9968 13.8442 13.6614 13.4173 13.6614H10.0019C9.57501 13.6614 9.23957 13.9968 9.23957 14.4237C9.20908 14.8202 9.57501 15.1861 10.0019 15.1861Z" fill="#F08800"/>
<path d="M9.20947 17.1684C9.20947 17.5953 9.54491 17.9307 9.97183 17.9307H15.2778C15.7047 17.9307 16.0402 17.5953 16.0402 17.1684C16.0402 16.7414 15.7047 16.406 15.2778 16.406H10.0023C9.5754 16.406 9.20947 16.7414 9.20947 17.1684Z" fill="#F08800"/>
<path d="M7.37965 4.60462L5.67197 6.43428L5.06209 5.7634C4.75714 5.42797 4.20825 5.39747 3.87281 5.73291C3.53738 6.03785 3.50688 6.58675 3.84232 6.92218L5.06209 8.23344C5.21456 8.4164 5.42802 8.50788 5.67197 8.50788C5.91593 8.50788 6.12938 8.4164 6.28186 8.23344L8.59942 5.73291C8.90436 5.39747 8.90436 4.84858 8.56892 4.54364C8.23349 4.23869 7.71508 4.26919 7.37965 4.60462Z" fill="#F08800"/>
</svg>
