<svg width="30" height="30" viewBox="0 0 30 30" fill="none" xmlns="http://www.w3.org/2000/svg">
<rect width="30" height="30" rx="15" fill="#01789A"/>
<path d="M18.5148 14.9573C18.4611 14.9035 18.3973 14.8608 18.3271 14.8317C18.2569 14.8026 18.1816 14.7876 18.1056 14.7876C18.0296 14.7876 17.9544 14.8026 17.8842 14.8317C17.8139 14.8608 17.7502 14.9035 17.6965 14.9573L16.7739 15.8798C16.3462 15.7525 15.5481 15.4631 15.0423 14.9573C14.5364 14.4514 14.2471 13.6533 14.1197 13.2256L15.0423 12.3031C15.0961 12.2494 15.1387 12.1856 15.1679 12.1154C15.197 12.0452 15.212 11.9699 15.212 11.8939C15.212 11.8179 15.197 11.7426 15.1679 11.6724C15.1387 11.6022 15.0961 11.5384 15.0423 11.4847L12.7272 9.16969C12.6735 9.1159 12.6098 9.07322 12.5395 9.04411C12.4693 9.01499 12.3941 9 12.3181 9C12.242 9 12.1668 9.01499 12.0966 9.04411C12.0264 9.07322 11.9626 9.1159 11.9089 9.16969L10.3393 10.7393C10.1193 10.9592 9.9955 11.2613 10.0001 11.5698C10.0134 12.394 10.2316 15.2565 12.4876 17.5125C14.7436 19.7685 17.6062 19.9861 18.4309 20H18.4471C18.7527 20 19.0415 19.8796 19.2603 19.6608L20.8299 18.0913C20.8836 18.0376 20.9263 17.9738 20.9554 17.9036C20.9846 17.8333 20.9995 17.7581 20.9995 17.6821C20.9995 17.6061 20.9846 17.5308 20.9554 17.4606C20.9263 17.3904 20.8836 17.3266 20.8299 17.2729L18.5148 14.9573ZM18.4413 18.8419C17.719 18.8297 15.2477 18.6359 13.306 16.6936C11.3579 14.7455 11.1692 12.2655 11.1576 11.5577L12.3181 10.3972L13.8147 11.8939L13.0664 12.6422C12.9984 12.7102 12.9483 12.7941 12.9209 12.8862C12.8934 12.9784 12.8893 13.0759 12.909 13.1701C12.9229 13.2366 13.2626 14.8149 14.2233 15.7756C15.1841 16.7364 16.7623 17.0761 16.8289 17.09C16.923 17.1102 17.0206 17.1065 17.1129 17.0791C17.2051 17.0517 17.289 17.0015 17.3567 16.9332L18.1056 16.1848L19.6023 17.6815L18.4413 18.8419Z" fill="white"/>
</svg>
