<svg width="24" height="24" viewBox="0 0 24 24" fill="none" xmlns="http://www.w3.org/2000/svg">
<path d="M23.0625 11.0626H12.9375V0.937561C12.9375 0.41978 12.5178 6.10352e-05 12 6.10352e-05C11.4822 6.10352e-05 11.0625 0.41978 11.0625 0.937561V11.0626H0.9375C0.419719 11.0626 0 11.4823 0 12.0001C0 12.5178 0.419719 12.9376 0.9375 12.9376H11.0625V23.0626C11.0625 23.5803 11.4822 24.0001 12 24.0001C12.5178 24.0001 12.9375 23.5803 12.9375 23.0626V12.9376H23.0625C23.5803 12.9376 24 12.5178 24 12.0001C24 11.4823 23.5803 11.0626 23.0625 11.0626Z" fill="#01789A"/>
</svg>
