<svg width="21" height="21" viewBox="0 0 21 21" fill="none" xmlns="http://www.w3.org/2000/svg">
<path d="M20.4883 19.2519L15.12 13.8597C16.2002 12.4872 16.8549 10.7225 16.8549 8.82704C16.8549 4.31724 13.1888 0.657104 8.67159 0.657104C4.1544 0.657104 0.488281 4.31724 0.488281 8.82704C0.488281 13.3368 4.1544 16.997 8.67159 16.997C10.5701 16.997 12.3377 16.3434 13.7125 15.2649L19.1135 20.6571L20.4883 19.2519ZM8.67159 15.0362C5.2346 15.0362 2.45227 12.2584 2.45227 8.82704C2.45227 5.39567 5.2346 2.61789 8.67159 2.61789C12.1086 2.61789 14.8909 5.39567 14.8909 8.82704C14.8909 12.2584 12.1086 15.0362 8.67159 15.0362Z" fill="#ACACAC"/>
</svg>
