<svg width="51" height="51" viewBox="0 0 51 51" fill="none" xmlns="http://www.w3.org/2000/svg">
<circle cx="25.5" cy="25.5" r="25.5" fill="#EDFFF5"/>
<path d="M23.4926 19.3848H16.4692V28.3235H23.4926V19.3848ZM22.2156 27.0466H17.7462V20.6617H22.2156V27.0466Z" fill="#0C8720"/>
<path d="M26.0467 20.6617H32.4315C32.7841 20.6617 33.07 20.3758 33.07 20.0232C33.07 19.6707 32.7841 19.3848 32.4315 19.3848H26.0467C25.6941 19.3848 25.4082 19.6707 25.4082 20.0232C25.4082 20.3758 25.6941 20.6617 26.0467 20.6617Z" fill="#0C8720"/>
<path d="M26.0467 23.8542H28.9199C29.2724 23.8542 29.5583 23.5683 29.5583 23.2158C29.5583 22.8632 29.2724 22.5773 28.9199 22.5773H26.0467C25.6941 22.5773 25.4082 22.8632 25.4082 23.2158C25.4082 23.5683 25.6941 23.8542 26.0467 23.8542Z" fill="#0C8720"/>
<path d="M26.0467 27.0466H31.7579C32.1105 27.0466 32.3964 26.7607 32.3964 26.4081C32.3964 26.0556 32.1105 25.7697 31.7579 25.7697H26.0467C25.6941 25.7697 25.4082 26.0556 25.4082 26.4081C25.4082 26.7607 25.6941 27.0466 26.0467 27.0466Z" fill="#0C8720"/>
<path d="M35.9431 13H13.5962C13.1729 13 12.7669 13.1682 12.4675 13.4675C12.1682 13.7669 12 14.1729 12 14.5962V15.8732C12 16.2412 12.127 16.5979 12.3597 16.8829C12.5923 17.168 12.9164 17.3639 13.277 17.4375V29.9199C13.277 30.428 13.4788 30.915 13.838 31.2743C14.1973 31.6335 14.6844 31.8353 15.1924 31.8353H24.1312V34.0253L20.8335 36.707C20.6924 36.8103 20.5999 36.9671 20.5776 37.1404C20.5554 37.3139 20.6052 37.4889 20.7155 37.6246C20.8258 37.7602 20.987 37.8448 21.1612 37.8584C21.3356 37.8721 21.5079 37.8135 21.6378 37.6966L24.6483 35.2512L27.8185 37.853C27.9325 37.9476 28.0757 37.9995 28.2238 38C28.4942 38.0007 28.7359 37.8311 28.827 37.5765C28.9181 37.322 28.8389 37.0375 28.6293 36.8666L25.4082 34.2233V31.8354H34.3469C34.855 31.8354 35.342 31.6335 35.7014 31.2744C36.0605 30.9151 36.2624 30.428 36.2624 29.9199V17.4376C36.6229 17.364 36.947 17.168 37.1796 16.883C37.4123 16.598 37.5393 16.2413 37.5393 15.8732V14.5963C37.5393 14.173 37.3712 13.767 37.0719 13.4675C36.7724 13.1682 36.3664 13.0001 35.9431 13.0001L35.9431 13ZM34.9854 29.9198C34.9854 30.0892 34.9181 30.2515 34.7984 30.3712C34.6786 30.491 34.5163 30.5583 34.3469 30.5583H15.1924C14.8399 30.5583 14.5539 30.2724 14.5539 29.9198V17.4694H34.9854V29.9198ZM36.2624 15.8732C36.2624 15.9578 36.2287 16.039 36.1689 16.0989C36.109 16.1587 36.0278 16.1924 35.9431 16.1924H13.5962C13.4198 16.1924 13.277 16.0495 13.277 15.8732V14.5962C13.277 14.4198 13.4198 14.277 13.5962 14.277H35.9431C36.0278 14.277 36.109 14.3106 36.1689 14.3705C36.2287 14.4304 36.2624 14.5116 36.2624 14.5962V15.8732Z" fill="#0C8720"/>
</svg>
