<svg width="16" height="22" viewBox="0 0 16 22" fill="none" xmlns="http://www.w3.org/2000/svg">
<path d="M8 10.1819C5.87827 10.1819 3.84344 11.0247 2.34315 12.525C0.842855 14.0253 0 16.0602 0 18.1819V19.6364C0 20.2151 0.22987 20.77 0.63904 21.1792C1.04821 21.5884 1.60316 21.8182 2.18182 21.8182H13.8182C14.3968 21.8182 14.9518 21.5884 15.361 21.1792C15.7701 20.77 16 20.2151 16 19.6364V18.1819C16 16.0602 15.1571 14.0253 13.6569 12.525C12.1566 11.0247 10.1217 10.1819 8 10.1819Z" fill="#023E4F"/>
<path d="M8.00036 8.72727C10.4103 8.72727 12.364 6.77361 12.364 4.36364C12.364 1.95367 10.4103 0 8.00036 0C5.59039 0 3.63672 1.95367 3.63672 4.36364C3.63672 6.77361 5.59039 8.72727 8.00036 8.72727Z" fill="#023E4F"/>
</svg>
