<svg width="19" height="19" viewBox="0 0 19 19" fill="none" xmlns="http://www.w3.org/2000/svg">
<path d="M10.9228 18.0791H9.4162C9.31631 18.0791 9.22051 18.0394 9.14987 17.9688C9.07924 17.8982 9.03955 17.8024 9.03955 17.7025V16.9492H8.28626V17.7025C8.28626 17.8024 8.24658 17.8982 8.17594 17.9688C8.10531 18.0394 8.0095 18.0791 7.90961 18.0791H6.40302C6.30312 18.0791 6.20732 18.0394 6.13669 17.9688C6.06605 17.8982 6.02637 17.8024 6.02637 17.7025V16.9492H5.27307V17.7025C5.27307 17.8024 5.23339 17.8982 5.16276 17.9688C5.09212 18.0394 4.99632 18.0791 4.89643 18.0791H3.38983C3.28994 18.0791 3.19414 18.0394 3.1235 17.9688C3.05287 17.8982 3.01319 17.8024 3.01319 17.7025V16.9492H2.25989V17.7025C2.25989 17.8024 2.22021 17.8982 2.14957 17.9688C2.07894 18.0394 1.98313 18.0791 1.88324 18.0791H0.376648C0.276755 18.0791 0.180953 18.0394 0.110318 17.9688C0.0396825 17.8982 0 17.8024 0 17.7025V6.02637H0.753296V17.3258H1.50659V16.9492C1.50659 16.7494 1.58596 16.5578 1.72723 16.4165C1.8685 16.2752 2.0601 16.1959 2.25989 16.1959H3.01319C3.21297 16.1959 3.40458 16.2752 3.54585 16.4165C3.68712 16.5578 3.76648 16.7494 3.76648 16.9492V17.3258H4.51978V16.9492C4.51978 16.7494 4.59914 16.5578 4.74041 16.4165C4.88168 16.2752 5.07329 16.1959 5.27307 16.1959H6.02637C6.22616 16.1959 6.41776 16.2752 6.55903 16.4165C6.7003 16.5578 6.77967 16.7494 6.77967 16.9492V17.3258H7.53296V16.9492C7.53296 16.7494 7.61233 16.5578 7.7536 16.4165C7.89487 16.2752 8.08647 16.1959 8.28626 16.1959H9.03955C9.23934 16.1959 9.43095 16.2752 9.57222 16.4165C9.71349 16.5578 9.79285 16.7494 9.79285 16.9492V17.3258H10.5461V13.5593H11.2994V17.7025C11.2994 17.8024 11.2598 17.8982 11.1891 17.9688C11.1185 18.0394 11.0227 18.0791 10.9228 18.0791Z" fill="#F08800"/>
<path d="M11.2994 12.806H10.5461V0.753296H9.79285V1.12994C9.79285 1.32973 9.71349 1.52133 9.57222 1.66261C9.43095 1.80388 9.23934 1.88324 9.03955 1.88324H8.28626C8.08647 1.88324 7.89487 1.80388 7.7536 1.66261C7.61233 1.52133 7.53296 1.32973 7.53296 1.12994V0.753296H6.77967V1.12994C6.77967 1.32973 6.7003 1.52133 6.55903 1.66261C6.41776 1.80388 6.22616 1.88324 6.02637 1.88324H5.27307C5.07329 1.88324 4.88168 1.80388 4.74041 1.66261C4.59914 1.52133 4.51978 1.32973 4.51978 1.12994V0.753296H3.76648V1.12994C3.76648 1.32973 3.68712 1.52133 3.54585 1.66261C3.40458 1.80388 3.21297 1.88324 3.01319 1.88324H2.25989C2.0601 1.88324 1.8685 1.80388 1.72723 1.66261C1.58596 1.52133 1.50659 1.32973 1.50659 1.12994V0.753296H0.753296V5.27307H0V0.376648C0 0.276755 0.0396825 0.180953 0.110318 0.110318C0.180953 0.0396825 0.276755 0 0.376648 0L1.88324 0C1.98313 0 2.07894 0.0396825 2.14957 0.110318C2.22021 0.180953 2.25989 0.276755 2.25989 0.376648V1.12994H3.01319V0.376648C3.01319 0.276755 3.05287 0.180953 3.1235 0.110318C3.19414 0.0396825 3.28994 0 3.38983 0L4.89643 0C4.99632 0 5.09212 0.0396825 5.16276 0.110318C5.23339 0.180953 5.27307 0.276755 5.27307 0.376648V1.12994H6.02637V0.376648C6.02637 0.276755 6.06605 0.180953 6.13669 0.110318C6.20732 0.0396825 6.30312 0 6.40302 0L7.90961 0C8.0095 0 8.10531 0.0396825 8.17594 0.110318C8.24658 0.180953 8.28626 0.276755 8.28626 0.376648V1.12994H9.03955V0.376648C9.03955 0.276755 9.07924 0.180953 9.14987 0.110318C9.22051 0.0396825 9.31631 0 9.4162 0L10.9228 0C11.0227 0 11.1185 0.0396825 11.1891 0.110318C11.2598 0.180953 11.2994 0.276755 11.2994 0.376648V12.806Z" fill="#F08800"/>
<path d="M1.88159 14.3127H0.375V15.066H1.88159V14.3127Z" fill="#F08800"/>
<path d="M4.14331 14.3127H2.63672V15.066H4.14331V14.3127Z" fill="#F08800"/>
<path d="M6.40112 14.3127H4.89453V15.066H6.40112V14.3127Z" fill="#F08800"/>
<path d="M8.66284 14.3127H7.15625V15.066H8.66284V14.3127Z" fill="#F08800"/>
<path d="M10.9246 14.3127H9.41797V15.066H10.9246V14.3127Z" fill="#F08800"/>
<path d="M10.9211 2.63647H0.375V3.38977H10.9211V2.63647Z" fill="#F08800"/>
<path d="M10.9211 3.76636H0.375V4.51965H10.9211V3.76636Z" fill="#F08800"/>
<path d="M12.4285 18.0791H10.9219V17.3258H12.1693L15.2488 9.28174L15.9524 9.55104L12.7803 17.8373C12.753 17.9085 12.7047 17.9697 12.6419 18.0129C12.5791 18.056 12.5047 18.0791 12.4285 18.0791Z" fill="#F08800"/>
<path d="M16.2419 8.79733L15.5383 8.5284L17.2129 4.15326L16.5124 3.90204L16.3843 4.24893C16.3145 4.43471 16.1743 4.58558 15.9942 4.66894C15.8141 4.75231 15.6084 4.76149 15.4216 4.6945L14.7146 4.44102C14.621 4.40785 14.535 4.35632 14.4616 4.28944C14.3881 4.22256 14.3288 4.14169 14.2871 4.05156C14.2453 3.9627 14.2217 3.86639 14.2176 3.76827C14.2135 3.67015 14.2291 3.57221 14.2634 3.48019L14.3892 3.14121L13.6841 2.8881L13.5557 3.23499C13.4857 3.42064 13.3455 3.57133 13.1654 3.65455C12.9853 3.73777 12.7797 3.74684 12.593 3.67981L11.886 3.42746C11.7929 3.39461 11.7073 3.34361 11.634 3.27742C11.5608 3.21122 11.5015 3.13115 11.4594 3.04185C11.4174 2.95254 11.3935 2.85577 11.3891 2.75716C11.3848 2.65855 11.4 2.56005 11.434 2.46738L11.5598 2.1284L10.8242 1.86475L11.0788 1.15552L12.1711 1.54798C12.2179 1.5648 12.261 1.59073 12.2977 1.62428C12.3345 1.65782 12.3642 1.69832 12.3853 1.74343C12.4063 1.78854 12.4181 1.83736 12.4202 1.88708C12.4222 1.9368 12.4144 1.98643 12.3971 2.03311L12.1395 2.72991L12.8457 2.97397L13.1075 2.27605C13.1418 2.18287 13.2116 2.10705 13.3016 2.06508C13.3916 2.02311 13.4946 2.01839 13.5881 2.05194L15.0012 2.56117C15.0481 2.57798 15.0911 2.60391 15.1279 2.63746C15.1646 2.67101 15.1944 2.7115 15.2154 2.75661C15.2364 2.80172 15.2483 2.85055 15.2503 2.90027C15.2523 2.94999 15.2445 2.99962 15.2272 3.04629L14.97 3.74347L15.6758 3.98753L15.935 3.293C15.9693 3.19982 16.0391 3.124 16.1291 3.08203C16.2191 3.04006 16.3221 3.03534 16.4156 3.06889L17.8299 3.57435C17.8772 3.59113 17.9208 3.61723 17.9579 3.65109C17.995 3.68496 18.025 3.72591 18.0461 3.77154C18.0671 3.81717 18.0788 3.86655 18.0805 3.91678C18.0822 3.967 18.0738 4.01706 18.0559 4.06399L16.2419 8.79733Z" fill="#F08800"/>
<path d="M11.0474 3.90461L10.793 4.61365L16.673 6.72341L16.9274 6.01437L11.0474 3.90461Z" fill="#F08800"/>
<path d="M11.0513 5.08894L10.7969 5.79797L16.2894 7.76871L16.5438 7.05967L11.0513 5.08894Z" fill="#F08800"/>
</svg>
