<svg width="28" height="34" viewBox="0 0 28 34" fill="none" xmlns="http://www.w3.org/2000/svg">
<path d="M5.13839 25.8584L14.6024 11.5724L14.603 11.5716L16.6254 8.50535L17.0584 8.78778L17.6052 9.15231L17.8579 9.3328L17.8578 9.33295L17.8691 9.34056L19.2046 10.2406C18.7586 10.9675 18.6011 11.8491 18.7694 12.6907C18.9432 13.5598 19.464 14.3443 20.2103 14.8272C20.9497 15.3057 21.8216 15.4778 22.7236 15.306L22.7236 15.306L22.7281 15.3051C23.5785 15.135 24.3479 14.6328 24.833 13.9121L27.3098 15.5819L15.8219 32.9375L13.279 31.2608C13.7522 30.5233 13.9227 29.6175 13.7499 28.7538C13.5761 27.8846 13.0553 27.1002 12.3091 26.6173C11.5696 26.1388 10.6591 25.9658 9.79122 26.1394C8.93913 26.3098 8.16843 26.8136 7.68349 27.5365L5.13839 25.8584ZM22.7573 21.1549L23.1742 21.437L23.4535 21.0181L23.972 20.2403L24.2475 19.8271L23.8361 19.5488L22.5768 18.697L22.1599 18.4149L22.1394 18.4457L21.7991 18.2155L20.5398 17.3637L20.2024 17.1354L20.2104 17.1234L19.7991 16.8451L18.5398 15.9933L18.1229 15.7112L18.1023 15.742L17.762 15.5118L16.5028 14.6599L16.0858 14.3779L16.0653 14.4087L15.725 14.1785L14.4657 13.3266L14.0488 13.0446L13.7696 13.4634L13.251 14.2412L12.9755 14.6544L13.3869 14.9327L14.6462 15.7845L15.0631 16.0666L15.0836 16.0358L15.4239 16.266L16.6832 17.1179L17.1002 17.3999L17.1207 17.3691L17.461 17.5993L18.7202 18.4512L19.0576 18.6794L19.0496 18.6914L19.461 18.9697L20.7202 19.8216L21.1372 20.1036L21.1577 20.0728L21.498 20.303L22.7573 21.1549Z" stroke="#219653"/>
<path d="M6.5926 7.62964L6.81482 6.74075L5.33334 6.33334L5.07408 7.22223L6.5926 7.62964ZM11.2593 8.92593L11.4815 8.03705L10 7.62964L9.74075 8.51853L11.2593 8.92593ZM16.4445 6.33334L8.03704 18.8148L7.51853 19.6297C7.51853 19.6297 7.51853 19.6297 7.48149 19.6297C5.96297 19.2222 4.44445 20.1482 4 21.6297L3.88889 22.0741L0 21L5.74075 0L9.62964 1.07408L9.51853 1.51852C9.33334 2.25926 9.40742 3.03704 9.77779 3.66667C10.1482 4.33334 10.7778 4.81482 11.5185 5.00001C12.2593 5.18519 13 5.11112 13.6667 4.74075C14.3333 4.37038 14.8148 3.74074 15 3.03704L15.1111 2.5926L19 3.66667L17.963 7.48149L16.4445 6.33334ZM9.18519 7.40742L7.70371 7.00001L7.44445 7.8889L8.92593 8.29631L9.18519 7.40742ZM12.4074 8.29631L12.1482 9.18519L13.6296 9.5926L13.8889 8.70371L12.4074 8.29631Z" fill="#0C8720"/>
</svg>
