<svg width="19" height="18" viewBox="0 0 19 18" fill="none" xmlns="http://www.w3.org/2000/svg">
<path d="M9.53395 1.75906C11.8933 1.75906 12.1702 1.76958 13.1027 1.81165C13.9651 1.85021 14.4314 1.99394 14.7434 2.11664C15.1571 2.2779 15.4516 2.46721 15.7601 2.77571C16.0686 3.08421 16.2614 3.37869 16.4191 3.79236C16.5383 4.10437 16.6856 4.57062 16.7241 5.43302C16.7662 6.36554 16.7767 6.64249 16.7767 9.00181C16.7767 11.3611 16.7662 11.6381 16.7241 12.5706C16.6856 13.433 16.5418 13.8993 16.4191 14.2113C16.2579 14.6249 16.0686 14.9194 15.7601 15.2279C15.4516 15.5364 15.1571 15.7292 14.7434 15.887C14.4314 16.0062 13.9651 16.1534 13.1027 16.192C12.1702 16.234 11.8933 16.2446 9.53395 16.2446C7.17462 16.2446 6.89768 16.234 5.96516 16.192C5.10276 16.1534 4.63651 16.0097 4.3245 15.887C3.91083 15.7257 3.61635 15.5364 3.30785 15.2279C2.99935 14.9194 2.80654 14.6249 2.64878 14.2113C2.52959 13.8993 2.38235 13.433 2.34379 12.5706C2.30172 11.6381 2.2912 11.3611 2.2912 9.00181C2.2912 6.64249 2.30172 6.36554 2.34379 5.43302C2.38235 4.57062 2.52608 4.10437 2.64878 3.79236C2.81004 3.37869 2.99935 3.08421 3.30785 2.77571C3.61635 2.46721 3.91083 2.2744 4.3245 2.11664C4.63651 1.99745 5.10276 1.85021 5.96516 1.81165C6.89768 1.76607 7.17462 1.75906 9.53395 1.75906ZM9.53395 0.16748C7.13606 0.16748 6.83457 0.177998 5.89154 0.220066C4.95202 0.262134 4.31048 0.412879 3.74957 0.630231C3.16762 0.854595 2.67683 1.15959 2.18603 1.65039C1.69523 2.14118 1.39375 2.63548 1.16588 3.21392C0.948523 3.77483 0.797779 4.41637 0.75571 5.3594C0.713642 6.29893 0.703125 6.60042 0.703125 8.99831C0.703125 11.3962 0.713642 11.6977 0.75571 12.6407C0.797779 13.5802 0.948523 14.2218 1.16588 14.7862C1.39024 15.3681 1.69523 15.8589 2.18603 16.3497C2.67683 16.8405 3.17113 17.142 3.74957 17.3699C4.31048 17.5872 4.95202 17.738 5.89505 17.7801C6.83808 17.8221 7.13606 17.8326 9.53746 17.8326C11.9389 17.8326 12.2368 17.8221 13.1799 17.7801C14.1194 17.738 14.7609 17.5872 15.3254 17.3699C15.9073 17.1455 16.3981 16.8405 16.8889 16.3497C17.3797 15.8589 17.6812 15.3646 17.909 14.7862C18.1264 14.2253 18.2771 13.5837 18.3192 12.6407C18.3613 11.6977 18.3718 11.3997 18.3718 8.99831C18.3718 6.59691 18.3613 6.29893 18.3192 5.3559C18.2771 4.41637 18.1264 3.77483 17.909 3.21042C17.6847 2.62847 17.3797 2.13768 16.8889 1.64688C16.3981 1.15608 15.9038 0.854595 15.3254 0.626726C14.7644 0.409373 14.1229 0.258628 13.1799 0.21656C12.2333 0.177998 11.9318 0.16748 9.53395 0.16748Z" fill="#023E4F"/>
<path d="M9.53245 4.46191C7.02939 4.46191 4.99609 6.49171 4.99609 8.99827C4.99609 11.5048 7.02939 13.5346 9.53245 13.5346C12.0355 13.5346 14.0688 11.5013 14.0688 8.99827C14.0688 6.49521 12.0355 4.46191 9.53245 4.46191ZM9.53245 11.9431C7.90581 11.9431 6.58768 10.6249 6.58768 8.99827C6.58768 7.37163 7.90581 6.0535 9.53245 6.0535C11.1591 6.0535 12.4772 7.37163 12.4772 8.99827C12.4772 10.6249 11.1591 11.9431 9.53245 11.9431Z" fill="#023E4F"/>
<path d="M14.2501 5.34204C14.8348 5.34204 15.3088 4.86804 15.3088 4.28333C15.3088 3.69861 14.8348 3.22461 14.2501 3.22461C13.6654 3.22461 13.1914 3.69861 13.1914 4.28333C13.1914 4.86804 13.6654 5.34204 14.2501 5.34204Z" fill="#023E4F"/>
</svg>
