<svg width="16" height="15" viewBox="0 0 16 15" fill="none" xmlns="http://www.w3.org/2000/svg">
<path d="M3.50558 4.92941H0.190848V14.8836H3.50558V4.92941ZM3.71652 1.85575C3.70647 0.881417 3.00335 0.138113 1.8683 0.138113C0.743304 0.138113 0 0.881417 0 1.85575C0 2.80999 0.71317 3.57338 1.82813 3.57338H1.84821C3.00335 3.57338 3.72656 2.80999 3.71652 1.85575ZM15.4286 9.17829C15.4286 6.12472 13.8013 4.69838 11.6217 4.69838C9.83371 4.69838 9.05022 5.6928 8.6183 6.37584H8.63839V4.92941H5.33371C5.33371 4.92941 5.37388 5.86356 5.33371 14.8836H8.63839V9.32896C8.63839 9.02762 8.66853 8.73633 8.74888 8.51535C8.98996 7.92271 9.53237 7.30999 10.4464 7.30999C11.6417 7.30999 12.1239 8.22405 12.1239 9.55999V14.8836H15.4286V9.17829Z" fill="#023E4F"/>
</svg>
