<svg width="17" height="14" viewBox="0 0 17 14" fill="none" xmlns="http://www.w3.org/2000/svg">
<path d="M16.2723 1.74972C15.6897 2.00084 15.0569 2.18164 14.404 2.25195C15.077 1.85017 15.5893 1.21735 15.8304 0.464007C15.2076 0.835658 14.5045 1.10686 13.7712 1.24749C13.1786 0.614676 12.3348 0.222935 11.4007 0.222935C9.60268 0.222935 8.15625 1.67941 8.15625 3.46735C8.15625 3.71847 8.18638 3.96959 8.23661 4.21066C5.54464 4.07003 3.14397 2.78432 1.54688 0.815569C1.26562 1.29771 1.10491 1.85017 1.10491 2.45285C1.10491 3.57785 1.67746 4.57227 2.55134 5.15485C2.01897 5.13477 1.51674 4.9841 1.08482 4.74302C1.08482 4.75307 1.08482 4.77316 1.08482 4.7832C1.08482 6.36021 2.19978 7.66602 3.68638 7.96735C3.41518 8.03767 3.12388 8.07785 2.83259 8.07785C2.62165 8.07785 2.42076 8.05776 2.21987 8.02762C2.6317 9.31334 3.82701 10.2475 5.25335 10.2776C4.13839 11.1515 2.74219 11.6638 1.22545 11.6638C0.954241 11.6638 0.703125 11.6537 0.441964 11.6236C1.87835 12.5477 3.58594 13.0801 5.42411 13.0801C11.3906 13.0801 14.6551 8.13811 14.6551 3.84905C14.6551 3.70843 14.6551 3.5678 14.6451 3.42718C15.2779 2.96512 15.8304 2.39258 16.2723 1.74972Z" fill="#023E4F"/>
</svg>
