<svg width="20" height="20" viewBox="0 0 20 20" fill="none" xmlns="http://www.w3.org/2000/svg">
<path d="M3.72091 17.7829C5.50071 19.2145 7.71593 19.9956 10 19.9969C12.2839 20.0058 14.5006 19.2246 16.2742 17.7856C16.6753 17.4622 17.0511 17.1086 17.3983 16.7279C18.7459 15.246 19.6174 13.3936 19.9 11.4106C20.1825 9.42769 19.8631 7.40557 18.983 5.60627C18.103 3.80698 16.7029 2.31343 14.9641 1.31912C13.2253 0.32482 11.228 -0.124415 9.23097 0.0296202C7.23391 0.183656 5.32913 0.933863 3.7634 2.18305C2.19767 3.43223 1.04315 5.12282 0.449426 7.03579C-0.144302 8.94876 -0.14988 10.996 0.433417 12.9121C1.01671 14.8283 2.162 16.5252 3.7209 17.7829H3.72091ZM10 1.31586C11.514 1.31594 13.0015 1.71226 14.3147 2.46542C15.628 3.21858 16.7213 4.30234 17.4859 5.60898C18.2505 6.91562 18.6598 8.39962 18.6731 9.91346C18.6864 11.4273 18.3032 12.9183 17.5617 14.2382C17.0876 12.5982 15.6311 11.2208 13.6609 10.4476C13.2048 10.9703 12.6421 11.3893 12.0106 11.6764C11.3791 11.9635 10.6934 12.112 9.9997 12.112C9.306 12.1119 8.62035 11.9634 7.98885 11.6763C7.35735 11.3892 6.79466 10.9702 6.3386 10.4474C4.36777 11.2207 2.91162 12.5986 2.43809 14.2391C1.6967 12.9191 1.31366 11.4281 1.32704 9.91423C1.34041 8.40036 1.74974 6.91635 2.51433 5.60967C3.27892 4.303 4.37216 3.21917 5.68539 2.4659C6.99862 1.71263 8.48612 1.31615 10 1.31586Z" fill="#2F80ED"/>
<path d="M10.0001 10.9999C12.075 10.9999 13.757 9.31791 13.757 7.24302C13.757 5.16812 12.075 3.48608 10.0001 3.48608C7.9252 3.48608 6.24316 5.16812 6.24316 7.24302C6.24316 9.31791 7.9252 10.9999 10.0001 10.9999Z" fill="#2F80ED"/>
</svg>
