<svg width="56" height="17" viewBox="0 0 56 17" fill="none" xmlns="http://www.w3.org/2000/svg">
<path d="M-1.31138e-07 7.20979L0 9.5321L53.275 9.5321L53.275 7.20979L-1.31138e-07 7.20979Z" fill="#FFFEFE"/>
<path d="M55.2079 8.40027C55.2079 8.40144 55.2079 8.40376 55.2079 8.40608C55.2052 9.29205 54.6853 10.1316 53.7786 10.7087L45.369 16.0697C44.779 16.446 43.9529 16.331 43.5266 15.8108C43.1003 15.2906 43.231 14.5637 43.8209 14.1898L52.2305 8.82875C52.4456 8.69173 52.5683 8.53613 52.5697 8.40027C52.5697 8.26558 52.4469 8.10998 52.2344 7.97181L43.8169 2.55267C43.2283 2.17413 43.099 1.44725 43.5305 0.93053C43.9608 0.412652 44.787 0.30002 45.3743 0.678559L53.7918 6.09769C54.6919 6.67828 55.2079 7.51663 55.2079 8.40027Z" fill="#FFFEFE"/>
</svg>
