<svg width="178" height="58" viewBox="0 0 178 58" fill="none" xmlns="http://www.w3.org/2000/svg">
<path d="M2.73846 0H0V57.0739H2.73846V0Z" fill="black"/>
<path d="M10.9533 0H8.21484V57.0739H10.9533V0Z" fill="black"/>
<path d="M19.1681 0H16.4297V57.0739H19.1681V0Z" fill="black"/>
<path d="M27.3832 0H21.9062V57.0739H27.3832V0Z" fill="black"/>
<path d="M32.8596 0H30.1211V57.0739H32.8596V0Z" fill="black"/>
<path d="M41.0785 0H35.6016V57.0739H41.0785V0Z" fill="black"/>
<path d="M49.2931 0H46.5547V57.0739H49.2931V0Z" fill="black"/>
<path d="M57.508 0H54.7695V57.0739H57.508V0Z" fill="black"/>
<path d="M62.9846 0H60.2461V57.0739H62.9846V0Z" fill="black"/>
<path d="M68.4611 0H65.7227V57.0739H68.4611V0Z" fill="black"/>
<path d="M76.676 0H73.9375V57.0739H76.676V0Z" fill="black"/>
<path d="M87.6293 0H82.1523V57.0739H87.6293V0Z" fill="black"/>
<path d="M93.1056 0H90.3672V57.0739H93.1056V0Z" fill="black"/>
<path d="M98.5861 0H95.8477V57.0739H98.5861V0Z" fill="black"/>
<path d="M109.539 0H104.062V57.0739H109.539V0Z" fill="black"/>
<path d="M117.754 0H115.016V57.0739H117.754V0Z" fill="black"/>
<path d="M123.231 0H120.492V57.0739H123.231V0Z" fill="black"/>
<path d="M131.445 0H128.707V57.0739H131.445V0Z" fill="black"/>
<path d="M139.66 0H136.922V57.0739H139.66V0Z" fill="black"/>
<path d="M147.875 0H142.398V57.0739H147.875V0Z" fill="black"/>
<path d="M153.352 0H150.613V57.0739H153.352V0Z" fill="black"/>
<path d="M161.571 0H156.094V57.0739H161.571V0Z" fill="black"/>
<path d="M169.785 0H167.047V57.0739H169.785V0Z" fill="black"/>
<path d="M178 0H175.262V57.0739H178V0Z" fill="black"/>
</svg>
