<svg width="51" height="51" viewBox="0 0 51 51" fill="none" xmlns="http://www.w3.org/2000/svg">
<circle cx="25.5" cy="25.5" r="25.5" fill="#E4F0FF"/>
<path d="M36.6821 21.6298C35.2867 20.0868 32.7394 19.5501 30.8821 20.4078C28.9218 21.3137 27.2688 22.8418 26.4579 23.6719C26.3008 23.8328 26.3037 24.0911 26.4647 24.2484C26.6255 24.4059 26.8832 24.4028 27.0407 24.2419C28.3536 22.8973 29.8783 21.7696 31.2236 21.1482C32.7754 20.4309 34.9079 20.8834 36.078 22.1771C37.1318 23.3422 37.5339 25.2464 37.0563 26.8078C36.3921 28.9787 33.8178 30.4175 31.3168 30.0159C28.6075 29.5801 26.9848 27.4822 25.2668 25.2612C24.217 23.9033 23.1311 22.4992 21.7766 21.5251C20.1667 20.3667 18.1641 19.8517 16.4181 20.1476C14.9976 20.388 13.8085 21.1395 12.9801 22.3206C11.8688 23.9042 11.6913 25.9121 12.5052 27.6913C13.3393 29.5148 15.0726 30.7697 17.0288 30.9664C17.2558 30.9891 17.4769 31 17.6933 31C20.4502 31 22.3773 29.2263 23.7694 27.6364C23.9178 27.4671 23.9007 27.2096 23.7316 27.0612C23.5619 26.9126 23.3047 26.9299 23.1567 27.0992C21.0902 29.4592 19.284 30.3742 17.1104 30.155C15.4408 29.9874 13.9601 28.9132 13.2461 27.352C12.5541 25.839 12.7038 24.1333 13.6469 22.7891C14.3477 21.7904 15.3529 21.155 16.5542 20.9513C18.0887 20.6914 19.8641 21.1531 21.301 22.1869C22.559 23.0921 23.5613 24.3879 24.6224 25.76C26.3615 28.0087 28.1597 30.3338 31.1873 30.8211C34.1234 31.2927 37.0432 29.6353 37.8347 27.0467C38.4013 25.1961 37.9378 23.0192 36.6818 21.6303L36.6821 21.6298Z" fill="#2F80ED"/>
<path d="M16.0164 22.0386C14.6176 22.4338 14.0601 23.4416 13.8389 24.2173C13.808 24.3255 13.8708 24.4383 13.979 24.4692C13.9977 24.4747 14.0165 24.4772 14.035 24.4772C14.1236 24.4772 14.2051 24.4188 14.2307 24.3292C14.4235 23.6533 14.9089 22.7752 16.1269 22.4311C16.2352 22.4005 16.2983 22.288 16.2675 22.1796C16.237 22.0706 16.1235 22.0088 16.0164 22.0386V22.0386Z" fill="#2F80ED"/>
<path d="M33.9961 28.7577C34.0147 28.7577 34.0331 28.7552 34.0516 28.7499C35.4506 28.3547 36.0079 27.3469 36.229 26.5712C36.26 26.463 36.1972 26.3502 36.089 26.3193C35.9821 26.2884 35.8682 26.3509 35.8371 26.4593C35.6443 27.1354 35.1592 28.0133 33.9408 28.3576C33.8326 28.3882 33.7695 28.5007 33.8003 28.6091C33.8257 28.6992 33.9076 28.7577 33.9961 28.7577L33.9961 28.7577Z" fill="#2F80ED"/>
<path d="M17.2938 22.0307C17.2938 22.3024 16.8862 22.3024 16.8862 22.0307C16.8862 21.7591 17.2938 21.7591 17.2938 22.0307Z" fill="#2F80ED"/>
<path d="M32.9784 28.9616C32.9784 29.2331 32.5708 29.2331 32.5708 28.9616C32.5708 28.6899 32.9784 28.6899 32.9784 28.9616Z" fill="#2F80ED"/>
</svg>
