<svg width="51" height="51" viewBox="0 0 51 51" fill="none" xmlns="http://www.w3.org/2000/svg">
<circle cx="25.5" cy="25.5" r="25.5" fill="#FFF0DC"/>
<path d="M13 36.4784C13 36.6168 13.0549 36.7494 13.1527 36.8474C13.2507 36.9452 13.3833 37.0001 13.5216 37.0001H17.1739C17.3122 37.0001 17.445 36.9452 17.5428 36.8474C17.6406 36.7494 17.6957 36.6168 17.6957 36.4784V34.1306C18.001 34.0562 18.3174 34.0377 18.6296 34.0758L25.7643 34.9915H25.8294C26.8259 34.9911 27.8029 34.7148 28.6521 34.1931H28.6755L36.2409 28.9756C36.5198 28.795 36.7385 28.535 36.8687 28.2292C36.9988 27.9233 37.0345 27.5854 36.9712 27.2591C36.8758 26.7614 36.5476 26.3396 36.0887 26.1247C35.6296 25.91 35.0954 25.9282 34.6521 26.174L29.5678 28.5218C29.5594 28.3214 29.5143 28.1242 29.4348 27.9401C29.2102 27.5014 28.8178 27.1721 28.3469 27.027H28.3156C27.9219 26.9702 27.5213 26.9817 27.1314 27.0609C26.2445 27.1809 25.1436 27.3217 23.6722 26.6226C21.4444 25.5503 18.4546 26.3618 17.706 26.6095V26.0435C17.706 25.9051 17.6512 25.7725 17.5533 25.6745C17.4555 25.5767 17.3227 25.5219 17.1844 25.5219H13.5217C13.2336 25.5219 13.0001 25.7554 13.0001 26.0435L13 36.4784ZM14.0434 32.8105L16.6521 30.2018V31.8088L14.0434 34.4174V32.8105ZM16.6521 27.8541V29.4663L14.0434 32.0749V30.4627L16.6521 27.8541ZM14.0434 35.1583L16.6521 32.5496V34.1566L14.8468 35.9566H14.0434V35.1583ZM15.5826 35.9566L16.6521 34.887V35.9566H15.5826ZM17.8808 27.6426C18.1051 27.567 21.1573 26.573 23.208 27.5565V27.5567C24.4666 28.1632 25.8863 28.3507 27.2592 28.0914C27.5245 28.0388 27.7953 28.0205 28.0654 28.0366C28.2429 28.0994 28.3906 28.2257 28.4801 28.3914C28.5592 28.6233 28.5414 28.8773 28.4305 29.0957C28.0418 29.3983 26.9984 30.0191 24.9818 30.0191V30.0193C24.6937 30.0193 24.4601 30.2528 24.4601 30.5409C24.4601 30.8291 24.6937 31.0627 24.9818 31.0627C27.3661 31.0627 28.634 30.2801 29.1556 29.8601L35.1034 27.1183H35.1295C35.3312 26.998 35.5867 27.0167 35.7687 27.1653C35.8621 27.2401 35.9282 27.3437 35.9565 27.46C36.0008 27.7013 35.8985 27.9458 35.6956 28.0835H35.6722L28.1069 33.301C27.434 33.7182 26.6601 33.9437 25.8686 33.9531L18.7598 33.0531C18.4053 33.0124 18.0467 33.0238 17.6956 33.087V27.721L17.8808 27.6426ZM16.6521 27.1208L14.0434 29.7295V28.1305L15.6086 26.5653H16.6521V27.1208ZM14.8625 26.5653L14.0434 27.3844V26.5653H14.8625Z" fill="#F08800"/>
<path d="M25.0001 13C23.3397 13 21.7473 13.6596 20.573 14.8337C19.3989 16.0078 18.7393 17.6003 18.7393 19.2609C18.7393 20.9213 19.3989 22.5138 20.573 23.6879C21.7473 24.8621 23.3397 25.5218 25.0001 25.5218C26.6606 25.5218 28.253 24.8621 29.4273 23.6879C30.6014 22.5138 31.261 20.9213 31.261 19.2609C31.261 17.6003 30.6014 16.0078 29.4273 14.8337C28.253 13.6596 26.6606 13 25.0001 13ZM25.0001 24.4784V24.4783C23.6164 24.4783 22.2893 23.9287 21.3109 22.9502C20.3324 21.9718 19.7827 20.6447 19.7827 19.261C19.7827 17.8773 20.3324 16.5501 21.3109 15.5717C22.2893 14.5933 23.6164 14.0435 25.0001 14.0435C26.3838 14.0435 27.711 14.5933 28.6894 15.5717C29.6678 16.5501 30.2176 17.8773 30.2176 19.261C30.2176 20.6447 29.6678 21.9718 28.6894 22.9502C27.711 23.9287 26.3838 24.4783 25.0001 24.4783V24.4784Z" fill="#F08800"/>
<path d="M25.7381 18.9086C25.4773 18.8251 25.2764 18.7626 25.0937 18.7129C24.611 18.5748 24.5172 18.5381 24.418 18.3868H24.4182C24.3024 18.1835 24.3667 17.9251 24.5642 17.7998C24.734 17.716 24.9306 17.7038 25.1094 17.7659C25.4186 17.843 25.6803 18.0479 25.8295 18.3293C25.9598 18.5867 26.2741 18.6894 26.5312 18.5591C26.7884 18.4286 26.8911 18.1145 26.7608 17.8573C26.4989 17.3618 26.0545 16.9874 25.5217 16.8137V16.1304H24.4781V16.7278V16.7276C24.3011 16.7636 24.1329 16.8337 23.9825 16.9338C23.6572 17.1467 23.4295 17.4793 23.3482 17.8594C23.2671 18.2395 23.3395 18.6363 23.5494 18.9633C23.8677 19.446 24.2824 19.5634 24.8068 19.7147C24.9765 19.7643 25.1721 19.8189 25.4069 19.8972C25.7748 20.0225 25.8061 20.0981 25.7774 20.3641C25.7591 20.5102 25.4904 20.732 25.1983 20.7815C24.8254 20.844 24.4157 20.5911 24.1549 20.1554L24.1547 20.1556C23.9973 19.9391 23.7018 19.8769 23.4705 20.0113C23.2392 20.1458 23.1471 20.4335 23.2574 20.6772C23.5304 21.1606 23.9671 21.5305 24.4886 21.7208V22.3912H25.532V21.7754C26.1294 21.6215 26.7503 21.1441 26.8364 20.471C26.9433 19.3129 26.0433 18.9998 25.7381 18.9086L25.7381 18.9086Z" fill="#F08800"/>
</svg>
