<svg width="51" height="51" viewBox="0 0 51 51" fill="none" xmlns="http://www.w3.org/2000/svg">
<circle cx="25.5" cy="25.5" r="25.5" fill="#F0E3FF"/>
<path d="M35.9963 15.0201H33.2947V13.8838C33.2947 13.404 32.8907 13 32.4109 13C31.9312 13 31.5272 13.404 31.5272 13.8838V15.0201H27.9168V13.8838C27.9168 13.404 27.5128 13 27.033 13C26.5533 13 26.1493 13.404 26.1493 13.8838V15.0201H22.4885V13.8838C22.4885 13.404 22.0844 13 21.6047 13C21.125 13 20.7209 13.404 20.7209 13.8838V15.0201H18.0197C16.9088 15.0201 16 15.9289 16 17.0398V32.9966C16 34.1075 16.9088 35.0162 18.0197 35.0162L27.5382 35.0166C27.5128 34.9409 27.4625 34.8651 27.4625 34.7894C27.4371 34.7137 27.4371 34.6379 27.4121 34.5622C27.3867 34.3854 27.3867 34.2339 27.4375 34.0571H27.286C26.9324 34.0571 26.5791 33.9057 26.3265 33.6277C26.2761 33.552 26.2004 33.5016 26.175 33.4006H18.0198C17.7672 33.4006 17.5654 33.1987 17.5654 32.9462L17.5651 17.0399C17.5651 16.7873 17.7669 16.5855 18.0194 16.5855H20.9482V17.9236C20.9482 18.3023 21.2511 18.6052 21.6298 18.6052C22.0084 18.6052 22.3114 18.3023 22.3114 17.9236V16.5855H26.3512V17.9236C26.3512 18.3023 26.6541 18.6052 27.0327 18.6052C27.4114 18.6052 27.7143 18.3023 27.7143 17.9236V16.5855H31.7541V17.9236C31.7541 18.3023 32.057 18.6052 32.4357 18.6052C32.8143 18.6052 33.1172 18.3023 33.1172 17.9236V16.5855H36.046C36.2986 16.5855 36.5004 16.7873 36.5004 17.0399V20.2463C36.5761 20.2209 36.6519 20.1959 36.7276 20.1959C36.8033 20.1959 36.8791 20.1706 36.9294 20.1706C37.1566 20.1706 37.3588 20.2209 37.5606 20.3474L37.6364 20.3727L37.8635 20.4988L37.9393 20.5492L38.0654 20.6249L38.0668 17.0399C37.991 15.929 37.1073 15.0198 35.9963 15.0198L35.9963 15.0201Z" fill="#8737ED"/>
<path d="M41.2479 29.6388V27.7702L39.8595 27.5684C39.8091 27.2401 39.7584 26.9372 39.6576 26.6343L40.8443 25.6748L40.6425 25.3211L40.1124 24.4124L39.9105 24.0587L38.6228 24.5638C38.446 24.3113 38.2441 24.0841 38.0169 23.8822C37.9916 23.8569 37.9916 23.8569 37.9666 23.8319L38.0169 23.7308L38.522 22.443L38.1427 22.1905L38.0166 22.1148L37.5622 21.8626L36.8549 21.4589L36.4513 21.964L36.2241 22.2416L36.0222 22.4941C35.7193 22.368 35.391 22.2669 35.0627 22.1912L34.8355 20.752H32.9162L32.7144 22.0648C32.4115 22.1151 32.1336 22.1659 31.856 22.2416C31.8056 22.2416 31.7803 22.2669 31.7299 22.2669L30.9472 21.2821L30.8211 21.1306L30.5686 21.2821L30.4675 21.3325L29.5588 21.8626L29.2812 22.0394L29.2055 22.0898L29.2812 22.2666L29.6598 23.2261L29.7102 23.3522C29.4577 23.554 29.2051 23.7816 28.9779 24.0338L27.5894 23.5036L27.3876 23.8573L26.9836 24.5389L26.8575 24.7661L26.6557 25.1197L27.3373 25.6752L27.7413 25.9781C27.6152 26.281 27.5141 26.5839 27.4637 26.9122L27.0333 26.9879L25.9224 27.1647V29.0583L27.3108 29.2602C27.3108 29.2855 27.3108 29.3105 27.3362 29.3359C27.3866 29.6388 27.4373 29.9167 27.513 30.1943L26.3263 31.1284L26.5282 31.482L27.0583 32.3908L27.2351 32.6683L27.2855 32.7441L27.4623 32.6683L28.5732 32.239C28.6743 32.3651 28.75 32.4662 28.8508 32.5672C28.8761 32.5926 28.9011 32.6176 28.9265 32.643C29.0276 32.7441 29.1283 32.8448 29.2294 32.9459L29.1537 33.1477L29.1033 33.2992L29.078 33.3496L29.0022 33.5768L28.6993 34.3341L28.9769 34.4855L29.0526 34.5359L29.3555 34.7127L29.5574 34.8388L29.7342 34.9399L29.7595 34.9653L29.9614 35.0913L30.315 35.2932L30.5676 34.9649L30.5929 34.9395L30.9466 34.4852L31.1484 34.2076C31.401 34.3087 31.6785 34.4094 31.9564 34.4852C32.0068 34.5105 32.0575 34.5105 32.1332 34.5355L32.1586 34.7123L32.184 34.9395V34.9649L32.3354 36.0001H34.2294L34.3809 35.0152V34.9395L34.4062 34.7123V34.6619C34.6838 34.6115 34.9363 34.5608 35.2142 34.5105C35.29 34.4851 35.3403 34.4851 35.4161 34.4601L35.4664 34.5105L35.8201 34.9648L36.3502 35.6214L36.7038 35.4196L37.1078 35.1924L37.4361 34.9905L37.6129 34.8895L37.9666 34.6876L37.714 34.0061L37.6129 33.7535L37.5119 33.4506L37.4865 33.4252L37.5119 33.3999C37.6129 33.3241 37.6887 33.2484 37.7644 33.1727C37.8401 33.0969 37.9159 33.0212 37.9916 32.9455C38.0673 32.8697 38.1177 32.8194 38.1934 32.7436L39.5819 33.2738L39.7837 32.9201L40.3138 32.0114L40.5157 31.6577L39.4301 30.774C39.5562 30.471 39.6573 30.1681 39.7076 29.8399L41.2479 29.6388ZM37.789 29.3613C37.7387 29.5885 37.6629 29.841 37.5619 30.0428C37.36 30.5729 37.0317 31.0527 36.6531 31.4567C36.5774 31.5325 36.5016 31.6082 36.4259 31.6586L36.4006 31.6839C36.3502 31.7343 36.2745 31.785 36.2237 31.8354C35.6429 32.2898 34.9613 32.5927 34.229 32.6938C34.0272 32.7191 33.825 32.7441 33.5978 32.7441C33.396 32.7441 33.1685 32.7188 32.9666 32.6938C31.3256 32.4412 29.9875 31.2799 29.5077 29.7146C29.3816 29.2852 29.3059 28.8562 29.3059 28.3764C29.3059 28.1746 29.3313 27.9724 29.3563 27.7706C29.432 27.3162 29.5581 26.8618 29.7603 26.4828C30.1643 25.6498 30.8209 24.9679 31.6286 24.5388C32.2344 24.2106 32.9163 24.0337 33.6232 24.0337C34.6081 24.0337 35.5169 24.3874 36.2491 24.9678C36.3249 25.0182 36.4006 25.0939 36.4763 25.1446C36.5521 25.2204 36.6278 25.2707 36.6782 25.3465C37.0568 25.7505 37.3851 26.2302 37.5869 26.7604C37.688 26.9876 37.7384 27.2147 37.8141 27.4419C37.8898 27.7449 37.9152 28.0731 37.9152 28.4015C37.8902 28.7301 37.8395 29.058 37.7891 29.3613L37.789 29.3613Z" fill="#8737ED"/>
</svg>
