<svg width="21" height="21" viewBox="0 0 21 21" fill="none" xmlns="http://www.w3.org/2000/svg">
<path d="M9.52764 16.579C9.68238 16.7337 9.90343 16.7337 10.0582 16.579L14.4792 12.1579C14.634 12.0032 14.634 11.7821 14.4792 11.6274L13.2192 10.3674C13.0645 10.2127 12.8434 10.2127 12.6887 10.3674L9.79291 13.2853L8.28975 11.7821C8.13501 11.6274 7.91396 11.6274 7.75922 11.7821L6.52133 13.0421C6.36659 13.1969 6.36659 13.4179 6.52133 13.5727L9.52764 16.579Z" fill="#01789A"/>
<path d="M17.5516 1.9895H16.7337V3.07266C16.7337 4.0674 15.9379 4.86319 14.9432 4.86319C13.9484 4.86319 13.1526 4.0674 13.1526 3.07266V1.9895H7.82526V3.07266C7.82526 4.0674 7.02947 4.86319 6.03474 4.86319C5.04 4.86319 4.24421 4.0674 4.24421 3.07266V1.9895H3.42632C1.54737 1.9895 0 3.53687 0 5.41582V17.1537C0 19.0548 1.54737 20.6021 3.42632 20.6021H17.5516C19.4526 20.6021 21 19.0548 21 17.1537V5.41582C21 3.53687 19.4526 1.9895 17.5516 1.9895ZM19.2095 17.1537C19.2095 18.06 18.48 18.8116 17.5516 18.8116H3.42632C2.52 18.8116 1.79053 18.0821 1.79053 17.1537V8.2895H19.2095V17.1537Z" fill="#01789A"/>
<path d="M6.03473 3.95684C6.52105 3.95684 6.94105 3.55895 6.94105 3.05053V0.906316C6.94105 0.42 6.54315 0 6.03473 0C5.52631 0 5.12842 0.397895 5.12842 0.906316V3.05053C5.15052 3.55895 5.54842 3.95684 6.03473 3.95684Z" fill="#01789A"/>
<path d="M14.9654 3.95684C15.4517 3.95684 15.8717 3.55895 15.8717 3.05053V0.906316C15.8717 0.42 15.4738 0 14.9654 0C14.457 0 14.0591 0.397895 14.0591 0.906316V3.05053C14.0591 3.55895 14.457 3.95684 14.9654 3.95684Z" fill="#01789A"/>
</svg>
