<svg width="19" height="18" viewBox="0 0 19 18" fill="none" xmlns="http://www.w3.org/2000/svg">
<path d="M10.875 18H9.375C9.27554 18 9.18016 17.9605 9.10984 17.8902C9.03951 17.8198 9 17.7245 9 17.625V16.875H8.25V17.625C8.25 17.7245 8.21049 17.8198 8.14017 17.8902C8.06984 17.9605 7.97446 18 7.875 18H6.375C6.27554 18 6.18016 17.9605 6.10984 17.8902C6.03951 17.8198 6 17.7245 6 17.625V16.875H5.25V17.625C5.25 17.7245 5.21049 17.8198 5.14017 17.8902C5.06984 17.9605 4.97446 18 4.875 18H3.375C3.27554 18 3.18016 17.9605 3.10984 17.8902C3.03951 17.8198 3 17.7245 3 17.625V16.875H2.25V17.625C2.25 17.7245 2.21049 17.8198 2.14017 17.8902C2.06984 17.9605 1.97446 18 1.875 18H0.375C0.275544 18 0.180161 17.9605 0.109835 17.8902C0.0395088 17.8198 0 17.7245 0 17.625V6H0.75V17.25H1.5V16.875C1.5 16.6761 1.57902 16.4853 1.71967 16.3447C1.86032 16.204 2.05109 16.125 2.25 16.125H3C3.19891 16.125 3.38968 16.204 3.53033 16.3447C3.67098 16.4853 3.75 16.6761 3.75 16.875V17.25H4.5V16.875C4.5 16.6761 4.57902 16.4853 4.71967 16.3447C4.86032 16.204 5.05109 16.125 5.25 16.125H6C6.19891 16.125 6.38968 16.204 6.53033 16.3447C6.67098 16.4853 6.75 16.6761 6.75 16.875V17.25H7.5V16.875C7.5 16.6761 7.57902 16.4853 7.71967 16.3447C7.86032 16.204 8.05109 16.125 8.25 16.125H9C9.19891 16.125 9.38968 16.204 9.53033 16.3447C9.67098 16.4853 9.75 16.6761 9.75 16.875V17.25H10.5V13.5H11.25V17.625C11.25 17.7245 11.2105 17.8198 11.1402 17.8902C11.0698 17.9605 10.9745 18 10.875 18Z" fill="#F08800"/>
<path d="M11.25 12.75H10.5V0.75H9.75V1.125C9.75 1.32391 9.67098 1.51468 9.53033 1.65533C9.38968 1.79598 9.19891 1.875 9 1.875H8.25C8.05109 1.875 7.86032 1.79598 7.71967 1.65533C7.57902 1.51468 7.5 1.32391 7.5 1.125V0.75H6.75V1.125C6.75 1.32391 6.67098 1.51468 6.53033 1.65533C6.38968 1.79598 6.19891 1.875 6 1.875H5.25C5.05109 1.875 4.86032 1.79598 4.71967 1.65533C4.57902 1.51468 4.5 1.32391 4.5 1.125V0.75H3.75V1.125C3.75 1.32391 3.67098 1.51468 3.53033 1.65533C3.38968 1.79598 3.19891 1.875 3 1.875H2.25C2.05109 1.875 1.86032 1.79598 1.71967 1.65533C1.57902 1.51468 1.5 1.32391 1.5 1.125V0.75H0.75V5.25H0V0.375C0 0.275544 0.0395088 0.180161 0.109835 0.109835C0.180161 0.0395088 0.275544 0 0.375 0L1.875 0C1.97446 0 2.06984 0.0395088 2.14017 0.109835C2.21049 0.180161 2.25 0.275544 2.25 0.375V1.125H3V0.375C3 0.275544 3.03951 0.180161 3.10984 0.109835C3.18016 0.0395088 3.27554 0 3.375 0L4.875 0C4.97446 0 5.06984 0.0395088 5.14017 0.109835C5.21049 0.180161 5.25 0.275544 5.25 0.375V1.125H6V0.375C6 0.275544 6.03951 0.180161 6.10984 0.109835C6.18016 0.0395088 6.27554 0 6.375 0L7.875 0C7.97446 0 8.06984 0.0395088 8.14017 0.109835C8.21049 0.180161 8.25 0.275544 8.25 0.375V1.125H9V0.375C9 0.275544 9.03951 0.180161 9.10984 0.109835C9.18016 0.0395088 9.27554 0 9.375 0L10.875 0C10.9745 0 11.0698 0.0395088 11.1402 0.109835C11.2105 0.180161 11.25 0.275544 11.25 0.375V12.75Z" fill="#F08800"/>
<path d="M1.875 14.25H0.375V15H1.875V14.25Z" fill="#F08800"/>
<path d="M4.125 14.25H2.625V15H4.125V14.25Z" fill="#F08800"/>
<path d="M6.375 14.25H4.875V15H6.375V14.25Z" fill="#F08800"/>
<path d="M8.625 14.25H7.125V15H8.625V14.25Z" fill="#F08800"/>
<path d="M10.875 14.25H9.375V15H10.875V14.25Z" fill="#F08800"/>
<path d="M10.875 2.625H0.375V3.375H10.875V2.625Z" fill="#F08800"/>
<path d="M10.875 3.75H0.375V4.5H10.875V3.75Z" fill="#F08800"/>
<path d="M12.375 18.0001H10.875V17.2501H12.117L15.183 9.24121L15.8835 9.50934L12.7252 17.7593C12.6981 17.8302 12.6501 17.8911 12.5875 17.9341C12.525 17.9771 12.4509 18.0001 12.375 18.0001Z" fill="#F08800"/>
<path d="M16.1713 8.75889L15.4708 8.49114L17.1381 4.13514L16.4406 3.88501L16.3131 4.23039C16.2436 4.41536 16.1041 4.56556 15.9247 4.64856C15.7454 4.73157 15.5406 4.74071 15.3546 4.67401L14.6507 4.42164C14.5575 4.38862 14.4719 4.33731 14.3988 4.27072C14.3257 4.20413 14.2666 4.12361 14.2251 4.03389C14.1835 3.94541 14.16 3.84952 14.1559 3.75183C14.1518 3.65415 14.1673 3.55663 14.2015 3.46501L14.3267 3.12751L13.6247 2.87551L13.4968 3.22089C13.4272 3.40572 13.2876 3.55575 13.1083 3.63861C12.929 3.72146 12.7243 3.7305 12.5383 3.66376L11.8345 3.41251C11.7418 3.37981 11.6565 3.32903 11.5836 3.26313C11.5107 3.19722 11.4516 3.1175 11.4098 3.02859C11.3679 2.93967 11.3441 2.84333 11.3398 2.74515C11.3354 2.64697 11.3506 2.5489 11.3845 2.45664L11.5097 2.11914L10.7773 1.85664L11.0308 1.15051L12.1183 1.54126C12.165 1.55801 12.2078 1.58382 12.2444 1.61722C12.281 1.65062 12.3106 1.69094 12.3315 1.73585C12.3525 1.78076 12.3643 1.82937 12.3663 1.87888C12.3683 1.92838 12.3605 1.97779 12.3433 2.02426L12.0868 2.71801L12.79 2.96101L13.0506 2.26614C13.0848 2.17337 13.1543 2.09788 13.2439 2.0561C13.3335 2.01431 13.436 2.00961 13.5291 2.04301L14.9361 2.55001C14.9827 2.56676 15.0256 2.59257 15.0622 2.62597C15.0988 2.65937 15.1284 2.69969 15.1493 2.7446C15.1702 2.78951 15.182 2.83812 15.1841 2.88763C15.1861 2.93713 15.1783 2.98654 15.1611 3.03301L14.905 3.72714L15.6077 3.97014L15.8657 3.27864C15.9 3.18587 15.9694 3.11038 16.059 3.0686C16.1487 3.02681 16.2512 3.02211 16.3442 3.05551L17.7523 3.55876C17.7995 3.57547 17.8428 3.60145 17.8798 3.63517C17.9168 3.66888 17.9466 3.70966 17.9676 3.75509C17.9886 3.80052 18.0002 3.84968 18.0019 3.89969C18.0036 3.9497 17.9952 3.99953 17.9773 4.04626L16.1713 8.75889Z" fill="#F08800"/>
<path d="M10.9994 3.88757L10.7461 4.59351L16.6004 6.69404L16.8537 5.9881L10.9994 3.88757Z" fill="#F08800"/>
<path d="M11.0033 5.06677L10.75 5.77271L16.2185 7.73481L16.4718 7.02888L11.0033 5.06677Z" fill="#F08800"/>
</svg>
