<svg width="20" height="20" viewBox="0 0 20 20" fill="none" xmlns="http://www.w3.org/2000/svg">
<path d="M19.6106 8.15915H18.8131V8.11806H9.90161V12.0787H15.4975C14.6811 14.3843 12.4874 16.0393 9.90161 16.0393C6.62071 16.0393 3.96064 13.3793 3.96064 10.0984C3.96064 6.81749 6.62071 4.15742 9.90161 4.15742C11.4161 4.15742 12.7939 4.72874 13.8429 5.66197L16.6436 2.8613C14.8752 1.21318 12.5097 0.196777 9.90161 0.196777C4.43344 0.196777 0 4.63022 0 10.0984C0 15.5665 4.43344 20 9.90161 20C15.3698 20 19.8032 15.5665 19.8032 10.0984C19.8032 9.43448 19.7349 8.78642 19.6106 8.15915Z" fill="#FFC107"/>
<path d="M1.1416 5.56829L4.39477 7.95409C5.27503 5.77474 7.40684 4.23603 9.90155 4.23603C11.416 4.23603 12.7938 4.80736 13.8429 5.74058L16.6436 2.93991C14.8751 1.29179 12.5096 0.275391 9.90155 0.275391C6.09835 0.275391 2.80012 2.42255 1.1416 5.56829Z" fill="#FF3D00"/>
<path d="M9.90182 20C12.4594 20 14.7833 19.0212 16.5404 17.4296L13.4758 14.8363C12.4483 15.6178 11.1927 16.0404 9.90182 16.0394C7.32641 16.0394 5.13964 14.3972 4.31583 12.1055L1.08691 14.5932C2.72563 17.7999 6.05356 20 9.90182 20Z" fill="#4CAF50"/>
<path d="M19.6104 8.23836H18.8128V8.19727H9.90137V12.1579H15.4973C15.1067 13.2552 14.4033 14.2141 13.4739 14.916L13.4754 14.915L16.5399 17.5082C16.3231 17.7053 19.803 15.1284 19.803 10.1776C19.803 9.51368 19.7347 8.86562 19.6104 8.23836Z" fill="#1976D2"/>
</svg>
