<svg width="16" height="16" viewBox="0 0 16 16" fill="none" xmlns="http://www.w3.org/2000/svg">
<path d="M6.01956 11.4302L3.91307 9.17404C3.59076 8.8288 3.60232 8.28764 3.94756 7.95395C4.30436 7.63164 4.84534 7.65475 5.16765 8L6.65263 9.57706L10.2439 5.744C10.5778 5.39875 11.1188 5.37564 11.464 5.69795C11.8208 6.03182 11.8324 6.5728 11.5101 6.91804L7.28587 11.4302C7.12481 11.6028 6.89459 11.7065 6.65281 11.7065C6.42241 11.7065 6.18081 11.6028 6.01956 11.4302Z" fill="#1EAE07"/>
<path d="M8 1.72658C6.26187 1.72658 4.69636 2.4288 3.5568 3.56836C2.41724 4.69636 1.72658 6.26187 1.72658 8C1.72658 9.73813 2.41724 11.3036 3.5568 12.4316C4.69636 13.5712 6.26187 14.2734 8 14.2734C9.72658 14.2734 11.2921 13.5712 12.4316 12.4316C13.5712 11.3036 14.2734 9.73813 14.2734 8C14.2734 6.26187 13.5712 4.69636 12.4316 3.56836C11.2921 2.4288 9.72658 1.72658 8 1.72658ZM0 8C0 3.57991 3.57991 0 8 0C12.4201 0 16 3.57991 16 8C16 12.4201 12.4201 16 8 16C3.57991 16 0 12.4201 0 8Z" fill="#1EAE07"/>
</svg>
